<?xml version="1.0" encoding="UTF-8"?>
<!DOCTYPE svg  PUBLIC '-//W3C//DTD SVG 1.1//EN'  'http://www.w3.org/Graphics/SVG/1.1/DTD/svg11.dtd'>
<svg width="1152pt" height="648pt" version="1.1" viewBox="0 0 1152 648" xmlns="http://www.w3.org/2000/svg" xmlns:xlink="http://www.w3.org/1999/xlink">
<defs>
<style type="text/css">*{stroke-linecap:butt;stroke-linejoin:round;}</style>
</defs>
<path d="m0 648h1152v-648h-1152z" fill="#fff"/>
<path d="m69.12 609.12h1048.3v-579.96h-1048.3z" fill="#fff"/>
<path d="m116.77 609.12v-579.96" clip-path="url(#a)" fill="none" stroke="#b0b0b0" stroke-linecap="square" stroke-width=".8"/>
<defs>
<path id="f" d="m0 0v3.5" stroke="#000" stroke-width=".8"/>
</defs>
<use x="116.770909" y="609.12" stroke="#000000" stroke-width=".8" xlink:href="#f"/>
<g transform="translate(104.05 623.72) scale(.1 -.1)">
<defs>
<path id="i" transform="scale(.015625)" d="m794 531h1031v3560l-1122-225v575l1116 225h631v-4135h1031v-531h-2687v531z"/>
<path id="x" transform="scale(.015625)" d="m703 97v575q238-113 481-172 244-59 479-59 625 0 954 420 330 420 377 1277-181-269-460-413-278-144-615-144-700 0-1108 423-408 424-408 1159 0 718 425 1152 425 435 1131 435 810 0 1236-621 427-620 427-1801 0-1103-524-1761-523-658-1407-658-238 0-482 47-243 47-506 141zm1256 1978q425 0 673 290 249 291 249 798 0 503-249 795-248 292-673 292t-673-292-248-795q0-507 248-798 248-290 673-290z"/>
<path id="q" transform="scale(.015625)" d="m691 4666h2478v-532h-1900v-1143q137 47 274 70 138 23 276 23 781 0 1237-428 457-428 457-1159 0-753-469-1171-469-417-1322-417-294 0-599 50-304 50-629 150v635q281-153 581-228t634-75q541 0 856 284 316 284 316 772 0 487-316 771-315 285-856 285-253 0-505-56-251-56-513-175v2344z"/>
</defs>
<use xlink:href="#i"/>
<use x="63.623047" xlink:href="#x"/>
<use x="127.246094" xlink:href="#x"/>
<use x="190.869141" xlink:href="#q"/>
</g>
<path d="m293.26 609.12v-579.96" clip-path="url(#a)" fill="none" stroke="#b0b0b0" stroke-linecap="square" stroke-width=".8"/>
<use x="293.255758" y="609.12" stroke="#000000" stroke-width=".8" xlink:href="#f"/>
<g transform="translate(280.53 623.72) scale(.1 -.1)">
<defs>
<path id="h" transform="scale(.015625)" d="m1228 531h2203v-531h-2962v531q359 372 979 998 621 627 780 809 303 340 423 576 121 236 121 464 0 372-261 606-261 235-680 235-297 0-627-103-329-103-704-313v638q381 153 712 231 332 78 607 78 725 0 1156-363 431-362 431-968 0-288-108-546-107-257-392-607-78-91-497-524-418-433-1181-1211z"/>
<path id="e" transform="scale(.015625)" d="m2034 4250q-487 0-733-480-245-479-245-1442 0-959 245-1439 246-480 733-480 491 0 736 480 246 480 246 1439 0 963-246 1442-245 480-736 480zm0 500q785 0 1199-621 414-620 414-1801 0-1178-414-1799-414-620-1199-620-784 0-1198 620-414 621-414 1799 0 1181 414 1801 414 621 1198 621z"/>
</defs>
<use xlink:href="#h"/>
<use x="63.623047" xlink:href="#e"/>
<use x="127.246094" xlink:href="#e"/>
<use x="190.869141" xlink:href="#e"/>
</g>
<path d="m469.74 609.12v-579.96" clip-path="url(#a)" fill="none" stroke="#b0b0b0" stroke-linecap="square" stroke-width=".8"/>
<use x="469.740606" y="609.12" stroke="#000000" stroke-width=".8" xlink:href="#f"/>
<g transform="translate(457.02 623.72) scale(.1 -.1)">
<use xlink:href="#h"/>
<use x="63.623047" xlink:href="#e"/>
<use x="127.246094" xlink:href="#e"/>
<use x="190.869141" xlink:href="#q"/>
</g>
<path d="m646.23 609.12v-579.96" clip-path="url(#a)" fill="none" stroke="#b0b0b0" stroke-linecap="square" stroke-width=".8"/>
<use x="646.225455" y="609.12" stroke="#000000" stroke-width=".8" xlink:href="#f"/>
<g transform="translate(633.5 623.72) scale(.1 -.1)">
<use xlink:href="#h"/>
<use x="63.623047" xlink:href="#e"/>
<use x="127.246094" xlink:href="#i"/>
<use x="190.869141" xlink:href="#e"/>
</g>
<path d="m822.71 609.12v-579.96" clip-path="url(#a)" fill="none" stroke="#b0b0b0" stroke-linecap="square" stroke-width=".8"/>
<use x="822.710303" y="609.12" stroke="#000000" stroke-width=".8" xlink:href="#f"/>
<g transform="translate(809.99 623.72) scale(.1 -.1)">
<use xlink:href="#h"/>
<use x="63.623047" xlink:href="#e"/>
<use x="127.246094" xlink:href="#i"/>
<use x="190.869141" xlink:href="#q"/>
</g>
<path d="m999.2 609.12v-579.96" clip-path="url(#a)" fill="none" stroke="#b0b0b0" stroke-linecap="square" stroke-width=".8"/>
<use x="999.195152" y="609.12" stroke="#000000" stroke-width=".8" xlink:href="#f"/>
<g transform="translate(986.47 623.72) scale(.1 -.1)">
<use xlink:href="#h"/>
<use x="63.623047" xlink:href="#e"/>
<use x="127.246094" xlink:href="#h"/>
<use x="190.869141" xlink:href="#e"/>
</g>
<path d="m81.474 609.12v-579.96" clip-path="url(#a)" fill="none" stroke="#b0b0b0" stroke-dasharray="2.96,1.28" stroke-width=".8"/>
<defs>
<path id="c" d="m0 0v2" stroke="#000" stroke-width=".6"/>
</defs>
<use x="81.473939" y="609.12" stroke="#000000" stroke-width=".6" xlink:href="#c"/>
<path d="m152.07 609.12v-579.96" clip-path="url(#a)" fill="none" stroke="#b0b0b0" stroke-dasharray="2.96,1.28" stroke-width=".8"/>
<use x="152.067879" y="609.12" stroke="#000000" stroke-width=".6" xlink:href="#c"/>
<path d="m187.36 609.12v-579.96" clip-path="url(#a)" fill="none" stroke="#b0b0b0" stroke-dasharray="2.96,1.28" stroke-width=".8"/>
<use x="187.364848" y="609.12" stroke="#000000" stroke-width=".6" xlink:href="#c"/>
<path d="m222.66 609.12v-579.96" clip-path="url(#a)" fill="none" stroke="#b0b0b0" stroke-dasharray="2.96,1.28" stroke-width=".8"/>
<use x="222.661818" y="609.12" stroke="#000000" stroke-width=".6" xlink:href="#c"/>
<path d="m257.96 609.12v-579.96" clip-path="url(#a)" fill="none" stroke="#b0b0b0" stroke-dasharray="2.96,1.28" stroke-width=".8"/>
<use x="257.958788" y="609.12" stroke="#000000" stroke-width=".6" xlink:href="#c"/>
<path d="m328.55 609.12v-579.96" clip-path="url(#a)" fill="none" stroke="#b0b0b0" stroke-dasharray="2.96,1.28" stroke-width=".8"/>
<use x="328.552727" y="609.12" stroke="#000000" stroke-width=".6" xlink:href="#c"/>
<path d="m363.85 609.12v-579.96" clip-path="url(#a)" fill="none" stroke="#b0b0b0" stroke-dasharray="2.96,1.28" stroke-width=".8"/>
<use x="363.849697" y="609.12" stroke="#000000" stroke-width=".6" xlink:href="#c"/>
<path d="m399.15 609.12v-579.96" clip-path="url(#a)" fill="none" stroke="#b0b0b0" stroke-dasharray="2.96,1.28" stroke-width=".8"/>
<use x="399.146667" y="609.12" stroke="#000000" stroke-width=".6" xlink:href="#c"/>
<path d="m434.44 609.12v-579.96" clip-path="url(#a)" fill="none" stroke="#b0b0b0" stroke-dasharray="2.96,1.28" stroke-width=".8"/>
<use x="434.443636" y="609.12" stroke="#000000" stroke-width=".6" xlink:href="#c"/>
<path d="m505.04 609.12v-579.96" clip-path="url(#a)" fill="none" stroke="#b0b0b0" stroke-dasharray="2.96,1.28" stroke-width=".8"/>
<use x="505.037576" y="609.12" stroke="#000000" stroke-width=".6" xlink:href="#c"/>
<path d="m540.33 609.12v-579.96" clip-path="url(#a)" fill="none" stroke="#b0b0b0" stroke-dasharray="2.96,1.28" stroke-width=".8"/>
<use x="540.334545" y="609.12" stroke="#000000" stroke-width=".6" xlink:href="#c"/>
<path d="m575.63 609.12v-579.96" clip-path="url(#a)" fill="none" stroke="#b0b0b0" stroke-dasharray="2.96,1.28" stroke-width=".8"/>
<use x="575.631515" y="609.12" stroke="#000000" stroke-width=".6" xlink:href="#c"/>
<path d="m610.93 609.12v-579.96" clip-path="url(#a)" fill="none" stroke="#b0b0b0" stroke-dasharray="2.96,1.28" stroke-width=".8"/>
<use x="610.928485" y="609.12" stroke="#000000" stroke-width=".6" xlink:href="#c"/>
<path d="m681.52 609.12v-579.96" clip-path="url(#a)" fill="none" stroke="#b0b0b0" stroke-dasharray="2.96,1.28" stroke-width=".8"/>
<use x="681.522424" y="609.12" stroke="#000000" stroke-width=".6" xlink:href="#c"/>
<path d="m716.82 609.12v-579.96" clip-path="url(#a)" fill="none" stroke="#b0b0b0" stroke-dasharray="2.96,1.28" stroke-width=".8"/>
<use x="716.819394" y="609.12" stroke="#000000" stroke-width=".6" xlink:href="#c"/>
<path d="m752.12 609.12v-579.96" clip-path="url(#a)" fill="none" stroke="#b0b0b0" stroke-dasharray="2.96,1.28" stroke-width=".8"/>
<use x="752.116364" y="609.12" stroke="#000000" stroke-width=".6" xlink:href="#c"/>
<path d="m787.41 609.12v-579.96" clip-path="url(#a)" fill="none" stroke="#b0b0b0" stroke-dasharray="2.96,1.28" stroke-width=".8"/>
<use x="787.413333" y="609.12" stroke="#000000" stroke-width=".6" xlink:href="#c"/>
<path d="m858.01 609.12v-579.96" clip-path="url(#a)" fill="none" stroke="#b0b0b0" stroke-dasharray="2.96,1.28" stroke-width=".8"/>
<use x="858.007273" y="609.12" stroke="#000000" stroke-width=".6" xlink:href="#c"/>
<path d="m893.3 609.12v-579.96" clip-path="url(#a)" fill="none" stroke="#b0b0b0" stroke-dasharray="2.96,1.28" stroke-width=".8"/>
<use x="893.304242" y="609.12" stroke="#000000" stroke-width=".6" xlink:href="#c"/>
<path d="m928.6 609.12v-579.96" clip-path="url(#a)" fill="none" stroke="#b0b0b0" stroke-dasharray="2.96,1.28" stroke-width=".8"/>
<use x="928.601212" y="609.12" stroke="#000000" stroke-width=".6" xlink:href="#c"/>
<path d="m963.9 609.12v-579.96" clip-path="url(#a)" fill="none" stroke="#b0b0b0" stroke-dasharray="2.96,1.28" stroke-width=".8"/>
<use x="963.898182" y="609.12" stroke="#000000" stroke-width=".6" xlink:href="#c"/>
<path d="m1034.5 609.12v-579.96" clip-path="url(#a)" fill="none" stroke="#b0b0b0" stroke-dasharray="2.96,1.28" stroke-width=".8"/>
<use x="1034.492121" y="609.12" stroke="#000000" stroke-width=".6" xlink:href="#c"/>
<path d="m1069.8 609.12v-579.96" clip-path="url(#a)" fill="none" stroke="#b0b0b0" stroke-dasharray="2.96,1.28" stroke-width=".8"/>
<use x="1069.789091" y="609.12" stroke="#000000" stroke-width=".6" xlink:href="#c"/>
<path d="m1105.1 609.12v-579.96" clip-path="url(#a)" fill="none" stroke="#b0b0b0" stroke-dasharray="2.96,1.28" stroke-width=".8"/>
<use x="1105.086061" y="609.12" stroke="#000000" stroke-width=".6" xlink:href="#c"/>
<g transform="translate(570.23 640.44) scale(.14 -.14)">
<defs>
<path id="ae" transform="scale(.015625)" d="m1259 2228v-1709h1013q509 0 754 211 246 211 246 645 0 438-246 645-245 208-754 208h-1013zm0 1919v-1406h935q462 0 688 173 227 174 227 530 0 353-227 528-226 175-688 175h-935zm-631 519h1613q722 0 1112-300 391-300 391-853 0-429-200-682t-588-315q466-100 724-418 258-317 258-792 0-625-425-966-425-340-1210-340h-1675v4666z"/>
<path id="m" transform="scale(.015625)" d="m1159 525v-1856h-578v4831h578v-531q182 312 458 463 277 152 661 152 638 0 1036-506 399-506 399-1331t-399-1332q-398-506-1036-506-384 0-661 152-276 152-458 464zm1957 1222q0 634-261 995t-717 361q-457 0-718-361t-261-995 261-995 718-361q456 0 717 361t261 995z"/>
<path id="p" transform="scale(.015625)" d="m3597 1894v-281h-2644q38-594 358-905t892-311q331 0 642 81t618 244v-544q-310-131-635-200t-659-69q-838 0-1327 487-489 488-489 1320 0 859 464 1363 464 505 1252 505 706 0 1117-455 411-454 411-1235zm-575 169q-6 471-264 752-258 282-683 282-481 0-770-272t-333-766l2050 4z"/>
<path id="v" transform="scale(.015625)" d="m581 3500h841l994-2344 997 2344h834v-3500h-578v2950l-966-2278h-575l-969 2278v-2950h-578v3500z"/>
<path id="y" transform="scale(.015625)" d="m1181 2491q0-260 200-407 200-146 572-146h775v1103h-775q-372 0-572-144t-200-406zm-818-2491 1068 1534q-362 82-603 296-240 214-240 661 0 506 335 757 336 252 1015 252h1368v-3500h-578v1478h-715l-1032-1478h-618z"/>
</defs>
<use xlink:href="#ae"/>
<use x="68.603516" xlink:href="#m"/>
<use x="132.080078" xlink:href="#p"/>
<use x="193.603516" xlink:href="#v"/>
<use x="269.042969" xlink:href="#y"/>
</g>
<path d="m69.12 593.46h1048.3" clip-path="url(#a)" fill="none" stroke="#b0b0b0" stroke-linecap="square" stroke-width=".8"/>
<defs>
<path id="r" d="m0 0h-3.5" stroke="#000" stroke-width=".8"/>
</defs>
<use x="69.12" y="593.460597" stroke="#000000" stroke-width=".8" xlink:href="#r"/>
<g transform="translate(44.52 597.26) scale(.1 -.1)">
<defs>
<path id="ag" transform="scale(.015625)" d="m2597 2516q453-97 707-404 255-306 255-756 0-690-475-1069-475-378-1350-378-293 0-604 58t-642 174v609q262-153 574-231 313-78 654-78 593 0 904 234t311 681q0 413-289 645-289 233-804 233h-544v519h569q465 0 712 186t247 536q0 359-255 551-254 193-729 193-260 0-557-57-297-56-653-174v562q360 100 674 150t592 50q719 0 1137-327 419-326 419-882 0-388-222-655t-631-370z"/>
</defs>
<use transform="translate(0 .76562)" xlink:href="#i"/>
<use transform="translate(63.623 .76562)" xlink:href="#e"/>
<use transform="translate(128.2 39.047) scale(.7)" xlink:href="#ag"/>
</g>
<path d="m69.12 329.87h1048.3" clip-path="url(#a)" fill="none" stroke="#b0b0b0" stroke-linecap="square" stroke-width=".8"/>
<use x="69.12" y="329.869516" stroke="#000000" stroke-width=".8" xlink:href="#r"/>
<g transform="translate(44.52 333.67) scale(.1 -.1)">
<defs>
<path id="af" transform="scale(.015625)" d="m2419 4116-1594-2491h1594v2491zm-166 550h794v-3041h666v-525h-666v-1100h-628v1100h-2106v609l1940 2957z"/>
</defs>
<use transform="translate(0 .68438)" xlink:href="#i"/>
<use transform="translate(63.623 .68438)" xlink:href="#e"/>
<use transform="translate(128.2 38.966) scale(.7)" xlink:href="#af"/>
</g>
<path d="m69.12 66.278h1048.3" clip-path="url(#a)" fill="none" stroke="#b0b0b0" stroke-linecap="square" stroke-width=".8"/>
<use x="69.12" y="66.278435" stroke="#000000" stroke-width=".8" xlink:href="#r"/>
<g transform="translate(44.52 70.078) scale(.1 -.1)">
<use transform="translate(0 .68438)" xlink:href="#i"/>
<use transform="translate(63.623 .68438)" xlink:href="#e"/>
<use transform="translate(128.2 38.966) scale(.7)" xlink:href="#q"/>
</g>
<path d="m69.12 605.52h1048.3" clip-path="url(#a)" fill="none" stroke="#b0b0b0" stroke-dasharray="2.96,1.28" stroke-width=".8"/>
<defs>
<path id="d" d="m0 0h-2" stroke="#000" stroke-width=".6"/>
</defs>
<use x="69.12" y="605.521863" stroke="#000000" stroke-width=".6" xlink:href="#d"/>
<path d="m69.12 514.11h1048.3" clip-path="url(#a)" fill="none" stroke="#b0b0b0" stroke-dasharray="2.96,1.28" stroke-width=".8"/>
<use x="69.12" y="514.111775" stroke="#000000" stroke-width=".6" xlink:href="#d"/>
<path d="m69.12 467.7h1048.3" clip-path="url(#a)" fill="none" stroke="#b0b0b0" stroke-dasharray="2.96,1.28" stroke-width=".8"/>
<use x="69.12" y="467.695689" stroke="#000000" stroke-width=".6" xlink:href="#d"/>
<path d="m69.12 434.76h1048.3" clip-path="url(#a)" fill="none" stroke="#b0b0b0" stroke-dasharray="2.96,1.28" stroke-width=".8"/>
<use x="69.12" y="434.762953" stroke="#000000" stroke-width=".6" xlink:href="#d"/>
<path d="m69.12 409.22h1048.3" clip-path="url(#a)" fill="none" stroke="#b0b0b0" stroke-dasharray="2.96,1.28" stroke-width=".8"/>
<use x="69.12" y="409.218338" stroke="#000000" stroke-width=".6" xlink:href="#d"/>
<path d="m69.12 388.35h1048.3" clip-path="url(#a)" fill="none" stroke="#b0b0b0" stroke-dasharray="2.96,1.28" stroke-width=".8"/>
<use x="69.12" y="388.346867" stroke="#000000" stroke-width=".6" xlink:href="#d"/>
<path d="m69.12 370.7h1048.3" clip-path="url(#a)" fill="none" stroke="#b0b0b0" stroke-dasharray="2.96,1.28" stroke-width=".8"/>
<use x="69.12" y="370.700291" stroke="#000000" stroke-width=".6" xlink:href="#d"/>
<path d="m69.12 355.41h1048.3" clip-path="url(#a)" fill="none" stroke="#b0b0b0" stroke-dasharray="2.96,1.28" stroke-width=".8"/>
<use x="69.12" y="355.414131" stroke="#000000" stroke-width=".6" xlink:href="#d"/>
<path d="m69.12 341.93h1048.3" clip-path="url(#a)" fill="none" stroke="#b0b0b0" stroke-dasharray="2.96,1.28" stroke-width=".8"/>
<use x="69.12" y="341.930782" stroke="#000000" stroke-width=".6" xlink:href="#d"/>
<path d="m69.12 250.52h1048.3" clip-path="url(#a)" fill="none" stroke="#b0b0b0" stroke-dasharray="2.96,1.28" stroke-width=".8"/>
<use x="69.12" y="250.520694" stroke="#000000" stroke-width=".6" xlink:href="#d"/>
<path d="m69.12 204.1h1048.3" clip-path="url(#a)" fill="none" stroke="#b0b0b0" stroke-dasharray="2.96,1.28" stroke-width=".8"/>
<use x="69.12" y="204.104608" stroke="#000000" stroke-width=".6" xlink:href="#d"/>
<path d="m69.12 171.17h1048.3" clip-path="url(#a)" fill="none" stroke="#b0b0b0" stroke-dasharray="2.96,1.28" stroke-width=".8"/>
<use x="69.12" y="171.171872" stroke="#000000" stroke-width=".6" xlink:href="#d"/>
<path d="m69.12 145.63h1048.3" clip-path="url(#a)" fill="none" stroke="#b0b0b0" stroke-dasharray="2.96,1.28" stroke-width=".8"/>
<use x="69.12" y="145.627257" stroke="#000000" stroke-width=".6" xlink:href="#d"/>
<path d="m69.12 124.76h1048.3" clip-path="url(#a)" fill="none" stroke="#b0b0b0" stroke-dasharray="2.96,1.28" stroke-width=".8"/>
<use x="69.12" y="124.755786" stroke="#000000" stroke-width=".6" xlink:href="#d"/>
<path d="m69.12 107.11h1048.3" clip-path="url(#a)" fill="none" stroke="#b0b0b0" stroke-dasharray="2.96,1.28" stroke-width=".8"/>
<use x="69.12" y="107.10921" stroke="#000000" stroke-width=".6" xlink:href="#d"/>
<path d="m69.12 91.823h1048.3" clip-path="url(#a)" fill="none" stroke="#b0b0b0" stroke-dasharray="2.96,1.28" stroke-width=".8"/>
<use x="69.12" y="91.82305" stroke="#000000" stroke-width=".6" xlink:href="#d"/>
<path d="m69.12 78.34h1048.3" clip-path="url(#a)" fill="none" stroke="#b0b0b0" stroke-dasharray="2.96,1.28" stroke-width=".8"/>
<use x="69.12" y="78.339701" stroke="#000000" stroke-width=".6" xlink:href="#d"/>
<g transform="translate(37.608 446.47) rotate(-90) scale(.14 -.14)">
<defs>
<path id="ac" transform="scale(.015625)" d="m628 4666h631v-2307l2257 2307h809l-1803-1844 1897-2822h-688l-1618 2403-854-872v-1531h-631v4666z"/>
<path id="g" transform="scale(.015625)" d="m1959 3097q-462 0-731-361t-269-989 267-989q268-361 733-361 460 0 728 362 269 363 269 988 0 622-269 986-268 364-728 364zm0 487q750 0 1178-488 429-487 429-1349 0-859-429-1349-428-489-1178-489-753 0-1180 489-426 490-426 1349 0 862 426 1349 427 488 1180 488z"/>
<path id="aa" transform="scale(.015625)" d="m238 0v478q568 88 743 481 213 554 213 1969v572h2365v-3500h-575v3041h-1215v-347q0-1350-275-1956-294-647-1256-738z"/>
<path id="o" transform="scale(.015625)" d="m3578 3500v-3500h-572v2809l-1687-2809h-738v3500h572v-2803l1685 2803h740z"/>
<path id="z" transform="scale(.015625)" d="m2625 0v1472h-1072q-478 0-797 297-287 269-287 844v887h575v-834q0-366 162-550 166-185 491-185h928v1569h575v-3500h-575z"/>
<path id="s" transform="scale(.015625)" d="m3122 3366v-538q-244 135-489 202t-495 67q-560 0-870-355-309-354-309-995t309-996q310-354 870-354 250 0 495 67t489 202v-532q-241-112-499-168-257-57-548-57-791 0-1257 497-465 497-465 1341 0 856 470 1346 471 491 1290 491 265 0 518-55 253-54 491-163z"/>
<path id="l" transform="scale(.015625)" d="m188 3500h3353v-459h-1394v-3041h-566v3041h-1393v459z"/>
<path id="n" transform="scale(.015625)" d="m1156 1613v-1154h819q394 0 600 148 206 149 206 431 0 281-206 428t-600 147h-819zm0 1428v-969h757q325 0 531 129 206 130 206 362 0 231-206 354-206 124-531 124h-757zm-575 459h1369q616 0 947-225t331-641q0-321-169-511-168-189-500-235 397-75 616-313 219-237 219-594 0-468-361-725-361-256-1030-256h-1422v3500z"/>
<path id="u" transform="scale(.015625)" d="m581 3500h572v-1644l1622 1644h706l-1337-1353 1509-2147h-644l-1240 1766-616-625v-1141h-572v3500z"/>
<path id="j" transform="scale(.015625)" d="m3907 3500h575v-3500h-575v3500zm288 84zm-1414-2546q0 281-205 428-204 147-598 147h-819v-1154h819q394 0 598 148 205 149 205 431zm-2200 2462h578v-1428h844q669 0 1030-255 361-254 361-779t-361-782q-361-256-1030-256h-1422v3500z"/>
<path id="k" transform="scale(.015625)" d="m3513 3500-1266-1703 1331-1797h-678l-1019 1375-1018-1375h-679l1360 1831-1244 1669h678l928-1247 928 1247h679z"/>
<path id="t" transform="scale(.015625)" d="m581 3500h578v-1428h1866v1428h578v-3500h-578v1613h-1866v-1613h-578v3500z"/>
</defs>
<use xlink:href="#ac"/>
<use x="70.996094" xlink:href="#g"/>
<use x="132.177734" xlink:href="#aa"/>
<use x="196.09375" xlink:href="#o"/>
<use x="261.083984" xlink:href="#z"/>
<use x="320.166016" xlink:href="#p"/>
<use x="381.689453" xlink:href="#s"/>
<use x="436.669922" xlink:href="#l"/>
<use x="494.921875" xlink:href="#n"/>
<use x="553.857422" xlink:href="#g"/>
<use x="615.039062" xlink:href="#DejaVuSans-20"/>
<use x="646.826172" xlink:href="#g"/>
<use x="708.007812" xlink:href="#l"/>
<use x="766.259766" xlink:href="#u"/>
<use x="826.660156" xlink:href="#m"/>
<use x="890.136719" xlink:href="#j"/>
<use x="969.091797" xlink:href="#l"/>
<use x="1027.34375" xlink:href="#j"/>
<use x="1106.298828" xlink:href="#k"/>
<use x="1165.478516" xlink:href="#DejaVuSans-20"/>
<use x="1197.265625" xlink:href="#s"/>
<use x="1252.246094" xlink:href="#n"/>
<use x="1311.181641" xlink:href="#p"/>
<use x="1372.705078" xlink:href="#m"/>
<use x="1436.181641" xlink:href="#k"/>
<use x="1495.361328" xlink:href="#t"/>
<use x="1560.742188" xlink:href="#g"/>
<use x="1621.923828" xlink:href="#n"/>
<use x="1680.859375" xlink:href="#j"/>
<use x="1759.814453" xlink:href="#k"/>
</g>
<path d="m116.77 582.76 35.297-10.074 35.297-14.592 35.297-12.865 35.297-14.249 35.297-12.313 35.297-17.015 35.297-16.778 35.297-15.524 35.297-12.563 35.297-12.601 35.297-16.118 35.297-15.266 35.297-11.391 35.297-11.371 35.297-10.872 35.297-14.936 35.297-15.284 35.297-19.271 35.297-21.01 35.297-29.37 35.297-44.074 35.297-33.622 35.297-26.298 35.297-39.935 35.297-34.677 35.297-28.702 35.297-16.465" clip-path="url(#a)" fill="none" stroke="#000" stroke-linecap="square" stroke-width="1.5"/>
<defs>
<path id="b" d="m0 3c0.79561 0 1.5587-0.3161 2.1213-0.87868 0.56258-0.56258 0.87868-1.3257 0.87868-2.1213s-0.3161-1.5587-0.87868-2.1213c-0.56258-0.56258-1.3257-0.87868-2.1213-0.87868s-1.5587 0.3161-2.1213 0.87868c-0.56258 0.56258-0.87868 1.3257-0.87868 2.1213s0.3161 1.5587 0.87868 2.1213c0.56258 0.56258 1.3257 0.87868 2.1213 0.87868z" stroke="#000"/>
</defs>
<g clip-path="url(#a)" stroke="#000000">
<use x="116.770909" y="582.758182" xlink:href="#b"/>
<use x="152.067879" y="572.684563" xlink:href="#b"/>
<use x="187.364848" y="558.092708" xlink:href="#b"/>
<use x="222.661818" y="545.227391" xlink:href="#b"/>
<use x="257.958788" y="530.978758" xlink:href="#b"/>
<use x="293.255758" y="518.665736" xlink:href="#b"/>
<use x="328.552727" y="501.650541" xlink:href="#b"/>
<use x="363.849697" y="484.872606" xlink:href="#b"/>
<use x="399.146667" y="469.348387" xlink:href="#b"/>
<use x="434.443636" y="456.784947" xlink:href="#b"/>
<use x="469.740606" y="444.183795" xlink:href="#b"/>
<use x="505.037576" y="428.065556" xlink:href="#b"/>
<use x="540.334545" y="412.799643" xlink:href="#b"/>
<use x="575.631515" y="401.408862" xlink:href="#b"/>
<use x="610.928485" y="390.038285" xlink:href="#b"/>
<use x="646.225455" y="379.166276" xlink:href="#b"/>
<use x="681.522424" y="364.230631" xlink:href="#b"/>
<use x="716.819394" y="348.946403" xlink:href="#b"/>
<use x="752.116364" y="329.675071" xlink:href="#b"/>
<use x="787.413333" y="308.664643" xlink:href="#b"/>
<use x="822.710303" y="279.294291" xlink:href="#b"/>
<use x="858.007273" y="235.220225" xlink:href="#b"/>
<use x="893.304242" y="201.598503" xlink:href="#b"/>
<use x="928.601212" y="175.300762" xlink:href="#b"/>
<use x="963.898182" y="135.365662" xlink:href="#b"/>
<use x="999.195152" y="100.689017" xlink:href="#b"/>
<use x="1034.492121" y="71.986529" xlink:href="#b"/>
<use x="1069.789091" y="55.521818" xlink:href="#b"/>
</g>
<path d="m69.12 609.12v-579.96" fill="none" stroke="#000" stroke-linecap="square" stroke-width=".8"/>
<path d="m1117.4 609.12v-579.96" fill="none" stroke="#000" stroke-linecap="square" stroke-width=".8"/>
<path d="m69.12 609.12h1048.3" fill="none" stroke="#000" stroke-linecap="square" stroke-width=".8"/>
<path d="m69.12 29.16h1048.3" fill="none" stroke="#000" stroke-linecap="square" stroke-width=".8"/>
<g transform="translate(455.06 23.16) scale(.16 -.16)">
<defs>
<path id="ad" transform="scale(.015625)" d="m1459 531h2063v3603h-1516v-662q0-1559-350-2594-72-212-197-347zm-921 0q418 197 537 572 303 963 303 2681v882h2775v-4135h531v-1534h-531v1003h-3306v-1003h-531v1534h222z"/>
<path id="w" transform="scale(.015625)" d="m2194 1759q-697 0-966-159t-269-544q0-306 202-486 202-179 548-179 479 0 768 339t289 901v128h-572zm1147 238v-1997h-575v531q-197-318-491-470t-719-152q-537 0-855 302-317 302-317 808 0 590 395 890 396 300 1180 300h807v57q0 397-261 614t-733 217q-300 0-585-72-284-72-546-216v532q315 122 612 182 297 61 578 61 760 0 1135-394 375-393 375-1193z"/>
<path id="ab" transform="scale(.015625)" d="m3578 3500v-3500h-572v2809l-1687-2809h-738v3500h572v-2803l1685 2803h740zm-2476 1333h369q34-234 185-352 152-117 424-117 269 0 419 116t190 353h369q-31-447-278-672t-700-225-700 225-278 672z"/>
</defs>
<use xlink:href="#ad"/>
<use x="78.125" xlink:href="#o"/>
<use x="143.115234" xlink:href="#t"/>
<use x="208.496094" xlink:href="#w"/>
<use x="269.775391" xlink:href="#v"/>
<use x="345.214844" xlink:href="#o"/>
<use x="410.205078" xlink:href="#u"/>
<use x="470.605469" xlink:href="#w"/>
<use x="531.884766" xlink:href="#DejaVuSans-20"/>
<use x="563.671875" xlink:href="#g"/>
<use x="624.853516" xlink:href="#l"/>
<use x="683.105469" xlink:href="#u"/>
<use x="743.505859" xlink:href="#m"/>
<use x="806.982422" xlink:href="#j"/>
<use x="885.9375" xlink:href="#l"/>
<use x="944.189453" xlink:href="#o"/>
<use x="1009.179688" xlink:href="#ab"/>
<use x="1074.169922" xlink:href="#DejaVuSans-20"/>
<use x="1105.957031" xlink:href="#s"/>
<use x="1160.9375" xlink:href="#n"/>
<use x="1219.873047" xlink:href="#p"/>
<use x="1281.396484" xlink:href="#m"/>
<use x="1344.873047" xlink:href="#k"/>
<use x="1404.052734" xlink:href="#t"/>
<use x="1469.433594" xlink:href="#g"/>
<use x="1530.615234" xlink:href="#n"/>
<use x="1589.550781" xlink:href="#j"/>
<use x="1668.505859" xlink:href="#k"/>
</g>
<defs>
<clipPath id="a">
<rect x="69.12" y="29.16" width="1048.3" height="579.96"/>
</clipPath>
</defs>
</svg>
