<?xml version="1.0" encoding="UTF-8"?>
<!DOCTYPE svg  PUBLIC '-//W3C//DTD SVG 1.1//EN'  'http://www.w3.org/Graphics/SVG/1.1/DTD/svg11.dtd'>
<svg width="1152pt" height="648pt" version="1.1" viewBox="0 0 1152 648" xmlns="http://www.w3.org/2000/svg" xmlns:xlink="http://www.w3.org/1999/xlink">
<defs>
<style type="text/css">*{stroke-linecap:butt;stroke-linejoin:round;}</style>
</defs>
<path d="m0 648h1152v-648h-1152z" fill="#fff"/>
<path d="m69.12 609.12h1048.3v-579.96h-1048.3z" fill="#fff"/>
<path d="m116.77 609.12v-579.96" clip-path="url(#a)" fill="none" stroke="#b0b0b0" stroke-linecap="square" stroke-width=".8"/>
<defs>
<path id="f" d="m0 0v3.5" stroke="#000" stroke-width=".8"/>
</defs>
<use x="116.770909" y="609.12" stroke="#000000" stroke-width=".8" xlink:href="#f"/>
<g transform="translate(104.05 623.72) scale(.1 -.1)">
<defs>
<path id="h" d="m12.406 8.2969h16.109v55.625l-17.531-3.5156v8.9844l17.438 3.5156h9.8594v-64.609h16.109v-8.2969h-41.984z"/>
<path id="v" d="m10.984 1.5156v8.9844q3.7188-1.7656 7.5156-2.6875 3.8125-0.92188 7.4844-0.92188 9.7656 0 14.906 6.5625 5.1562 6.5625 5.8906 19.953-2.8281-4.2031-7.1875-6.4531-4.3438-2.25-9.6094-2.25-10.938 0-17.312 6.6094-6.375 6.625-6.375 18.109 0 11.219 6.6406 18 6.6406 6.7969 17.672 6.7969 12.656 0 19.312-9.7031 6.6719-9.6875 6.6719-28.141 0-17.234-8.1875-27.516-8.1719-10.281-21.984-10.281-3.7188 0-7.5312 0.73438-3.7969 0.73438-7.9062 2.2031zm19.625 30.906q6.6406 0 10.516 4.5312 3.8906 4.5469 3.8906 12.469 0 7.8594-3.8906 12.422-3.875 4.5625-10.516 4.5625t-10.516-4.5625-3.875-12.422q0-7.9219 3.875-12.469 3.875-4.5312 10.516-4.5312z"/>
<path id="o" d="m10.797 72.906h38.719v-8.3125h-29.688v-17.859q2.1406 0.73438 4.2812 1.0938 2.1562 0.35938 4.3125 0.35938 12.203 0 19.328-6.6875 7.1406-6.6875 7.1406-18.109 0-11.766-7.3281-18.297-7.3281-6.5156-20.656-6.5156-4.5938 0-9.3594 0.78125-4.75 0.78125-9.8281 2.3438v9.9219q4.3906-2.3906 9.0781-3.5625t9.9062-1.1719q8.4531 0 13.375 4.4375 4.9375 4.4375 4.9375 12.062 0 7.6094-4.9375 12.047-4.9219 4.4531-13.375 4.4531-3.9531 0-7.8906-0.875-3.9219-0.875-8.0156-2.7344z"/>
</defs>
<use xlink:href="#h"/>
<use x="63.623047" xlink:href="#v"/>
<use x="127.246094" xlink:href="#v"/>
<use x="190.869141" xlink:href="#o"/>
</g>
<path d="m293.26 609.12v-579.96" clip-path="url(#a)" fill="none" stroke="#b0b0b0" stroke-linecap="square" stroke-width=".8"/>
<use x="293.255758" y="609.12" stroke="#000000" stroke-width=".8" xlink:href="#f"/>
<g transform="translate(280.53 623.72) scale(.1 -.1)">
<defs>
<path id="g" d="m19.188 8.2969h34.422v-8.2969h-46.281v8.2969q5.6094 5.8125 15.297 15.594 9.7031 9.7969 12.188 12.641 4.7344 5.3125 6.6094 9 1.8906 3.6875 1.8906 7.25 0 5.8125-4.0781 9.4688-4.0781 3.6719-10.625 3.6719-4.6406 0-9.7969-1.6094-5.1406-1.6094-11-4.8906v9.9688q5.9531 2.3906 11.125 3.6094 5.1875 1.2188 9.4844 1.2188 11.328 0 18.062-5.6719 6.7344-5.6562 6.7344-15.125 0-4.5-1.6875-8.5312-1.6719-4.0156-6.125-9.4844-1.2188-1.4219-7.7656-8.1875-6.5312-6.7656-18.453-18.922z"/>
<path id="e" d="m31.781 66.406q-7.6094 0-11.453-7.5-3.8281-7.4844-3.8281-22.531 0-14.984 3.8281-22.484 3.8438-7.5 11.453-7.5 7.6719 0 11.5 7.5 3.8438 7.5 3.8438 22.484 0 15.047-3.8438 22.531-3.8281 7.5-11.5 7.5zm0 7.8125q12.266 0 18.734-9.7031 6.4688-9.6875 6.4688-28.141 0-18.406-6.4688-28.109-6.4688-9.6875-18.734-9.6875-12.25 0-18.719 9.6875-6.4688 9.7031-6.4688 28.109 0 18.453 6.4688 28.141 6.4688 9.7031 18.719 9.7031z"/>
</defs>
<use xlink:href="#g"/>
<use x="63.623047" xlink:href="#e"/>
<use x="127.246094" xlink:href="#e"/>
<use x="190.869141" xlink:href="#e"/>
</g>
<path d="m469.74 609.12v-579.96" clip-path="url(#a)" fill="none" stroke="#b0b0b0" stroke-linecap="square" stroke-width=".8"/>
<use x="469.740606" y="609.12" stroke="#000000" stroke-width=".8" xlink:href="#f"/>
<g transform="translate(457.02 623.72) scale(.1 -.1)">
<use xlink:href="#g"/>
<use x="63.623047" xlink:href="#e"/>
<use x="127.246094" xlink:href="#e"/>
<use x="190.869141" xlink:href="#o"/>
</g>
<path d="m646.23 609.12v-579.96" clip-path="url(#a)" fill="none" stroke="#b0b0b0" stroke-linecap="square" stroke-width=".8"/>
<use x="646.225455" y="609.12" stroke="#000000" stroke-width=".8" xlink:href="#f"/>
<g transform="translate(633.5 623.72) scale(.1 -.1)">
<use xlink:href="#g"/>
<use x="63.623047" xlink:href="#e"/>
<use x="127.246094" xlink:href="#h"/>
<use x="190.869141" xlink:href="#e"/>
</g>
<path d="m822.71 609.12v-579.96" clip-path="url(#a)" fill="none" stroke="#b0b0b0" stroke-linecap="square" stroke-width=".8"/>
<use x="822.710303" y="609.12" stroke="#000000" stroke-width=".8" xlink:href="#f"/>
<g transform="translate(809.99 623.72) scale(.1 -.1)">
<use xlink:href="#g"/>
<use x="63.623047" xlink:href="#e"/>
<use x="127.246094" xlink:href="#h"/>
<use x="190.869141" xlink:href="#o"/>
</g>
<path d="m999.2 609.12v-579.96" clip-path="url(#a)" fill="none" stroke="#b0b0b0" stroke-linecap="square" stroke-width=".8"/>
<use x="999.195152" y="609.12" stroke="#000000" stroke-width=".8" xlink:href="#f"/>
<g transform="translate(986.47 623.72) scale(.1 -.1)">
<use xlink:href="#g"/>
<use x="63.623047" xlink:href="#e"/>
<use x="127.246094" xlink:href="#g"/>
<use x="190.869141" xlink:href="#e"/>
</g>
<path d="m81.474 609.12v-579.96" clip-path="url(#a)" fill="none" stroke="#b0b0b0" stroke-dasharray="2.96,1.28" stroke-width=".8"/>
<defs>
<path id="c" d="m0 0v2" stroke="#000" stroke-width=".6"/>
</defs>
<use x="81.473939" y="609.12" stroke="#000000" stroke-width=".6" xlink:href="#c"/>
<path d="m152.07 609.12v-579.96" clip-path="url(#a)" fill="none" stroke="#b0b0b0" stroke-dasharray="2.96,1.28" stroke-width=".8"/>
<use x="152.067879" y="609.12" stroke="#000000" stroke-width=".6" xlink:href="#c"/>
<path d="m187.36 609.12v-579.96" clip-path="url(#a)" fill="none" stroke="#b0b0b0" stroke-dasharray="2.96,1.28" stroke-width=".8"/>
<use x="187.364848" y="609.12" stroke="#000000" stroke-width=".6" xlink:href="#c"/>
<path d="m222.66 609.12v-579.96" clip-path="url(#a)" fill="none" stroke="#b0b0b0" stroke-dasharray="2.96,1.28" stroke-width=".8"/>
<use x="222.661818" y="609.12" stroke="#000000" stroke-width=".6" xlink:href="#c"/>
<path d="m257.96 609.12v-579.96" clip-path="url(#a)" fill="none" stroke="#b0b0b0" stroke-dasharray="2.96,1.28" stroke-width=".8"/>
<use x="257.958788" y="609.12" stroke="#000000" stroke-width=".6" xlink:href="#c"/>
<path d="m328.55 609.12v-579.96" clip-path="url(#a)" fill="none" stroke="#b0b0b0" stroke-dasharray="2.96,1.28" stroke-width=".8"/>
<use x="328.552727" y="609.12" stroke="#000000" stroke-width=".6" xlink:href="#c"/>
<path d="m363.85 609.12v-579.96" clip-path="url(#a)" fill="none" stroke="#b0b0b0" stroke-dasharray="2.96,1.28" stroke-width=".8"/>
<use x="363.849697" y="609.12" stroke="#000000" stroke-width=".6" xlink:href="#c"/>
<path d="m399.15 609.12v-579.96" clip-path="url(#a)" fill="none" stroke="#b0b0b0" stroke-dasharray="2.96,1.28" stroke-width=".8"/>
<use x="399.146667" y="609.12" stroke="#000000" stroke-width=".6" xlink:href="#c"/>
<path d="m434.44 609.12v-579.96" clip-path="url(#a)" fill="none" stroke="#b0b0b0" stroke-dasharray="2.96,1.28" stroke-width=".8"/>
<use x="434.443636" y="609.12" stroke="#000000" stroke-width=".6" xlink:href="#c"/>
<path d="m505.04 609.12v-579.96" clip-path="url(#a)" fill="none" stroke="#b0b0b0" stroke-dasharray="2.96,1.28" stroke-width=".8"/>
<use x="505.037576" y="609.12" stroke="#000000" stroke-width=".6" xlink:href="#c"/>
<path d="m540.33 609.12v-579.96" clip-path="url(#a)" fill="none" stroke="#b0b0b0" stroke-dasharray="2.96,1.28" stroke-width=".8"/>
<use x="540.334545" y="609.12" stroke="#000000" stroke-width=".6" xlink:href="#c"/>
<path d="m575.63 609.12v-579.96" clip-path="url(#a)" fill="none" stroke="#b0b0b0" stroke-dasharray="2.96,1.28" stroke-width=".8"/>
<use x="575.631515" y="609.12" stroke="#000000" stroke-width=".6" xlink:href="#c"/>
<path d="m610.93 609.12v-579.96" clip-path="url(#a)" fill="none" stroke="#b0b0b0" stroke-dasharray="2.96,1.28" stroke-width=".8"/>
<use x="610.928485" y="609.12" stroke="#000000" stroke-width=".6" xlink:href="#c"/>
<path d="m681.52 609.12v-579.96" clip-path="url(#a)" fill="none" stroke="#b0b0b0" stroke-dasharray="2.96,1.28" stroke-width=".8"/>
<use x="681.522424" y="609.12" stroke="#000000" stroke-width=".6" xlink:href="#c"/>
<path d="m716.82 609.12v-579.96" clip-path="url(#a)" fill="none" stroke="#b0b0b0" stroke-dasharray="2.96,1.28" stroke-width=".8"/>
<use x="716.819394" y="609.12" stroke="#000000" stroke-width=".6" xlink:href="#c"/>
<path d="m752.12 609.12v-579.96" clip-path="url(#a)" fill="none" stroke="#b0b0b0" stroke-dasharray="2.96,1.28" stroke-width=".8"/>
<use x="752.116364" y="609.12" stroke="#000000" stroke-width=".6" xlink:href="#c"/>
<path d="m787.41 609.12v-579.96" clip-path="url(#a)" fill="none" stroke="#b0b0b0" stroke-dasharray="2.96,1.28" stroke-width=".8"/>
<use x="787.413333" y="609.12" stroke="#000000" stroke-width=".6" xlink:href="#c"/>
<path d="m858.01 609.12v-579.96" clip-path="url(#a)" fill="none" stroke="#b0b0b0" stroke-dasharray="2.96,1.28" stroke-width=".8"/>
<use x="858.007273" y="609.12" stroke="#000000" stroke-width=".6" xlink:href="#c"/>
<path d="m893.3 609.12v-579.96" clip-path="url(#a)" fill="none" stroke="#b0b0b0" stroke-dasharray="2.96,1.28" stroke-width=".8"/>
<use x="893.304242" y="609.12" stroke="#000000" stroke-width=".6" xlink:href="#c"/>
<path d="m928.6 609.12v-579.96" clip-path="url(#a)" fill="none" stroke="#b0b0b0" stroke-dasharray="2.96,1.28" stroke-width=".8"/>
<use x="928.601212" y="609.12" stroke="#000000" stroke-width=".6" xlink:href="#c"/>
<path d="m963.9 609.12v-579.96" clip-path="url(#a)" fill="none" stroke="#b0b0b0" stroke-dasharray="2.96,1.28" stroke-width=".8"/>
<use x="963.898182" y="609.12" stroke="#000000" stroke-width=".6" xlink:href="#c"/>
<path d="m1034.5 609.12v-579.96" clip-path="url(#a)" fill="none" stroke="#b0b0b0" stroke-dasharray="2.96,1.28" stroke-width=".8"/>
<use x="1034.492121" y="609.12" stroke="#000000" stroke-width=".6" xlink:href="#c"/>
<path d="m1069.8 609.12v-579.96" clip-path="url(#a)" fill="none" stroke="#b0b0b0" stroke-dasharray="2.96,1.28" stroke-width=".8"/>
<use x="1069.789091" y="609.12" stroke="#000000" stroke-width=".6" xlink:href="#c"/>
<path d="m1105.1 609.12v-579.96" clip-path="url(#a)" fill="none" stroke="#b0b0b0" stroke-dasharray="2.96,1.28" stroke-width=".8"/>
<use x="1105.086061" y="609.12" stroke="#000000" stroke-width=".6" xlink:href="#c"/>
<g transform="translate(570.23 640.44) scale(.14 -.14)">
<defs>
<path id="ag" d="m19.672 34.812v-26.703h15.828q7.9531 0 11.781 3.2969 3.8438 3.2969 3.8438 10.078 0 6.8438-3.8438 10.078-3.8281 3.25-11.781 3.25zm0 29.984v-21.969h14.609q7.2188 0 10.75 2.7031 3.5469 2.7188 3.5469 8.2812 0 5.5156-3.5469 8.25-3.5312 2.7344-10.75 2.7344zm-9.8594 8.1094h25.203q11.281 0 17.375-4.6875 6.1094-4.6875 6.1094-13.328 0-6.7031-3.125-10.656t-9.1875-4.9219q7.2812-1.5625 11.312-6.5312 4.0312-4.9531 4.0312-12.375 0-9.7656-6.6406-15.094-6.6406-5.3125-18.906-5.3125h-26.172z"/>
<path id="m" d="m18.109 8.2031v-29h-9.0312v75.484h9.0312v-8.2969q2.8438 4.875 7.1562 7.2344 4.3281 2.375 10.328 2.375 9.9688 0 16.188-7.9062 6.2344-7.9062 6.2344-20.797t-6.2344-20.812q-6.2188-7.9062-16.188-7.9062-6 0-10.328 2.375-4.3125 2.375-7.1562 7.25zm30.578 19.094q0 9.9062-4.0781 15.547t-11.203 5.6406q-7.1406 0-11.219-5.6406t-4.0781-15.547 4.0781-15.547 11.219-5.6406q7.125 0 11.203 5.6406t4.0781 15.547z"/>
<path id="q" d="m56.203 29.594v-4.3906h-41.312q0.59375-9.2812 5.5938-14.141t13.938-4.8594q5.1719 0 10.031 1.2656t9.6562 3.8125v-8.5q-4.8438-2.0469-9.9219-3.125t-10.297-1.0781q-13.094 0-20.734 7.6094-7.6406 7.625-7.6406 20.625 0 13.422 7.25 21.297 7.25 7.8906 19.562 7.8906 11.031 0 17.453-7.1094 6.4219-7.0938 6.4219-19.297zm-8.9844 2.6406q-0.09375 7.3594-4.125 11.75-4.0312 4.4062-10.672 4.4062-7.5156 0-12.031-4.25t-5.2031-11.969z"/>
<path id="w" d="m9.0781 54.688h13.141l15.531-36.625 15.578 36.625h13.031v-54.688h-9.0312v46.094l-15.094-35.594h-8.9844l-15.141 35.594v-46.094h-9.0312z"/>
<path id="aa" d="m18.453 38.922q0-4.0625 3.125-6.3594 3.125-2.2812 8.9375-2.2812h12.109v17.234h-12.109q-5.8125 0-8.9375-2.25t-3.125-6.3438zm-12.781-38.922 16.688 23.969q-5.6562 1.2812-9.4219 4.625-3.75 3.3438-3.75 10.328 0 7.9062 5.2344 11.828 5.25 3.9375 15.859 3.9375h21.375v-54.688h-9.0312v23.094h-11.172l-16.125-23.094z"/>
</defs>
<use xlink:href="#ag"/>
<use x="68.603516" xlink:href="#m"/>
<use x="132.080078" xlink:href="#q"/>
<use x="193.603516" xlink:href="#w"/>
<use x="269.042969" xlink:href="#aa"/>
</g>
<path d="m69.12 592.65h1048.3" clip-path="url(#a)" fill="none" stroke="#b0b0b0" stroke-linecap="square" stroke-width=".8"/>
<defs>
<path id="r" d="m0 0h-3.5" stroke="#000" stroke-width=".8"/>
</defs>
<use x="69.12" y="592.645614" stroke="#000000" stroke-width=".8" xlink:href="#r"/>
<g transform="translate(44.52 596.44) scale(.1 -.1)">
<defs>
<path id="z" d="m40.578 39.312q7.0781-1.5156 11.047-6.3125 3.9844-4.7812 3.9844-11.812 0-10.781-7.4219-16.703-7.4219-5.9062-21.094-5.9062-4.5781 0-9.4375 0.90625t-10.031 2.7188v9.5156q4.0938-2.3906 8.9688-3.6094 4.8906-1.2188 10.219-1.2188 9.2656 0 14.125 3.6562t4.8594 10.641q0 6.4531-4.5156 10.078-4.5156 3.6406-12.562 3.6406h-8.5v8.1094h8.8906q7.2656 0 11.125 2.9062t3.8594 8.375q0 5.6094-3.9844 8.6094-3.9688 3.0156-11.391 3.0156-4.0625 0-8.7031-0.89062-4.6406-0.875-10.203-2.7188v8.7812q5.625 1.5625 10.531 2.3438t9.25 0.78125q11.234 0 17.766-5.1094 6.5469-5.0938 6.5469-13.781 0-6.0625-3.4688-10.234t-9.8594-5.7812z"/>
</defs>
<use transform="translate(0 .76562)" xlink:href="#h"/>
<use transform="translate(63.623 .76562)" xlink:href="#e"/>
<use transform="translate(128.2 39.047) scale(.7)" xlink:href="#z"/>
</g>
<path d="m69.12 325.62h1048.3" clip-path="url(#a)" fill="none" stroke="#b0b0b0" stroke-linecap="square" stroke-width=".8"/>
<use x="69.12" y="325.618926" stroke="#000000" stroke-width=".8" xlink:href="#r"/>
<g transform="translate(44.52 329.42) scale(.1 -.1)">
<defs>
<path id="y" d="m37.797 64.312-24.906-38.922h24.906zm-2.5938 8.5938h12.406v-47.516h10.406v-8.2031h-10.406v-17.188h-9.8125v17.188h-32.906v9.5156z"/>
</defs>
<use transform="translate(0 .68438)" xlink:href="#h"/>
<use transform="translate(63.623 .68438)" xlink:href="#e"/>
<use transform="translate(128.2 38.966) scale(.7)" xlink:href="#y"/>
</g>
<path d="m69.12 58.592h1048.3" clip-path="url(#a)" fill="none" stroke="#b0b0b0" stroke-linecap="square" stroke-width=".8"/>
<use x="69.12" y="58.592238" stroke="#000000" stroke-width=".8" xlink:href="#r"/>
<g transform="translate(44.52 62.391) scale(.1 -.1)">
<use transform="translate(0 .68438)" xlink:href="#h"/>
<use transform="translate(63.623 .68438)" xlink:href="#e"/>
<use transform="translate(128.2 38.966) scale(.7)" xlink:href="#o"/>
</g>
<path d="m69.12 604.86h1048.3" clip-path="url(#a)" fill="none" stroke="#b0b0b0" stroke-dasharray="2.96,1.28" stroke-width=".8"/>
<defs>
<path id="d" d="m0 0h-2" stroke="#000" stroke-width=".6"/>
</defs>
<use x="69.12" y="604.864085" stroke="#000000" stroke-width=".6" xlink:href="#d"/>
<path d="m69.12 512.26h1048.3" clip-path="url(#a)" fill="none" stroke="#b0b0b0" stroke-dasharray="2.96,1.28" stroke-width=".8"/>
<use x="69.12" y="512.262571" stroke="#000000" stroke-width=".6" xlink:href="#d"/>
<path d="m69.12 465.24h1048.3" clip-path="url(#a)" fill="none" stroke="#b0b0b0" stroke-dasharray="2.96,1.28" stroke-width=".8"/>
<use x="69.12" y="465.241505" stroke="#000000" stroke-width=".6" xlink:href="#d"/>
<path d="m69.12 431.88h1048.3" clip-path="url(#a)" fill="none" stroke="#b0b0b0" stroke-dasharray="2.96,1.28" stroke-width=".8"/>
<use x="69.12" y="431.879528" stroke="#000000" stroke-width=".6" xlink:href="#d"/>
<path d="m69.12 406h1048.3" clip-path="url(#a)" fill="none" stroke="#b0b0b0" stroke-dasharray="2.96,1.28" stroke-width=".8"/>
<use x="69.12" y="406.001969" stroke="#000000" stroke-width=".6" xlink:href="#d"/>
<path d="m69.12 384.86h1048.3" clip-path="url(#a)" fill="none" stroke="#b0b0b0" stroke-dasharray="2.96,1.28" stroke-width=".8"/>
<use x="69.12" y="384.858463" stroke="#000000" stroke-width=".6" xlink:href="#d"/>
<path d="m69.12 366.98h1048.3" clip-path="url(#a)" fill="none" stroke="#b0b0b0" stroke-dasharray="2.96,1.28" stroke-width=".8"/>
<use x="69.12" y="366.981883" stroke="#000000" stroke-width=".6" xlink:href="#d"/>
<path d="m69.12 351.5h1048.3" clip-path="url(#a)" fill="none" stroke="#b0b0b0" stroke-dasharray="2.96,1.28" stroke-width=".8"/>
<use x="69.12" y="351.496486" stroke="#000000" stroke-width=".6" xlink:href="#d"/>
<path d="m69.12 337.84h1048.3" clip-path="url(#a)" fill="none" stroke="#b0b0b0" stroke-dasharray="2.96,1.28" stroke-width=".8"/>
<use x="69.12" y="337.837397" stroke="#000000" stroke-width=".6" xlink:href="#d"/>
<path d="m69.12 245.24h1048.3" clip-path="url(#a)" fill="none" stroke="#b0b0b0" stroke-dasharray="2.96,1.28" stroke-width=".8"/>
<use x="69.12" y="245.235883" stroke="#000000" stroke-width=".6" xlink:href="#d"/>
<path d="m69.12 198.21h1048.3" clip-path="url(#a)" fill="none" stroke="#b0b0b0" stroke-dasharray="2.96,1.28" stroke-width=".8"/>
<use x="69.12" y="198.214817" stroke="#000000" stroke-width=".6" xlink:href="#d"/>
<path d="m69.12 164.85h1048.3" clip-path="url(#a)" fill="none" stroke="#b0b0b0" stroke-dasharray="2.96,1.28" stroke-width=".8"/>
<use x="69.12" y="164.85284" stroke="#000000" stroke-width=".6" xlink:href="#d"/>
<path d="m69.12 138.98h1048.3" clip-path="url(#a)" fill="none" stroke="#b0b0b0" stroke-dasharray="2.96,1.28" stroke-width=".8"/>
<use x="69.12" y="138.97528" stroke="#000000" stroke-width=".6" xlink:href="#d"/>
<path d="m69.12 117.83h1048.3" clip-path="url(#a)" fill="none" stroke="#b0b0b0" stroke-dasharray="2.96,1.28" stroke-width=".8"/>
<use x="69.12" y="117.831774" stroke="#000000" stroke-width=".6" xlink:href="#d"/>
<path d="m69.12 99.955h1048.3" clip-path="url(#a)" fill="none" stroke="#b0b0b0" stroke-dasharray="2.96,1.28" stroke-width=".8"/>
<use x="69.12" y="99.955195" stroke="#000000" stroke-width=".6" xlink:href="#d"/>
<path d="m69.12 84.47h1048.3" clip-path="url(#a)" fill="none" stroke="#b0b0b0" stroke-dasharray="2.96,1.28" stroke-width=".8"/>
<use x="69.12" y="84.469797" stroke="#000000" stroke-width=".6" xlink:href="#d"/>
<path d="m69.12 70.811h1048.3" clip-path="url(#a)" fill="none" stroke="#b0b0b0" stroke-dasharray="2.96,1.28" stroke-width=".8"/>
<use x="69.12" y="70.810709" stroke="#000000" stroke-width=".6" xlink:href="#d"/>
<g transform="translate(37.608 446.47) rotate(-90) scale(.14 -.14)">
<defs>
<path id="ae" d="m9.8125 72.906h9.8594v-36.047l35.266 36.047h12.641l-28.172-28.812 29.641-44.094h-10.75l-25.281 37.547-13.344-13.625v-23.922h-9.8594z"/>
<path id="i" d="m30.609 48.391q-7.2188 0-11.422-5.6406t-4.2031-15.453 4.1719-15.453q4.1875-5.6406 11.453-5.6406 7.1875 0 11.375 5.6562 4.2031 5.6719 4.2031 15.438 0 9.7188-4.2031 15.406-4.1875 5.6875-11.375 5.6875zm0 7.6094q11.719 0 18.406-7.625 6.7031-7.6094 6.7031-21.078 0-13.422-6.7031-21.078-6.6875-7.6406-18.406-7.6406-11.766 0-18.438 7.6406-6.6562 7.6562-6.6562 21.078 0 13.469 6.6562 21.078 6.6719 7.625 18.438 7.625z"/>
<path id="ac" d="m3.7188 0v7.4688q8.875 1.375 11.609 7.5156 3.3281 8.6562 3.3281 30.766v8.9375h36.953v-54.688h-8.9844v47.516h-18.984v-5.4219q0-21.094-4.2969-30.562-4.5938-10.109-19.625-11.531z"/>
<path id="p" d="m55.906 54.688v-54.688h-8.9375v43.891l-26.359-43.891h-11.531v54.688h8.9375v-43.797l26.328 43.797z"/>
<path id="ab" d="m41.016 0v23h-16.75q-7.4688 0-12.453 4.6406-4.4844 4.2031-4.4844 13.188v13.859h8.9844v-13.031q0-5.7188 2.5312-8.5938 2.5938-2.8906 7.6719-2.8906h14.5v24.516h8.9844v-54.688z"/>
<path id="s" d="m48.781 52.594v-8.4062q-3.8125 2.1094-7.6406 3.1562t-7.7344 1.0469q-8.75 0-13.594-5.5469-4.8281-5.5312-4.8281-15.547t4.8281-15.562q4.8438-5.5312 13.594-5.5312 3.9062 0 7.7344 1.0469t7.6406 3.1562v-8.3125q-3.7656-1.75-7.7969-2.625-4.0156-0.89062-8.5625-0.89062-12.359 0-19.641 7.7656-7.2656 7.7656-7.2656 20.953 0 13.375 7.3438 21.031 7.3594 7.6719 20.156 7.6719 4.1406 0 8.0938-0.85938 3.9531-0.84375 7.6719-2.5469z"/>
<path id="l" d="m2.9375 54.688h52.391v-7.1719h-21.781v-47.516h-8.8438v47.516h-21.766z"/>
<path id="n" d="m18.062 25.203v-18.031h12.797q6.1562 0 9.375 2.3125 3.2188 2.3281 3.2188 6.7344 0 4.3906-3.2188 6.6875t-9.375 2.2969zm0 22.312v-15.141h11.828q5.0781 0 8.2969 2.0156 3.2188 2.0312 3.2188 5.6562 0 3.6094-3.2188 5.5312-3.2188 1.9375-8.2969 1.9375zm-8.9844 7.1719h21.391q9.625 0 14.797-3.5156t5.1719-10.016q0-5.0156-2.6406-7.9844-2.625-2.9531-7.8125-3.6719 6.2031-1.1719 9.625-4.8906 3.4219-3.7031 3.4219-9.2812 0-7.3125-5.6406-11.328-5.6406-4-16.094-4h-22.219z"/>
<path id="u" d="m9.0781 54.688h8.9375v-25.688l25.344 25.688h11.031l-20.891-21.141 23.578-33.547h-10.062l-19.375 27.594-9.625-9.7656v-17.828h-8.9375z"/>
<path id="j" d="m61.047 54.688h8.9844v-54.688h-8.9844zm4.5 1.3125m-22.094-39.781q0 4.3906-3.2031 6.6875-3.1875 2.2969-9.3438 2.2969h-12.797v-18.031h12.797q6.1562 0 9.3438 2.3125 3.2031 2.3281 3.2031 6.7344zm-34.375 38.469h9.0312v-22.312h13.188q10.453 0 16.094-3.9844 5.6406-3.9688 5.6406-12.172t-5.6406-12.219q-5.6406-4-16.094-4h-22.219z"/>
<path id="k" d="m54.891 54.688-19.781-26.609 20.797-28.078h-10.594l-15.922 21.484-15.906-21.484h-10.609l21.25 28.609-19.438 26.078h10.594l14.5-19.484 14.5 19.484z"/>
<path id="t" d="m9.0781 54.688h9.0312v-22.312h29.156v22.312h9.0312v-54.688h-9.0312v25.203h-29.156v-25.203h-9.0312z"/>
</defs>
<use xlink:href="#ae"/>
<use x="70.996094" xlink:href="#i"/>
<use x="132.177734" xlink:href="#ac"/>
<use x="196.09375" xlink:href="#p"/>
<use x="261.083984" xlink:href="#ab"/>
<use x="320.166016" xlink:href="#q"/>
<use x="381.689453" xlink:href="#s"/>
<use x="436.669922" xlink:href="#l"/>
<use x="494.921875" xlink:href="#n"/>
<use x="553.857422" xlink:href="#i"/>
<use x="615.039062" xlink:href="#DejaVuSans-32"/>
<use x="646.826172" xlink:href="#i"/>
<use x="708.007812" xlink:href="#l"/>
<use x="766.259766" xlink:href="#u"/>
<use x="826.660156" xlink:href="#m"/>
<use x="890.136719" xlink:href="#j"/>
<use x="969.091797" xlink:href="#l"/>
<use x="1027.34375" xlink:href="#j"/>
<use x="1106.298828" xlink:href="#k"/>
<use x="1165.478516" xlink:href="#DejaVuSans-32"/>
<use x="1197.265625" xlink:href="#s"/>
<use x="1252.246094" xlink:href="#n"/>
<use x="1311.181641" xlink:href="#q"/>
<use x="1372.705078" xlink:href="#m"/>
<use x="1436.181641" xlink:href="#k"/>
<use x="1495.361328" xlink:href="#t"/>
<use x="1560.742188" xlink:href="#i"/>
<use x="1621.923828" xlink:href="#n"/>
<use x="1680.859375" xlink:href="#j"/>
<use x="1759.814453" xlink:href="#k"/>
</g>
<path d="m116.77 582.76 35.297-10.286 35.297-14.887 35.297-13.115 35.297-14.515 35.297-12.535 35.297-17.312 35.297-17.061 35.297-15.778 35.297-12.764 35.297-12.798 35.297-16.366 35.297-15.496 35.297-11.56 35.297-11.537 35.297-11.03 35.297-15.15 35.297-15.501 35.297-19.472 35.297-21.256 35.297-29.784 35.297-44.658 35.297-34.026 35.297-26.56 35.297-40.48 35.297-35.133 35.297-29.103 35.297-9.0738" clip-path="url(#a)" fill="none" stroke="#000" stroke-linecap="square" stroke-width="1.5"/>
<defs>
<path id="b" d="m0 3c0.79561 0 1.5587-0.3161 2.1213-0.87868 0.56258-0.56258 0.87868-1.3257 0.87868-2.1213s-0.3161-1.5587-0.87868-2.1213c-0.56258-0.56258-1.3257-0.87868-2.1213-0.87868s-1.5587 0.3161-2.1213 0.87868c-0.56258 0.56258-0.87868 1.3257-0.87868 2.1213s0.3161 1.5587 0.87868 2.1213c0.56258 0.56258 1.3257 0.87868 2.1213 0.87868z" stroke="#000"/>
</defs>
<g clip-path="url(#a)" stroke="#000000">
<use x="116.770909" y="582.758182" xlink:href="#b"/>
<use x="152.067879" y="572.472559" xlink:href="#b"/>
<use x="187.364848" y="557.585598" xlink:href="#b"/>
<use x="222.661818" y="544.470626" xlink:href="#b"/>
<use x="257.958788" y="529.95568" xlink:href="#b"/>
<use x="293.255758" y="517.420198" xlink:href="#b"/>
<use x="328.552727" y="500.1079" xlink:href="#b"/>
<use x="363.849697" y="483.047237" xlink:href="#b"/>
<use x="399.146667" y="467.269246" xlink:href="#b"/>
<use x="434.443636" y="454.505263" xlink:href="#b"/>
<use x="469.740606" y="441.706818" xlink:href="#b"/>
<use x="505.037576" y="425.341202" xlink:href="#b"/>
<use x="540.334545" y="409.845528" xlink:href="#b"/>
<use x="575.631515" y="398.285846" xlink:href="#b"/>
<use x="610.928485" y="386.748602" xlink:href="#b"/>
<use x="646.225455" y="375.718871" xlink:href="#b"/>
<use x="681.522424" y="360.568894" xlink:href="#b"/>
<use x="716.819394" y="345.067821" xlink:href="#b"/>
<use x="752.116364" y="325.595734" xlink:href="#b"/>
<use x="787.413333" y="304.340202" xlink:href="#b"/>
<use x="822.710303" y="274.556111" xlink:href="#b"/>
<use x="858.007273" y="229.898439" xlink:href="#b"/>
<use x="893.304242" y="195.872873" xlink:href="#b"/>
<use x="928.601212" y="169.312399" xlink:href="#b"/>
<use x="963.898182" y="128.832552" xlink:href="#b"/>
<use x="999.195152" y="93.699068" xlink:href="#b"/>
<use x="1034.492121" y="64.595575" xlink:href="#b"/>
<use x="1069.789091" y="55.521818" xlink:href="#b"/>
</g>
<path d="m69.12 609.12v-579.96" fill="none" stroke="#000" stroke-linecap="square" stroke-width=".8"/>
<path d="m1117.4 609.12v-579.96" fill="none" stroke="#000" stroke-linecap="square" stroke-width=".8"/>
<path d="m69.12 609.12h1048.3" fill="none" stroke="#000" stroke-linecap="square" stroke-width=".8"/>
<path d="m69.12 29.16h1048.3" fill="none" stroke="#000" stroke-linecap="square" stroke-width=".8"/>
<g transform="translate(455.06 23.16) scale(.16 -.16)">
<defs>
<path id="af" d="m22.797 8.2969h32.234v56.297h-23.688v-10.344q0-24.359-5.4688-40.531-1.125-3.3125-3.0781-5.4219zm-14.391 0q6.5312 3.0781 8.3906 8.9375 4.7344 15.047 4.7344 41.891v13.781h43.359v-64.609h8.2969v-23.969h-8.2969v15.672h-51.656v-15.672h-8.2969v23.969z"/>
<path id="x" d="m34.281 27.484q-10.891 0-15.094-2.4844t-4.2031-8.5q0-4.7812 3.1562-7.5938 3.1562-2.7969 8.5625-2.7969 7.4844 0 12 5.2969t4.5156 14.078v2zm17.922 3.7188v-31.203h-8.9844v8.2969q-3.0781-4.9688-7.6719-7.3438t-11.234-2.375q-8.3906 0-13.359 4.7188-4.9531 4.7188-4.9531 12.625 0 9.2188 6.1719 13.906 6.1875 4.6875 18.438 4.6875h12.609v0.89062q0 6.2031-4.0781 9.5938t-11.453 3.3906q-4.6875 0-9.1406-1.125-4.4375-1.125-8.5312-3.375v8.3125q4.9219 1.9062 9.5625 2.8438 4.6406 0.95312 9.0312 0.95312 11.875 0 17.734-6.1562 5.8594-6.1406 5.8594-18.641z"/>
<path id="ad" d="m55.906 54.688v-54.688h-8.9375v43.891l-26.359-43.891h-11.531v54.688h8.9375v-43.797l26.328 43.797zm-38.688 20.828h5.7656q0.53125-3.6562 2.8906-5.5 2.375-1.8281 6.625-1.8281 4.2031 0 6.5469 1.8125t2.9688 5.5156h5.7656q-0.48438-6.9844-4.3438-10.5t-10.938-3.5156-10.938 3.5156-4.3438 10.5z"/>
</defs>
<use xlink:href="#af"/>
<use x="78.125" xlink:href="#p"/>
<use x="143.115234" xlink:href="#t"/>
<use x="208.496094" xlink:href="#x"/>
<use x="269.775391" xlink:href="#w"/>
<use x="345.214844" xlink:href="#p"/>
<use x="410.205078" xlink:href="#u"/>
<use x="470.605469" xlink:href="#x"/>
<use x="531.884766" xlink:href="#DejaVuSans-32"/>
<use x="563.671875" xlink:href="#i"/>
<use x="624.853516" xlink:href="#l"/>
<use x="683.105469" xlink:href="#u"/>
<use x="743.505859" xlink:href="#m"/>
<use x="806.982422" xlink:href="#j"/>
<use x="885.9375" xlink:href="#l"/>
<use x="944.189453" xlink:href="#p"/>
<use x="1009.179688" xlink:href="#ad"/>
<use x="1074.169922" xlink:href="#DejaVuSans-32"/>
<use x="1105.957031" xlink:href="#s"/>
<use x="1160.9375" xlink:href="#n"/>
<use x="1219.873047" xlink:href="#q"/>
<use x="1281.396484" xlink:href="#m"/>
<use x="1344.873047" xlink:href="#k"/>
<use x="1404.052734" xlink:href="#t"/>
<use x="1469.433594" xlink:href="#i"/>
<use x="1530.615234" xlink:href="#n"/>
<use x="1589.550781" xlink:href="#j"/>
<use x="1668.505859" xlink:href="#k"/>
</g>
<defs>
<clipPath id="a">
<rect x="69.12" y="29.16" width="1048.3" height="579.96"/>
</clipPath>
</defs>
</svg>
