<?xml version="1.0" encoding="UTF-8"?>
<!DOCTYPE svg  PUBLIC '-//W3C//DTD SVG 1.1//EN'  'http://www.w3.org/Graphics/SVG/1.1/DTD/svg11.dtd'>
<svg width="936pt" height="684pt" version="1.1" viewBox="0 0 936 684" xmlns="http://www.w3.org/2000/svg" xmlns:xlink="http://www.w3.org/1999/xlink">
<defs>
<style type="text/css">*{stroke-linecap:butt;stroke-linejoin:round;}</style>
</defs>
<path d="m0 684h936v-684h-936z" fill="#fff"/>
<path d="m65.52 642.96h842.4v-615.6h-842.4z" fill="#fff"/>
<path d="m73.975 642.96h26.133v-22.875h-26.133z" clip-path="url(#a)" fill="#1f77b4"/>
<path d="m104.72 642.96h26.133v-2.1931h-26.133z" clip-path="url(#a)" fill="#1f77b4"/>
<path d="m135.46 642.96h26.133v-4.2643h-26.133z" clip-path="url(#a)" fill="#1f77b4"/>
<path d="m166.21 642.96h26.133v-4.3253h-26.133z" clip-path="url(#a)" fill="#1f77b4"/>
<path d="m196.95 642.96h26.133v-4.2034h-26.133z" clip-path="url(#a)" fill="#1f77b4"/>
<path d="m227.7 642.96h26.133v-3.7465h-26.133z" clip-path="url(#a)" fill="#1f77b4"/>
<path d="m258.44 642.96h26.133v-6.5488h-26.133z" clip-path="url(#a)" fill="#1f77b4"/>
<path d="m289.19 642.96h26.133v-7.5235h-26.133z" clip-path="url(#a)" fill="#1f77b4"/>
<path d="m319.93 642.96h26.133v-7.4931h-26.133z" clip-path="url(#a)" fill="#1f77b4"/>
<path d="m350.68 642.96h26.133v-6.2442h-26.133z" clip-path="url(#a)" fill="#1f77b4"/>
<path d="m381.42 642.96h26.133v-7.6454h-26.133z" clip-path="url(#a)" fill="#1f77b4"/>
<path d="m412.16 642.96h26.133v-12.884h-26.133z" clip-path="url(#a)" fill="#1f77b4"/>
<path d="m442.91 642.96h26.133v-14.986h-26.133z" clip-path="url(#a)" fill="#1f77b4"/>
<path d="m473.65 642.96h26.133v-11.24h-26.133z" clip-path="url(#a)" fill="#1f77b4"/>
<path d="m504.4 642.96h26.133v-12.58h-26.133z" clip-path="url(#a)" fill="#1f77b4"/>
<path d="m535.14 642.96h26.133v-13.28h-26.133z" clip-path="url(#a)" fill="#1f77b4"/>
<path d="m565.89 642.96h26.133v-22.479h-26.133z" clip-path="url(#a)" fill="#1f77b4"/>
<path d="m596.63 642.96h26.133v-26.987h-26.133z" clip-path="url(#a)" fill="#1f77b4"/>
<path d="m627.38 642.96h26.133v-40.511h-26.133z" clip-path="url(#a)" fill="#1f77b4"/>
<path d="m658.12 642.96h26.133v-55.223h-26.133z" clip-path="url(#a)" fill="#1f77b4"/>
<path d="m688.87 642.96h26.133v-99.877h-26.133z" clip-path="url(#a)" fill="#1f77b4"/>
<path d="m719.61 642.96h26.133v-214.07h-26.133z" clip-path="url(#a)" fill="#1f77b4"/>
<path d="m750.35 642.96h26.133v-229.63h-26.133z" clip-path="url(#a)" fill="#1f77b4"/>
<path d="m781.1 642.96h26.133v-232.38h-26.133z" clip-path="url(#a)" fill="#1f77b4"/>
<path d="m811.84 642.96h26.133v-482.81h-26.133z" clip-path="url(#a)" fill="#1f77b4"/>
<path d="m842.59 642.96h26.133v-582.36h-26.133z" clip-path="url(#a)" fill="#1f77b4"/>
<path d="m873.33 642.96h26.133v-288.94h-26.133z" clip-path="url(#a)" fill="#1f77b4"/>
<path d="m73.975 620.08h26.133v-9.3511h-26.133z" clip-path="url(#a)" fill="#ff7f0e"/>
<path d="m104.72 640.77h26.133v-0.73103h-26.133z" clip-path="url(#a)" fill="#ff7f0e"/>
<path d="m135.46 638.7h26.133v-0.70057h-26.133z" clip-path="url(#a)" fill="#ff7f0e"/>
<path d="m166.21 638.63h26.133v-0.60919h-26.133z" clip-path="url(#a)" fill="#ff7f0e"/>
<path d="m196.95 638.76h26.133v-1.9494h-26.133z" clip-path="url(#a)" fill="#ff7f0e"/>
<path d="m227.7 639.21h26.133v-2.2235h-26.133z" clip-path="url(#a)" fill="#ff7f0e"/>
<path d="m258.44 636.41h26.133v-2.8327h-26.133z" clip-path="url(#a)" fill="#ff7f0e"/>
<path d="m289.19 635.44h26.133v-3.1983h-26.133z" clip-path="url(#a)" fill="#ff7f0e"/>
<path d="m319.93 635.47h26.133v-3.9293h-26.133z" clip-path="url(#a)" fill="#ff7f0e"/>
<path d="m350.68 636.72h26.133v-4.2034h-26.133z" clip-path="url(#a)" fill="#ff7f0e"/>
<path d="m381.42 635.31h26.133v-4.0511h-26.133z" clip-path="url(#a)" fill="#ff7f0e"/>
<path d="m412.16 630.08h26.133v-4.0816h-26.133z" clip-path="url(#a)" fill="#ff7f0e"/>
<path d="m442.91 627.97h26.133v-3.4419h-26.133z" clip-path="url(#a)" fill="#ff7f0e"/>
<path d="m473.65 631.72h26.133v-4.2034h-26.133z" clip-path="url(#a)" fill="#ff7f0e"/>
<path d="m504.4 630.38h26.133v-4.4471h-26.133z" clip-path="url(#a)" fill="#ff7f0e"/>
<path d="m535.14 629.68h26.133v-4.6603h-26.133z" clip-path="url(#a)" fill="#ff7f0e"/>
<path d="m565.89 620.48h26.133v-5.1172h-26.133z" clip-path="url(#a)" fill="#ff7f0e"/>
<path d="m596.63 615.97h26.133v-5.239h-26.133z" clip-path="url(#a)" fill="#ff7f0e"/>
<path d="m627.38 602.45h26.133v-6.3965h-26.133z" clip-path="url(#a)" fill="#ff7f0e"/>
<path d="m658.12 587.74h26.133v-5.635h-26.133z" clip-path="url(#a)" fill="#ff7f0e"/>
<path d="m688.87 543.08h26.133v-6.1528h-26.133z" clip-path="url(#a)" fill="#ff7f0e"/>
<path d="m719.61 428.89h26.133v-7.6149h-26.133z" clip-path="url(#a)" fill="#ff7f0e"/>
<path d="m750.35 413.33h26.133v-7.2494h-26.133z" clip-path="url(#a)" fill="#ff7f0e"/>
<path d="m781.1 410.58h26.133v-4.5385h-26.133z" clip-path="url(#a)" fill="#ff7f0e"/>
<path d="m811.84 160.15h26.133v-3.8379h-26.133z" clip-path="url(#a)" fill="#ff7f0e"/>
<path d="m842.59 60.604h26.133v-3.9293h-26.133z" clip-path="url(#a)" fill="#ff7f0e"/>
<path d="m873.33 354.02h26.133v-12.153h-26.133z" clip-path="url(#a)" fill="#ff7f0e"/>
<defs>
<path id="b" d="m0 0v3.5" stroke="#000" stroke-width=".8"/>
</defs>
<use x="87.041168" y="642.96" stroke="#000000" stroke-width=".8" xlink:href="#b"/>
<text transform="rotate(-0 87.041 657.56)" x="87.041168" y="657.558437" font-family="DejaVu Sans" font-size="10px" text-anchor="middle">до 1996</text>
<use x="117.785693" y="642.96" stroke="#000000" stroke-width=".8" xlink:href="#b"/>
<text transform="rotate(-0 117.79 657.56)" x="117.785693" y="657.558437" font-family="DejaVu Sans" font-size="10px" text-anchor="middle">1996</text>
<use x="148.530219" y="642.96" stroke="#000000" stroke-width=".8" xlink:href="#b"/>
<text transform="rotate(-0 148.53 657.56)" x="148.530219" y="657.558437" font-family="DejaVu Sans" font-size="10px" text-anchor="middle">1997</text>
<use x="179.274745" y="642.96" stroke="#000000" stroke-width=".8" xlink:href="#b"/>
<text transform="rotate(-0 179.27 657.56)" x="179.274745" y="657.558437" font-family="DejaVu Sans" font-size="10px" text-anchor="middle">1998</text>
<use x="210.01927" y="642.96" stroke="#000000" stroke-width=".8" xlink:href="#b"/>
<text transform="rotate(-0 210.02 657.56)" x="210.01927" y="657.558437" font-family="DejaVu Sans" font-size="10px" text-anchor="middle">1999</text>
<use x="240.763796" y="642.96" stroke="#000000" stroke-width=".8" xlink:href="#b"/>
<text transform="rotate(-0 240.76 657.56)" x="240.763796" y="657.558437" font-family="DejaVu Sans" font-size="10px" text-anchor="middle">2000</text>
<use x="271.508321" y="642.96" stroke="#000000" stroke-width=".8" xlink:href="#b"/>
<text transform="rotate(-0 271.51 657.56)" x="271.508321" y="657.558437" font-family="DejaVu Sans" font-size="10px" text-anchor="middle">2001</text>
<use x="302.252847" y="642.96" stroke="#000000" stroke-width=".8" xlink:href="#b"/>
<text transform="rotate(-0 302.25 657.56)" x="302.252847" y="657.558437" font-family="DejaVu Sans" font-size="10px" text-anchor="middle">2002</text>
<use x="332.997372" y="642.96" stroke="#000000" stroke-width=".8" xlink:href="#b"/>
<text transform="rotate(-0 333 657.56)" x="332.997372" y="657.558437" font-family="DejaVu Sans" font-size="10px" text-anchor="middle">2003</text>
<use x="363.741898" y="642.96" stroke="#000000" stroke-width=".8" xlink:href="#b"/>
<text transform="rotate(-0 363.74 657.56)" x="363.741898" y="657.558437" font-family="DejaVu Sans" font-size="10px" text-anchor="middle">2004</text>
<use x="394.486423" y="642.96" stroke="#000000" stroke-width=".8" xlink:href="#b"/>
<text transform="rotate(-0 394.49 657.56)" x="394.486423" y="657.558437" font-family="DejaVu Sans" font-size="10px" text-anchor="middle">2005</text>
<use x="425.230949" y="642.96" stroke="#000000" stroke-width=".8" xlink:href="#b"/>
<text transform="rotate(-0 425.23 657.56)" x="425.230949" y="657.558437" font-family="DejaVu Sans" font-size="10px" text-anchor="middle">2006</text>
<use x="455.975474" y="642.96" stroke="#000000" stroke-width=".8" xlink:href="#b"/>
<text transform="rotate(-0 455.98 657.56)" x="455.975474" y="657.558437" font-family="DejaVu Sans" font-size="10px" text-anchor="middle">2007</text>
<use x="486.72" y="642.96" stroke="#000000" stroke-width=".8" xlink:href="#b"/>
<text transform="rotate(-0 486.72 657.56)" x="486.72" y="657.558437" font-family="DejaVu Sans" font-size="10px" text-anchor="middle">2008</text>
<use x="517.464526" y="642.96" stroke="#000000" stroke-width=".8" xlink:href="#b"/>
<text transform="rotate(-0 517.46 657.56)" x="517.464526" y="657.558437" font-family="DejaVu Sans" font-size="10px" text-anchor="middle">2009</text>
<use x="548.209051" y="642.96" stroke="#000000" stroke-width=".8" xlink:href="#b"/>
<text transform="rotate(-0 548.21 657.56)" x="548.209051" y="657.558437" font-family="DejaVu Sans" font-size="10px" text-anchor="middle">2010</text>
<use x="578.953577" y="642.96" stroke="#000000" stroke-width=".8" xlink:href="#b"/>
<text transform="rotate(-0 578.95 657.56)" x="578.953577" y="657.558437" font-family="DejaVu Sans" font-size="10px" text-anchor="middle">2011</text>
<use x="609.698102" y="642.96" stroke="#000000" stroke-width=".8" xlink:href="#b"/>
<text transform="rotate(-0 609.7 657.56)" x="609.698102" y="657.558437" font-family="DejaVu Sans" font-size="10px" text-anchor="middle">2012</text>
<use x="640.442628" y="642.96" stroke="#000000" stroke-width=".8" xlink:href="#b"/>
<text transform="rotate(-0 640.44 657.56)" x="640.442628" y="657.558437" font-family="DejaVu Sans" font-size="10px" text-anchor="middle">2013</text>
<use x="671.187153" y="642.96" stroke="#000000" stroke-width=".8" xlink:href="#b"/>
<text transform="rotate(-0 671.19 657.56)" x="671.187153" y="657.558437" font-family="DejaVu Sans" font-size="10px" text-anchor="middle">2014</text>
<use x="701.931679" y="642.96" stroke="#000000" stroke-width=".8" xlink:href="#b"/>
<text transform="rotate(-0 701.93 657.56)" x="701.931679" y="657.558437" font-family="DejaVu Sans" font-size="10px" text-anchor="middle">2015</text>
<use x="732.676204" y="642.96" stroke="#000000" stroke-width=".8" xlink:href="#b"/>
<text transform="rotate(-0 732.68 657.56)" x="732.676204" y="657.558437" font-family="DejaVu Sans" font-size="10px" text-anchor="middle">2016</text>
<use x="763.42073" y="642.96" stroke="#000000" stroke-width=".8" xlink:href="#b"/>
<text transform="rotate(-0 763.42 657.56)" x="763.42073" y="657.558437" font-family="DejaVu Sans" font-size="10px" text-anchor="middle">2017</text>
<use x="794.165255" y="642.96" stroke="#000000" stroke-width=".8" xlink:href="#b"/>
<text transform="rotate(-0 794.17 657.56)" x="794.165255" y="657.558437" font-family="DejaVu Sans" font-size="10px" text-anchor="middle">2018</text>
<use x="824.909781" y="642.96" stroke="#000000" stroke-width=".8" xlink:href="#b"/>
<text transform="rotate(-0 824.91 657.56)" x="824.909781" y="657.558437" font-family="DejaVu Sans" font-size="10px" text-anchor="middle">2019</text>
<use x="855.654307" y="642.96" stroke="#000000" stroke-width=".8" xlink:href="#b"/>
<text transform="rotate(-0 855.65 657.56)" x="855.654307" y="657.558437" font-family="DejaVu Sans" font-size="10px" text-anchor="middle">2020</text>
<use x="886.398832" y="642.96" stroke="#000000" stroke-width=".8" xlink:href="#b"/>
<text transform="rotate(-0 886.4 657.56)" x="886.398832" y="657.558437" font-family="DejaVu Sans" font-size="10px" text-anchor="middle">2021</text>
<text transform="rotate(-0 486.72 674.28)" x="486.72" y="674.275937" font-family="DejaVu Sans" font-size="14px" text-anchor="middle">Год</text>
<defs>
<path id="c" d="m0 0h-3.5" stroke="#000" stroke-width=".8"/>
</defs>
<use x="65.52" y="642.96" stroke="#000000" stroke-width=".8" xlink:href="#c"/>
<text transform="rotate(-0 58.52 646.76)" x="58.52" y="646.759219" font-family="DejaVu Sans" font-size="10px" text-anchor="end">0</text>
<use x="65.52" y="566.811087" stroke="#000000" stroke-width=".8" xlink:href="#c"/>
<text transform="rotate(-0 58.52 570.61)" x="58.52" y="570.610305" font-family="DejaVu Sans" font-size="10px" text-anchor="end">2500</text>
<use x="65.52" y="490.662173" stroke="#000000" stroke-width=".8" xlink:href="#c"/>
<text transform="rotate(-0 58.52 494.46)" x="58.52" y="494.461392" font-family="DejaVu Sans" font-size="10px" text-anchor="end">5000</text>
<use x="65.52" y="414.51326" stroke="#000000" stroke-width=".8" xlink:href="#c"/>
<text transform="rotate(-0 58.52 418.31)" x="58.52" y="418.312478" font-family="DejaVu Sans" font-size="10px" text-anchor="end">7500</text>
<use x="65.52" y="338.364346" stroke="#000000" stroke-width=".8" xlink:href="#c"/>
<text transform="rotate(-0 58.52 342.16)" x="58.52" y="342.163565" font-family="DejaVu Sans" font-size="10px" text-anchor="end">10000</text>
<use x="65.52" y="262.215433" stroke="#000000" stroke-width=".8" xlink:href="#c"/>
<text transform="rotate(-0 58.52 266.01)" x="58.52" y="266.014652" font-family="DejaVu Sans" font-size="10px" text-anchor="end">12500</text>
<use x="65.52" y="186.066519" stroke="#000000" stroke-width=".8" xlink:href="#c"/>
<text transform="rotate(-0 58.52 189.87)" x="58.52" y="189.865738" font-family="DejaVu Sans" font-size="10px" text-anchor="end">15000</text>
<use x="65.52" y="109.917606" stroke="#000000" stroke-width=".8" xlink:href="#c"/>
<text transform="rotate(-0 58.52 113.72)" x="58.52" y="113.716825" font-family="DejaVu Sans" font-size="10px" text-anchor="end">17500</text>
<use x="65.52" y="33.768693" stroke="#000000" stroke-width=".8" xlink:href="#c"/>
<text transform="rotate(-0 58.52 37.568)" x="58.52" y="37.567911" font-family="DejaVu Sans" font-size="10px" text-anchor="end">20000</text>
<text transform="rotate(-90 19.796 335.16)" x="19.795938" y="335.16" font-family="DejaVu Sans" font-size="14px" text-anchor="middle">Открытий СН за год</text>
<path d="m65.52 642.96v-615.6" fill="none" stroke="#000" stroke-linecap="square" stroke-width=".8"/>
<path d="m907.92 642.96v-615.6" fill="none" stroke="#000" stroke-linecap="square" stroke-width=".8"/>
<path d="m65.52 642.96h842.4" fill="none" stroke="#000" stroke-linecap="square" stroke-width=".8"/>
<path d="m65.52 27.36h842.4" fill="none" stroke="#000" stroke-linecap="square" stroke-width=".8"/>
<text transform="rotate(-0 87.041 605.73)" x="87.041168" y="605.73378" font-family="DejaVu Sans" font-size="10px" text-anchor="middle">1058</text>
<text transform="rotate(-0 117.79 635.04)" x="117.785693" y="635.035882" font-family="DejaVu Sans" font-size="10px" text-anchor="middle">96</text>
<text transform="rotate(-0 148.53 633)" x="148.530219" y="632.995091" font-family="DejaVu Sans" font-size="10px" text-anchor="middle">163</text>
<text transform="rotate(-0 179.27 633.03)" x="179.274745" y="633.02555" font-family="DejaVu Sans" font-size="10px" text-anchor="middle">162</text>
<text transform="rotate(-0 210.02 631.81)" x="210.01927" y="631.807168" font-family="DejaVu Sans" font-size="10px" text-anchor="middle">202</text>
<text transform="rotate(-0 240.76 631.99)" x="240.763796" y="631.989925" font-family="DejaVu Sans" font-size="10px" text-anchor="middle">196</text>
<text transform="rotate(-0 271.51 628.58)" x="271.508321" y="628.578454" font-family="DejaVu Sans" font-size="10px" text-anchor="middle">308</text>
<text transform="rotate(-0 302.25 627.24)" x="302.252847" y="627.238233" font-family="DejaVu Sans" font-size="10px" text-anchor="middle">352</text>
<text transform="rotate(-0 333 626.54)" x="332.997372" y="626.537663" font-family="DejaVu Sans" font-size="10px" text-anchor="middle">375</text>
<text transform="rotate(-0 363.74 627.51)" x="363.741898" y="627.512369" font-family="DejaVu Sans" font-size="10px" text-anchor="middle">343</text>
<text transform="rotate(-0 394.49 626.26)" x="394.486423" y="626.263527" font-family="DejaVu Sans" font-size="10px" text-anchor="middle">384</text>
<text transform="rotate(-0 425.23 620.99)" x="425.230949" y="620.994022" font-family="DejaVu Sans" font-size="10px" text-anchor="middle">557</text>
<text transform="rotate(-0 455.98 619.53)" x="455.975474" y="619.531963" font-family="DejaVu Sans" font-size="10px" text-anchor="middle">605</text>
<text transform="rotate(-0 486.72 622.52)" x="486.72" y="622.517" font-family="DejaVu Sans" font-size="10px" text-anchor="middle">507</text>
<text transform="rotate(-0 517.46 620.93)" x="517.464526" y="620.933103" font-family="DejaVu Sans" font-size="10px" text-anchor="middle">559</text>
<text transform="rotate(-0 548.21 620.02)" x="548.209051" y="620.019316" font-family="DejaVu Sans" font-size="10px" text-anchor="middle">589</text>
<text transform="rotate(-0 578.95 610.36)" x="578.953577" y="610.363634" font-family="DejaVu Sans" font-size="10px" text-anchor="middle">906</text>
<text transform="rotate(-0 609.7 605.73)" x="609.698102" y="605.73378" font-family="DejaVu Sans" font-size="10px" text-anchor="middle">1058</text>
<text transform="rotate(-0 640.44 591.05)" x="640.442628" y="591.052269" font-family="DejaVu Sans" font-size="10px" text-anchor="middle">1540</text>
<text transform="rotate(-0 671.19 577.1)" x="671.187153" y="577.101788" font-family="DejaVu Sans" font-size="10px" text-anchor="middle">1998</text>
<text transform="rotate(-0 701.93 531.93)" x="701.931679" y="531.930253" font-family="DejaVu Sans" font-size="10px" text-anchor="middle">3481</text>
<text transform="rotate(-0 732.68 416.28)" x="732.676204" y="416.275283" font-family="DejaVu Sans" font-size="10px" text-anchor="middle">7278</text>
<text transform="rotate(-0 763.42 401.08)" x="763.42073" y="401.07596" font-family="DejaVu Sans" font-size="10px" text-anchor="middle">7777</text>
<text transform="rotate(-0 794.17 401.05)" x="794.165255" y="401.045501" font-family="DejaVu Sans" font-size="10px" text-anchor="middle">7778</text>
<text transform="rotate(-0 824.91 151.31)" x="824.909781" y="151.307524" font-family="DejaVu Sans" font-size="10px" text-anchor="middle">15977</text>
<text transform="rotate(-0 855.65 51.674)" x="855.654307" y="51.674286" font-family="DejaVu Sans" font-size="10px" text-anchor="middle">19248</text>
<text transform="rotate(-0 886.4 336.87)" x="886.398832" y="336.867196" font-family="DejaVu Sans" font-size="10px" text-anchor="middle">9885</text>
<text transform="rotate(-0 486.72 21.36)" x="486.72" y="21.36" font-family="DejaVu Sans" font-size="22px" text-anchor="middle">Статистика открытий сверхновых по годам</text>
<defs>
<clipPath id="a">
<rect x="65.52" y="27.36" width="842.4" height="615.6"/>
</clipPath>
</defs>
</svg>
