<?xml version="1.0" encoding="UTF-8"?>
<!DOCTYPE svg  PUBLIC '-//W3C//DTD SVG 1.1//EN'  'http://www.w3.org/Graphics/SVG/1.1/DTD/svg11.dtd'>
<svg width="936pt" height="684pt" version="1.1" viewBox="0 0 936 684" xmlns="http://www.w3.org/2000/svg" xmlns:xlink="http://www.w3.org/1999/xlink">
<defs>
<style type="text/css">*{stroke-linecap:butt;stroke-linejoin:round;}</style>
</defs>
<path d="m0 684h936v-684h-936z" fill="#fff"/>
<path d="m65.52 642.96h842.4v-615.6h-842.4z" fill="#fff"/>
<path d="m74.295 642.96h27.123v-25.943h-27.123z" clip-path="url(#a)" fill="#1f77b4"/>
<path d="m106.2 642.96h27.123v-2.4872h-27.123z" clip-path="url(#a)" fill="#1f77b4"/>
<path d="m138.11 642.96h27.123v-4.8362h-27.123z" clip-path="url(#a)" fill="#1f77b4"/>
<path d="m170.02 642.96h27.123v-4.9053h-27.123z" clip-path="url(#a)" fill="#1f77b4"/>
<path d="m201.93 642.96h27.123v-4.7671h-27.123z" clip-path="url(#a)" fill="#1f77b4"/>
<path d="m233.84 642.96h27.123v-4.2489h-27.123z" clip-path="url(#a)" fill="#1f77b4"/>
<path d="m265.75 642.96h27.123v-7.427h-27.123z" clip-path="url(#a)" fill="#1f77b4"/>
<path d="m297.66 642.96h27.123v-8.5324h-27.123z" clip-path="url(#a)" fill="#1f77b4"/>
<path d="m329.57 642.96h27.123v-8.4979h-27.123z" clip-path="url(#a)" fill="#1f77b4"/>
<path d="m361.48 642.96h27.123v-7.0816h-27.123z" clip-path="url(#a)" fill="#1f77b4"/>
<path d="m393.39 642.96h27.123v-8.6706h-27.123z" clip-path="url(#a)" fill="#1f77b4"/>
<path d="m425.3 642.96h27.123v-14.612h-27.123z" clip-path="url(#a)" fill="#1f77b4"/>
<path d="m457.2 642.96h27.123v-16.996h-27.123z" clip-path="url(#a)" fill="#1f77b4"/>
<path d="m489.11 642.96h27.123v-12.747h-27.123z" clip-path="url(#a)" fill="#1f77b4"/>
<path d="m521.02 642.96h27.123v-14.267h-27.123z" clip-path="url(#a)" fill="#1f77b4"/>
<path d="m552.93 642.96h27.123v-15.027h-27.123z" clip-path="url(#a)" fill="#1f77b4"/>
<path d="m584.84 642.96h27.123v-25.459h-27.123z" clip-path="url(#a)" fill="#1f77b4"/>
<path d="m616.75 642.96h27.123v-30.641h-27.123z" clip-path="url(#a)" fill="#1f77b4"/>
<path d="m648.66 642.96h27.123v-45.875h-27.123z" clip-path="url(#a)" fill="#1f77b4"/>
<path d="m680.57 642.96h27.123v-62.629h-27.123z" clip-path="url(#a)" fill="#1f77b4"/>
<path d="m712.48 642.96h27.123v-113.1h-27.123z" clip-path="url(#a)" fill="#1f77b4"/>
<path d="m744.39 642.96h27.123v-242.64h-27.123z" clip-path="url(#a)" fill="#1f77b4"/>
<path d="m776.3 642.96h27.123v-260.15h-27.123z" clip-path="url(#a)" fill="#1f77b4"/>
<path d="m808.2 642.96h27.123v-261.15h-27.123z" clip-path="url(#a)" fill="#1f77b4"/>
<path d="m840.11 642.96h27.123v-545.56h-27.123z" clip-path="url(#a)" fill="#1f77b4"/>
<path d="m872.02 642.96h27.123v-582.04h-27.123z" clip-path="url(#a)" fill="#1f77b4"/>
<path d="m74.295 617.02h27.123v-10.432h-27.123z" clip-path="url(#a)" fill="#ff7f0e"/>
<path d="m106.2 640.47h27.123v-0.82906h-27.123z" clip-path="url(#a)" fill="#ff7f0e"/>
<path d="m138.11 638.12h27.123v-0.79452h-27.123z" clip-path="url(#a)" fill="#ff7f0e"/>
<path d="m170.02 638.05h27.123v-0.69089h-27.123z" clip-path="url(#a)" fill="#ff7f0e"/>
<path d="m201.93 638.19h27.123v-2.2108h-27.123z" clip-path="url(#a)" fill="#ff7f0e"/>
<path d="m233.84 638.71h27.123v-2.4872h-27.123z" clip-path="url(#a)" fill="#ff7f0e"/>
<path d="m265.75 635.53h27.123v-3.2126h-27.123z" clip-path="url(#a)" fill="#ff7f0e"/>
<path d="m297.66 634.43h27.123v-3.6272h-27.123z" clip-path="url(#a)" fill="#ff7f0e"/>
<path d="m329.57 634.46h27.123v-4.4562h-27.123z" clip-path="url(#a)" fill="#ff7f0e"/>
<path d="m361.48 635.88h27.123v-4.7671h-27.123z" clip-path="url(#a)" fill="#ff7f0e"/>
<path d="m393.39 634.29h27.123v-4.5944h-27.123z" clip-path="url(#a)" fill="#ff7f0e"/>
<path d="m425.3 628.35h27.123v-4.6289h-27.123z" clip-path="url(#a)" fill="#ff7f0e"/>
<path d="m457.2 625.96h27.123v-3.9035h-27.123z" clip-path="url(#a)" fill="#ff7f0e"/>
<path d="m489.11 630.21h27.123v-4.7671h-27.123z" clip-path="url(#a)" fill="#ff7f0e"/>
<path d="m521.02 628.69h27.123v-5.0435h-27.123z" clip-path="url(#a)" fill="#ff7f0e"/>
<path d="m552.93 627.93h27.123v-5.2853h-27.123z" clip-path="url(#a)" fill="#ff7f0e"/>
<path d="m584.84 617.5h27.123v-5.8034h-27.123z" clip-path="url(#a)" fill="#ff7f0e"/>
<path d="m616.75 612.32h27.123v-5.9071h-27.123z" clip-path="url(#a)" fill="#ff7f0e"/>
<path d="m648.66 597.09h27.123v-7.1507h-27.123z" clip-path="url(#a)" fill="#ff7f0e"/>
<path d="m680.57 580.33h27.123v-6.3216h-27.123z" clip-path="url(#a)" fill="#ff7f0e"/>
<path d="m712.48 529.86h27.123v-6.7707h-27.123z" clip-path="url(#a)" fill="#ff7f0e"/>
<path d="m744.39 400.32h27.123v-8.4979h-27.123z" clip-path="url(#a)" fill="#ff7f0e"/>
<path d="m776.3 382.81h27.123v-7.9106h-27.123z" clip-path="url(#a)" fill="#ff7f0e"/>
<path d="m808.2 381.81h27.123v-5.1126h-27.123z" clip-path="url(#a)" fill="#ff7f0e"/>
<path d="m840.11 97.402h27.123v-4.1799h-27.123z" clip-path="url(#a)" fill="#ff7f0e"/>
<path d="m872.02 60.923h27.123v-4.2489h-27.123z" clip-path="url(#a)" fill="#ff7f0e"/>
<defs>
<path id="b" d="m0 0v3.5" stroke="#000" stroke-width=".8"/>
</defs>
<use x="87.856364" y="642.96" stroke="#000000" stroke-width=".8" xlink:href="#b"/>
<text transform="rotate(-0 87.856 657.56)" x="87.856364" y="657.558437" font-family="DejaVu Sans" font-size="10px" text-anchor="middle">до 1996</text>
<use x="119.765455" y="642.96" stroke="#000000" stroke-width=".8" xlink:href="#b"/>
<text transform="rotate(-0 119.77 657.56)" x="119.765455" y="657.558437" font-family="DejaVu Sans" font-size="10px" text-anchor="middle">1996</text>
<use x="151.674545" y="642.96" stroke="#000000" stroke-width=".8" xlink:href="#b"/>
<text transform="rotate(-0 151.67 657.56)" x="151.674545" y="657.558437" font-family="DejaVu Sans" font-size="10px" text-anchor="middle">1997</text>
<use x="183.583636" y="642.96" stroke="#000000" stroke-width=".8" xlink:href="#b"/>
<text transform="rotate(-0 183.58 657.56)" x="183.583636" y="657.558437" font-family="DejaVu Sans" font-size="10px" text-anchor="middle">1998</text>
<use x="215.492727" y="642.96" stroke="#000000" stroke-width=".8" xlink:href="#b"/>
<text transform="rotate(-0 215.49 657.56)" x="215.492727" y="657.558437" font-family="DejaVu Sans" font-size="10px" text-anchor="middle">1999</text>
<use x="247.401818" y="642.96" stroke="#000000" stroke-width=".8" xlink:href="#b"/>
<text transform="rotate(-0 247.4 657.56)" x="247.401818" y="657.558437" font-family="DejaVu Sans" font-size="10px" text-anchor="middle">2000</text>
<use x="279.310909" y="642.96" stroke="#000000" stroke-width=".8" xlink:href="#b"/>
<text transform="rotate(-0 279.31 657.56)" x="279.310909" y="657.558437" font-family="DejaVu Sans" font-size="10px" text-anchor="middle">2001</text>
<use x="311.22" y="642.96" stroke="#000000" stroke-width=".8" xlink:href="#b"/>
<text transform="rotate(-0 311.22 657.56)" x="311.22" y="657.558437" font-family="DejaVu Sans" font-size="10px" text-anchor="middle">2002</text>
<use x="343.129091" y="642.96" stroke="#000000" stroke-width=".8" xlink:href="#b"/>
<text transform="rotate(-0 343.13 657.56)" x="343.129091" y="657.558437" font-family="DejaVu Sans" font-size="10px" text-anchor="middle">2003</text>
<use x="375.038182" y="642.96" stroke="#000000" stroke-width=".8" xlink:href="#b"/>
<text transform="rotate(-0 375.04 657.56)" x="375.038182" y="657.558437" font-family="DejaVu Sans" font-size="10px" text-anchor="middle">2004</text>
<use x="406.947273" y="642.96" stroke="#000000" stroke-width=".8" xlink:href="#b"/>
<text transform="rotate(-0 406.95 657.56)" x="406.947273" y="657.558437" font-family="DejaVu Sans" font-size="10px" text-anchor="middle">2005</text>
<use x="438.856364" y="642.96" stroke="#000000" stroke-width=".8" xlink:href="#b"/>
<text transform="rotate(-0 438.86 657.56)" x="438.856364" y="657.558437" font-family="DejaVu Sans" font-size="10px" text-anchor="middle">2006</text>
<use x="470.765455" y="642.96" stroke="#000000" stroke-width=".8" xlink:href="#b"/>
<text transform="rotate(-0 470.77 657.56)" x="470.765455" y="657.558437" font-family="DejaVu Sans" font-size="10px" text-anchor="middle">2007</text>
<use x="502.674545" y="642.96" stroke="#000000" stroke-width=".8" xlink:href="#b"/>
<text transform="rotate(-0 502.67 657.56)" x="502.674545" y="657.558437" font-family="DejaVu Sans" font-size="10px" text-anchor="middle">2008</text>
<use x="534.583636" y="642.96" stroke="#000000" stroke-width=".8" xlink:href="#b"/>
<text transform="rotate(-0 534.58 657.56)" x="534.583636" y="657.558437" font-family="DejaVu Sans" font-size="10px" text-anchor="middle">2009</text>
<use x="566.492727" y="642.96" stroke="#000000" stroke-width=".8" xlink:href="#b"/>
<text transform="rotate(-0 566.49 657.56)" x="566.492727" y="657.558437" font-family="DejaVu Sans" font-size="10px" text-anchor="middle">2010</text>
<use x="598.401818" y="642.96" stroke="#000000" stroke-width=".8" xlink:href="#b"/>
<text transform="rotate(-0 598.4 657.56)" x="598.401818" y="657.558437" font-family="DejaVu Sans" font-size="10px" text-anchor="middle">2011</text>
<use x="630.310909" y="642.96" stroke="#000000" stroke-width=".8" xlink:href="#b"/>
<text transform="rotate(-0 630.31 657.56)" x="630.310909" y="657.558437" font-family="DejaVu Sans" font-size="10px" text-anchor="middle">2012</text>
<use x="662.22" y="642.96" stroke="#000000" stroke-width=".8" xlink:href="#b"/>
<text transform="rotate(-0 662.22 657.56)" x="662.22" y="657.558437" font-family="DejaVu Sans" font-size="10px" text-anchor="middle">2013</text>
<use x="694.129091" y="642.96" stroke="#000000" stroke-width=".8" xlink:href="#b"/>
<text transform="rotate(-0 694.13 657.56)" x="694.129091" y="657.558437" font-family="DejaVu Sans" font-size="10px" text-anchor="middle">2014</text>
<use x="726.038182" y="642.96" stroke="#000000" stroke-width=".8" xlink:href="#b"/>
<text transform="rotate(-0 726.04 657.56)" x="726.038182" y="657.558437" font-family="DejaVu Sans" font-size="10px" text-anchor="middle">2015</text>
<use x="757.947273" y="642.96" stroke="#000000" stroke-width=".8" xlink:href="#b"/>
<text transform="rotate(-0 757.95 657.56)" x="757.947273" y="657.558437" font-family="DejaVu Sans" font-size="10px" text-anchor="middle">2016</text>
<use x="789.856364" y="642.96" stroke="#000000" stroke-width=".8" xlink:href="#b"/>
<text transform="rotate(-0 789.86 657.56)" x="789.856364" y="657.558437" font-family="DejaVu Sans" font-size="10px" text-anchor="middle">2017</text>
<use x="821.765455" y="642.96" stroke="#000000" stroke-width=".8" xlink:href="#b"/>
<text transform="rotate(-0 821.77 657.56)" x="821.765455" y="657.558437" font-family="DejaVu Sans" font-size="10px" text-anchor="middle">2018</text>
<use x="853.674545" y="642.96" stroke="#000000" stroke-width=".8" xlink:href="#b"/>
<text transform="rotate(-0 853.67 657.56)" x="853.674545" y="657.558437" font-family="DejaVu Sans" font-size="10px" text-anchor="middle">2019</text>
<use x="885.583636" y="642.96" stroke="#000000" stroke-width=".8" xlink:href="#b"/>
<text transform="rotate(-0 885.58 657.56)" x="885.583636" y="657.558437" font-family="DejaVu Sans" font-size="10px" text-anchor="middle">2020</text>
<text transform="rotate(-0 486.72 674.28)" x="486.72" y="674.275937" font-family="DejaVu Sans" font-size="14px" text-anchor="middle">Год</text>
<defs>
<path id="c" d="m0 0h-3.5" stroke="#000" stroke-width=".8"/>
</defs>
<use x="65.52" y="642.96" stroke="#000000" stroke-width=".8" xlink:href="#c"/>
<text transform="rotate(-0 58.52 646.76)" x="58.52" y="646.759219" font-family="DejaVu Sans" font-size="10px" text-anchor="end">0</text>
<use x="65.52" y="573.871417" stroke="#000000" stroke-width=".8" xlink:href="#c"/>
<text transform="rotate(-0 58.52 577.67)" x="58.52" y="577.670636" font-family="DejaVu Sans" font-size="10px" text-anchor="end">2000</text>
<use x="65.52" y="504.782834" stroke="#000000" stroke-width=".8" xlink:href="#c"/>
<text transform="rotate(-0 58.52 508.58)" x="58.52" y="508.582053" font-family="DejaVu Sans" font-size="10px" text-anchor="end">4000</text>
<use x="65.52" y="435.694251" stroke="#000000" stroke-width=".8" xlink:href="#c"/>
<text transform="rotate(-0 58.52 439.49)" x="58.52" y="439.49347" font-family="DejaVu Sans" font-size="10px" text-anchor="end">6000</text>
<use x="65.52" y="366.605668" stroke="#000000" stroke-width=".8" xlink:href="#c"/>
<text transform="rotate(-0 58.52 370.4)" x="58.52" y="370.404887" font-family="DejaVu Sans" font-size="10px" text-anchor="end">8000</text>
<use x="65.52" y="297.517086" stroke="#000000" stroke-width=".8" xlink:href="#c"/>
<text transform="rotate(-0 58.52 301.32)" x="58.52" y="301.316304" font-family="DejaVu Sans" font-size="10px" text-anchor="end">10000</text>
<use x="65.52" y="228.428503" stroke="#000000" stroke-width=".8" xlink:href="#c"/>
<text transform="rotate(-0 58.52 232.23)" x="58.52" y="232.227721" font-family="DejaVu Sans" font-size="10px" text-anchor="end">12000</text>
<use x="65.52" y="159.33992" stroke="#000000" stroke-width=".8" xlink:href="#c"/>
<text transform="rotate(-0 58.52 163.14)" x="58.52" y="163.139139" font-family="DejaVu Sans" font-size="10px" text-anchor="end">14000</text>
<use x="65.52" y="90.251337" stroke="#000000" stroke-width=".8" xlink:href="#c"/>
<text transform="rotate(-0 58.52 94.051)" x="58.52" y="94.050556" font-family="DejaVu Sans" font-size="10px" text-anchor="end">16000</text>
<text transform="rotate(-90 19.796 335.16)" x="19.795938" y="335.16" font-family="DejaVu Sans" font-size="14px" text-anchor="middle">Открытий СН за год</text>
<path d="m65.52 642.96v-615.6" fill="none" stroke="#000" stroke-linecap="square" stroke-width=".8"/>
<path d="m907.92 642.96v-615.6" fill="none" stroke="#000" stroke-linecap="square" stroke-width=".8"/>
<path d="m65.52 642.96h842.4" fill="none" stroke="#000" stroke-linecap="square" stroke-width=".8"/>
<path d="m65.52 27.36h842.4" fill="none" stroke="#000" stroke-linecap="square" stroke-width=".8"/>
<text transform="rotate(-0 87.856 601.58)" x="87.856364" y="601.584861" font-family="DejaVu Sans" font-size="10px" text-anchor="middle">1053</text>
<text transform="rotate(-0 119.77 634.64)" x="119.765455" y="634.643748" font-family="DejaVu Sans" font-size="10px" text-anchor="middle">96</text>
<text transform="rotate(-0 151.67 632.33)" x="151.674545" y="632.32928" font-family="DejaVu Sans" font-size="10px" text-anchor="middle">163</text>
<text transform="rotate(-0 183.58 632.36)" x="183.583636" y="632.363825" font-family="DejaVu Sans" font-size="10px" text-anchor="middle">162</text>
<text transform="rotate(-0 215.49 630.98)" x="215.492727" y="630.982053" font-family="DejaVu Sans" font-size="10px" text-anchor="middle">202</text>
<text transform="rotate(-0 247.4 631.22)" x="247.401818" y="631.223863" font-family="DejaVu Sans" font-size="10px" text-anchor="middle">195</text>
<text transform="rotate(-0 279.31 627.32)" x="279.310909" y="627.320358" font-family="DejaVu Sans" font-size="10px" text-anchor="middle">308</text>
<text transform="rotate(-0 311.22 625.8)" x="311.22" y="625.800409" font-family="DejaVu Sans" font-size="10px" text-anchor="middle">352</text>
<text transform="rotate(-0 343.13 625.01)" x="343.129091" y="625.005891" font-family="DejaVu Sans" font-size="10px" text-anchor="middle">375</text>
<text transform="rotate(-0 375.04 626.11)" x="375.038182" y="626.111308" font-family="DejaVu Sans" font-size="10px" text-anchor="middle">343</text>
<text transform="rotate(-0 406.95 624.69)" x="406.947273" y="624.694992" font-family="DejaVu Sans" font-size="10px" text-anchor="middle">384</text>
<text transform="rotate(-0 438.86 618.72)" x="438.856364" y="618.71883" font-family="DejaVu Sans" font-size="10px" text-anchor="middle">557</text>
<text transform="rotate(-0 470.77 617.06)" x="470.765455" y="617.060704" font-family="DejaVu Sans" font-size="10px" text-anchor="middle">605</text>
<text transform="rotate(-0 502.67 620.45)" x="502.674545" y="620.446044" font-family="DejaVu Sans" font-size="10px" text-anchor="middle">507</text>
<text transform="rotate(-0 534.58 618.65)" x="534.583636" y="618.649741" font-family="DejaVu Sans" font-size="10px" text-anchor="middle">559</text>
<text transform="rotate(-0 566.49 617.65)" x="566.492727" y="617.647957" font-family="DejaVu Sans" font-size="10px" text-anchor="middle">588</text>
<text transform="rotate(-0 598.4 606.7)" x="598.401818" y="606.697416" font-family="DejaVu Sans" font-size="10px" text-anchor="middle">905</text>
<text transform="rotate(-0 630.31 601.41)" x="630.310909" y="601.41214" font-family="DejaVu Sans" font-size="10px" text-anchor="middle">1058</text>
<text transform="rotate(-0 662.22 584.93)" x="662.22" y="584.934513" font-family="DejaVu Sans" font-size="10px" text-anchor="middle">1535</text>
<text transform="rotate(-0 694.13 569.01)" x="694.129091" y="569.009594" font-family="DejaVu Sans" font-size="10px" text-anchor="middle">1996</text>
<text transform="rotate(-0 726.04 518.09)" x="726.038182" y="518.091309" font-family="DejaVu Sans" font-size="10px" text-anchor="middle">3470</text>
<text transform="rotate(-0 757.95 386.82)" x="757.947273" y="386.823001" font-family="DejaVu Sans" font-size="10px" text-anchor="middle">7270</text>
<text transform="rotate(-0 789.86 369.9)" x="789.856364" y="369.896298" font-family="DejaVu Sans" font-size="10px" text-anchor="middle">7760</text>
<text transform="rotate(-0 821.77 371.69)" x="821.765455" y="371.692602" font-family="DejaVu Sans" font-size="10px" text-anchor="middle">7708</text>
<text transform="rotate(-0 853.67 88.222)" x="853.674545" y="88.222146" font-family="DejaVu Sans" font-size="10px" text-anchor="middle">15914</text>
<text transform="rotate(-0 885.58 51.674)" x="885.583636" y="51.674286" font-family="DejaVu Sans" font-size="10px" text-anchor="middle">16972</text>
<text transform="rotate(-0 486.72 21.36)" x="486.72" y="21.36" font-family="DejaVu Sans" font-size="22px" text-anchor="middle">Статистика открытий сверхновых по годам</text>
<defs>
<clipPath id="a">
<rect x="65.52" y="27.36" width="842.4" height="615.6"/>
</clipPath>
</defs>
</svg>
