<?xml version="1.0" encoding="UTF-8"?>
<!DOCTYPE svg  PUBLIC '-//W3C//DTD SVG 1.1//EN'  'http://www.w3.org/Graphics/SVG/1.1/DTD/svg11.dtd'>
<svg width="936pt" height="684pt" version="1.1" viewBox="0 0 936 684" xmlns="http://www.w3.org/2000/svg" xmlns:xlink="http://www.w3.org/1999/xlink">
<defs>
<style type="text/css">*{stroke-linecap:butt;stroke-linejoin:round;}</style>
</defs>
<path d="m0 684h936v-684h-936z" fill="#fff"/>
<path d="m65.52 642.96h842.4v-615.6h-842.4z" fill="#fff"/>
<path d="m73.975 642.96h26.133v-21.34h-26.133z" clip-path="url(#a)" fill="#1f77b4"/>
<path d="m104.72 642.96h26.133v-2.0459h-26.133z" clip-path="url(#a)" fill="#1f77b4"/>
<path d="m135.46 642.96h26.133v-3.9781h-26.133z" clip-path="url(#a)" fill="#1f77b4"/>
<path d="m166.21 642.96h26.133v-4.0349h-26.133z" clip-path="url(#a)" fill="#1f77b4"/>
<path d="m196.95 642.96h26.133v-3.9213h-26.133z" clip-path="url(#a)" fill="#1f77b4"/>
<path d="m227.7 642.96h26.133v-3.495h-26.133z" clip-path="url(#a)" fill="#1f77b4"/>
<path d="m258.44 642.96h26.133v-6.1092h-26.133z" clip-path="url(#a)" fill="#1f77b4"/>
<path d="m289.19 642.96h26.133v-7.0185h-26.133z" clip-path="url(#a)" fill="#1f77b4"/>
<path d="m319.93 642.96h26.133v-6.9901h-26.133z" clip-path="url(#a)" fill="#1f77b4"/>
<path d="m350.68 642.96h26.133v-5.8251h-26.133z" clip-path="url(#a)" fill="#1f77b4"/>
<path d="m381.42 642.96h26.133v-7.1322h-26.133z" clip-path="url(#a)" fill="#1f77b4"/>
<path d="m412.16 642.96h26.133v-12.02h-26.133z" clip-path="url(#a)" fill="#1f77b4"/>
<path d="m442.91 642.96h26.133v-13.98h-26.133z" clip-path="url(#a)" fill="#1f77b4"/>
<path d="m473.65 642.96h26.133v-10.485h-26.133z" clip-path="url(#a)" fill="#1f77b4"/>
<path d="m504.4 642.96h26.133v-11.735h-26.133z" clip-path="url(#a)" fill="#1f77b4"/>
<path d="m535.14 642.96h26.133v-12.389h-26.133z" clip-path="url(#a)" fill="#1f77b4"/>
<path d="m565.89 642.96h26.133v-20.97h-26.133z" clip-path="url(#a)" fill="#1f77b4"/>
<path d="m596.63 642.96h26.133v-25.176h-26.133z" clip-path="url(#a)" fill="#1f77b4"/>
<path d="m627.38 642.96h26.133v-37.962h-26.133z" clip-path="url(#a)" fill="#1f77b4"/>
<path d="m658.12 642.96h26.133v-51.602h-26.133z" clip-path="url(#a)" fill="#1f77b4"/>
<path d="m688.87 642.96h26.133v-93.343h-26.133z" clip-path="url(#a)" fill="#1f77b4"/>
<path d="m719.61 642.96h26.133v-199.76h-26.133z" clip-path="url(#a)" fill="#1f77b4"/>
<path d="m750.35 642.96h26.133v-214.36h-26.133z" clip-path="url(#a)" fill="#1f77b4"/>
<path d="m781.1 642.96h26.133v-218.6h-26.133z" clip-path="url(#a)" fill="#1f77b4"/>
<path d="m811.84 642.96h26.133v-451.54h-26.133z" clip-path="url(#a)" fill="#1f77b4"/>
<path d="m842.59 642.96h26.133v-544.29h-26.133z" clip-path="url(#a)" fill="#1f77b4"/>
<path d="m873.33 642.96h26.133v-582.59h-26.133z" clip-path="url(#a)" fill="#1f77b4"/>
<path d="m73.975 621.62h26.133v-8.9223h-26.133z" clip-path="url(#a)" fill="#ff7f0e"/>
<path d="m104.72 640.91h26.133v-0.68196h-26.133z" clip-path="url(#a)" fill="#ff7f0e"/>
<path d="m135.46 638.98h26.133v-0.65354h-26.133z" clip-path="url(#a)" fill="#ff7f0e"/>
<path d="m166.21 638.93h26.133v-0.5683h-26.133z" clip-path="url(#a)" fill="#ff7f0e"/>
<path d="m196.95 639.04h26.133v-1.8186h-26.133z" clip-path="url(#a)" fill="#ff7f0e"/>
<path d="m227.7 639.46h26.133v-2.0743h-26.133z" clip-path="url(#a)" fill="#ff7f0e"/>
<path d="m258.44 636.85h26.133v-2.6426h-26.133z" clip-path="url(#a)" fill="#ff7f0e"/>
<path d="m289.19 635.94h26.133v-2.9836h-26.133z" clip-path="url(#a)" fill="#ff7f0e"/>
<path d="m319.93 635.97h26.133v-3.6655h-26.133z" clip-path="url(#a)" fill="#ff7f0e"/>
<path d="m350.68 637.13h26.133v-3.9213h-26.133z" clip-path="url(#a)" fill="#ff7f0e"/>
<path d="m381.42 635.83h26.133v-3.7792h-26.133z" clip-path="url(#a)" fill="#ff7f0e"/>
<path d="m412.16 630.94h26.133v-3.8076h-26.133z" clip-path="url(#a)" fill="#ff7f0e"/>
<path d="m442.91 628.98h26.133v-3.2109h-26.133z" clip-path="url(#a)" fill="#ff7f0e"/>
<path d="m473.65 632.47h26.133v-3.9213h-26.133z" clip-path="url(#a)" fill="#ff7f0e"/>
<path d="m504.4 631.22h26.133v-4.1486h-26.133z" clip-path="url(#a)" fill="#ff7f0e"/>
<path d="m535.14 630.57h26.133v-4.3475h-26.133z" clip-path="url(#a)" fill="#ff7f0e"/>
<path d="m565.89 621.99h26.133v-4.7737h-26.133z" clip-path="url(#a)" fill="#ff7f0e"/>
<path d="m596.63 617.78h26.133v-4.8874h-26.133z" clip-path="url(#a)" fill="#ff7f0e"/>
<path d="m627.38 605h26.133v-5.9671h-26.133z" clip-path="url(#a)" fill="#ff7f0e"/>
<path d="m658.12 591.36h26.133v-5.5693h-26.133z" clip-path="url(#a)" fill="#ff7f0e"/>
<path d="m688.87 549.62h26.133v-6.5354h-26.133z" clip-path="url(#a)" fill="#ff7f0e"/>
<path d="m719.61 443.2h26.133v-7.4163h-26.133z" clip-path="url(#a)" fill="#ff7f0e"/>
<path d="m750.35 428.6h26.133v-6.8196h-26.133z" clip-path="url(#a)" fill="#ff7f0e"/>
<path d="m781.1 424.36h26.133v-4.2622h-26.133z" clip-path="url(#a)" fill="#ff7f0e"/>
<path d="m811.84 191.42h26.133v-3.8644h-26.133z" clip-path="url(#a)" fill="#ff7f0e"/>
<path d="m842.59 98.672h26.133v-3.6371h-26.133z" clip-path="url(#a)" fill="#ff7f0e"/>
<path d="m873.33 60.368h26.133v-3.6939h-26.133z" clip-path="url(#a)" fill="#ff7f0e"/>
<defs>
<path id="b" d="m0 0v3.5" stroke="#000" stroke-width=".8"/>
</defs>
<use x="87.041168" y="642.96" stroke="#000000" stroke-width=".8" xlink:href="#b"/>
<text transform="rotate(-0 87.041 657.56)" x="87.041168" y="657.558437" font-family="DejaVu Sans" font-size="10px" text-anchor="middle">до 1996</text>
<use x="117.785693" y="642.96" stroke="#000000" stroke-width=".8" xlink:href="#b"/>
<text transform="rotate(-0 117.79 657.56)" x="117.785693" y="657.558437" font-family="DejaVu Sans" font-size="10px" text-anchor="middle">1996</text>
<use x="148.530219" y="642.96" stroke="#000000" stroke-width=".8" xlink:href="#b"/>
<text transform="rotate(-0 148.53 657.56)" x="148.530219" y="657.558437" font-family="DejaVu Sans" font-size="10px" text-anchor="middle">1997</text>
<use x="179.274745" y="642.96" stroke="#000000" stroke-width=".8" xlink:href="#b"/>
<text transform="rotate(-0 179.27 657.56)" x="179.274745" y="657.558437" font-family="DejaVu Sans" font-size="10px" text-anchor="middle">1998</text>
<use x="210.01927" y="642.96" stroke="#000000" stroke-width=".8" xlink:href="#b"/>
<text transform="rotate(-0 210.02 657.56)" x="210.01927" y="657.558437" font-family="DejaVu Sans" font-size="10px" text-anchor="middle">1999</text>
<use x="240.763796" y="642.96" stroke="#000000" stroke-width=".8" xlink:href="#b"/>
<text transform="rotate(-0 240.76 657.56)" x="240.763796" y="657.558437" font-family="DejaVu Sans" font-size="10px" text-anchor="middle">2000</text>
<use x="271.508321" y="642.96" stroke="#000000" stroke-width=".8" xlink:href="#b"/>
<text transform="rotate(-0 271.51 657.56)" x="271.508321" y="657.558437" font-family="DejaVu Sans" font-size="10px" text-anchor="middle">2001</text>
<use x="302.252847" y="642.96" stroke="#000000" stroke-width=".8" xlink:href="#b"/>
<text transform="rotate(-0 302.25 657.56)" x="302.252847" y="657.558437" font-family="DejaVu Sans" font-size="10px" text-anchor="middle">2002</text>
<use x="332.997372" y="642.96" stroke="#000000" stroke-width=".8" xlink:href="#b"/>
<text transform="rotate(-0 333 657.56)" x="332.997372" y="657.558437" font-family="DejaVu Sans" font-size="10px" text-anchor="middle">2003</text>
<use x="363.741898" y="642.96" stroke="#000000" stroke-width=".8" xlink:href="#b"/>
<text transform="rotate(-0 363.74 657.56)" x="363.741898" y="657.558437" font-family="DejaVu Sans" font-size="10px" text-anchor="middle">2004</text>
<use x="394.486423" y="642.96" stroke="#000000" stroke-width=".8" xlink:href="#b"/>
<text transform="rotate(-0 394.49 657.56)" x="394.486423" y="657.558437" font-family="DejaVu Sans" font-size="10px" text-anchor="middle">2005</text>
<use x="425.230949" y="642.96" stroke="#000000" stroke-width=".8" xlink:href="#b"/>
<text transform="rotate(-0 425.23 657.56)" x="425.230949" y="657.558437" font-family="DejaVu Sans" font-size="10px" text-anchor="middle">2006</text>
<use x="455.975474" y="642.96" stroke="#000000" stroke-width=".8" xlink:href="#b"/>
<text transform="rotate(-0 455.98 657.56)" x="455.975474" y="657.558437" font-family="DejaVu Sans" font-size="10px" text-anchor="middle">2007</text>
<use x="486.72" y="642.96" stroke="#000000" stroke-width=".8" xlink:href="#b"/>
<text transform="rotate(-0 486.72 657.56)" x="486.72" y="657.558437" font-family="DejaVu Sans" font-size="10px" text-anchor="middle">2008</text>
<use x="517.464526" y="642.96" stroke="#000000" stroke-width=".8" xlink:href="#b"/>
<text transform="rotate(-0 517.46 657.56)" x="517.464526" y="657.558437" font-family="DejaVu Sans" font-size="10px" text-anchor="middle">2009</text>
<use x="548.209051" y="642.96" stroke="#000000" stroke-width=".8" xlink:href="#b"/>
<text transform="rotate(-0 548.21 657.56)" x="548.209051" y="657.558437" font-family="DejaVu Sans" font-size="10px" text-anchor="middle">2010</text>
<use x="578.953577" y="642.96" stroke="#000000" stroke-width=".8" xlink:href="#b"/>
<text transform="rotate(-0 578.95 657.56)" x="578.953577" y="657.558437" font-family="DejaVu Sans" font-size="10px" text-anchor="middle">2011</text>
<use x="609.698102" y="642.96" stroke="#000000" stroke-width=".8" xlink:href="#b"/>
<text transform="rotate(-0 609.7 657.56)" x="609.698102" y="657.558437" font-family="DejaVu Sans" font-size="10px" text-anchor="middle">2012</text>
<use x="640.442628" y="642.96" stroke="#000000" stroke-width=".8" xlink:href="#b"/>
<text transform="rotate(-0 640.44 657.56)" x="640.442628" y="657.558437" font-family="DejaVu Sans" font-size="10px" text-anchor="middle">2013</text>
<use x="671.187153" y="642.96" stroke="#000000" stroke-width=".8" xlink:href="#b"/>
<text transform="rotate(-0 671.19 657.56)" x="671.187153" y="657.558437" font-family="DejaVu Sans" font-size="10px" text-anchor="middle">2014</text>
<use x="701.931679" y="642.96" stroke="#000000" stroke-width=".8" xlink:href="#b"/>
<text transform="rotate(-0 701.93 657.56)" x="701.931679" y="657.558437" font-family="DejaVu Sans" font-size="10px" text-anchor="middle">2015</text>
<use x="732.676204" y="642.96" stroke="#000000" stroke-width=".8" xlink:href="#b"/>
<text transform="rotate(-0 732.68 657.56)" x="732.676204" y="657.558437" font-family="DejaVu Sans" font-size="10px" text-anchor="middle">2016</text>
<use x="763.42073" y="642.96" stroke="#000000" stroke-width=".8" xlink:href="#b"/>
<text transform="rotate(-0 763.42 657.56)" x="763.42073" y="657.558437" font-family="DejaVu Sans" font-size="10px" text-anchor="middle">2017</text>
<use x="794.165255" y="642.96" stroke="#000000" stroke-width=".8" xlink:href="#b"/>
<text transform="rotate(-0 794.17 657.56)" x="794.165255" y="657.558437" font-family="DejaVu Sans" font-size="10px" text-anchor="middle">2018</text>
<use x="824.909781" y="642.96" stroke="#000000" stroke-width=".8" xlink:href="#b"/>
<text transform="rotate(-0 824.91 657.56)" x="824.909781" y="657.558437" font-family="DejaVu Sans" font-size="10px" text-anchor="middle">2019</text>
<use x="855.654307" y="642.96" stroke="#000000" stroke-width=".8" xlink:href="#b"/>
<text transform="rotate(-0 855.65 657.56)" x="855.654307" y="657.558437" font-family="DejaVu Sans" font-size="10px" text-anchor="middle">2020</text>
<use x="886.398832" y="642.96" stroke="#000000" stroke-width=".8" xlink:href="#b"/>
<text transform="rotate(-0 886.4 657.56)" x="886.398832" y="657.558437" font-family="DejaVu Sans" font-size="10px" text-anchor="middle">2021</text>
<text transform="rotate(-0 486.72 674.28)" x="486.72" y="674.275937" font-family="DejaVu Sans" font-size="14px" text-anchor="middle">Год</text>
<defs>
<path id="c" d="m0 0h-3.5" stroke="#000" stroke-width=".8"/>
</defs>
<use x="65.52" y="642.96" stroke="#000000" stroke-width=".8" xlink:href="#c"/>
<text transform="rotate(-0 58.52 646.76)" x="58.52" y="646.759219" font-family="DejaVu Sans" font-size="10px" text-anchor="end">0</text>
<use x="65.52" y="571.922619" stroke="#000000" stroke-width=".8" xlink:href="#c"/>
<text transform="rotate(-0 58.52 575.72)" x="58.52" y="575.721838" font-family="DejaVu Sans" font-size="10px" text-anchor="end">2500</text>
<use x="65.52" y="500.885238" stroke="#000000" stroke-width=".8" xlink:href="#c"/>
<text transform="rotate(-0 58.52 504.68)" x="58.52" y="504.684456" font-family="DejaVu Sans" font-size="10px" text-anchor="end">5000</text>
<use x="65.52" y="429.847856" stroke="#000000" stroke-width=".8" xlink:href="#c"/>
<text transform="rotate(-0 58.52 433.65)" x="58.52" y="433.647075" font-family="DejaVu Sans" font-size="10px" text-anchor="end">7500</text>
<use x="65.52" y="358.810475" stroke="#000000" stroke-width=".8" xlink:href="#c"/>
<text transform="rotate(-0 58.52 362.61)" x="58.52" y="362.609694" font-family="DejaVu Sans" font-size="10px" text-anchor="end">10000</text>
<use x="65.52" y="287.773094" stroke="#000000" stroke-width=".8" xlink:href="#c"/>
<text transform="rotate(-0 58.52 291.57)" x="58.52" y="291.572313" font-family="DejaVu Sans" font-size="10px" text-anchor="end">12500</text>
<use x="65.52" y="216.735713" stroke="#000000" stroke-width=".8" xlink:href="#c"/>
<text transform="rotate(-0 58.52 220.53)" x="58.52" y="220.534932" font-family="DejaVu Sans" font-size="10px" text-anchor="end">15000</text>
<use x="65.52" y="145.698332" stroke="#000000" stroke-width=".8" xlink:href="#c"/>
<text transform="rotate(-0 58.52 149.5)" x="58.52" y="149.497551" font-family="DejaVu Sans" font-size="10px" text-anchor="end">17500</text>
<use x="65.52" y="74.660951" stroke="#000000" stroke-width=".8" xlink:href="#c"/>
<text transform="rotate(-0 58.52 78.46)" x="58.52" y="78.460169" font-family="DejaVu Sans" font-size="10px" text-anchor="end">20000</text>
<text transform="rotate(-90 19.796 335.16)" x="19.795938" y="335.16" font-family="DejaVu Sans" font-size="14px" text-anchor="middle">Открытий СН за год</text>
<path d="m65.52 642.96v-615.6" fill="none" stroke="#000" stroke-linecap="square" stroke-width=".8"/>
<path d="m907.92 642.96v-615.6" fill="none" stroke="#000" stroke-linecap="square" stroke-width=".8"/>
<path d="m65.52 642.96h842.4" fill="none" stroke="#000" stroke-linecap="square" stroke-width=".8"/>
<path d="m65.52 27.36h842.4" fill="none" stroke="#000" stroke-linecap="square" stroke-width=".8"/>
<text transform="rotate(-0 87.041 607.7)" x="87.041168" y="607.698076" font-family="DejaVu Sans" font-size="10px" text-anchor="middle">1065</text>
<text transform="rotate(-0 117.79 635.23)" x="117.785693" y="635.232165" font-family="DejaVu Sans" font-size="10px" text-anchor="middle">96</text>
<text transform="rotate(-0 148.53 633.33)" x="148.530219" y="633.328363" font-family="DejaVu Sans" font-size="10px" text-anchor="middle">163</text>
<text transform="rotate(-0 179.27 633.36)" x="179.274745" y="633.356778" font-family="DejaVu Sans" font-size="10px" text-anchor="middle">162</text>
<text transform="rotate(-0 210.02 632.22)" x="210.01927" y="632.22018" font-family="DejaVu Sans" font-size="10px" text-anchor="middle">202</text>
<text transform="rotate(-0 240.76 632.39)" x="240.763796" y="632.390669" font-family="DejaVu Sans" font-size="10px" text-anchor="middle">196</text>
<text transform="rotate(-0 271.51 629.21)" x="271.508321" y="629.208195" font-family="DejaVu Sans" font-size="10px" text-anchor="middle">308</text>
<text transform="rotate(-0 302.25 627.96)" x="302.252847" y="627.957937" font-family="DejaVu Sans" font-size="10px" text-anchor="middle">352</text>
<text transform="rotate(-0 333 627.3)" x="332.997372" y="627.304393" font-family="DejaVu Sans" font-size="10px" text-anchor="middle">375</text>
<text transform="rotate(-0 363.74 628.21)" x="363.741898" y="628.213671" font-family="DejaVu Sans" font-size="10px" text-anchor="middle">343</text>
<text transform="rotate(-0 394.49 627.05)" x="394.486423" y="627.048658" font-family="DejaVu Sans" font-size="10px" text-anchor="middle">384</text>
<text transform="rotate(-0 425.23 622.13)" x="425.230949" y="622.132871" font-family="DejaVu Sans" font-size="10px" text-anchor="middle">557</text>
<text transform="rotate(-0 455.98 620.77)" x="455.975474" y="620.768954" font-family="DejaVu Sans" font-size="10px" text-anchor="middle">605</text>
<text transform="rotate(-0 486.72 623.55)" x="486.72" y="623.553619" font-family="DejaVu Sans" font-size="10px" text-anchor="middle">507</text>
<text transform="rotate(-0 517.46 622.08)" x="517.464526" y="622.076042" font-family="DejaVu Sans" font-size="10px" text-anchor="middle">559</text>
<text transform="rotate(-0 548.21 621.22)" x="548.209051" y="621.223593" font-family="DejaVu Sans" font-size="10px" text-anchor="middle">589</text>
<text transform="rotate(-0 578.95 612.22)" x="578.953577" y="612.216053" font-family="DejaVu Sans" font-size="10px" text-anchor="middle">906</text>
<text transform="rotate(-0 609.7 607.9)" x="609.698102" y="607.89698" font-family="DejaVu Sans" font-size="10px" text-anchor="middle">1058</text>
<text transform="rotate(-0 640.44 594.03)" x="640.442628" y="594.030483" font-family="DejaVu Sans" font-size="10px" text-anchor="middle">1546</text>
<text transform="rotate(-0 671.19 580.79)" x="671.187153" y="580.789116" font-family="DejaVu Sans" font-size="10px" text-anchor="middle">2012</text>
<text transform="rotate(-0 701.93 538.08)" x="701.931679" y="538.081442" font-family="DejaVu Sans" font-size="10px" text-anchor="middle">3515</text>
<text transform="rotate(-0 732.68 430.79)" x="732.676204" y="430.786582" font-family="DejaVu Sans" font-size="10px" text-anchor="middle">7291</text>
<text transform="rotate(-0 763.42 416.78)" x="763.42073" y="416.77801" font-family="DejaVu Sans" font-size="10px" text-anchor="middle">7784</text>
<text transform="rotate(-0 794.17 415.1)" x="794.165255" y="415.101528" font-family="DejaVu Sans" font-size="10px" text-anchor="middle">7843</text>
<text transform="rotate(-0 824.91 182.55)" x="824.909781" y="182.553557" font-family="DejaVu Sans" font-size="10px" text-anchor="middle">16027</text>
<text transform="rotate(-0 855.65 90.034)" x="855.654307" y="90.034472" font-family="DejaVu Sans" font-size="10px" text-anchor="middle">19283</text>
<text transform="rotate(-0 886.4 51.674)" x="886.398832" y="51.674286" font-family="DejaVu Sans" font-size="10px" text-anchor="middle">20633</text>
<text transform="rotate(-0 486.72 21.36)" x="486.72" y="21.36" font-family="DejaVu Sans" font-size="22px" text-anchor="middle">Статистика открытий сверхновых по годам</text>
<defs>
<clipPath id="a">
<rect x="65.52" y="27.36" width="842.4" height="615.6"/>
</clipPath>
</defs>
</svg>
