<?xml version="1.0" encoding="UTF-8"?>
<!DOCTYPE svg  PUBLIC '-//W3C//DTD SVG 1.1//EN'  'http://www.w3.org/Graphics/SVG/1.1/DTD/svg11.dtd'>
<svg width="936pt" height="684pt" version="1.1" viewBox="0 0 936 684" xmlns="http://www.w3.org/2000/svg" xmlns:xlink="http://www.w3.org/1999/xlink">
<defs>
<style type="text/css">*{stroke-linecap:butt;stroke-linejoin:round;}</style>
</defs>
<path d="m0 684h936v-684h-936z" fill="#fff"/>
<path d="m65.52 642.96h842.4v-615.6h-842.4z" fill="#fff"/>
<path d="m73.975 642.96h26.133v-22.885h-26.133z" clip-path="url(#a)" fill="#1f77b4"/>
<path d="m104.72 642.96h26.133v-2.194h-26.133z" clip-path="url(#a)" fill="#1f77b4"/>
<path d="m135.46 642.96h26.133v-4.2661h-26.133z" clip-path="url(#a)" fill="#1f77b4"/>
<path d="m166.21 642.96h26.133v-4.3271h-26.133z" clip-path="url(#a)" fill="#1f77b4"/>
<path d="m196.95 642.96h26.133v-4.2052h-26.133z" clip-path="url(#a)" fill="#1f77b4"/>
<path d="m227.7 642.96h26.133v-3.7481h-26.133z" clip-path="url(#a)" fill="#1f77b4"/>
<path d="m258.44 642.96h26.133v-6.5515h-26.133z" clip-path="url(#a)" fill="#1f77b4"/>
<path d="m289.19 642.96h26.133v-7.5266h-26.133z" clip-path="url(#a)" fill="#1f77b4"/>
<path d="m319.93 642.96h26.133v-7.4962h-26.133z" clip-path="url(#a)" fill="#1f77b4"/>
<path d="m350.68 642.96h26.133v-6.2468h-26.133z" clip-path="url(#a)" fill="#1f77b4"/>
<path d="m381.42 642.96h26.133v-7.6485h-26.133z" clip-path="url(#a)" fill="#1f77b4"/>
<path d="m412.16 642.96h26.133v-12.89h-26.133z" clip-path="url(#a)" fill="#1f77b4"/>
<path d="m442.91 642.96h26.133v-14.992h-26.133z" clip-path="url(#a)" fill="#1f77b4"/>
<path d="m473.65 642.96h26.133v-11.244h-26.133z" clip-path="url(#a)" fill="#1f77b4"/>
<path d="m504.4 642.96h26.133v-12.585h-26.133z" clip-path="url(#a)" fill="#1f77b4"/>
<path d="m535.14 642.96h26.133v-13.286h-26.133z" clip-path="url(#a)" fill="#1f77b4"/>
<path d="m565.89 642.96h26.133v-22.458h-26.133z" clip-path="url(#a)" fill="#1f77b4"/>
<path d="m596.63 642.96h26.133v-27.029h-26.133z" clip-path="url(#a)" fill="#1f77b4"/>
<path d="m627.38 642.96h26.133v-40.528h-26.133z" clip-path="url(#a)" fill="#1f77b4"/>
<path d="m658.12 642.96h26.133v-55.246h-26.133z" clip-path="url(#a)" fill="#1f77b4"/>
<path d="m688.87 642.96h26.133v-99.827h-26.133z" clip-path="url(#a)" fill="#1f77b4"/>
<path d="m719.61 642.96h26.133v-214.04h-26.133z" clip-path="url(#a)" fill="#1f77b4"/>
<path d="m750.35 642.96h26.133v-229.61h-26.133z" clip-path="url(#a)" fill="#1f77b4"/>
<path d="m781.1 642.96h26.133v-231.53h-26.133z" clip-path="url(#a)" fill="#1f77b4"/>
<path d="m811.84 642.96h26.133v-482.44h-26.133z" clip-path="url(#a)" fill="#1f77b4"/>
<path d="m842.59 642.96h26.133v-582.39h-26.133z" clip-path="url(#a)" fill="#1f77b4"/>
<path d="m873.33 642.96h26.133v-126.58h-26.133z" clip-path="url(#a)" fill="#1f77b4"/>
<path d="m73.975 620.08h26.133v-9.2026h-26.133z" clip-path="url(#a)" fill="#ff7f0e"/>
<path d="m104.72 640.77h26.133v-0.73133h-26.133z" clip-path="url(#a)" fill="#ff7f0e"/>
<path d="m135.46 638.69h26.133v-0.70086h-26.133z" clip-path="url(#a)" fill="#ff7f0e"/>
<path d="m166.21 638.63h26.133v-0.60944h-26.133z" clip-path="url(#a)" fill="#ff7f0e"/>
<path d="m196.95 638.75h26.133v-1.9502h-26.133z" clip-path="url(#a)" fill="#ff7f0e"/>
<path d="m227.7 639.21h26.133v-2.2245h-26.133z" clip-path="url(#a)" fill="#ff7f0e"/>
<path d="m258.44 636.41h26.133v-2.8339h-26.133z" clip-path="url(#a)" fill="#ff7f0e"/>
<path d="m289.19 635.43h26.133v-3.1996h-26.133z" clip-path="url(#a)" fill="#ff7f0e"/>
<path d="m319.93 635.46h26.133v-3.9309h-26.133z" clip-path="url(#a)" fill="#ff7f0e"/>
<path d="m350.68 636.71h26.133v-4.2052h-26.133z" clip-path="url(#a)" fill="#ff7f0e"/>
<path d="m381.42 635.31h26.133v-4.0528h-26.133z" clip-path="url(#a)" fill="#ff7f0e"/>
<path d="m412.16 630.07h26.133v-4.0833h-26.133z" clip-path="url(#a)" fill="#ff7f0e"/>
<path d="m442.91 627.97h26.133v-3.4434h-26.133z" clip-path="url(#a)" fill="#ff7f0e"/>
<path d="m473.65 631.72h26.133v-4.2052h-26.133z" clip-path="url(#a)" fill="#ff7f0e"/>
<path d="m504.4 630.37h26.133v-4.4489h-26.133z" clip-path="url(#a)" fill="#ff7f0e"/>
<path d="m535.14 629.67h26.133v-4.6623h-26.133z" clip-path="url(#a)" fill="#ff7f0e"/>
<path d="m565.89 620.5h26.133v-5.1193h-26.133z" clip-path="url(#a)" fill="#ff7f0e"/>
<path d="m596.63 615.93h26.133v-5.2108h-26.133z" clip-path="url(#a)" fill="#ff7f0e"/>
<path d="m627.38 602.43h26.133v-6.3687h-26.133z" clip-path="url(#a)" fill="#ff7f0e"/>
<path d="m658.12 587.71h26.133v-5.6374h-26.133z" clip-path="url(#a)" fill="#ff7f0e"/>
<path d="m688.87 543.13h26.133v-6.0944h-26.133z" clip-path="url(#a)" fill="#ff7f0e"/>
<path d="m719.61 428.92h26.133v-7.6181h-26.133z" clip-path="url(#a)" fill="#ff7f0e"/>
<path d="m750.35 413.35h26.133v-7.1914h-26.133z" clip-path="url(#a)" fill="#ff7f0e"/>
<path d="m781.1 411.43h26.133v-4.5404h-26.133z" clip-path="url(#a)" fill="#ff7f0e"/>
<path d="m811.84 160.52h26.133v-3.8395h-26.133z" clip-path="url(#a)" fill="#ff7f0e"/>
<path d="m842.59 60.575h26.133v-3.9004h-26.133z" clip-path="url(#a)" fill="#ff7f0e"/>
<path d="m873.33 516.38h26.133v-0.48756h-26.133z" clip-path="url(#a)" fill="#ff7f0e"/>
<defs>
<path id="b" d="m0 0v3.5" stroke="#000" stroke-width=".8"/>
</defs>
<use x="87.041168" y="642.96" stroke="#000000" stroke-width=".8" xlink:href="#b"/>
<text transform="rotate(-0 87.041 657.56)" x="87.041168" y="657.558437" font-family="DejaVu Sans" font-size="10px" text-anchor="middle">до 1996</text>
<use x="117.785693" y="642.96" stroke="#000000" stroke-width=".8" xlink:href="#b"/>
<text transform="rotate(-0 117.79 657.56)" x="117.785693" y="657.558437" font-family="DejaVu Sans" font-size="10px" text-anchor="middle">1996</text>
<use x="148.530219" y="642.96" stroke="#000000" stroke-width=".8" xlink:href="#b"/>
<text transform="rotate(-0 148.53 657.56)" x="148.530219" y="657.558437" font-family="DejaVu Sans" font-size="10px" text-anchor="middle">1997</text>
<use x="179.274745" y="642.96" stroke="#000000" stroke-width=".8" xlink:href="#b"/>
<text transform="rotate(-0 179.27 657.56)" x="179.274745" y="657.558437" font-family="DejaVu Sans" font-size="10px" text-anchor="middle">1998</text>
<use x="210.01927" y="642.96" stroke="#000000" stroke-width=".8" xlink:href="#b"/>
<text transform="rotate(-0 210.02 657.56)" x="210.01927" y="657.558437" font-family="DejaVu Sans" font-size="10px" text-anchor="middle">1999</text>
<use x="240.763796" y="642.96" stroke="#000000" stroke-width=".8" xlink:href="#b"/>
<text transform="rotate(-0 240.76 657.56)" x="240.763796" y="657.558437" font-family="DejaVu Sans" font-size="10px" text-anchor="middle">2000</text>
<use x="271.508321" y="642.96" stroke="#000000" stroke-width=".8" xlink:href="#b"/>
<text transform="rotate(-0 271.51 657.56)" x="271.508321" y="657.558437" font-family="DejaVu Sans" font-size="10px" text-anchor="middle">2001</text>
<use x="302.252847" y="642.96" stroke="#000000" stroke-width=".8" xlink:href="#b"/>
<text transform="rotate(-0 302.25 657.56)" x="302.252847" y="657.558437" font-family="DejaVu Sans" font-size="10px" text-anchor="middle">2002</text>
<use x="332.997372" y="642.96" stroke="#000000" stroke-width=".8" xlink:href="#b"/>
<text transform="rotate(-0 333 657.56)" x="332.997372" y="657.558437" font-family="DejaVu Sans" font-size="10px" text-anchor="middle">2003</text>
<use x="363.741898" y="642.96" stroke="#000000" stroke-width=".8" xlink:href="#b"/>
<text transform="rotate(-0 363.74 657.56)" x="363.741898" y="657.558437" font-family="DejaVu Sans" font-size="10px" text-anchor="middle">2004</text>
<use x="394.486423" y="642.96" stroke="#000000" stroke-width=".8" xlink:href="#b"/>
<text transform="rotate(-0 394.49 657.56)" x="394.486423" y="657.558437" font-family="DejaVu Sans" font-size="10px" text-anchor="middle">2005</text>
<use x="425.230949" y="642.96" stroke="#000000" stroke-width=".8" xlink:href="#b"/>
<text transform="rotate(-0 425.23 657.56)" x="425.230949" y="657.558437" font-family="DejaVu Sans" font-size="10px" text-anchor="middle">2006</text>
<use x="455.975474" y="642.96" stroke="#000000" stroke-width=".8" xlink:href="#b"/>
<text transform="rotate(-0 455.98 657.56)" x="455.975474" y="657.558437" font-family="DejaVu Sans" font-size="10px" text-anchor="middle">2007</text>
<use x="486.72" y="642.96" stroke="#000000" stroke-width=".8" xlink:href="#b"/>
<text transform="rotate(-0 486.72 657.56)" x="486.72" y="657.558437" font-family="DejaVu Sans" font-size="10px" text-anchor="middle">2008</text>
<use x="517.464526" y="642.96" stroke="#000000" stroke-width=".8" xlink:href="#b"/>
<text transform="rotate(-0 517.46 657.56)" x="517.464526" y="657.558437" font-family="DejaVu Sans" font-size="10px" text-anchor="middle">2009</text>
<use x="548.209051" y="642.96" stroke="#000000" stroke-width=".8" xlink:href="#b"/>
<text transform="rotate(-0 548.21 657.56)" x="548.209051" y="657.558437" font-family="DejaVu Sans" font-size="10px" text-anchor="middle">2010</text>
<use x="578.953577" y="642.96" stroke="#000000" stroke-width=".8" xlink:href="#b"/>
<text transform="rotate(-0 578.95 657.56)" x="578.953577" y="657.558437" font-family="DejaVu Sans" font-size="10px" text-anchor="middle">2011</text>
<use x="609.698102" y="642.96" stroke="#000000" stroke-width=".8" xlink:href="#b"/>
<text transform="rotate(-0 609.7 657.56)" x="609.698102" y="657.558437" font-family="DejaVu Sans" font-size="10px" text-anchor="middle">2012</text>
<use x="640.442628" y="642.96" stroke="#000000" stroke-width=".8" xlink:href="#b"/>
<text transform="rotate(-0 640.44 657.56)" x="640.442628" y="657.558437" font-family="DejaVu Sans" font-size="10px" text-anchor="middle">2013</text>
<use x="671.187153" y="642.96" stroke="#000000" stroke-width=".8" xlink:href="#b"/>
<text transform="rotate(-0 671.19 657.56)" x="671.187153" y="657.558437" font-family="DejaVu Sans" font-size="10px" text-anchor="middle">2014</text>
<use x="701.931679" y="642.96" stroke="#000000" stroke-width=".8" xlink:href="#b"/>
<text transform="rotate(-0 701.93 657.56)" x="701.931679" y="657.558437" font-family="DejaVu Sans" font-size="10px" text-anchor="middle">2015</text>
<use x="732.676204" y="642.96" stroke="#000000" stroke-width=".8" xlink:href="#b"/>
<text transform="rotate(-0 732.68 657.56)" x="732.676204" y="657.558437" font-family="DejaVu Sans" font-size="10px" text-anchor="middle">2016</text>
<use x="763.42073" y="642.96" stroke="#000000" stroke-width=".8" xlink:href="#b"/>
<text transform="rotate(-0 763.42 657.56)" x="763.42073" y="657.558437" font-family="DejaVu Sans" font-size="10px" text-anchor="middle">2017</text>
<use x="794.165255" y="642.96" stroke="#000000" stroke-width=".8" xlink:href="#b"/>
<text transform="rotate(-0 794.17 657.56)" x="794.165255" y="657.558437" font-family="DejaVu Sans" font-size="10px" text-anchor="middle">2018</text>
<use x="824.909781" y="642.96" stroke="#000000" stroke-width=".8" xlink:href="#b"/>
<text transform="rotate(-0 824.91 657.56)" x="824.909781" y="657.558437" font-family="DejaVu Sans" font-size="10px" text-anchor="middle">2019</text>
<use x="855.654307" y="642.96" stroke="#000000" stroke-width=".8" xlink:href="#b"/>
<text transform="rotate(-0 855.65 657.56)" x="855.654307" y="657.558437" font-family="DejaVu Sans" font-size="10px" text-anchor="middle">2020</text>
<use x="886.398832" y="642.96" stroke="#000000" stroke-width=".8" xlink:href="#b"/>
<text transform="rotate(-0 886.4 657.56)" x="886.398832" y="657.558437" font-family="DejaVu Sans" font-size="10px" text-anchor="middle">2021</text>
<text transform="rotate(-0 486.72 674.28)" x="486.72" y="674.275937" font-family="DejaVu Sans" font-size="14px" text-anchor="middle">Год</text>
<defs>
<path id="c" d="m0 0h-3.5" stroke="#000" stroke-width=".8"/>
</defs>
<use x="65.52" y="642.96" stroke="#000000" stroke-width=".8" xlink:href="#c"/>
<text transform="rotate(-0 58.52 646.76)" x="58.52" y="646.759219" font-family="DejaVu Sans" font-size="10px" text-anchor="end">0</text>
<use x="65.52" y="566.779424" stroke="#000000" stroke-width=".8" xlink:href="#c"/>
<text transform="rotate(-0 58.52 570.58)" x="58.52" y="570.578643" font-family="DejaVu Sans" font-size="10px" text-anchor="end">2500</text>
<use x="65.52" y="490.598848" stroke="#000000" stroke-width=".8" xlink:href="#c"/>
<text transform="rotate(-0 58.52 494.4)" x="58.52" y="494.398066" font-family="DejaVu Sans" font-size="10px" text-anchor="end">5000</text>
<use x="65.52" y="414.418271" stroke="#000000" stroke-width=".8" xlink:href="#c"/>
<text transform="rotate(-0 58.52 418.22)" x="58.52" y="418.21749" font-family="DejaVu Sans" font-size="10px" text-anchor="end">7500</text>
<use x="65.52" y="338.237695" stroke="#000000" stroke-width=".8" xlink:href="#c"/>
<text transform="rotate(-0 58.52 342.04)" x="58.52" y="342.036914" font-family="DejaVu Sans" font-size="10px" text-anchor="end">10000</text>
<use x="65.52" y="262.057119" stroke="#000000" stroke-width=".8" xlink:href="#c"/>
<text transform="rotate(-0 58.52 265.86)" x="58.52" y="265.856338" font-family="DejaVu Sans" font-size="10px" text-anchor="end">12500</text>
<use x="65.52" y="185.876543" stroke="#000000" stroke-width=".8" xlink:href="#c"/>
<text transform="rotate(-0 58.52 189.68)" x="58.52" y="189.675762" font-family="DejaVu Sans" font-size="10px" text-anchor="end">15000</text>
<use x="65.52" y="109.695967" stroke="#000000" stroke-width=".8" xlink:href="#c"/>
<text transform="rotate(-0 58.52 113.5)" x="58.52" y="113.495185" font-family="DejaVu Sans" font-size="10px" text-anchor="end">17500</text>
<use x="65.52" y="33.515391" stroke="#000000" stroke-width=".8" xlink:href="#c"/>
<text transform="rotate(-0 58.52 37.315)" x="58.52" y="37.314609" font-family="DejaVu Sans" font-size="10px" text-anchor="end">20000</text>
<text transform="rotate(-90 19.796 335.16)" x="19.795938" y="335.16" font-family="DejaVu Sans" font-size="14px" text-anchor="middle">Открытий СН за год</text>
<path d="m65.52 642.96v-615.6" fill="none" stroke="#000" stroke-linecap="square" stroke-width=".8"/>
<path d="m907.92 642.96v-615.6" fill="none" stroke="#000" stroke-linecap="square" stroke-width=".8"/>
<path d="m65.52 642.96h842.4" fill="none" stroke="#000" stroke-linecap="square" stroke-width=".8"/>
<path d="m65.52 27.36h842.4" fill="none" stroke="#000" stroke-linecap="square" stroke-width=".8"/>
<text transform="rotate(-0 87.041 605.87)" x="87.041168" y="605.872741" font-family="DejaVu Sans" font-size="10px" text-anchor="middle">1053</text>
<text transform="rotate(-0 117.79 635.03)" x="117.785693" y="635.034666" font-family="DejaVu Sans" font-size="10px" text-anchor="middle">96</text>
<text transform="rotate(-0 148.53 632.99)" x="148.530219" y="632.993026" font-family="DejaVu Sans" font-size="10px" text-anchor="middle">163</text>
<text transform="rotate(-0 179.27 633.02)" x="179.274745" y="633.023499" font-family="DejaVu Sans" font-size="10px" text-anchor="middle">162</text>
<text transform="rotate(-0 210.02 631.8)" x="210.01927" y="631.804609" font-family="DejaVu Sans" font-size="10px" text-anchor="middle">202</text>
<text transform="rotate(-0 240.76 631.99)" x="240.763796" y="631.987443" font-family="DejaVu Sans" font-size="10px" text-anchor="middle">196</text>
<text transform="rotate(-0 271.51 628.57)" x="271.508321" y="628.574553" font-family="DejaVu Sans" font-size="10px" text-anchor="middle">308</text>
<text transform="rotate(-0 302.25 627.23)" x="302.252847" y="627.233775" font-family="DejaVu Sans" font-size="10px" text-anchor="middle">352</text>
<text transform="rotate(-0 333 626.53)" x="332.997372" y="626.532914" font-family="DejaVu Sans" font-size="10px" text-anchor="middle">375</text>
<text transform="rotate(-0 363.74 627.51)" x="363.741898" y="627.508025" font-family="DejaVu Sans" font-size="10px" text-anchor="middle">343</text>
<text transform="rotate(-0 394.49 626.26)" x="394.486423" y="626.258663" font-family="DejaVu Sans" font-size="10px" text-anchor="middle">384</text>
<text transform="rotate(-0 425.23 620.99)" x="425.230949" y="620.986968" font-family="DejaVu Sans" font-size="10px" text-anchor="middle">557</text>
<text transform="rotate(-0 455.98 619.52)" x="455.975474" y="619.524301" font-family="DejaVu Sans" font-size="10px" text-anchor="middle">605</text>
<text transform="rotate(-0 486.72 622.51)" x="486.72" y="622.510579" font-family="DejaVu Sans" font-size="10px" text-anchor="middle">507</text>
<text transform="rotate(-0 517.46 620.93)" x="517.464526" y="620.926023" font-family="DejaVu Sans" font-size="10px" text-anchor="middle">559</text>
<text transform="rotate(-0 548.21 620.01)" x="548.209051" y="620.011856" font-family="DejaVu Sans" font-size="10px" text-anchor="middle">589</text>
<text transform="rotate(-0 578.95 610.38)" x="578.953577" y="610.382631" font-family="DejaVu Sans" font-size="10px" text-anchor="middle">905</text>
<text transform="rotate(-0 609.7 605.72)" x="609.698102" y="605.72038" font-family="DejaVu Sans" font-size="10px" text-anchor="middle">1058</text>
<text transform="rotate(-0 640.44 591.06)" x="640.442628" y="591.063237" font-family="DejaVu Sans" font-size="10px" text-anchor="middle">1539</text>
<text transform="rotate(-0 671.19 577.08)" x="671.187153" y="577.076484" font-family="DejaVu Sans" font-size="10px" text-anchor="middle">1998</text>
<text transform="rotate(-0 701.93 532.04)" x="701.931679" y="532.038527" font-family="DejaVu Sans" font-size="10px" text-anchor="middle">3476</text>
<text transform="rotate(-0 732.68 416.3)" x="732.676204" y="416.304996" font-family="DejaVu Sans" font-size="10px" text-anchor="middle">7274</text>
<text transform="rotate(-0 763.42 401.16)" x="763.42073" y="401.160297" font-family="DejaVu Sans" font-size="10px" text-anchor="middle">7771</text>
<text transform="rotate(-0 794.17 401.89)" x="794.165255" y="401.891631" font-family="DejaVu Sans" font-size="10px" text-anchor="middle">7747</text>
<text transform="rotate(-0 824.91 151.68)" x="824.909781" y="151.684146" font-family="DejaVu Sans" font-size="10px" text-anchor="middle">15958</text>
<text transform="rotate(-0 855.65 51.674)" x="855.654307" y="51.674286" font-family="DejaVu Sans" font-size="10px" text-anchor="middle">19240</text>
<text transform="rotate(-0 886.4 510.89)" x="886.398832" y="510.890799" font-family="DejaVu Sans" font-size="10px" text-anchor="middle">4170</text>
<text transform="rotate(-0 486.72 21.36)" x="486.72" y="21.36" font-family="DejaVu Sans" font-size="22px" text-anchor="middle">Статистика открытий сверхновых по годам</text>
<defs>
<clipPath id="a">
<rect x="65.52" y="27.36" width="842.4" height="615.6"/>
</clipPath>
</defs>
</svg>
