<?xml version="1.0" encoding="UTF-8"?>
<!DOCTYPE svg  PUBLIC '-//W3C//DTD SVG 1.1//EN'  'http://www.w3.org/Graphics/SVG/1.1/DTD/svg11.dtd'>
<svg width="936pt" height="684pt" version="1.1" viewBox="0 0 936 684" xmlns="http://www.w3.org/2000/svg" xmlns:xlink="http://www.w3.org/1999/xlink">
<defs>
<style type="text/css">*{stroke-linecap:butt;stroke-linejoin:round;}</style>
</defs>
<path d="m0 684h936v-684h-936z" fill="#fff"/>
<path d="m65.52 642.96h842.4v-615.6h-842.4z" fill="#fff"/>
<path d="m74.295 642.96h27.123v-27.69h-27.123z" clip-path="url(#a)" fill="#1f77b4"/>
<path d="m106.2 642.96h27.123v-2.6547h-27.123z" clip-path="url(#a)" fill="#1f77b4"/>
<path d="m138.11 642.96h27.123v-5.1619h-27.123z" clip-path="url(#a)" fill="#1f77b4"/>
<path d="m170.02 642.96h27.123v-5.2357h-27.123z" clip-path="url(#a)" fill="#1f77b4"/>
<path d="m201.93 642.96h27.123v-5.0882h-27.123z" clip-path="url(#a)" fill="#1f77b4"/>
<path d="m233.84 642.96h27.123v-4.5351h-27.123z" clip-path="url(#a)" fill="#1f77b4"/>
<path d="m265.75 642.96h27.123v-7.9273h-27.123z" clip-path="url(#a)" fill="#1f77b4"/>
<path d="m297.66 642.96h27.123v-9.1071h-27.123z" clip-path="url(#a)" fill="#1f77b4"/>
<path d="m329.57 642.96h27.123v-9.0703h-27.123z" clip-path="url(#a)" fill="#1f77b4"/>
<path d="m361.48 642.96h27.123v-7.5586h-27.123z" clip-path="url(#a)" fill="#1f77b4"/>
<path d="m393.39 642.96h27.123v-9.2546h-27.123z" clip-path="url(#a)" fill="#1f77b4"/>
<path d="m425.3 642.96h27.123v-15.596h-27.123z" clip-path="url(#a)" fill="#1f77b4"/>
<path d="m457.2 642.96h27.123v-18.141h-27.123z" clip-path="url(#a)" fill="#1f77b4"/>
<path d="m489.11 642.96h27.123v-13.605h-27.123z" clip-path="url(#a)" fill="#1f77b4"/>
<path d="m521.02 642.96h27.123v-15.228h-27.123z" clip-path="url(#a)" fill="#1f77b4"/>
<path d="m552.93 642.96h27.123v-16.039h-27.123z" clip-path="url(#a)" fill="#1f77b4"/>
<path d="m584.84 642.96h27.123v-27.174h-27.123z" clip-path="url(#a)" fill="#1f77b4"/>
<path d="m616.75 642.96h27.123v-32.668h-27.123z" clip-path="url(#a)" fill="#1f77b4"/>
<path d="m648.66 642.96h27.123v-48.891h-27.123z" clip-path="url(#a)" fill="#1f77b4"/>
<path d="m680.57 642.96h27.123v-66.847h-27.123z" clip-path="url(#a)" fill="#1f77b4"/>
<path d="m712.48 642.96h27.123v-120.72h-27.123z" clip-path="url(#a)" fill="#1f77b4"/>
<path d="m744.39 642.96h27.123v-258.98h-27.123z" clip-path="url(#a)" fill="#1f77b4"/>
<path d="m776.3 642.96h27.123v-277.68h-27.123z" clip-path="url(#a)" fill="#1f77b4"/>
<path d="m808.2 642.96h27.123v-278.56h-27.123z" clip-path="url(#a)" fill="#1f77b4"/>
<path d="m840.11 642.96h27.123v-581.86h-27.123z" clip-path="url(#a)" fill="#1f77b4"/>
<path d="m872.02 642.96h27.123v-557.05h-27.123z" clip-path="url(#a)" fill="#1f77b4"/>
<path d="m74.295 615.27h27.123v-11.135h-27.123z" clip-path="url(#a)" fill="#ff7f0e"/>
<path d="m106.2 640.31h27.123v-0.8849h-27.123z" clip-path="url(#a)" fill="#ff7f0e"/>
<path d="m138.11 637.8h27.123v-0.84803h-27.123z" clip-path="url(#a)" fill="#ff7f0e"/>
<path d="m170.02 637.72h27.123v-0.73742h-27.123z" clip-path="url(#a)" fill="#ff7f0e"/>
<path d="m201.93 637.87h27.123v-2.3597h-27.123z" clip-path="url(#a)" fill="#ff7f0e"/>
<path d="m233.84 638.42h27.123v-2.6547h-27.123z" clip-path="url(#a)" fill="#ff7f0e"/>
<path d="m265.75 635.03h27.123v-3.429h-27.123z" clip-path="url(#a)" fill="#ff7f0e"/>
<path d="m297.66 633.85h27.123v-3.8346h-27.123z" clip-path="url(#a)" fill="#ff7f0e"/>
<path d="m329.57 633.89h27.123v-4.7564h-27.123z" clip-path="url(#a)" fill="#ff7f0e"/>
<path d="m361.48 635.4h27.123v-5.0882h-27.123z" clip-path="url(#a)" fill="#ff7f0e"/>
<path d="m393.39 633.71h27.123v-4.9038h-27.123z" clip-path="url(#a)" fill="#ff7f0e"/>
<path d="m425.3 627.36h27.123v-4.9407h-27.123z" clip-path="url(#a)" fill="#ff7f0e"/>
<path d="m457.2 624.82h27.123v-4.1664h-27.123z" clip-path="url(#a)" fill="#ff7f0e"/>
<path d="m489.11 629.35h27.123v-5.0882h-27.123z" clip-path="url(#a)" fill="#ff7f0e"/>
<path d="m521.02 627.73h27.123v-5.3832h-27.123z" clip-path="url(#a)" fill="#ff7f0e"/>
<path d="m552.93 626.92h27.123v-5.6044h-27.123z" clip-path="url(#a)" fill="#ff7f0e"/>
<path d="m584.84 615.79h27.123v-6.1943h-27.123z" clip-path="url(#a)" fill="#ff7f0e"/>
<path d="m616.75 610.29h27.123v-6.2681h-27.123z" clip-path="url(#a)" fill="#ff7f0e"/>
<path d="m648.66 594.07h27.123v-7.5586h-27.123z" clip-path="url(#a)" fill="#ff7f0e"/>
<path d="m680.57 576.11h27.123v-6.6368h-27.123z" clip-path="url(#a)" fill="#ff7f0e"/>
<path d="m712.48 522.24h27.123v-7.1898h-27.123z" clip-path="url(#a)" fill="#ff7f0e"/>
<path d="m744.39 383.98h27.123v-9.0334h-27.123z" clip-path="url(#a)" fill="#ff7f0e"/>
<path d="m776.3 365.28h27.123v-8.2591h-27.123z" clip-path="url(#a)" fill="#ff7f0e"/>
<path d="m808.2 364.4h27.123v-5.4569h-27.123z" clip-path="url(#a)" fill="#ff7f0e"/>
<path d="m840.11 61.099h27.123v-4.4245h-27.123z" clip-path="url(#a)" fill="#ff7f0e"/>
<path d="m872.02 85.913h27.123v-3.2078h-27.123z" clip-path="url(#a)" fill="#ff7f0e"/>
<defs>
<path id="b" d="m0 0v3.5" stroke="#000" stroke-width=".8"/>
</defs>
<use x="87.856364" y="642.96" stroke="#000000" stroke-width=".8" xlink:href="#b"/>
<text transform="rotate(-0 87.856 657.56)" x="87.856364" y="657.558437" font-family="DejaVu Sans" font-size="10px" text-anchor="middle">до 1996</text>
<use x="119.765455" y="642.96" stroke="#000000" stroke-width=".8" xlink:href="#b"/>
<text transform="rotate(-0 119.77 657.56)" x="119.765455" y="657.558437" font-family="DejaVu Sans" font-size="10px" text-anchor="middle">1996</text>
<use x="151.674545" y="642.96" stroke="#000000" stroke-width=".8" xlink:href="#b"/>
<text transform="rotate(-0 151.67 657.56)" x="151.674545" y="657.558437" font-family="DejaVu Sans" font-size="10px" text-anchor="middle">1997</text>
<use x="183.583636" y="642.96" stroke="#000000" stroke-width=".8" xlink:href="#b"/>
<text transform="rotate(-0 183.58 657.56)" x="183.583636" y="657.558437" font-family="DejaVu Sans" font-size="10px" text-anchor="middle">1998</text>
<use x="215.492727" y="642.96" stroke="#000000" stroke-width=".8" xlink:href="#b"/>
<text transform="rotate(-0 215.49 657.56)" x="215.492727" y="657.558437" font-family="DejaVu Sans" font-size="10px" text-anchor="middle">1999</text>
<use x="247.401818" y="642.96" stroke="#000000" stroke-width=".8" xlink:href="#b"/>
<text transform="rotate(-0 247.4 657.56)" x="247.401818" y="657.558437" font-family="DejaVu Sans" font-size="10px" text-anchor="middle">2000</text>
<use x="279.310909" y="642.96" stroke="#000000" stroke-width=".8" xlink:href="#b"/>
<text transform="rotate(-0 279.31 657.56)" x="279.310909" y="657.558437" font-family="DejaVu Sans" font-size="10px" text-anchor="middle">2001</text>
<use x="311.22" y="642.96" stroke="#000000" stroke-width=".8" xlink:href="#b"/>
<text transform="rotate(-0 311.22 657.56)" x="311.22" y="657.558437" font-family="DejaVu Sans" font-size="10px" text-anchor="middle">2002</text>
<use x="343.129091" y="642.96" stroke="#000000" stroke-width=".8" xlink:href="#b"/>
<text transform="rotate(-0 343.13 657.56)" x="343.129091" y="657.558437" font-family="DejaVu Sans" font-size="10px" text-anchor="middle">2003</text>
<use x="375.038182" y="642.96" stroke="#000000" stroke-width=".8" xlink:href="#b"/>
<text transform="rotate(-0 375.04 657.56)" x="375.038182" y="657.558437" font-family="DejaVu Sans" font-size="10px" text-anchor="middle">2004</text>
<use x="406.947273" y="642.96" stroke="#000000" stroke-width=".8" xlink:href="#b"/>
<text transform="rotate(-0 406.95 657.56)" x="406.947273" y="657.558437" font-family="DejaVu Sans" font-size="10px" text-anchor="middle">2005</text>
<use x="438.856364" y="642.96" stroke="#000000" stroke-width=".8" xlink:href="#b"/>
<text transform="rotate(-0 438.86 657.56)" x="438.856364" y="657.558437" font-family="DejaVu Sans" font-size="10px" text-anchor="middle">2006</text>
<use x="470.765455" y="642.96" stroke="#000000" stroke-width=".8" xlink:href="#b"/>
<text transform="rotate(-0 470.77 657.56)" x="470.765455" y="657.558437" font-family="DejaVu Sans" font-size="10px" text-anchor="middle">2007</text>
<use x="502.674545" y="642.96" stroke="#000000" stroke-width=".8" xlink:href="#b"/>
<text transform="rotate(-0 502.67 657.56)" x="502.674545" y="657.558437" font-family="DejaVu Sans" font-size="10px" text-anchor="middle">2008</text>
<use x="534.583636" y="642.96" stroke="#000000" stroke-width=".8" xlink:href="#b"/>
<text transform="rotate(-0 534.58 657.56)" x="534.583636" y="657.558437" font-family="DejaVu Sans" font-size="10px" text-anchor="middle">2009</text>
<use x="566.492727" y="642.96" stroke="#000000" stroke-width=".8" xlink:href="#b"/>
<text transform="rotate(-0 566.49 657.56)" x="566.492727" y="657.558437" font-family="DejaVu Sans" font-size="10px" text-anchor="middle">2010</text>
<use x="598.401818" y="642.96" stroke="#000000" stroke-width=".8" xlink:href="#b"/>
<text transform="rotate(-0 598.4 657.56)" x="598.401818" y="657.558437" font-family="DejaVu Sans" font-size="10px" text-anchor="middle">2011</text>
<use x="630.310909" y="642.96" stroke="#000000" stroke-width=".8" xlink:href="#b"/>
<text transform="rotate(-0 630.31 657.56)" x="630.310909" y="657.558437" font-family="DejaVu Sans" font-size="10px" text-anchor="middle">2012</text>
<use x="662.22" y="642.96" stroke="#000000" stroke-width=".8" xlink:href="#b"/>
<text transform="rotate(-0 662.22 657.56)" x="662.22" y="657.558437" font-family="DejaVu Sans" font-size="10px" text-anchor="middle">2013</text>
<use x="694.129091" y="642.96" stroke="#000000" stroke-width=".8" xlink:href="#b"/>
<text transform="rotate(-0 694.13 657.56)" x="694.129091" y="657.558437" font-family="DejaVu Sans" font-size="10px" text-anchor="middle">2014</text>
<use x="726.038182" y="642.96" stroke="#000000" stroke-width=".8" xlink:href="#b"/>
<text transform="rotate(-0 726.04 657.56)" x="726.038182" y="657.558437" font-family="DejaVu Sans" font-size="10px" text-anchor="middle">2015</text>
<use x="757.947273" y="642.96" stroke="#000000" stroke-width=".8" xlink:href="#b"/>
<text transform="rotate(-0 757.95 657.56)" x="757.947273" y="657.558437" font-family="DejaVu Sans" font-size="10px" text-anchor="middle">2016</text>
<use x="789.856364" y="642.96" stroke="#000000" stroke-width=".8" xlink:href="#b"/>
<text transform="rotate(-0 789.86 657.56)" x="789.856364" y="657.558437" font-family="DejaVu Sans" font-size="10px" text-anchor="middle">2017</text>
<use x="821.765455" y="642.96" stroke="#000000" stroke-width=".8" xlink:href="#b"/>
<text transform="rotate(-0 821.77 657.56)" x="821.765455" y="657.558437" font-family="DejaVu Sans" font-size="10px" text-anchor="middle">2018</text>
<use x="853.674545" y="642.96" stroke="#000000" stroke-width=".8" xlink:href="#b"/>
<text transform="rotate(-0 853.67 657.56)" x="853.674545" y="657.558437" font-family="DejaVu Sans" font-size="10px" text-anchor="middle">2019</text>
<use x="885.583636" y="642.96" stroke="#000000" stroke-width=".8" xlink:href="#b"/>
<text transform="rotate(-0 885.58 657.56)" x="885.583636" y="657.558437" font-family="DejaVu Sans" font-size="10px" text-anchor="middle">2020</text>
<text transform="rotate(-0 486.72 674.28)" x="486.72" y="674.275937" font-family="DejaVu Sans" font-size="14px" text-anchor="middle">Год</text>
<defs>
<path id="c" d="m0 0h-3.5" stroke="#000" stroke-width=".8"/>
</defs>
<use x="65.52" y="642.96" stroke="#000000" stroke-width=".8" xlink:href="#c"/>
<text transform="rotate(-0 58.52 646.76)" x="58.52" y="646.759219" font-family="DejaVu Sans" font-size="10px" text-anchor="end">0</text>
<use x="65.52" y="569.218007" stroke="#000000" stroke-width=".8" xlink:href="#c"/>
<text transform="rotate(-0 58.52 573.02)" x="58.52" y="573.017226" font-family="DejaVu Sans" font-size="10px" text-anchor="end">2000</text>
<use x="65.52" y="495.476014" stroke="#000000" stroke-width=".8" xlink:href="#c"/>
<text transform="rotate(-0 58.52 499.28)" x="58.52" y="499.275233" font-family="DejaVu Sans" font-size="10px" text-anchor="end">4000</text>
<use x="65.52" y="421.734021" stroke="#000000" stroke-width=".8" xlink:href="#c"/>
<text transform="rotate(-0 58.52 425.53)" x="58.52" y="425.53324" font-family="DejaVu Sans" font-size="10px" text-anchor="end">6000</text>
<use x="65.52" y="347.992029" stroke="#000000" stroke-width=".8" xlink:href="#c"/>
<text transform="rotate(-0 58.52 351.79)" x="58.52" y="351.791247" font-family="DejaVu Sans" font-size="10px" text-anchor="end">8000</text>
<use x="65.52" y="274.250036" stroke="#000000" stroke-width=".8" xlink:href="#c"/>
<text transform="rotate(-0 58.52 278.05)" x="58.52" y="278.049254" font-family="DejaVu Sans" font-size="10px" text-anchor="end">10000</text>
<use x="65.52" y="200.508043" stroke="#000000" stroke-width=".8" xlink:href="#c"/>
<text transform="rotate(-0 58.52 204.31)" x="58.52" y="204.307262" font-family="DejaVu Sans" font-size="10px" text-anchor="end">12000</text>
<use x="65.52" y="126.76605" stroke="#000000" stroke-width=".8" xlink:href="#c"/>
<text transform="rotate(-0 58.52 130.57)" x="58.52" y="130.565269" font-family="DejaVu Sans" font-size="10px" text-anchor="end">14000</text>
<use x="65.52" y="53.024057" stroke="#000000" stroke-width=".8" xlink:href="#c"/>
<text transform="rotate(-0 58.52 56.823)" x="58.52" y="56.823276" font-family="DejaVu Sans" font-size="10px" text-anchor="end">16000</text>
<text transform="rotate(-90 19.796 335.16)" x="19.795938" y="335.16" font-family="DejaVu Sans" font-size="14px" text-anchor="middle">Открытий СН за год</text>
<path d="m65.52 642.96v-615.6" fill="none" stroke="#000" stroke-linecap="square" stroke-width=".8"/>
<path d="m907.92 642.96v-615.6" fill="none" stroke="#000" stroke-linecap="square" stroke-width=".8"/>
<path d="m65.52 642.96h842.4" fill="none" stroke="#000" stroke-linecap="square" stroke-width=".8"/>
<path d="m65.52 27.36h842.4" fill="none" stroke="#000" stroke-linecap="square" stroke-width=".8"/>
<text transform="rotate(-0 87.856 599.13)" x="87.856364" y="599.134841" font-family="DejaVu Sans" font-size="10px" text-anchor="middle">1053</text>
<text transform="rotate(-0 119.77 634.42)" x="119.765455" y="634.420384" font-family="DejaVu Sans" font-size="10px" text-anchor="middle">96</text>
<text transform="rotate(-0 151.67 631.95)" x="151.674545" y="631.950028" font-family="DejaVu Sans" font-size="10px" text-anchor="middle">163</text>
<text transform="rotate(-0 183.58 631.99)" x="183.583636" y="631.986899" font-family="DejaVu Sans" font-size="10px" text-anchor="middle">162</text>
<text transform="rotate(-0 215.49 630.51)" x="215.492727" y="630.512059" font-family="DejaVu Sans" font-size="10px" text-anchor="middle">202</text>
<text transform="rotate(-0 247.4 630.77)" x="247.401818" y="630.770156" font-family="DejaVu Sans" font-size="10px" text-anchor="middle">195</text>
<text transform="rotate(-0 279.31 626.6)" x="279.310909" y="626.603733" font-family="DejaVu Sans" font-size="10px" text-anchor="middle">308</text>
<text transform="rotate(-0 311.22 625.02)" x="311.22" y="625.01828" font-family="DejaVu Sans" font-size="10px" text-anchor="middle">351</text>
<text transform="rotate(-0 343.13 624.13)" x="343.129091" y="624.133376" font-family="DejaVu Sans" font-size="10px" text-anchor="middle">375</text>
<text transform="rotate(-0 375.04 625.31)" x="375.038182" y="625.313248" font-family="DejaVu Sans" font-size="10px" text-anchor="middle">343</text>
<text transform="rotate(-0 406.95 623.8)" x="406.947273" y="623.801537" font-family="DejaVu Sans" font-size="10px" text-anchor="middle">384</text>
<text transform="rotate(-0 438.86 617.42)" x="438.856364" y="617.422855" font-family="DejaVu Sans" font-size="10px" text-anchor="middle">557</text>
<text transform="rotate(-0 470.77 615.65)" x="470.765455" y="615.653047" font-family="DejaVu Sans" font-size="10px" text-anchor="middle">605</text>
<text transform="rotate(-0 502.67 619.27)" x="502.674545" y="619.266405" font-family="DejaVu Sans" font-size="10px" text-anchor="middle">507</text>
<text transform="rotate(-0 534.58 617.35)" x="534.583636" y="617.349113" font-family="DejaVu Sans" font-size="10px" text-anchor="middle">559</text>
<text transform="rotate(-0 566.49 616.32)" x="566.492727" y="616.316725" font-family="DejaVu Sans" font-size="10px" text-anchor="middle">587</text>
<text transform="rotate(-0 598.4 604.59)" x="598.401818" y="604.591748" font-family="DejaVu Sans" font-size="10px" text-anchor="middle">905</text>
<text transform="rotate(-0 630.31 599.02)" x="630.310909" y="599.024228" font-family="DejaVu Sans" font-size="10px" text-anchor="middle">1056</text>
<text transform="rotate(-0 662.22 581.51)" x="662.22" y="581.510504" font-family="DejaVu Sans" font-size="10px" text-anchor="middle">1531</text>
<text transform="rotate(-0 694.13 564.48)" x="694.129091" y="564.476104" font-family="DejaVu Sans" font-size="10px" text-anchor="middle">1993</text>
<text transform="rotate(-0 726.04 510.05)" x="726.038182" y="510.054513" font-family="DejaVu Sans" font-size="10px" text-anchor="middle">3469</text>
<text transform="rotate(-0 757.95 369.94)" x="757.947273" y="369.944727" font-family="DejaVu Sans" font-size="10px" text-anchor="middle">7269</text>
<text transform="rotate(-0 789.86 352.03)" x="789.856364" y="352.025423" font-family="DejaVu Sans" font-size="10px" text-anchor="middle">7755</text>
<text transform="rotate(-0 821.77 353.94)" x="821.765455" y="353.942714" font-family="DejaVu Sans" font-size="10px" text-anchor="middle">7703</text>
<text transform="rotate(-0 853.67 51.674)" x="853.674545" y="51.674286" font-family="DejaVu Sans" font-size="10px" text-anchor="middle">15901</text>
<text transform="rotate(-0 885.58 77.705)" x="885.583636" y="77.705209" font-family="DejaVu Sans" font-size="10px" text-anchor="middle">15195</text>
<text transform="rotate(-0 486.72 21.36)" x="486.72" y="21.36" font-family="DejaVu Sans" font-size="22px" text-anchor="middle">Статистика открытий сверхновых по годам</text>
<defs>
<clipPath id="a">
<rect x="65.52" y="27.36" width="842.4" height="615.6"/>
</clipPath>
</defs>
</svg>
