<?xml version="1.0" encoding="UTF-8"?>
<!DOCTYPE svg  PUBLIC '-//W3C//DTD SVG 1.1//EN'  'http://www.w3.org/Graphics/SVG/1.1/DTD/svg11.dtd'>
<svg width="936pt" height="684pt" version="1.1" viewBox="0 0 936 684" xmlns="http://www.w3.org/2000/svg" xmlns:xlink="http://www.w3.org/1999/xlink">
<defs>
<style type="text/css">*{stroke-linecap:butt;stroke-linejoin:round;}</style>
</defs>
<path d="m0 684h936v-684h-936z" fill="#fff"/>
<path d="m65.52 642.96h842.4v-615.6h-842.4z" fill="#fff"/>
<path d="m73.677 642.96h25.213v-20.955h-25.213z" clip-path="url(#a)" fill="#1f77b4"/>
<path d="m103.34 642.96h25.213v-2.009h-25.213z" clip-path="url(#a)" fill="#1f77b4"/>
<path d="m133 642.96h25.213v-3.9063h-25.213z" clip-path="url(#a)" fill="#1f77b4"/>
<path d="m162.66 642.96h25.213v-3.9621h-25.213z" clip-path="url(#a)" fill="#1f77b4"/>
<path d="m192.32 642.96h25.213v-3.8505h-25.213z" clip-path="url(#a)" fill="#1f77b4"/>
<path d="m221.99 642.96h25.213v-3.432h-25.213z" clip-path="url(#a)" fill="#1f77b4"/>
<path d="m251.65 642.96h25.213v-5.999h-25.213z" clip-path="url(#a)" fill="#1f77b4"/>
<path d="m281.31 642.96h25.213v-6.8919h-25.213z" clip-path="url(#a)" fill="#1f77b4"/>
<path d="m310.97 642.96h25.213v-6.864h-25.213z" clip-path="url(#a)" fill="#1f77b4"/>
<path d="m340.63 642.96h25.213v-5.72h-25.213z" clip-path="url(#a)" fill="#1f77b4"/>
<path d="m370.3 642.96h25.213v-7.0035h-25.213z" clip-path="url(#a)" fill="#1f77b4"/>
<path d="m399.96 642.96h25.213v-11.803h-25.213z" clip-path="url(#a)" fill="#1f77b4"/>
<path d="m429.62 642.96h25.213v-13.728h-25.213z" clip-path="url(#a)" fill="#1f77b4"/>
<path d="m459.28 642.96h25.213v-10.296h-25.213z" clip-path="url(#a)" fill="#1f77b4"/>
<path d="m488.94 642.96h25.213v-11.524h-25.213z" clip-path="url(#a)" fill="#1f77b4"/>
<path d="m518.61 642.96h25.213v-12.165h-25.213z" clip-path="url(#a)" fill="#1f77b4"/>
<path d="m548.27 642.96h25.213v-20.592h-25.213z" clip-path="url(#a)" fill="#1f77b4"/>
<path d="m577.93 642.96h25.213v-24.722h-25.213z" clip-path="url(#a)" fill="#1f77b4"/>
<path d="m607.59 642.96h25.213v-37.278h-25.213z" clip-path="url(#a)" fill="#1f77b4"/>
<path d="m637.25 642.96h25.213v-50.671h-25.213z" clip-path="url(#a)" fill="#1f77b4"/>
<path d="m666.92 642.96h25.213v-91.659h-25.213z" clip-path="url(#a)" fill="#1f77b4"/>
<path d="m696.58 642.96h25.213v-196.15h-25.213z" clip-path="url(#a)" fill="#1f77b4"/>
<path d="m726.24 642.96h25.213v-210.5h-25.213z" clip-path="url(#a)" fill="#1f77b4"/>
<path d="m755.9 642.96h25.213v-215.07h-25.213z" clip-path="url(#a)" fill="#1f77b4"/>
<path d="m785.56 642.96h25.213v-444.12h-25.213z" clip-path="url(#a)" fill="#1f77b4"/>
<path d="m815.23 642.96h25.213v-535.08h-25.213z" clip-path="url(#a)" fill="#1f77b4"/>
<path d="m844.89 642.96h25.213v-583.1h-25.213z" clip-path="url(#a)" fill="#1f77b4"/>
<path d="m874.55 642.96h25.213v-92.999h-25.213z" clip-path="url(#a)" fill="#1f77b4"/>
<path d="m73.677 622.01h25.213v-8.7614h-25.213z" clip-path="url(#a)" fill="#ff7f0e"/>
<path d="m103.34 640.95h25.213v-0.66966h-25.213z" clip-path="url(#a)" fill="#ff7f0e"/>
<path d="m133 639.05h25.213v-0.64176h-25.213z" clip-path="url(#a)" fill="#ff7f0e"/>
<path d="m162.66 639h25.213v-0.55805h-25.213z" clip-path="url(#a)" fill="#ff7f0e"/>
<path d="m192.32 639.11h25.213v-1.7858h-25.213z" clip-path="url(#a)" fill="#ff7f0e"/>
<path d="m221.99 639.53h25.213v-2.0369h-25.213z" clip-path="url(#a)" fill="#ff7f0e"/>
<path d="m251.65 636.96h25.213v-2.5949h-25.213z" clip-path="url(#a)" fill="#ff7f0e"/>
<path d="m281.31 636.07h25.213v-2.9298h-25.213z" clip-path="url(#a)" fill="#ff7f0e"/>
<path d="m310.97 636.1h25.213v-3.5994h-25.213z" clip-path="url(#a)" fill="#ff7f0e"/>
<path d="m340.63 637.24h25.213v-3.8505h-25.213z" clip-path="url(#a)" fill="#ff7f0e"/>
<path d="m370.3 635.96h25.213v-3.711h-25.213z" clip-path="url(#a)" fill="#ff7f0e"/>
<path d="m399.96 631.16h25.213v-3.7389h-25.213z" clip-path="url(#a)" fill="#ff7f0e"/>
<path d="m429.62 629.23h25.213v-3.153h-25.213z" clip-path="url(#a)" fill="#ff7f0e"/>
<path d="m459.28 632.66h25.213v-3.8505h-25.213z" clip-path="url(#a)" fill="#ff7f0e"/>
<path d="m488.94 631.44h25.213v-4.0738h-25.213z" clip-path="url(#a)" fill="#ff7f0e"/>
<path d="m518.61 630.79h25.213v-4.2691h-25.213z" clip-path="url(#a)" fill="#ff7f0e"/>
<path d="m548.27 622.37h25.213v-4.6876h-25.213z" clip-path="url(#a)" fill="#ff7f0e"/>
<path d="m577.93 618.24h25.213v-4.7992h-25.213z" clip-path="url(#a)" fill="#ff7f0e"/>
<path d="m607.59 605.68h25.213v-5.8595h-25.213z" clip-path="url(#a)" fill="#ff7f0e"/>
<path d="m637.25 592.29h25.213v-5.4689h-25.213z" clip-path="url(#a)" fill="#ff7f0e"/>
<path d="m666.92 551.3h25.213v-6.4176h-25.213z" clip-path="url(#a)" fill="#ff7f0e"/>
<path d="m696.58 446.81h25.213v-7.3662h-25.213z" clip-path="url(#a)" fill="#ff7f0e"/>
<path d="m726.24 432.46h25.213v-6.6966h-25.213z" clip-path="url(#a)" fill="#ff7f0e"/>
<path d="m755.9 427.89h25.213v-4.4923h-25.213z" clip-path="url(#a)" fill="#ff7f0e"/>
<path d="m785.56 198.84h25.213v-3.8505h-25.213z" clip-path="url(#a)" fill="#ff7f0e"/>
<path d="m815.23 107.88h25.213v-3.6273h-25.213z" clip-path="url(#a)" fill="#ff7f0e"/>
<path d="m844.89 59.855h25.213v-3.1809h-25.213z" clip-path="url(#a)" fill="#ff7f0e"/>
<path d="m874.55 549.96h25.213v-0.72546h-25.213z" clip-path="url(#a)" fill="#ff7f0e"/>
<defs>
<path id="b" d="m0 0v3.5" stroke="#000" stroke-width=".8"/>
</defs>
<use x="86.28338" y="642.96" stroke="#000000" stroke-width=".8" xlink:href="#b"/>
<text transform="rotate(-0 86.283 657.56)" x="86.28338" y="657.558437" font-family="DejaVu Sans" font-size="10px" text-anchor="middle">до 1996</text>
<use x="115.945352" y="642.96" stroke="#000000" stroke-width=".8" xlink:href="#b"/>
<text transform="rotate(-0 115.95 657.56)" x="115.945352" y="657.558437" font-family="DejaVu Sans" font-size="10px" text-anchor="middle">1996</text>
<use x="145.607324" y="642.96" stroke="#000000" stroke-width=".8" xlink:href="#b"/>
<text transform="rotate(-0 145.61 657.56)" x="145.607324" y="657.558437" font-family="DejaVu Sans" font-size="10px" text-anchor="middle">1997</text>
<use x="175.269296" y="642.96" stroke="#000000" stroke-width=".8" xlink:href="#b"/>
<text transform="rotate(-0 175.27 657.56)" x="175.269296" y="657.558437" font-family="DejaVu Sans" font-size="10px" text-anchor="middle">1998</text>
<use x="204.931268" y="642.96" stroke="#000000" stroke-width=".8" xlink:href="#b"/>
<text transform="rotate(-0 204.93 657.56)" x="204.931268" y="657.558437" font-family="DejaVu Sans" font-size="10px" text-anchor="middle">1999</text>
<use x="234.593239" y="642.96" stroke="#000000" stroke-width=".8" xlink:href="#b"/>
<text transform="rotate(-0 234.59 657.56)" x="234.593239" y="657.558437" font-family="DejaVu Sans" font-size="10px" text-anchor="middle">2000</text>
<use x="264.255211" y="642.96" stroke="#000000" stroke-width=".8" xlink:href="#b"/>
<text transform="rotate(-0 264.26 657.56)" x="264.255211" y="657.558437" font-family="DejaVu Sans" font-size="10px" text-anchor="middle">2001</text>
<use x="293.917183" y="642.96" stroke="#000000" stroke-width=".8" xlink:href="#b"/>
<text transform="rotate(-0 293.92 657.56)" x="293.917183" y="657.558437" font-family="DejaVu Sans" font-size="10px" text-anchor="middle">2002</text>
<use x="323.579155" y="642.96" stroke="#000000" stroke-width=".8" xlink:href="#b"/>
<text transform="rotate(-0 323.58 657.56)" x="323.579155" y="657.558437" font-family="DejaVu Sans" font-size="10px" text-anchor="middle">2003</text>
<use x="353.241127" y="642.96" stroke="#000000" stroke-width=".8" xlink:href="#b"/>
<text transform="rotate(-0 353.24 657.56)" x="353.241127" y="657.558437" font-family="DejaVu Sans" font-size="10px" text-anchor="middle">2004</text>
<use x="382.903099" y="642.96" stroke="#000000" stroke-width=".8" xlink:href="#b"/>
<text transform="rotate(-0 382.9 657.56)" x="382.903099" y="657.558437" font-family="DejaVu Sans" font-size="10px" text-anchor="middle">2005</text>
<use x="412.56507" y="642.96" stroke="#000000" stroke-width=".8" xlink:href="#b"/>
<text transform="rotate(-0 412.57 657.56)" x="412.56507" y="657.558437" font-family="DejaVu Sans" font-size="10px" text-anchor="middle">2006</text>
<use x="442.227042" y="642.96" stroke="#000000" stroke-width=".8" xlink:href="#b"/>
<text transform="rotate(-0 442.23 657.56)" x="442.227042" y="657.558437" font-family="DejaVu Sans" font-size="10px" text-anchor="middle">2007</text>
<use x="471.889014" y="642.96" stroke="#000000" stroke-width=".8" xlink:href="#b"/>
<text transform="rotate(-0 471.89 657.56)" x="471.889014" y="657.558437" font-family="DejaVu Sans" font-size="10px" text-anchor="middle">2008</text>
<use x="501.550986" y="642.96" stroke="#000000" stroke-width=".8" xlink:href="#b"/>
<text transform="rotate(-0 501.55 657.56)" x="501.550986" y="657.558437" font-family="DejaVu Sans" font-size="10px" text-anchor="middle">2009</text>
<use x="531.212958" y="642.96" stroke="#000000" stroke-width=".8" xlink:href="#b"/>
<text transform="rotate(-0 531.21 657.56)" x="531.212958" y="657.558437" font-family="DejaVu Sans" font-size="10px" text-anchor="middle">2010</text>
<use x="560.87493" y="642.96" stroke="#000000" stroke-width=".8" xlink:href="#b"/>
<text transform="rotate(-0 560.87 657.56)" x="560.87493" y="657.558437" font-family="DejaVu Sans" font-size="10px" text-anchor="middle">2011</text>
<use x="590.536901" y="642.96" stroke="#000000" stroke-width=".8" xlink:href="#b"/>
<text transform="rotate(-0 590.54 657.56)" x="590.536901" y="657.558437" font-family="DejaVu Sans" font-size="10px" text-anchor="middle">2012</text>
<use x="620.198873" y="642.96" stroke="#000000" stroke-width=".8" xlink:href="#b"/>
<text transform="rotate(-0 620.2 657.56)" x="620.198873" y="657.558437" font-family="DejaVu Sans" font-size="10px" text-anchor="middle">2013</text>
<use x="649.860845" y="642.96" stroke="#000000" stroke-width=".8" xlink:href="#b"/>
<text transform="rotate(-0 649.86 657.56)" x="649.860845" y="657.558437" font-family="DejaVu Sans" font-size="10px" text-anchor="middle">2014</text>
<use x="679.522817" y="642.96" stroke="#000000" stroke-width=".8" xlink:href="#b"/>
<text transform="rotate(-0 679.52 657.56)" x="679.522817" y="657.558437" font-family="DejaVu Sans" font-size="10px" text-anchor="middle">2015</text>
<use x="709.184789" y="642.96" stroke="#000000" stroke-width=".8" xlink:href="#b"/>
<text transform="rotate(-0 709.18 657.56)" x="709.184789" y="657.558437" font-family="DejaVu Sans" font-size="10px" text-anchor="middle">2016</text>
<use x="738.846761" y="642.96" stroke="#000000" stroke-width=".8" xlink:href="#b"/>
<text transform="rotate(-0 738.85 657.56)" x="738.846761" y="657.558437" font-family="DejaVu Sans" font-size="10px" text-anchor="middle">2017</text>
<use x="768.508732" y="642.96" stroke="#000000" stroke-width=".8" xlink:href="#b"/>
<text transform="rotate(-0 768.51 657.56)" x="768.508732" y="657.558437" font-family="DejaVu Sans" font-size="10px" text-anchor="middle">2018</text>
<use x="798.170704" y="642.96" stroke="#000000" stroke-width=".8" xlink:href="#b"/>
<text transform="rotate(-0 798.17 657.56)" x="798.170704" y="657.558437" font-family="DejaVu Sans" font-size="10px" text-anchor="middle">2019</text>
<use x="827.832676" y="642.96" stroke="#000000" stroke-width=".8" xlink:href="#b"/>
<text transform="rotate(-0 827.83 657.56)" x="827.832676" y="657.558437" font-family="DejaVu Sans" font-size="10px" text-anchor="middle">2020</text>
<use x="857.494648" y="642.96" stroke="#000000" stroke-width=".8" xlink:href="#b"/>
<text transform="rotate(-0 857.49 657.56)" x="857.494648" y="657.558437" font-family="DejaVu Sans" font-size="10px" text-anchor="middle">2021</text>
<use x="887.15662" y="642.96" stroke="#000000" stroke-width=".8" xlink:href="#b"/>
<text transform="rotate(-0 887.16 657.56)" x="887.15662" y="657.558437" font-family="DejaVu Sans" font-size="10px" text-anchor="middle">2022</text>
<text transform="rotate(-0 486.72 674.28)" x="486.72" y="674.275937" font-family="DejaVu Sans" font-size="14px" text-anchor="middle">Год</text>
<defs>
<path id="c" d="m0 0h-3.5" stroke="#000" stroke-width=".8"/>
</defs>
<use x="65.52" y="642.96" stroke="#000000" stroke-width=".8" xlink:href="#c"/>
<text transform="rotate(-0 58.52 646.76)" x="58.52" y="646.759219" font-family="DejaVu Sans" font-size="10px" text-anchor="end">0</text>
<use x="65.52" y="573.203942" stroke="#000000" stroke-width=".8" xlink:href="#c"/>
<text transform="rotate(-0 58.52 577)" x="58.52" y="577.003161" font-family="DejaVu Sans" font-size="10px" text-anchor="end">2500</text>
<use x="65.52" y="503.447884" stroke="#000000" stroke-width=".8" xlink:href="#c"/>
<text transform="rotate(-0 58.52 507.25)" x="58.52" y="507.247103" font-family="DejaVu Sans" font-size="10px" text-anchor="end">5000</text>
<use x="65.52" y="433.691827" stroke="#000000" stroke-width=".8" xlink:href="#c"/>
<text transform="rotate(-0 58.52 437.49)" x="58.52" y="437.491045" font-family="DejaVu Sans" font-size="10px" text-anchor="end">7500</text>
<use x="65.52" y="363.935769" stroke="#000000" stroke-width=".8" xlink:href="#c"/>
<text transform="rotate(-0 58.52 367.73)" x="58.52" y="367.734988" font-family="DejaVu Sans" font-size="10px" text-anchor="end">10000</text>
<use x="65.52" y="294.179711" stroke="#000000" stroke-width=".8" xlink:href="#c"/>
<text transform="rotate(-0 58.52 297.98)" x="58.52" y="297.97893" font-family="DejaVu Sans" font-size="10px" text-anchor="end">12500</text>
<use x="65.52" y="224.423653" stroke="#000000" stroke-width=".8" xlink:href="#c"/>
<text transform="rotate(-0 58.52 228.22)" x="58.52" y="228.222872" font-family="DejaVu Sans" font-size="10px" text-anchor="end">15000</text>
<use x="65.52" y="154.667596" stroke="#000000" stroke-width=".8" xlink:href="#c"/>
<text transform="rotate(-0 58.52 158.47)" x="58.52" y="158.466814" font-family="DejaVu Sans" font-size="10px" text-anchor="end">17500</text>
<use x="65.52" y="84.911538" stroke="#000000" stroke-width=".8" xlink:href="#c"/>
<text transform="rotate(-0 58.52 88.711)" x="58.52" y="88.710757" font-family="DejaVu Sans" font-size="10px" text-anchor="end">20000</text>
<text transform="rotate(-90 19.796 335.16)" x="19.795938" y="335.16" font-family="DejaVu Sans" font-size="14px" text-anchor="middle">Открытий СН за год</text>
<path d="m65.52 642.96v-615.6" fill="none" stroke="#000" stroke-linecap="square" stroke-width=".8"/>
<path d="m907.92 642.96v-615.6" fill="none" stroke="#000" stroke-linecap="square" stroke-width=".8"/>
<path d="m65.52 642.96h842.4" fill="none" stroke="#000" stroke-linecap="square" stroke-width=".8"/>
<path d="m65.52 27.36h842.4" fill="none" stroke="#000" stroke-linecap="square" stroke-width=".8"/>
<text transform="rotate(-0 86.283 608.24)" x="86.28338" y="608.243919" font-family="DejaVu Sans" font-size="10px" text-anchor="middle">1065</text>
<text transform="rotate(-0 115.95 635.28)" x="115.945352" y="635.281367" font-family="DejaVu Sans" font-size="10px" text-anchor="middle">96</text>
<text transform="rotate(-0 145.61 633.41)" x="145.607324" y="633.411905" font-family="DejaVu Sans" font-size="10px" text-anchor="middle">163</text>
<text transform="rotate(-0 175.27 633.44)" x="175.269296" y="633.439807" font-family="DejaVu Sans" font-size="10px" text-anchor="middle">162</text>
<text transform="rotate(-0 204.93 632.32)" x="204.931268" y="632.323711" font-family="DejaVu Sans" font-size="10px" text-anchor="middle">202</text>
<text transform="rotate(-0 234.59 632.49)" x="234.593239" y="632.491125" font-family="DejaVu Sans" font-size="10px" text-anchor="middle">196</text>
<text transform="rotate(-0 264.26 629.37)" x="264.255211" y="629.366054" font-family="DejaVu Sans" font-size="10px" text-anchor="middle">308</text>
<text transform="rotate(-0 293.92 628.14)" x="293.917183" y="628.138347" font-family="DejaVu Sans" font-size="10px" text-anchor="middle">352</text>
<text transform="rotate(-0 323.58 627.5)" x="323.579155" y="627.496591" font-family="DejaVu Sans" font-size="10px" text-anchor="middle">375</text>
<text transform="rotate(-0 353.24 628.39)" x="353.241127" y="628.389469" font-family="DejaVu Sans" font-size="10px" text-anchor="middle">343</text>
<text transform="rotate(-0 382.9 627.25)" x="382.903099" y="627.24547" font-family="DejaVu Sans" font-size="10px" text-anchor="middle">384</text>
<text transform="rotate(-0 412.57 622.42)" x="412.56507" y="622.41835" font-family="DejaVu Sans" font-size="10px" text-anchor="middle">557</text>
<text transform="rotate(-0 442.23 621.08)" x="442.227042" y="621.079034" font-family="DejaVu Sans" font-size="10px" text-anchor="middle">605</text>
<text transform="rotate(-0 471.89 623.81)" x="471.889014" y="623.813471" font-family="DejaVu Sans" font-size="10px" text-anchor="middle">507</text>
<text transform="rotate(-0 501.55 622.36)" x="501.550986" y="622.362545" font-family="DejaVu Sans" font-size="10px" text-anchor="middle">559</text>
<text transform="rotate(-0 531.21 621.53)" x="531.212958" y="621.525473" font-family="DejaVu Sans" font-size="10px" text-anchor="middle">589</text>
<text transform="rotate(-0 560.87 612.68)" x="560.87493" y="612.680405" font-family="DejaVu Sans" font-size="10px" text-anchor="middle">906</text>
<text transform="rotate(-0 590.54 608.44)" x="590.536901" y="608.439236" font-family="DejaVu Sans" font-size="10px" text-anchor="middle">1058</text>
<text transform="rotate(-0 620.2 594.82)" x="620.198873" y="594.822854" font-family="DejaVu Sans" font-size="10px" text-anchor="middle">1546</text>
<text transform="rotate(-0 649.86 581.82)" x="649.860845" y="581.820325" font-family="DejaVu Sans" font-size="10px" text-anchor="middle">2012</text>
<text transform="rotate(-0 679.52 539.88)" x="679.522817" y="539.882983" font-family="DejaVu Sans" font-size="10px" text-anchor="middle">3515</text>
<text transform="rotate(-0 709.18 434.44)" x="709.184789" y="434.439726" font-family="DejaVu Sans" font-size="10px" text-anchor="middle">7294</text>
<text transform="rotate(-0 738.85 420.77)" x="738.846761" y="420.767539" font-family="DejaVu Sans" font-size="10px" text-anchor="middle">7784</text>
<text transform="rotate(-0 768.51 418.4)" x="768.508732" y="418.395833" font-family="DejaVu Sans" font-size="10px" text-anchor="middle">7869</text>
<text transform="rotate(-0 798.17 189.99)" x="798.170704" y="189.986597" font-family="DejaVu Sans" font-size="10px" text-anchor="middle">16055</text>
<text transform="rotate(-0 827.83 99.248)" x="827.832676" y="99.247917" font-family="DejaVu Sans" font-size="10px" text-anchor="middle">19307</text>
<text transform="rotate(-0 857.49 51.674)" x="857.494648" y="51.674286" font-family="DejaVu Sans" font-size="10px" text-anchor="middle">21012</text>
<text transform="rotate(-0 887.16 544.24)" x="887.15662" y="544.235761" font-family="DejaVu Sans" font-size="10px" text-anchor="middle">3359</text>
<text transform="rotate(-0 486.72 21.36)" x="486.72" y="21.36" font-family="DejaVu Sans" font-size="22px" text-anchor="middle">Статистика открытий сверхновых по годам</text>
<defs>
<clipPath id="a">
<rect x="65.52" y="27.36" width="842.4" height="615.6"/>
</clipPath>
</defs>
</svg>
