<?xml version="1.0" encoding="UTF-8"?>
<!DOCTYPE svg  PUBLIC '-//W3C//DTD SVG 1.1//EN'  'http://www.w3.org/Graphics/SVG/1.1/DTD/svg11.dtd'>
<svg width="936pt" height="684pt" version="1.1" viewBox="0 0 936 684" xmlns="http://www.w3.org/2000/svg" xmlns:xlink="http://www.w3.org/1999/xlink">
<defs>
<style type="text/css">*{stroke-linecap:butt;stroke-linejoin:round;}</style>
</defs>
<path d="m0 684h936v-684h-936z" fill="#fff"/>
<path d="m65.52 642.96h842.4v-615.6h-842.4z" fill="#fff"/>
<path d="m73.677 642.96h25.213v-20.905h-25.213z" clip-path="url(#a)" fill="#1f77b4"/>
<path d="m103.34 642.96h25.213v-2.0042h-25.213z" clip-path="url(#a)" fill="#1f77b4"/>
<path d="m133 642.96h25.213v-3.8971h-25.213z" clip-path="url(#a)" fill="#1f77b4"/>
<path d="m162.66 642.96h25.213v-3.9527h-25.213z" clip-path="url(#a)" fill="#1f77b4"/>
<path d="m192.32 642.96h25.213v-3.8414h-25.213z" clip-path="url(#a)" fill="#1f77b4"/>
<path d="m221.99 642.96h25.213v-3.4239h-25.213z" clip-path="url(#a)" fill="#1f77b4"/>
<path d="m251.65 642.96h25.213v-5.9848h-25.213z" clip-path="url(#a)" fill="#1f77b4"/>
<path d="m281.31 642.96h25.213v-6.8755h-25.213z" clip-path="url(#a)" fill="#1f77b4"/>
<path d="m310.97 642.96h25.213v-6.8477h-25.213z" clip-path="url(#a)" fill="#1f77b4"/>
<path d="m340.63 642.96h25.213v-5.7064h-25.213z" clip-path="url(#a)" fill="#1f77b4"/>
<path d="m370.3 642.96h25.213v-6.9869h-25.213z" clip-path="url(#a)" fill="#1f77b4"/>
<path d="m399.96 642.96h25.213v-11.775h-25.213z" clip-path="url(#a)" fill="#1f77b4"/>
<path d="m429.62 642.96h25.213v-13.695h-25.213z" clip-path="url(#a)" fill="#1f77b4"/>
<path d="m459.28 642.96h25.213v-10.272h-25.213z" clip-path="url(#a)" fill="#1f77b4"/>
<path d="m488.94 642.96h25.213v-11.496h-25.213z" clip-path="url(#a)" fill="#1f77b4"/>
<path d="m518.61 642.96h25.213v-12.137h-25.213z" clip-path="url(#a)" fill="#1f77b4"/>
<path d="m548.27 642.96h25.213v-20.543h-25.213z" clip-path="url(#a)" fill="#1f77b4"/>
<path d="m577.93 642.96h25.213v-24.663h-25.213z" clip-path="url(#a)" fill="#1f77b4"/>
<path d="m607.59 642.96h25.213v-37.189h-25.213z" clip-path="url(#a)" fill="#1f77b4"/>
<path d="m637.25 642.96h25.213v-50.551h-25.213z" clip-path="url(#a)" fill="#1f77b4"/>
<path d="m666.92 642.96h25.213v-91.442h-25.213z" clip-path="url(#a)" fill="#1f77b4"/>
<path d="m696.58 642.96h25.213v-195.69h-25.213z" clip-path="url(#a)" fill="#1f77b4"/>
<path d="m726.24 642.96h25.213v-210h-25.213z" clip-path="url(#a)" fill="#1f77b4"/>
<path d="m755.9 642.96h25.213v-214.56h-25.213z" clip-path="url(#a)" fill="#1f77b4"/>
<path d="m785.56 642.96h25.213v-443.46h-25.213z" clip-path="url(#a)" fill="#1f77b4"/>
<path d="m815.23 642.96h25.213v-533.9h-25.213z" clip-path="url(#a)" fill="#1f77b4"/>
<path d="m844.89 642.96h25.213v-583.08h-25.213z" clip-path="url(#a)" fill="#1f77b4"/>
<path d="m874.55 642.96h25.213v-127.04h-25.213z" clip-path="url(#a)" fill="#1f77b4"/>
<path d="m73.677 622.06h25.213v-9.3251h-25.213z" clip-path="url(#a)" fill="#ff7f0e"/>
<path d="m103.34 640.96h25.213v-0.77941h-25.213z" clip-path="url(#a)" fill="#ff7f0e"/>
<path d="m133 639.06h25.213v-0.64023h-25.213z" clip-path="url(#a)" fill="#ff7f0e"/>
<path d="m162.66 639.01h25.213v-0.55672h-25.213z" clip-path="url(#a)" fill="#ff7f0e"/>
<path d="m192.32 639.12h25.213v-1.7815h-25.213z" clip-path="url(#a)" fill="#ff7f0e"/>
<path d="m221.99 639.54h25.213v-2.032h-25.213z" clip-path="url(#a)" fill="#ff7f0e"/>
<path d="m251.65 636.98h25.213v-2.5888h-25.213z" clip-path="url(#a)" fill="#ff7f0e"/>
<path d="m281.31 636.08h25.213v-2.9228h-25.213z" clip-path="url(#a)" fill="#ff7f0e"/>
<path d="m310.97 636.11h25.213v-3.5909h-25.213z" clip-path="url(#a)" fill="#ff7f0e"/>
<path d="m340.63 637.25h25.213v-3.8414h-25.213z" clip-path="url(#a)" fill="#ff7f0e"/>
<path d="m370.3 635.97h25.213v-3.7022h-25.213z" clip-path="url(#a)" fill="#ff7f0e"/>
<path d="m399.96 631.19h25.213v-3.73h-25.213z" clip-path="url(#a)" fill="#ff7f0e"/>
<path d="m429.62 629.26h25.213v-3.1455h-25.213z" clip-path="url(#a)" fill="#ff7f0e"/>
<path d="m459.28 632.69h25.213v-3.8414h-25.213z" clip-path="url(#a)" fill="#ff7f0e"/>
<path d="m488.94 631.46h25.213v-4.0641h-25.213z" clip-path="url(#a)" fill="#ff7f0e"/>
<path d="m518.61 630.82h25.213v-4.2589h-25.213z" clip-path="url(#a)" fill="#ff7f0e"/>
<path d="m548.27 622.42h25.213v-4.6765h-25.213z" clip-path="url(#a)" fill="#ff7f0e"/>
<path d="m577.93 618.3h25.213v-4.7878h-25.213z" clip-path="url(#a)" fill="#ff7f0e"/>
<path d="m607.59 605.77h25.213v-5.8456h-25.213z" clip-path="url(#a)" fill="#ff7f0e"/>
<path d="m637.25 592.41h25.213v-5.4559h-25.213z" clip-path="url(#a)" fill="#ff7f0e"/>
<path d="m666.92 551.52h25.213v-6.4023h-25.213z" clip-path="url(#a)" fill="#ff7f0e"/>
<path d="m696.58 447.27h25.213v-7.4044h-25.213z" clip-path="url(#a)" fill="#ff7f0e"/>
<path d="m726.24 432.96h25.213v-6.6807h-25.213z" clip-path="url(#a)" fill="#ff7f0e"/>
<path d="m755.9 428.4h25.213v-4.6208h-25.213z" clip-path="url(#a)" fill="#ff7f0e"/>
<path d="m785.56 199.5h25.213v-3.8414h-25.213z" clip-path="url(#a)" fill="#ff7f0e"/>
<path d="m815.23 109.06h25.213v-3.6187h-25.213z" clip-path="url(#a)" fill="#ff7f0e"/>
<path d="m844.89 59.875h25.213v-3.2012h-25.213z" clip-path="url(#a)" fill="#ff7f0e"/>
<path d="m874.55 515.92h25.213v-1.1413h-25.213z" clip-path="url(#a)" fill="#ff7f0e"/>
<defs>
<path id="b" d="m0 0v3.5" stroke="#000" stroke-width=".8"/>
</defs>
<use x="86.28338" y="642.96" stroke="#000000" stroke-width=".8" xlink:href="#b"/>
<text transform="rotate(-0 86.283 657.56)" x="86.28338" y="657.558437" font-family="DejaVu Sans" font-size="10px" text-anchor="middle">до 1996</text>
<use x="115.945352" y="642.96" stroke="#000000" stroke-width=".8" xlink:href="#b"/>
<text transform="rotate(-0 115.95 657.56)" x="115.945352" y="657.558437" font-family="DejaVu Sans" font-size="10px" text-anchor="middle">1996</text>
<use x="145.607324" y="642.96" stroke="#000000" stroke-width=".8" xlink:href="#b"/>
<text transform="rotate(-0 145.61 657.56)" x="145.607324" y="657.558437" font-family="DejaVu Sans" font-size="10px" text-anchor="middle">1997</text>
<use x="175.269296" y="642.96" stroke="#000000" stroke-width=".8" xlink:href="#b"/>
<text transform="rotate(-0 175.27 657.56)" x="175.269296" y="657.558437" font-family="DejaVu Sans" font-size="10px" text-anchor="middle">1998</text>
<use x="204.931268" y="642.96" stroke="#000000" stroke-width=".8" xlink:href="#b"/>
<text transform="rotate(-0 204.93 657.56)" x="204.931268" y="657.558437" font-family="DejaVu Sans" font-size="10px" text-anchor="middle">1999</text>
<use x="234.593239" y="642.96" stroke="#000000" stroke-width=".8" xlink:href="#b"/>
<text transform="rotate(-0 234.59 657.56)" x="234.593239" y="657.558437" font-family="DejaVu Sans" font-size="10px" text-anchor="middle">2000</text>
<use x="264.255211" y="642.96" stroke="#000000" stroke-width=".8" xlink:href="#b"/>
<text transform="rotate(-0 264.26 657.56)" x="264.255211" y="657.558437" font-family="DejaVu Sans" font-size="10px" text-anchor="middle">2001</text>
<use x="293.917183" y="642.96" stroke="#000000" stroke-width=".8" xlink:href="#b"/>
<text transform="rotate(-0 293.92 657.56)" x="293.917183" y="657.558437" font-family="DejaVu Sans" font-size="10px" text-anchor="middle">2002</text>
<use x="323.579155" y="642.96" stroke="#000000" stroke-width=".8" xlink:href="#b"/>
<text transform="rotate(-0 323.58 657.56)" x="323.579155" y="657.558437" font-family="DejaVu Sans" font-size="10px" text-anchor="middle">2003</text>
<use x="353.241127" y="642.96" stroke="#000000" stroke-width=".8" xlink:href="#b"/>
<text transform="rotate(-0 353.24 657.56)" x="353.241127" y="657.558437" font-family="DejaVu Sans" font-size="10px" text-anchor="middle">2004</text>
<use x="382.903099" y="642.96" stroke="#000000" stroke-width=".8" xlink:href="#b"/>
<text transform="rotate(-0 382.9 657.56)" x="382.903099" y="657.558437" font-family="DejaVu Sans" font-size="10px" text-anchor="middle">2005</text>
<use x="412.56507" y="642.96" stroke="#000000" stroke-width=".8" xlink:href="#b"/>
<text transform="rotate(-0 412.57 657.56)" x="412.56507" y="657.558437" font-family="DejaVu Sans" font-size="10px" text-anchor="middle">2006</text>
<use x="442.227042" y="642.96" stroke="#000000" stroke-width=".8" xlink:href="#b"/>
<text transform="rotate(-0 442.23 657.56)" x="442.227042" y="657.558437" font-family="DejaVu Sans" font-size="10px" text-anchor="middle">2007</text>
<use x="471.889014" y="642.96" stroke="#000000" stroke-width=".8" xlink:href="#b"/>
<text transform="rotate(-0 471.89 657.56)" x="471.889014" y="657.558437" font-family="DejaVu Sans" font-size="10px" text-anchor="middle">2008</text>
<use x="501.550986" y="642.96" stroke="#000000" stroke-width=".8" xlink:href="#b"/>
<text transform="rotate(-0 501.55 657.56)" x="501.550986" y="657.558437" font-family="DejaVu Sans" font-size="10px" text-anchor="middle">2009</text>
<use x="531.212958" y="642.96" stroke="#000000" stroke-width=".8" xlink:href="#b"/>
<text transform="rotate(-0 531.21 657.56)" x="531.212958" y="657.558437" font-family="DejaVu Sans" font-size="10px" text-anchor="middle">2010</text>
<use x="560.87493" y="642.96" stroke="#000000" stroke-width=".8" xlink:href="#b"/>
<text transform="rotate(-0 560.87 657.56)" x="560.87493" y="657.558437" font-family="DejaVu Sans" font-size="10px" text-anchor="middle">2011</text>
<use x="590.536901" y="642.96" stroke="#000000" stroke-width=".8" xlink:href="#b"/>
<text transform="rotate(-0 590.54 657.56)" x="590.536901" y="657.558437" font-family="DejaVu Sans" font-size="10px" text-anchor="middle">2012</text>
<use x="620.198873" y="642.96" stroke="#000000" stroke-width=".8" xlink:href="#b"/>
<text transform="rotate(-0 620.2 657.56)" x="620.198873" y="657.558437" font-family="DejaVu Sans" font-size="10px" text-anchor="middle">2013</text>
<use x="649.860845" y="642.96" stroke="#000000" stroke-width=".8" xlink:href="#b"/>
<text transform="rotate(-0 649.86 657.56)" x="649.860845" y="657.558437" font-family="DejaVu Sans" font-size="10px" text-anchor="middle">2014</text>
<use x="679.522817" y="642.96" stroke="#000000" stroke-width=".8" xlink:href="#b"/>
<text transform="rotate(-0 679.52 657.56)" x="679.522817" y="657.558437" font-family="DejaVu Sans" font-size="10px" text-anchor="middle">2015</text>
<use x="709.184789" y="642.96" stroke="#000000" stroke-width=".8" xlink:href="#b"/>
<text transform="rotate(-0 709.18 657.56)" x="709.184789" y="657.558437" font-family="DejaVu Sans" font-size="10px" text-anchor="middle">2016</text>
<use x="738.846761" y="642.96" stroke="#000000" stroke-width=".8" xlink:href="#b"/>
<text transform="rotate(-0 738.85 657.56)" x="738.846761" y="657.558437" font-family="DejaVu Sans" font-size="10px" text-anchor="middle">2017</text>
<use x="768.508732" y="642.96" stroke="#000000" stroke-width=".8" xlink:href="#b"/>
<text transform="rotate(-0 768.51 657.56)" x="768.508732" y="657.558437" font-family="DejaVu Sans" font-size="10px" text-anchor="middle">2018</text>
<use x="798.170704" y="642.96" stroke="#000000" stroke-width=".8" xlink:href="#b"/>
<text transform="rotate(-0 798.17 657.56)" x="798.170704" y="657.558437" font-family="DejaVu Sans" font-size="10px" text-anchor="middle">2019</text>
<use x="827.832676" y="642.96" stroke="#000000" stroke-width=".8" xlink:href="#b"/>
<text transform="rotate(-0 827.83 657.56)" x="827.832676" y="657.558437" font-family="DejaVu Sans" font-size="10px" text-anchor="middle">2020</text>
<use x="857.494648" y="642.96" stroke="#000000" stroke-width=".8" xlink:href="#b"/>
<text transform="rotate(-0 857.49 657.56)" x="857.494648" y="657.558437" font-family="DejaVu Sans" font-size="10px" text-anchor="middle">2021</text>
<use x="887.15662" y="642.96" stroke="#000000" stroke-width=".8" xlink:href="#b"/>
<text transform="rotate(-0 887.16 657.56)" x="887.15662" y="657.558437" font-family="DejaVu Sans" font-size="10px" text-anchor="middle">2022</text>
<text transform="rotate(-0 486.72 674.28)" x="486.72" y="674.275937" font-family="DejaVu Sans" font-size="14px" text-anchor="middle">Год</text>
<defs>
<path id="c" d="m0 0h-3.5" stroke="#000" stroke-width=".8"/>
</defs>
<use x="65.52" y="642.96" stroke="#000000" stroke-width=".8" xlink:href="#c"/>
<text transform="rotate(-0 58.52 646.76)" x="58.52" y="646.759219" font-family="DejaVu Sans" font-size="10px" text-anchor="end">0</text>
<use x="65.52" y="573.369539" stroke="#000000" stroke-width=".8" xlink:href="#c"/>
<text transform="rotate(-0 58.52 577.17)" x="58.52" y="577.168758" font-family="DejaVu Sans" font-size="10px" text-anchor="end">2500</text>
<use x="65.52" y="503.779078" stroke="#000000" stroke-width=".8" xlink:href="#c"/>
<text transform="rotate(-0 58.52 507.58)" x="58.52" y="507.578297" font-family="DejaVu Sans" font-size="10px" text-anchor="end">5000</text>
<use x="65.52" y="434.188618" stroke="#000000" stroke-width=".8" xlink:href="#c"/>
<text transform="rotate(-0 58.52 437.99)" x="58.52" y="437.987836" font-family="DejaVu Sans" font-size="10px" text-anchor="end">7500</text>
<use x="65.52" y="364.598157" stroke="#000000" stroke-width=".8" xlink:href="#c"/>
<text transform="rotate(-0 58.52 368.4)" x="58.52" y="368.397375" font-family="DejaVu Sans" font-size="10px" text-anchor="end">10000</text>
<use x="65.52" y="295.007696" stroke="#000000" stroke-width=".8" xlink:href="#c"/>
<text transform="rotate(-0 58.52 298.81)" x="58.52" y="298.806915" font-family="DejaVu Sans" font-size="10px" text-anchor="end">12500</text>
<use x="65.52" y="225.417235" stroke="#000000" stroke-width=".8" xlink:href="#c"/>
<text transform="rotate(-0 58.52 229.22)" x="58.52" y="229.216454" font-family="DejaVu Sans" font-size="10px" text-anchor="end">15000</text>
<use x="65.52" y="155.826774" stroke="#000000" stroke-width=".8" xlink:href="#c"/>
<text transform="rotate(-0 58.52 159.63)" x="58.52" y="159.625993" font-family="DejaVu Sans" font-size="10px" text-anchor="end">17500</text>
<use x="65.52" y="86.236313" stroke="#000000" stroke-width=".8" xlink:href="#c"/>
<text transform="rotate(-0 58.52 90.036)" x="58.52" y="90.035532" font-family="DejaVu Sans" font-size="10px" text-anchor="end">20000</text>
<text transform="rotate(-90 19.796 335.16)" x="19.795938" y="335.16" font-family="DejaVu Sans" font-size="14px" text-anchor="middle">Открытий СН за год</text>
<path d="m65.52 642.96v-615.6" fill="none" stroke="#000" stroke-linecap="square" stroke-width=".8"/>
<path d="m907.92 642.96v-615.6" fill="none" stroke="#000" stroke-linecap="square" stroke-width=".8"/>
<path d="m65.52 642.96h842.4" fill="none" stroke="#000" stroke-linecap="square" stroke-width=".8"/>
<path d="m65.52 27.36h842.4" fill="none" stroke="#000" stroke-linecap="square" stroke-width=".8"/>
<text transform="rotate(-0 86.283 607.73)" x="86.28338" y="607.729904" font-family="DejaVu Sans" font-size="10px" text-anchor="middle">1086</text>
<text transform="rotate(-0 115.95 635.18)" x="115.945352" y="635.176382" font-family="DejaVu Sans" font-size="10px" text-anchor="middle">100</text>
<text transform="rotate(-0 145.61 633.42)" x="145.607324" y="633.422702" font-family="DejaVu Sans" font-size="10px" text-anchor="middle">163</text>
<text transform="rotate(-0 175.27 633.45)" x="175.269296" y="633.450538" font-family="DejaVu Sans" font-size="10px" text-anchor="middle">162</text>
<text transform="rotate(-0 204.93 632.34)" x="204.931268" y="632.337091" font-family="DejaVu Sans" font-size="10px" text-anchor="middle">202</text>
<text transform="rotate(-0 234.59 632.5)" x="234.593239" y="632.504108" font-family="DejaVu Sans" font-size="10px" text-anchor="middle">196</text>
<text transform="rotate(-0 264.26 629.39)" x="264.255211" y="629.386455" font-family="DejaVu Sans" font-size="10px" text-anchor="middle">308</text>
<text transform="rotate(-0 293.92 628.16)" x="293.917183" y="628.161663" font-family="DejaVu Sans" font-size="10px" text-anchor="middle">352</text>
<text transform="rotate(-0 323.58 627.52)" x="323.579155" y="627.521431" font-family="DejaVu Sans" font-size="10px" text-anchor="middle">375</text>
<text transform="rotate(-0 353.24 628.41)" x="353.241127" y="628.412189" font-family="DejaVu Sans" font-size="10px" text-anchor="middle">343</text>
<text transform="rotate(-0 382.9 627.27)" x="382.903099" y="627.270905" font-family="DejaVu Sans" font-size="10px" text-anchor="middle">384</text>
<text transform="rotate(-0 412.57 622.46)" x="412.56507" y="622.455245" font-family="DejaVu Sans" font-size="10px" text-anchor="middle">557</text>
<text transform="rotate(-0 442.23 621.12)" x="442.227042" y="621.119108" font-family="DejaVu Sans" font-size="10px" text-anchor="middle">605</text>
<text transform="rotate(-0 471.89 623.85)" x="471.889014" y="623.847055" font-family="DejaVu Sans" font-size="10px" text-anchor="middle">507</text>
<text transform="rotate(-0 501.55 622.4)" x="501.550986" y="622.399573" font-family="DejaVu Sans" font-size="10px" text-anchor="middle">559</text>
<text transform="rotate(-0 531.21 621.56)" x="531.212958" y="621.564487" font-family="DejaVu Sans" font-size="10px" text-anchor="middle">589</text>
<text transform="rotate(-0 560.87 612.74)" x="560.87493" y="612.740417" font-family="DejaVu Sans" font-size="10px" text-anchor="middle">906</text>
<text transform="rotate(-0 590.54 608.51)" x="590.536901" y="608.509317" font-family="DejaVu Sans" font-size="10px" text-anchor="middle">1058</text>
<text transform="rotate(-0 620.2 594.93)" x="620.198873" y="594.925259" font-family="DejaVu Sans" font-size="10px" text-anchor="middle">1546</text>
<text transform="rotate(-0 649.86 581.95)" x="649.860845" y="581.953597" font-family="DejaVu Sans" font-size="10px" text-anchor="middle">2012</text>
<text transform="rotate(-0 679.52 540.12)" x="679.522817" y="540.115812" font-family="DejaVu Sans" font-size="10px" text-anchor="middle">3515</text>
<text transform="rotate(-0 709.18 434.87)" x="709.184789" y="434.867199" font-family="DejaVu Sans" font-size="10px" text-anchor="middle">7296</text>
<text transform="rotate(-0 738.85 421.28)" x="738.846761" y="421.283141" font-family="DejaVu Sans" font-size="10px" text-anchor="middle">7784</text>
<text transform="rotate(-0 768.51 418.78)" x="768.508732" y="418.777885" font-family="DejaVu Sans" font-size="10px" text-anchor="middle">7874</text>
<text transform="rotate(-0 798.17 190.66)" x="798.170704" y="190.660354" font-family="DejaVu Sans" font-size="10px" text-anchor="middle">16069</text>
<text transform="rotate(-0 827.83 100.44)" x="827.832676" y="100.443281" font-family="DejaVu Sans" font-size="10px" text-anchor="middle">19310</text>
<text transform="rotate(-0 857.49 51.674)" x="857.494648" y="51.674286" font-family="DejaVu Sans" font-size="10px" text-anchor="middle">21062</text>
<text transform="rotate(-0 887.16 509.77)" x="887.15662" y="509.774371" font-family="DejaVu Sans" font-size="10px" text-anchor="middle">4605</text>
<text transform="rotate(-0 486.72 21.36)" x="486.72" y="21.36" font-family="DejaVu Sans" font-size="22px" text-anchor="middle">Статистика открытий сверхновых по годам</text>
<defs>
<clipPath id="a">
<rect x="65.52" y="27.36" width="842.4" height="615.6"/>
</clipPath>
</defs>
</svg>
