<?xml version="1.0" encoding="UTF-8"?>
<!DOCTYPE svg  PUBLIC '-//W3C//DTD SVG 1.1//EN'  'http://www.w3.org/Graphics/SVG/1.1/DTD/svg11.dtd'>
<svg width="936pt" height="684pt" version="1.1" viewBox="0 0 936 684" xmlns="http://www.w3.org/2000/svg" xmlns:xlink="http://www.w3.org/1999/xlink">
<defs>
<style type="text/css">*{stroke-linecap:butt;stroke-linejoin:round;}</style>
</defs>
<path d="m0 684h936v-684h-936z" fill="#fff"/>
<path d="m65.52 642.96h842.4v-615.6h-842.4z" fill="#fff"/>
<path d="m73.677 642.96h25.213v-20.932h-25.213z" clip-path="url(#a)" fill="#1f77b4"/>
<path d="m103.34 642.96h25.213v-2.0068h-25.213z" clip-path="url(#a)" fill="#1f77b4"/>
<path d="m133 642.96h25.213v-3.9021h-25.213z" clip-path="url(#a)" fill="#1f77b4"/>
<path d="m162.66 642.96h25.213v-3.9578h-25.213z" clip-path="url(#a)" fill="#1f77b4"/>
<path d="m192.32 642.96h25.213v-3.8463h-25.213z" clip-path="url(#a)" fill="#1f77b4"/>
<path d="m221.99 642.96h25.213v-3.4282h-25.213z" clip-path="url(#a)" fill="#1f77b4"/>
<path d="m251.65 642.96h25.213v-5.9925h-25.213z" clip-path="url(#a)" fill="#1f77b4"/>
<path d="m281.31 642.96h25.213v-6.8844h-25.213z" clip-path="url(#a)" fill="#1f77b4"/>
<path d="m310.97 642.96h25.213v-6.8565h-25.213z" clip-path="url(#a)" fill="#1f77b4"/>
<path d="m340.63 642.96h25.213v-5.7137h-25.213z" clip-path="url(#a)" fill="#1f77b4"/>
<path d="m370.3 642.96h25.213v-6.9958h-25.213z" clip-path="url(#a)" fill="#1f77b4"/>
<path d="m399.96 642.96h25.213v-11.79h-25.213z" clip-path="url(#a)" fill="#1f77b4"/>
<path d="m429.62 642.96h25.213v-13.713h-25.213z" clip-path="url(#a)" fill="#1f77b4"/>
<path d="m459.28 642.96h25.213v-10.285h-25.213z" clip-path="url(#a)" fill="#1f77b4"/>
<path d="m488.94 642.96h25.213v-11.511h-25.213z" clip-path="url(#a)" fill="#1f77b4"/>
<path d="m518.61 642.96h25.213v-12.152h-25.213z" clip-path="url(#a)" fill="#1f77b4"/>
<path d="m548.27 642.96h25.213v-20.569h-25.213z" clip-path="url(#a)" fill="#1f77b4"/>
<path d="m577.93 642.96h25.213v-24.695h-25.213z" clip-path="url(#a)" fill="#1f77b4"/>
<path d="m607.59 642.96h25.213v-37.237h-25.213z" clip-path="url(#a)" fill="#1f77b4"/>
<path d="m637.25 642.96h25.213v-50.615h-25.213z" clip-path="url(#a)" fill="#1f77b4"/>
<path d="m666.92 642.96h25.213v-91.559h-25.213z" clip-path="url(#a)" fill="#1f77b4"/>
<path d="m696.58 642.96h25.213v-195.94h-25.213z" clip-path="url(#a)" fill="#1f77b4"/>
<path d="m726.24 642.96h25.213v-210.27h-25.213z" clip-path="url(#a)" fill="#1f77b4"/>
<path d="m755.9 642.96h25.213v-214.84h-25.213z" clip-path="url(#a)" fill="#1f77b4"/>
<path d="m785.56 642.96h25.213v-444.03h-25.213z" clip-path="url(#a)" fill="#1f77b4"/>
<path d="m815.23 642.96h25.213v-534.58h-25.213z" clip-path="url(#a)" fill="#1f77b4"/>
<path d="m844.89 642.96h25.213v-583.11h-25.213z" clip-path="url(#a)" fill="#1f77b4"/>
<path d="m874.55 642.96h25.213v-109.45h-25.213z" clip-path="url(#a)" fill="#1f77b4"/>
<path d="m73.677 622.03h25.213v-9.3371h-25.213z" clip-path="url(#a)" fill="#ff7f0e"/>
<path d="m103.34 640.95h25.213v-0.78041h-25.213z" clip-path="url(#a)" fill="#ff7f0e"/>
<path d="m133 639.06h25.213v-0.64105h-25.213z" clip-path="url(#a)" fill="#ff7f0e"/>
<path d="m162.66 639h25.213v-0.55744h-25.213z" clip-path="url(#a)" fill="#ff7f0e"/>
<path d="m192.32 639.11h25.213v-1.7838h-25.213z" clip-path="url(#a)" fill="#ff7f0e"/>
<path d="m221.99 639.53h25.213v-2.0346h-25.213z" clip-path="url(#a)" fill="#ff7f0e"/>
<path d="m251.65 636.97h25.213v-2.5921h-25.213z" clip-path="url(#a)" fill="#ff7f0e"/>
<path d="m281.31 636.08h25.213v-2.9266h-25.213z" clip-path="url(#a)" fill="#ff7f0e"/>
<path d="m310.97 636.1h25.213v-3.5955h-25.213z" clip-path="url(#a)" fill="#ff7f0e"/>
<path d="m340.63 637.25h25.213v-3.8463h-25.213z" clip-path="url(#a)" fill="#ff7f0e"/>
<path d="m370.3 635.96h25.213v-3.707h-25.213z" clip-path="url(#a)" fill="#ff7f0e"/>
<path d="m399.96 631.17h25.213v-3.7348h-25.213z" clip-path="url(#a)" fill="#ff7f0e"/>
<path d="m429.62 629.25h25.213v-3.1495h-25.213z" clip-path="url(#a)" fill="#ff7f0e"/>
<path d="m459.28 632.68h25.213v-3.8463h-25.213z" clip-path="url(#a)" fill="#ff7f0e"/>
<path d="m488.94 631.45h25.213v-4.0693h-25.213z" clip-path="url(#a)" fill="#ff7f0e"/>
<path d="m518.61 630.81h25.213v-4.2644h-25.213z" clip-path="url(#a)" fill="#ff7f0e"/>
<path d="m548.27 622.39h25.213v-4.6825h-25.213z" clip-path="url(#a)" fill="#ff7f0e"/>
<path d="m577.93 618.27h25.213v-4.794h-25.213z" clip-path="url(#a)" fill="#ff7f0e"/>
<path d="m607.59 605.72h25.213v-5.8531h-25.213z" clip-path="url(#a)" fill="#ff7f0e"/>
<path d="m637.25 592.34h25.213v-5.4629h-25.213z" clip-path="url(#a)" fill="#ff7f0e"/>
<path d="m666.92 551.4h25.213v-6.4105h-25.213z" clip-path="url(#a)" fill="#ff7f0e"/>
<path d="m696.58 447.02h25.213v-7.4139h-25.213z" clip-path="url(#a)" fill="#ff7f0e"/>
<path d="m726.24 432.69h25.213v-6.6893h-25.213z" clip-path="url(#a)" fill="#ff7f0e"/>
<path d="m755.9 428.12h25.213v-4.6267h-25.213z" clip-path="url(#a)" fill="#ff7f0e"/>
<path d="m785.56 198.93h25.213v-3.8463h-25.213z" clip-path="url(#a)" fill="#ff7f0e"/>
<path d="m815.23 108.38h25.213v-3.6233h-25.213z" clip-path="url(#a)" fill="#ff7f0e"/>
<path d="m844.89 59.852h25.213v-3.1774h-25.213z" clip-path="url(#a)" fill="#ff7f0e"/>
<path d="m874.55 533.51h25.213v-0.97552h-25.213z" clip-path="url(#a)" fill="#ff7f0e"/>
<defs>
<path id="b" d="m0 0v3.5" stroke="#000" stroke-width=".8"/>
</defs>
<use x="86.28338" y="642.96" stroke="#000000" stroke-width=".8" xlink:href="#b"/>
<text transform="rotate(-0 86.283 657.56)" x="86.28338" y="657.558437" font-family="DejaVu Sans" font-size="10px" text-anchor="middle">до 1996</text>
<use x="115.945352" y="642.96" stroke="#000000" stroke-width=".8" xlink:href="#b"/>
<text transform="rotate(-0 115.95 657.56)" x="115.945352" y="657.558437" font-family="DejaVu Sans" font-size="10px" text-anchor="middle">1996</text>
<use x="145.607324" y="642.96" stroke="#000000" stroke-width=".8" xlink:href="#b"/>
<text transform="rotate(-0 145.61 657.56)" x="145.607324" y="657.558437" font-family="DejaVu Sans" font-size="10px" text-anchor="middle">1997</text>
<use x="175.269296" y="642.96" stroke="#000000" stroke-width=".8" xlink:href="#b"/>
<text transform="rotate(-0 175.27 657.56)" x="175.269296" y="657.558437" font-family="DejaVu Sans" font-size="10px" text-anchor="middle">1998</text>
<use x="204.931268" y="642.96" stroke="#000000" stroke-width=".8" xlink:href="#b"/>
<text transform="rotate(-0 204.93 657.56)" x="204.931268" y="657.558437" font-family="DejaVu Sans" font-size="10px" text-anchor="middle">1999</text>
<use x="234.593239" y="642.96" stroke="#000000" stroke-width=".8" xlink:href="#b"/>
<text transform="rotate(-0 234.59 657.56)" x="234.593239" y="657.558437" font-family="DejaVu Sans" font-size="10px" text-anchor="middle">2000</text>
<use x="264.255211" y="642.96" stroke="#000000" stroke-width=".8" xlink:href="#b"/>
<text transform="rotate(-0 264.26 657.56)" x="264.255211" y="657.558437" font-family="DejaVu Sans" font-size="10px" text-anchor="middle">2001</text>
<use x="293.917183" y="642.96" stroke="#000000" stroke-width=".8" xlink:href="#b"/>
<text transform="rotate(-0 293.92 657.56)" x="293.917183" y="657.558437" font-family="DejaVu Sans" font-size="10px" text-anchor="middle">2002</text>
<use x="323.579155" y="642.96" stroke="#000000" stroke-width=".8" xlink:href="#b"/>
<text transform="rotate(-0 323.58 657.56)" x="323.579155" y="657.558437" font-family="DejaVu Sans" font-size="10px" text-anchor="middle">2003</text>
<use x="353.241127" y="642.96" stroke="#000000" stroke-width=".8" xlink:href="#b"/>
<text transform="rotate(-0 353.24 657.56)" x="353.241127" y="657.558437" font-family="DejaVu Sans" font-size="10px" text-anchor="middle">2004</text>
<use x="382.903099" y="642.96" stroke="#000000" stroke-width=".8" xlink:href="#b"/>
<text transform="rotate(-0 382.9 657.56)" x="382.903099" y="657.558437" font-family="DejaVu Sans" font-size="10px" text-anchor="middle">2005</text>
<use x="412.56507" y="642.96" stroke="#000000" stroke-width=".8" xlink:href="#b"/>
<text transform="rotate(-0 412.57 657.56)" x="412.56507" y="657.558437" font-family="DejaVu Sans" font-size="10px" text-anchor="middle">2006</text>
<use x="442.227042" y="642.96" stroke="#000000" stroke-width=".8" xlink:href="#b"/>
<text transform="rotate(-0 442.23 657.56)" x="442.227042" y="657.558437" font-family="DejaVu Sans" font-size="10px" text-anchor="middle">2007</text>
<use x="471.889014" y="642.96" stroke="#000000" stroke-width=".8" xlink:href="#b"/>
<text transform="rotate(-0 471.89 657.56)" x="471.889014" y="657.558437" font-family="DejaVu Sans" font-size="10px" text-anchor="middle">2008</text>
<use x="501.550986" y="642.96" stroke="#000000" stroke-width=".8" xlink:href="#b"/>
<text transform="rotate(-0 501.55 657.56)" x="501.550986" y="657.558437" font-family="DejaVu Sans" font-size="10px" text-anchor="middle">2009</text>
<use x="531.212958" y="642.96" stroke="#000000" stroke-width=".8" xlink:href="#b"/>
<text transform="rotate(-0 531.21 657.56)" x="531.212958" y="657.558437" font-family="DejaVu Sans" font-size="10px" text-anchor="middle">2010</text>
<use x="560.87493" y="642.96" stroke="#000000" stroke-width=".8" xlink:href="#b"/>
<text transform="rotate(-0 560.87 657.56)" x="560.87493" y="657.558437" font-family="DejaVu Sans" font-size="10px" text-anchor="middle">2011</text>
<use x="590.536901" y="642.96" stroke="#000000" stroke-width=".8" xlink:href="#b"/>
<text transform="rotate(-0 590.54 657.56)" x="590.536901" y="657.558437" font-family="DejaVu Sans" font-size="10px" text-anchor="middle">2012</text>
<use x="620.198873" y="642.96" stroke="#000000" stroke-width=".8" xlink:href="#b"/>
<text transform="rotate(-0 620.2 657.56)" x="620.198873" y="657.558437" font-family="DejaVu Sans" font-size="10px" text-anchor="middle">2013</text>
<use x="649.860845" y="642.96" stroke="#000000" stroke-width=".8" xlink:href="#b"/>
<text transform="rotate(-0 649.86 657.56)" x="649.860845" y="657.558437" font-family="DejaVu Sans" font-size="10px" text-anchor="middle">2014</text>
<use x="679.522817" y="642.96" stroke="#000000" stroke-width=".8" xlink:href="#b"/>
<text transform="rotate(-0 679.52 657.56)" x="679.522817" y="657.558437" font-family="DejaVu Sans" font-size="10px" text-anchor="middle">2015</text>
<use x="709.184789" y="642.96" stroke="#000000" stroke-width=".8" xlink:href="#b"/>
<text transform="rotate(-0 709.18 657.56)" x="709.184789" y="657.558437" font-family="DejaVu Sans" font-size="10px" text-anchor="middle">2016</text>
<use x="738.846761" y="642.96" stroke="#000000" stroke-width=".8" xlink:href="#b"/>
<text transform="rotate(-0 738.85 657.56)" x="738.846761" y="657.558437" font-family="DejaVu Sans" font-size="10px" text-anchor="middle">2017</text>
<use x="768.508732" y="642.96" stroke="#000000" stroke-width=".8" xlink:href="#b"/>
<text transform="rotate(-0 768.51 657.56)" x="768.508732" y="657.558437" font-family="DejaVu Sans" font-size="10px" text-anchor="middle">2018</text>
<use x="798.170704" y="642.96" stroke="#000000" stroke-width=".8" xlink:href="#b"/>
<text transform="rotate(-0 798.17 657.56)" x="798.170704" y="657.558437" font-family="DejaVu Sans" font-size="10px" text-anchor="middle">2019</text>
<use x="827.832676" y="642.96" stroke="#000000" stroke-width=".8" xlink:href="#b"/>
<text transform="rotate(-0 827.83 657.56)" x="827.832676" y="657.558437" font-family="DejaVu Sans" font-size="10px" text-anchor="middle">2020</text>
<use x="857.494648" y="642.96" stroke="#000000" stroke-width=".8" xlink:href="#b"/>
<text transform="rotate(-0 857.49 657.56)" x="857.494648" y="657.558437" font-family="DejaVu Sans" font-size="10px" text-anchor="middle">2021</text>
<use x="887.15662" y="642.96" stroke="#000000" stroke-width=".8" xlink:href="#b"/>
<text transform="rotate(-0 887.16 657.56)" x="887.15662" y="657.558437" font-family="DejaVu Sans" font-size="10px" text-anchor="middle">2022</text>
<text transform="rotate(-0 486.72 674.28)" x="486.72" y="674.275937" font-family="DejaVu Sans" font-size="14px" text-anchor="middle">Год</text>
<defs>
<path id="c" d="m0 0h-3.5" stroke="#000" stroke-width=".8"/>
</defs>
<use x="65.52" y="642.96" stroke="#000000" stroke-width=".8" xlink:href="#c"/>
<text transform="rotate(-0 58.52 646.76)" x="58.52" y="646.759219" font-family="DejaVu Sans" font-size="10px" text-anchor="end">0</text>
<use x="65.52" y="573.280215" stroke="#000000" stroke-width=".8" xlink:href="#c"/>
<text transform="rotate(-0 58.52 577.08)" x="58.52" y="577.079433" font-family="DejaVu Sans" font-size="10px" text-anchor="end">2500</text>
<use x="65.52" y="503.600429" stroke="#000000" stroke-width=".8" xlink:href="#c"/>
<text transform="rotate(-0 58.52 507.4)" x="58.52" y="507.399648" font-family="DejaVu Sans" font-size="10px" text-anchor="end">5000</text>
<use x="65.52" y="433.920644" stroke="#000000" stroke-width=".8" xlink:href="#c"/>
<text transform="rotate(-0 58.52 437.72)" x="58.52" y="437.719863" font-family="DejaVu Sans" font-size="10px" text-anchor="end">7500</text>
<use x="65.52" y="364.240858" stroke="#000000" stroke-width=".8" xlink:href="#c"/>
<text transform="rotate(-0 58.52 368.04)" x="58.52" y="368.040077" font-family="DejaVu Sans" font-size="10px" text-anchor="end">10000</text>
<use x="65.52" y="294.561073" stroke="#000000" stroke-width=".8" xlink:href="#c"/>
<text transform="rotate(-0 58.52 298.36)" x="58.52" y="298.360292" font-family="DejaVu Sans" font-size="10px" text-anchor="end">12500</text>
<use x="65.52" y="224.881288" stroke="#000000" stroke-width=".8" xlink:href="#c"/>
<text transform="rotate(-0 58.52 228.68)" x="58.52" y="228.680506" font-family="DejaVu Sans" font-size="10px" text-anchor="end">15000</text>
<use x="65.52" y="155.201502" stroke="#000000" stroke-width=".8" xlink:href="#c"/>
<text transform="rotate(-0 58.52 159)" x="58.52" y="159.000721" font-family="DejaVu Sans" font-size="10px" text-anchor="end">17500</text>
<use x="65.52" y="85.521717" stroke="#000000" stroke-width=".8" xlink:href="#c"/>
<text transform="rotate(-0 58.52 89.321)" x="58.52" y="89.320936" font-family="DejaVu Sans" font-size="10px" text-anchor="end">20000</text>
<text transform="rotate(-90 19.796 335.16)" x="19.795938" y="335.16" font-family="DejaVu Sans" font-size="14px" text-anchor="middle">Открытий СН за год</text>
<path d="m65.52 642.96v-615.6" fill="none" stroke="#000" stroke-linecap="square" stroke-width=".8"/>
<path d="m907.92 642.96v-615.6" fill="none" stroke="#000" stroke-linecap="square" stroke-width=".8"/>
<path d="m65.52 642.96h842.4" fill="none" stroke="#000" stroke-linecap="square" stroke-width=".8"/>
<path d="m65.52 27.36h842.4" fill="none" stroke="#000" stroke-linecap="square" stroke-width=".8"/>
<text transform="rotate(-0 86.283 607.69)" x="86.28338" y="607.691101" font-family="DejaVu Sans" font-size="10px" text-anchor="middle">1086</text>
<text transform="rotate(-0 115.95 635.17)" x="115.945352" y="635.172809" font-family="DejaVu Sans" font-size="10px" text-anchor="middle">100</text>
<text transform="rotate(-0 145.61 633.42)" x="145.607324" y="633.416878" font-family="DejaVu Sans" font-size="10px" text-anchor="middle">163</text>
<text transform="rotate(-0 175.27 633.44)" x="175.269296" y="633.44475" font-family="DejaVu Sans" font-size="10px" text-anchor="middle">162</text>
<text transform="rotate(-0 204.93 632.33)" x="204.931268" y="632.329873" font-family="DejaVu Sans" font-size="10px" text-anchor="middle">202</text>
<text transform="rotate(-0 234.59 632.5)" x="234.593239" y="632.497105" font-family="DejaVu Sans" font-size="10px" text-anchor="middle">196</text>
<text transform="rotate(-0 264.26 629.38)" x="264.255211" y="629.37545" font-family="DejaVu Sans" font-size="10px" text-anchor="middle">308</text>
<text transform="rotate(-0 293.92 628.15)" x="293.917183" y="628.149086" font-family="DejaVu Sans" font-size="10px" text-anchor="middle">352</text>
<text transform="rotate(-0 323.58 627.51)" x="323.579155" y="627.508032" font-family="DejaVu Sans" font-size="10px" text-anchor="middle">375</text>
<text transform="rotate(-0 353.24 628.4)" x="353.241127" y="628.399933" font-family="DejaVu Sans" font-size="10px" text-anchor="middle">343</text>
<text transform="rotate(-0 382.9 627.26)" x="382.903099" y="627.257185" font-family="DejaVu Sans" font-size="10px" text-anchor="middle">384</text>
<text transform="rotate(-0 412.57 622.44)" x="412.56507" y="622.435344" font-family="DejaVu Sans" font-size="10px" text-anchor="middle">557</text>
<text transform="rotate(-0 442.23 621.1)" x="442.227042" y="621.097492" font-family="DejaVu Sans" font-size="10px" text-anchor="middle">605</text>
<text transform="rotate(-0 471.89 623.83)" x="471.889014" y="623.82894" font-family="DejaVu Sans" font-size="10px" text-anchor="middle">507</text>
<text transform="rotate(-0 501.55 622.38)" x="501.550986" y="622.3796" font-family="DejaVu Sans" font-size="10px" text-anchor="middle">559</text>
<text transform="rotate(-0 531.21 621.54)" x="531.212958" y="621.543443" font-family="DejaVu Sans" font-size="10px" text-anchor="middle">589</text>
<text transform="rotate(-0 560.87 612.71)" x="560.87493" y="612.708046" font-family="DejaVu Sans" font-size="10px" text-anchor="middle">906</text>
<text transform="rotate(-0 590.54 608.47)" x="590.536901" y="608.471515" font-family="DejaVu Sans" font-size="10px" text-anchor="middle">1058</text>
<text transform="rotate(-0 620.2 594.87)" x="620.198873" y="594.870021" font-family="DejaVu Sans" font-size="10px" text-anchor="middle">1546</text>
<text transform="rotate(-0 649.86 581.88)" x="649.860845" y="581.881709" font-family="DejaVu Sans" font-size="10px" text-anchor="middle">2012</text>
<text transform="rotate(-0 679.52 539.99)" x="679.522817" y="539.990222" font-family="DejaVu Sans" font-size="10px" text-anchor="middle">3515</text>
<text transform="rotate(-0 709.18 434.61)" x="709.184789" y="434.606514" font-family="DejaVu Sans" font-size="10px" text-anchor="middle">7296</text>
<text transform="rotate(-0 738.85 421.01)" x="738.846761" y="421.00502" font-family="DejaVu Sans" font-size="10px" text-anchor="middle">7784</text>
<text transform="rotate(-0 768.51 418.5)" x="768.508732" y="418.496548" font-family="DejaVu Sans" font-size="10px" text-anchor="middle">7874</text>
<text transform="rotate(-0 798.17 190.09)" x="798.170704" y="190.086211" font-family="DejaVu Sans" font-size="10px" text-anchor="middle">16069</text>
<text transform="rotate(-0 827.83 99.753)" x="827.832676" y="99.753338" font-family="DejaVu Sans" font-size="10px" text-anchor="middle">19310</text>
<text transform="rotate(-0 857.49 51.674)" x="857.494648" y="51.674286" font-family="DejaVu Sans" font-size="10px" text-anchor="middle">21035</text>
<text transform="rotate(-0 887.16 527.53)" x="887.15662" y="527.531476" font-family="DejaVu Sans" font-size="10px" text-anchor="middle">3962</text>
<text transform="rotate(-0 486.72 21.36)" x="486.72" y="21.36" font-family="DejaVu Sans" font-size="22px" text-anchor="middle">Статистика открытий сверхновых по годам</text>
<defs>
<clipPath id="a">
<rect x="65.52" y="27.36" width="842.4" height="615.6"/>
</clipPath>
</defs>
</svg>
