<?xml version="1.0" encoding="UTF-8"?>
<!DOCTYPE svg  PUBLIC '-//W3C//DTD SVG 1.1//EN'  'http://www.w3.org/Graphics/SVG/1.1/DTD/svg11.dtd'>
<svg width="936pt" height="684pt" version="1.1" viewBox="0 0 936 684" xmlns="http://www.w3.org/2000/svg" xmlns:xlink="http://www.w3.org/1999/xlink">
<defs>
<style type="text/css">*{stroke-linecap:butt;stroke-linejoin:round;}</style>
</defs>
<path d="m0 684h936v-684h-936z" fill="#fff"/>
<path d="m65.52 642.96h842.4v-615.6h-842.4z" fill="#fff"/>
<path d="m73.677 642.96h25.213v-20.901h-25.213z" clip-path="url(#a)" fill="#1f77b4"/>
<path d="m103.34 642.96h25.213v-2.0038h-25.213z" clip-path="url(#a)" fill="#1f77b4"/>
<path d="m133 642.96h25.213v-3.8963h-25.213z" clip-path="url(#a)" fill="#1f77b4"/>
<path d="m162.66 642.96h25.213v-3.952h-25.213z" clip-path="url(#a)" fill="#1f77b4"/>
<path d="m192.32 642.96h25.213v-3.8407h-25.213z" clip-path="url(#a)" fill="#1f77b4"/>
<path d="m221.99 642.96h25.213v-3.4232h-25.213z" clip-path="url(#a)" fill="#1f77b4"/>
<path d="m251.65 642.96h25.213v-5.9836h-25.213z" clip-path="url(#a)" fill="#1f77b4"/>
<path d="m281.31 642.96h25.213v-6.8742h-25.213z" clip-path="url(#a)" fill="#1f77b4"/>
<path d="m310.97 642.96h25.213v-6.8464h-25.213z" clip-path="url(#a)" fill="#1f77b4"/>
<path d="m340.63 642.96h25.213v-5.7053h-25.213z" clip-path="url(#a)" fill="#1f77b4"/>
<path d="m370.3 642.96h25.213v-6.9856h-25.213z" clip-path="url(#a)" fill="#1f77b4"/>
<path d="m399.96 642.96h25.213v-11.772h-25.213z" clip-path="url(#a)" fill="#1f77b4"/>
<path d="m429.62 642.96h25.213v-13.693h-25.213z" clip-path="url(#a)" fill="#1f77b4"/>
<path d="m459.28 642.96h25.213v-10.27h-25.213z" clip-path="url(#a)" fill="#1f77b4"/>
<path d="m488.94 642.96h25.213v-11.494h-25.213z" clip-path="url(#a)" fill="#1f77b4"/>
<path d="m518.61 642.96h25.213v-12.134h-25.213z" clip-path="url(#a)" fill="#1f77b4"/>
<path d="m548.27 642.96h25.213v-20.539h-25.213z" clip-path="url(#a)" fill="#1f77b4"/>
<path d="m577.93 642.96h25.213v-24.658h-25.213z" clip-path="url(#a)" fill="#1f77b4"/>
<path d="m607.59 642.96h25.213v-37.182h-25.213z" clip-path="url(#a)" fill="#1f77b4"/>
<path d="m637.25 642.96h25.213v-50.541h-25.213z" clip-path="url(#a)" fill="#1f77b4"/>
<path d="m666.92 642.96h25.213v-91.452h-25.213z" clip-path="url(#a)" fill="#1f77b4"/>
<path d="m696.58 642.96h25.213v-195.65h-25.213z" clip-path="url(#a)" fill="#1f77b4"/>
<path d="m726.24 642.96h25.213v-209.96h-25.213z" clip-path="url(#a)" fill="#1f77b4"/>
<path d="m755.9 642.96h25.213v-214.55h-25.213z" clip-path="url(#a)" fill="#1f77b4"/>
<path d="m785.56 642.96h25.213v-443.37h-25.213z" clip-path="url(#a)" fill="#1f77b4"/>
<path d="m815.23 642.96h25.213v-533.8h-25.213z" clip-path="url(#a)" fill="#1f77b4"/>
<path d="m844.89 642.96h25.213v-583.09h-25.213z" clip-path="url(#a)" fill="#1f77b4"/>
<path d="m874.55 642.96h25.213v-148.14h-25.213z" clip-path="url(#a)" fill="#1f77b4"/>
<path d="m73.677 622.06h25.213v-9.3234h-25.213z" clip-path="url(#a)" fill="#ff7f0e"/>
<path d="m103.34 640.96h25.213v-0.77926h-25.213z" clip-path="url(#a)" fill="#ff7f0e"/>
<path d="m133 639.06h25.213v-0.64011h-25.213z" clip-path="url(#a)" fill="#ff7f0e"/>
<path d="m162.66 639.01h25.213v-0.55662h-25.213z" clip-path="url(#a)" fill="#ff7f0e"/>
<path d="m192.32 639.12h25.213v-1.7812h-25.213z" clip-path="url(#a)" fill="#ff7f0e"/>
<path d="m221.99 639.54h25.213v-2.0317h-25.213z" clip-path="url(#a)" fill="#ff7f0e"/>
<path d="m251.65 636.98h25.213v-2.5883h-25.213z" clip-path="url(#a)" fill="#ff7f0e"/>
<path d="m281.31 636.09h25.213v-2.9222h-25.213z" clip-path="url(#a)" fill="#ff7f0e"/>
<path d="m310.97 636.11h25.213v-3.5902h-25.213z" clip-path="url(#a)" fill="#ff7f0e"/>
<path d="m340.63 637.25h25.213v-3.8407h-25.213z" clip-path="url(#a)" fill="#ff7f0e"/>
<path d="m370.3 635.97h25.213v-3.7015h-25.213z" clip-path="url(#a)" fill="#ff7f0e"/>
<path d="m399.96 631.19h25.213v-3.7293h-25.213z" clip-path="url(#a)" fill="#ff7f0e"/>
<path d="m429.62 629.27h25.213v-3.1449h-25.213z" clip-path="url(#a)" fill="#ff7f0e"/>
<path d="m459.28 632.69h25.213v-3.8407h-25.213z" clip-path="url(#a)" fill="#ff7f0e"/>
<path d="m488.94 631.47h25.213v-4.0633h-25.213z" clip-path="url(#a)" fill="#ff7f0e"/>
<path d="m518.61 630.83h25.213v-4.2581h-25.213z" clip-path="url(#a)" fill="#ff7f0e"/>
<path d="m548.27 622.42h25.213v-4.6756h-25.213z" clip-path="url(#a)" fill="#ff7f0e"/>
<path d="m577.93 618.3h25.213v-4.7869h-25.213z" clip-path="url(#a)" fill="#ff7f0e"/>
<path d="m607.59 605.78h25.213v-5.8445h-25.213z" clip-path="url(#a)" fill="#ff7f0e"/>
<path d="m637.25 592.42h25.213v-5.4549h-25.213z" clip-path="url(#a)" fill="#ff7f0e"/>
<path d="m666.92 551.51h25.213v-6.4289h-25.213z" clip-path="url(#a)" fill="#ff7f0e"/>
<path d="m696.58 447.31h25.213v-7.403h-25.213z" clip-path="url(#a)" fill="#ff7f0e"/>
<path d="m726.24 433h25.213v-6.6794h-25.213z" clip-path="url(#a)" fill="#ff7f0e"/>
<path d="m755.9 428.41h25.213v-4.6478h-25.213z" clip-path="url(#a)" fill="#ff7f0e"/>
<path d="m785.56 199.59h25.213v-3.8407h-25.213z" clip-path="url(#a)" fill="#ff7f0e"/>
<path d="m815.23 109.16h25.213v-3.618h-25.213z" clip-path="url(#a)" fill="#ff7f0e"/>
<path d="m844.89 59.875h25.213v-3.2006h-25.213z" clip-path="url(#a)" fill="#ff7f0e"/>
<path d="m874.55 494.82h25.213v-1.1411h-25.213z" clip-path="url(#a)" fill="#ff7f0e"/>
<defs>
<path id="b" d="m0 0v3.5" stroke="#000" stroke-width=".8"/>
</defs>
<use x="86.28338" y="642.96" stroke="#000000" stroke-width=".8" xlink:href="#b"/>
<text transform="rotate(-0 86.283 657.56)" x="86.28338" y="657.558437" font-family="DejaVu Sans" font-size="10px" text-anchor="middle">до 1996</text>
<use x="115.945352" y="642.96" stroke="#000000" stroke-width=".8" xlink:href="#b"/>
<text transform="rotate(-0 115.95 657.56)" x="115.945352" y="657.558437" font-family="DejaVu Sans" font-size="10px" text-anchor="middle">1996</text>
<use x="145.607324" y="642.96" stroke="#000000" stroke-width=".8" xlink:href="#b"/>
<text transform="rotate(-0 145.61 657.56)" x="145.607324" y="657.558437" font-family="DejaVu Sans" font-size="10px" text-anchor="middle">1997</text>
<use x="175.269296" y="642.96" stroke="#000000" stroke-width=".8" xlink:href="#b"/>
<text transform="rotate(-0 175.27 657.56)" x="175.269296" y="657.558437" font-family="DejaVu Sans" font-size="10px" text-anchor="middle">1998</text>
<use x="204.931268" y="642.96" stroke="#000000" stroke-width=".8" xlink:href="#b"/>
<text transform="rotate(-0 204.93 657.56)" x="204.931268" y="657.558437" font-family="DejaVu Sans" font-size="10px" text-anchor="middle">1999</text>
<use x="234.593239" y="642.96" stroke="#000000" stroke-width=".8" xlink:href="#b"/>
<text transform="rotate(-0 234.59 657.56)" x="234.593239" y="657.558437" font-family="DejaVu Sans" font-size="10px" text-anchor="middle">2000</text>
<use x="264.255211" y="642.96" stroke="#000000" stroke-width=".8" xlink:href="#b"/>
<text transform="rotate(-0 264.26 657.56)" x="264.255211" y="657.558437" font-family="DejaVu Sans" font-size="10px" text-anchor="middle">2001</text>
<use x="293.917183" y="642.96" stroke="#000000" stroke-width=".8" xlink:href="#b"/>
<text transform="rotate(-0 293.92 657.56)" x="293.917183" y="657.558437" font-family="DejaVu Sans" font-size="10px" text-anchor="middle">2002</text>
<use x="323.579155" y="642.96" stroke="#000000" stroke-width=".8" xlink:href="#b"/>
<text transform="rotate(-0 323.58 657.56)" x="323.579155" y="657.558437" font-family="DejaVu Sans" font-size="10px" text-anchor="middle">2003</text>
<use x="353.241127" y="642.96" stroke="#000000" stroke-width=".8" xlink:href="#b"/>
<text transform="rotate(-0 353.24 657.56)" x="353.241127" y="657.558437" font-family="DejaVu Sans" font-size="10px" text-anchor="middle">2004</text>
<use x="382.903099" y="642.96" stroke="#000000" stroke-width=".8" xlink:href="#b"/>
<text transform="rotate(-0 382.9 657.56)" x="382.903099" y="657.558437" font-family="DejaVu Sans" font-size="10px" text-anchor="middle">2005</text>
<use x="412.56507" y="642.96" stroke="#000000" stroke-width=".8" xlink:href="#b"/>
<text transform="rotate(-0 412.57 657.56)" x="412.56507" y="657.558437" font-family="DejaVu Sans" font-size="10px" text-anchor="middle">2006</text>
<use x="442.227042" y="642.96" stroke="#000000" stroke-width=".8" xlink:href="#b"/>
<text transform="rotate(-0 442.23 657.56)" x="442.227042" y="657.558437" font-family="DejaVu Sans" font-size="10px" text-anchor="middle">2007</text>
<use x="471.889014" y="642.96" stroke="#000000" stroke-width=".8" xlink:href="#b"/>
<text transform="rotate(-0 471.89 657.56)" x="471.889014" y="657.558437" font-family="DejaVu Sans" font-size="10px" text-anchor="middle">2008</text>
<use x="501.550986" y="642.96" stroke="#000000" stroke-width=".8" xlink:href="#b"/>
<text transform="rotate(-0 501.55 657.56)" x="501.550986" y="657.558437" font-family="DejaVu Sans" font-size="10px" text-anchor="middle">2009</text>
<use x="531.212958" y="642.96" stroke="#000000" stroke-width=".8" xlink:href="#b"/>
<text transform="rotate(-0 531.21 657.56)" x="531.212958" y="657.558437" font-family="DejaVu Sans" font-size="10px" text-anchor="middle">2010</text>
<use x="560.87493" y="642.96" stroke="#000000" stroke-width=".8" xlink:href="#b"/>
<text transform="rotate(-0 560.87 657.56)" x="560.87493" y="657.558437" font-family="DejaVu Sans" font-size="10px" text-anchor="middle">2011</text>
<use x="590.536901" y="642.96" stroke="#000000" stroke-width=".8" xlink:href="#b"/>
<text transform="rotate(-0 590.54 657.56)" x="590.536901" y="657.558437" font-family="DejaVu Sans" font-size="10px" text-anchor="middle">2012</text>
<use x="620.198873" y="642.96" stroke="#000000" stroke-width=".8" xlink:href="#b"/>
<text transform="rotate(-0 620.2 657.56)" x="620.198873" y="657.558437" font-family="DejaVu Sans" font-size="10px" text-anchor="middle">2013</text>
<use x="649.860845" y="642.96" stroke="#000000" stroke-width=".8" xlink:href="#b"/>
<text transform="rotate(-0 649.86 657.56)" x="649.860845" y="657.558437" font-family="DejaVu Sans" font-size="10px" text-anchor="middle">2014</text>
<use x="679.522817" y="642.96" stroke="#000000" stroke-width=".8" xlink:href="#b"/>
<text transform="rotate(-0 679.52 657.56)" x="679.522817" y="657.558437" font-family="DejaVu Sans" font-size="10px" text-anchor="middle">2015</text>
<use x="709.184789" y="642.96" stroke="#000000" stroke-width=".8" xlink:href="#b"/>
<text transform="rotate(-0 709.18 657.56)" x="709.184789" y="657.558437" font-family="DejaVu Sans" font-size="10px" text-anchor="middle">2016</text>
<use x="738.846761" y="642.96" stroke="#000000" stroke-width=".8" xlink:href="#b"/>
<text transform="rotate(-0 738.85 657.56)" x="738.846761" y="657.558437" font-family="DejaVu Sans" font-size="10px" text-anchor="middle">2017</text>
<use x="768.508732" y="642.96" stroke="#000000" stroke-width=".8" xlink:href="#b"/>
<text transform="rotate(-0 768.51 657.56)" x="768.508732" y="657.558437" font-family="DejaVu Sans" font-size="10px" text-anchor="middle">2018</text>
<use x="798.170704" y="642.96" stroke="#000000" stroke-width=".8" xlink:href="#b"/>
<text transform="rotate(-0 798.17 657.56)" x="798.170704" y="657.558437" font-family="DejaVu Sans" font-size="10px" text-anchor="middle">2019</text>
<use x="827.832676" y="642.96" stroke="#000000" stroke-width=".8" xlink:href="#b"/>
<text transform="rotate(-0 827.83 657.56)" x="827.832676" y="657.558437" font-family="DejaVu Sans" font-size="10px" text-anchor="middle">2020</text>
<use x="857.494648" y="642.96" stroke="#000000" stroke-width=".8" xlink:href="#b"/>
<text transform="rotate(-0 857.49 657.56)" x="857.494648" y="657.558437" font-family="DejaVu Sans" font-size="10px" text-anchor="middle">2021</text>
<use x="887.15662" y="642.96" stroke="#000000" stroke-width=".8" xlink:href="#b"/>
<text transform="rotate(-0 887.16 657.56)" x="887.15662" y="657.558437" font-family="DejaVu Sans" font-size="10px" text-anchor="middle">2022</text>
<text transform="rotate(-0 486.72 674.28)" x="486.72" y="674.275937" font-family="DejaVu Sans" font-size="14px" text-anchor="middle">Год</text>
<defs>
<path id="c" d="m0 0h-3.5" stroke="#000" stroke-width=".8"/>
</defs>
<use x="65.52" y="642.96" stroke="#000000" stroke-width=".8" xlink:href="#c"/>
<text transform="rotate(-0 58.52 646.76)" x="58.52" y="646.759219" font-family="DejaVu Sans" font-size="10px" text-anchor="end">0</text>
<use x="65.52" y="573.382753" stroke="#000000" stroke-width=".8" xlink:href="#c"/>
<text transform="rotate(-0 58.52 577.18)" x="58.52" y="577.181972" font-family="DejaVu Sans" font-size="10px" text-anchor="end">2500</text>
<use x="65.52" y="503.805506" stroke="#000000" stroke-width=".8" xlink:href="#c"/>
<text transform="rotate(-0 58.52 507.6)" x="58.52" y="507.604725" font-family="DejaVu Sans" font-size="10px" text-anchor="end">5000</text>
<use x="65.52" y="434.228259" stroke="#000000" stroke-width=".8" xlink:href="#c"/>
<text transform="rotate(-0 58.52 438.03)" x="58.52" y="438.027478" font-family="DejaVu Sans" font-size="10px" text-anchor="end">7500</text>
<use x="65.52" y="364.651012" stroke="#000000" stroke-width=".8" xlink:href="#c"/>
<text transform="rotate(-0 58.52 368.45)" x="58.52" y="368.450231" font-family="DejaVu Sans" font-size="10px" text-anchor="end">10000</text>
<use x="65.52" y="295.073765" stroke="#000000" stroke-width=".8" xlink:href="#c"/>
<text transform="rotate(-0 58.52 298.87)" x="58.52" y="298.872984" font-family="DejaVu Sans" font-size="10px" text-anchor="end">12500</text>
<use x="65.52" y="225.496518" stroke="#000000" stroke-width=".8" xlink:href="#c"/>
<text transform="rotate(-0 58.52 229.3)" x="58.52" y="229.295737" font-family="DejaVu Sans" font-size="10px" text-anchor="end">15000</text>
<use x="65.52" y="155.919271" stroke="#000000" stroke-width=".8" xlink:href="#c"/>
<text transform="rotate(-0 58.52 159.72)" x="58.52" y="159.71849" font-family="DejaVu Sans" font-size="10px" text-anchor="end">17500</text>
<use x="65.52" y="86.342024" stroke="#000000" stroke-width=".8" xlink:href="#c"/>
<text transform="rotate(-0 58.52 90.141)" x="58.52" y="90.141243" font-family="DejaVu Sans" font-size="10px" text-anchor="end">20000</text>
<text transform="rotate(-90 19.796 335.16)" x="19.795938" y="335.16" font-family="DejaVu Sans" font-size="14px" text-anchor="middle">Открытий СН за год</text>
<path d="m65.52 642.96v-615.6" fill="none" stroke="#000" stroke-linecap="square" stroke-width=".8"/>
<path d="m907.92 642.96v-615.6" fill="none" stroke="#000" stroke-linecap="square" stroke-width=".8"/>
<path d="m65.52 642.96h842.4" fill="none" stroke="#000" stroke-linecap="square" stroke-width=".8"/>
<path d="m65.52 27.36h842.4" fill="none" stroke="#000" stroke-linecap="square" stroke-width=".8"/>
<text transform="rotate(-0 86.283 607.74)" x="86.28338" y="607.735644" font-family="DejaVu Sans" font-size="10px" text-anchor="middle">1086</text>
<text transform="rotate(-0 115.95 635.18)" x="115.945352" y="635.17691" font-family="DejaVu Sans" font-size="10px" text-anchor="middle">100</text>
<text transform="rotate(-0 145.61 633.42)" x="145.607324" y="633.423563" font-family="DejaVu Sans" font-size="10px" text-anchor="middle">163</text>
<text transform="rotate(-0 175.27 633.45)" x="175.269296" y="633.451394" font-family="DejaVu Sans" font-size="10px" text-anchor="middle">162</text>
<text transform="rotate(-0 204.93 632.34)" x="204.931268" y="632.338158" font-family="DejaVu Sans" font-size="10px" text-anchor="middle">202</text>
<text transform="rotate(-0 234.59 632.51)" x="234.593239" y="632.505144" font-family="DejaVu Sans" font-size="10px" text-anchor="middle">196</text>
<text transform="rotate(-0 264.26 629.39)" x="264.255211" y="629.388083" font-family="DejaVu Sans" font-size="10px" text-anchor="middle">308</text>
<text transform="rotate(-0 293.92 628.16)" x="293.917183" y="628.163524" font-family="DejaVu Sans" font-size="10px" text-anchor="middle">352</text>
<text transform="rotate(-0 323.58 627.52)" x="323.579155" y="627.523413" font-family="DejaVu Sans" font-size="10px" text-anchor="middle">375</text>
<text transform="rotate(-0 353.24 628.41)" x="353.241127" y="628.414002" font-family="DejaVu Sans" font-size="10px" text-anchor="middle">343</text>
<text transform="rotate(-0 382.9 627.27)" x="382.903099" y="627.272935" font-family="DejaVu Sans" font-size="10px" text-anchor="middle">384</text>
<text transform="rotate(-0 412.57 622.46)" x="412.56507" y="622.458189" font-family="DejaVu Sans" font-size="10px" text-anchor="middle">557</text>
<text transform="rotate(-0 442.23 621.12)" x="442.227042" y="621.122306" font-family="DejaVu Sans" font-size="10px" text-anchor="middle">605</text>
<text transform="rotate(-0 471.89 623.85)" x="471.889014" y="623.849734" font-family="DejaVu Sans" font-size="10px" text-anchor="middle">507</text>
<text transform="rotate(-0 501.55 622.4)" x="501.550986" y="622.402528" font-family="DejaVu Sans" font-size="10px" text-anchor="middle">559</text>
<text transform="rotate(-0 531.21 621.57)" x="531.212958" y="621.567601" font-family="DejaVu Sans" font-size="10px" text-anchor="middle">589</text>
<text transform="rotate(-0 560.87 612.75)" x="560.87493" y="612.745206" font-family="DejaVu Sans" font-size="10px" text-anchor="middle">906</text>
<text transform="rotate(-0 590.54 608.51)" x="590.536901" y="608.514909" font-family="DejaVu Sans" font-size="10px" text-anchor="middle">1058</text>
<text transform="rotate(-0 620.2 594.93)" x="620.198873" y="594.93343" font-family="DejaVu Sans" font-size="10px" text-anchor="middle">1546</text>
<text transform="rotate(-0 649.86 581.96)" x="649.860845" y="581.964232" font-family="DejaVu Sans" font-size="10px" text-anchor="middle">2012</text>
<text transform="rotate(-0 679.52 540.08)" x="679.522817" y="540.078729" font-family="DejaVu Sans" font-size="10px" text-anchor="middle">3517</text>
<text transform="rotate(-0 709.18 434.91)" x="709.184789" y="434.905762" font-family="DejaVu Sans" font-size="10px" text-anchor="middle">7296</text>
<text transform="rotate(-0 738.85 421.32)" x="738.846761" y="421.324284" font-family="DejaVu Sans" font-size="10px" text-anchor="middle">7784</text>
<text transform="rotate(-0 768.51 418.76)" x="768.508732" y="418.763841" font-family="DejaVu Sans" font-size="10px" text-anchor="middle">7876</text>
<text transform="rotate(-0 798.17 190.75)" x="798.170704" y="190.745287" font-family="DejaVu Sans" font-size="10px" text-anchor="middle">16069</text>
<text transform="rotate(-0 827.83 100.55)" x="827.832676" y="100.545344" font-family="DejaVu Sans" font-size="10px" text-anchor="middle">19310</text>
<text transform="rotate(-0 857.49 51.674)" x="857.494648" y="51.674286" font-family="DejaVu Sans" font-size="10px" text-anchor="middle">21066</text>
<text transform="rotate(-0 887.16 488.68)" x="887.15662" y="488.675059" font-family="DejaVu Sans" font-size="10px" text-anchor="middle">5364</text>
<text transform="rotate(-0 486.72 21.36)" x="486.72" y="21.36" font-family="DejaVu Sans" font-size="22px" text-anchor="middle">Статистика открытий сверхновых по годам</text>
<defs>
<clipPath id="a">
<rect x="65.52" y="27.36" width="842.4" height="615.6"/>
</clipPath>
</defs>
</svg>
