<?xml version="1.0" encoding="UTF-8"?>
<!DOCTYPE svg  PUBLIC '-//W3C//DTD SVG 1.1//EN'  'http://www.w3.org/Graphics/SVG/1.1/DTD/svg11.dtd'>
<svg width="1152pt" height="648pt" version="1.1" viewBox="0 0 1152 648" xmlns="http://www.w3.org/2000/svg" xmlns:xlink="http://www.w3.org/1999/xlink">
<defs>
<style type="text/css">*{stroke-linecap:butt;stroke-linejoin:round;}</style>
</defs>
<path d="m0 648h1152v-648h-1152z" fill="#fff"/>
<path d="m69.12 609.12h1048.3v-579.96h-1048.3z" fill="#fff"/>
<path d="m79.271 609.12h31.376v-19.659h-31.376z" clip-path="url(#b)" fill="#1f77b4"/>
<path d="m116.18 609.12h31.376v-1.8848h-31.376z" clip-path="url(#b)" fill="#1f77b4"/>
<path d="m153.1 609.12h31.376v-3.6648h-31.376z" clip-path="url(#b)" fill="#1f77b4"/>
<path d="m190.01 609.12h31.376v-3.7172h-31.376z" clip-path="url(#b)" fill="#1f77b4"/>
<path d="m226.92 609.12h31.376v-3.6125h-31.376z" clip-path="url(#b)" fill="#1f77b4"/>
<path d="m263.83 609.12h31.376v-3.2198h-31.376z" clip-path="url(#b)" fill="#1f77b4"/>
<path d="m300.75 609.12h31.376v-5.6281h-31.376z" clip-path="url(#b)" fill="#1f77b4"/>
<path d="m337.66 609.12h31.376v-6.4658h-31.376z" clip-path="url(#b)" fill="#1f77b4"/>
<path d="m374.57 609.12h31.376v-6.4396h-31.376z" clip-path="url(#b)" fill="#1f77b4"/>
<path d="m411.49 609.12h31.376v-5.3664h-31.376z" clip-path="url(#b)" fill="#1f77b4"/>
<path d="m448.4 609.12h31.376v-6.5705h-31.376z" clip-path="url(#b)" fill="#1f77b4"/>
<path d="m485.31 609.12h31.376v-11.073h-31.376z" clip-path="url(#b)" fill="#1f77b4"/>
<path d="m522.22 609.12h31.376v-12.879h-31.376z" clip-path="url(#b)" fill="#1f77b4"/>
<path d="m559.14 609.12h31.376v-9.6595h-31.376z" clip-path="url(#b)" fill="#1f77b4"/>
<path d="m596.05 609.12h31.376v-10.811h-31.376z" clip-path="url(#b)" fill="#1f77b4"/>
<path d="m632.96 609.12h31.376v-11.413h-31.376z" clip-path="url(#b)" fill="#1f77b4"/>
<path d="m669.87 609.12h31.376v-19.319h-31.376z" clip-path="url(#b)" fill="#1f77b4"/>
<path d="m706.79 609.12h31.376v-23.193h-31.376z" clip-path="url(#b)" fill="#1f77b4"/>
<path d="m743.7 609.12h31.376v-35.052h-31.376z" clip-path="url(#b)" fill="#1f77b4"/>
<path d="m780.61 609.12h31.376v-47.564h-31.376z" clip-path="url(#b)" fill="#1f77b4"/>
<path d="m817.52 609.12h31.376v-86.019h-31.376z" clip-path="url(#b)" fill="#1f77b4"/>
<path d="m854.44 609.12h31.376v-184.08h-31.376z" clip-path="url(#b)" fill="#1f77b4"/>
<path d="m891.35 609.12h31.376v-197.64h-31.376z" clip-path="url(#b)" fill="#1f77b4"/>
<path d="m928.26 609.12h31.376v-202.67h-31.376z" clip-path="url(#b)" fill="#1f77b4"/>
<path d="m965.18 609.12h31.376v-418.11h-31.376z" clip-path="url(#b)" fill="#1f77b4"/>
<path d="m1002.1 609.12h31.376v-503.36h-31.376z" clip-path="url(#b)" fill="#1f77b4"/>
<path d="m1039 609.12h31.376v-549.2h-31.376z" clip-path="url(#b)" fill="#1f77b4"/>
<path d="m1075.9 609.12h31.376v-414.99h-31.376z" clip-path="url(#b)" fill="#1f77b4"/>
<path d="m79.271 589.46h31.376v-9.1621h-31.376z" clip-path="url(#b)" fill="#ff7f0e"/>
<path d="m116.18 607.24h31.376v-0.75914h-31.376z" clip-path="url(#b)" fill="#ff7f0e"/>
<path d="m153.1 605.46h31.376v-0.60208h-31.376z" clip-path="url(#b)" fill="#ff7f0e"/>
<path d="m190.01 605.4h31.376v-0.52355h-31.376z" clip-path="url(#b)" fill="#ff7f0e"/>
<path d="m226.92 605.51h31.376v-1.6754h-31.376z" clip-path="url(#b)" fill="#ff7f0e"/>
<path d="m263.83 605.9h31.376v-1.9109h-31.376z" clip-path="url(#b)" fill="#ff7f0e"/>
<path d="m300.75 603.49h31.376v-2.4345h-31.376z" clip-path="url(#b)" fill="#ff7f0e"/>
<path d="m337.66 602.65h31.376v-2.7486h-31.376z" clip-path="url(#b)" fill="#ff7f0e"/>
<path d="m374.57 602.68h31.376v-3.3769h-31.376z" clip-path="url(#b)" fill="#ff7f0e"/>
<path d="m411.49 603.75h31.376v-3.6125h-31.376z" clip-path="url(#b)" fill="#ff7f0e"/>
<path d="m448.4 602.55h31.376v-3.4816h-31.376z" clip-path="url(#b)" fill="#ff7f0e"/>
<path d="m485.31 598.05h31.376v-3.5078h-31.376z" clip-path="url(#b)" fill="#ff7f0e"/>
<path d="m522.22 596.24h31.376v-2.958h-31.376z" clip-path="url(#b)" fill="#ff7f0e"/>
<path d="m559.14 599.46h31.376v-3.6125h-31.376z" clip-path="url(#b)" fill="#ff7f0e"/>
<path d="m596.05 598.31h31.376v-3.8219h-31.376z" clip-path="url(#b)" fill="#ff7f0e"/>
<path d="m632.96 597.71h31.376v-4.0051h-31.376z" clip-path="url(#b)" fill="#ff7f0e"/>
<path d="m669.87 589.8h31.376v-4.3978h-31.376z" clip-path="url(#b)" fill="#ff7f0e"/>
<path d="m706.79 585.93h31.376v-4.5025h-31.376z" clip-path="url(#b)" fill="#ff7f0e"/>
<path d="m743.7 574.07h31.376v-5.5758h-31.376z" clip-path="url(#b)" fill="#ff7f0e"/>
<path d="m780.61 561.56h31.376v-5.2617h-31.376z" clip-path="url(#b)" fill="#ff7f0e"/>
<path d="m817.52 523.1h31.376v-6.1255h-31.376z" clip-path="url(#b)" fill="#ff7f0e"/>
<path d="m854.44 425.04h31.376v-7.1464h-31.376z" clip-path="url(#b)" fill="#ff7f0e"/>
<path d="m891.35 411.48h31.376v-6.6491h-31.376z" clip-path="url(#b)" fill="#ff7f0e"/>
<path d="m928.26 406.45h31.376v-5.4187h-31.376z" clip-path="url(#b)" fill="#ff7f0e"/>
<path d="m965.18 191.01h31.376v-4.3716h-31.376z" clip-path="url(#b)" fill="#ff7f0e"/>
<path d="m1002.1 105.76h31.376v-3.4292h-31.376z" clip-path="url(#b)" fill="#ff7f0e"/>
<path d="m1039 59.918h31.376v-3.1413h-31.376z" clip-path="url(#b)" fill="#ff7f0e"/>
<path d="m1075.9 194.13h31.376v-3.1413h-31.376z" clip-path="url(#b)" fill="#ff7f0e"/>
<defs>
<path id="e" d="m0 0v3.5" stroke="#000" stroke-width=".8"/>
</defs>
<use x="94.958873" y="609.12" stroke="#000000" stroke-width=".8" xlink:href="#e"/>
<g transform="translate(74.128 623.72) scale(.1 -.1)">
<defs>
<path id="t" d="m21.625 7.1719h26.078v40.344h-18.891v-6.8438q0-20.109-5.7656-30.859zm-13.031 0q4.4375 1.9531 6.3906 6.1094 4.7969 10.297 4.7969 31.062v10.344h36.953v-47.516h7.1875v-20.984h-7.1875v13.812h-44.328v-13.812h-7.1875v20.984z"/>
<path id="m" d="m30.609 48.391q-7.2188 0-11.422-5.6406t-4.2031-15.453 4.1719-15.453q4.1875-5.6406 11.453-5.6406 7.1875 0 11.375 5.6562 4.2031 5.6719 4.2031 15.438 0 9.7188-4.2031 15.406-4.1875 5.6875-11.375 5.6875zm0 7.6094q11.719 0 18.406-7.625 6.7031-7.6094 6.7031-21.078 0-13.422-6.7031-21.078-6.6875-7.6406-18.406-7.6406-11.766 0-18.438 7.6406-6.6562 7.6562-6.6562 21.078 0 13.469 6.6562 21.078 6.6719 7.625 18.438 7.625z"/>
<path id="d" d="m12.406 8.2969h16.109v55.625l-17.531-3.5156v8.9844l17.438 3.5156h9.8594v-64.609h16.109v-8.2969h-41.984z"/>
<path id="g" d="m10.984 1.5156v8.9844q3.7188-1.7656 7.5156-2.6875 3.8125-0.92188 7.4844-0.92188 9.7656 0 14.906 6.5625 5.1562 6.5625 5.8906 19.953-2.8281-4.2031-7.1875-6.4531-4.3438-2.25-9.6094-2.25-10.938 0-17.312 6.6094-6.375 6.625-6.375 18.109 0 11.219 6.6406 18 6.6406 6.7969 17.672 6.7969 12.656 0 19.312-9.7031 6.6719-9.6875 6.6719-28.141 0-17.234-8.1875-27.516-8.1719-10.281-21.984-10.281-3.7188 0-7.5312 0.73438-3.7969 0.73438-7.9062 2.2031zm19.625 30.906q6.6406 0 10.516 4.5312 3.8906 4.5469 3.8906 12.469 0 7.8594-3.8906 12.422-3.875 4.5625-10.516 4.5625t-10.516-4.5625-3.875-12.422q0-7.9219 3.875-12.469 3.875-4.5312 10.516-4.5312z"/>
<path id="j" d="m33.016 40.375q-6.6406 0-10.531-4.5469-3.875-4.5312-3.875-12.438 0-7.8594 3.875-12.438 3.8906-4.5625 10.531-4.5625t10.516 4.5625q3.875 4.5781 3.875 12.438 0 7.9062-3.875 12.438-3.875 4.5469-10.516 4.5469zm19.578 30.922v-8.9844q-3.7188 1.75-7.5 2.6719-3.7812 0.9375-7.5 0.9375-9.7656 0-14.922-6.5938-5.1406-6.5938-5.875-19.922 2.875 4.25 7.2188 6.5156 4.3594 2.2656 9.5781 2.2656 10.984 0 17.359-6.6719 6.375-6.6562 6.375-18.125 0-11.234-6.6406-18.031-6.6406-6.7812-17.672-6.7812-12.656 0-19.344 9.6875-6.6875 9.7031-6.6875 28.109 0 17.281 8.2031 27.562t22.016 10.281q3.7188 0 7.5-0.73438t7.8906-2.1875z"/>
</defs>
<use xlink:href="#t"/>
<use x="69.140625" xlink:href="#m"/>
<use x="130.322266" xlink:href="#DejaVuSans-32"/>
<use x="162.109375" xlink:href="#d"/>
<use x="225.732422" xlink:href="#g"/>
<use x="289.355469" xlink:href="#g"/>
<use x="352.978516" xlink:href="#j"/>
</g>
<use x="131.871549" y="609.12" stroke="#000000" stroke-width=".8" xlink:href="#e"/>
<g transform="translate(119.15 623.72) scale(.1 -.1)">
<use xlink:href="#d"/>
<use x="63.623047" xlink:href="#g"/>
<use x="127.246094" xlink:href="#g"/>
<use x="190.869141" xlink:href="#j"/>
</g>
<use x="168.784225" y="609.12" stroke="#000000" stroke-width=".8" xlink:href="#e"/>
<g transform="translate(156.06 623.72) scale(.1 -.1)">
<defs>
<path id="i" d="m8.2031 72.906h46.875v-4.2031l-26.469-68.703h-10.297l24.906 64.594h-35.016z"/>
</defs>
<use xlink:href="#d"/>
<use x="63.623047" xlink:href="#g"/>
<use x="127.246094" xlink:href="#g"/>
<use x="190.869141" xlink:href="#i"/>
</g>
<use x="205.696901" y="609.12" stroke="#000000" stroke-width=".8" xlink:href="#e"/>
<g transform="translate(192.97 623.72) scale(.1 -.1)">
<defs>
<path id="l" d="m31.781 34.625q-7.0312 0-11.062-3.7656-4.0156-3.7656-4.0156-10.344 0-6.5938 4.0156-10.359 4.0312-3.7656 11.062-3.7656t11.078 3.7812q4.0625 3.7969 4.0625 10.344 0 6.5781-4.0312 10.344-4.0156 3.7656-11.109 3.7656zm-9.8594 4.1875q-6.3438 1.5625-9.8906 5.9062-3.5312 4.3594-3.5312 10.609 0 8.7344 6.2188 13.812 6.2344 5.0781 17.062 5.0781 10.891 0 17.094-5.0781t6.2031-13.812q0-6.25-3.5469-10.609-3.5312-4.3438-9.8281-5.9062 7.125-1.6562 11.094-6.5 3.9844-4.8281 3.9844-11.797 0-10.609-6.4688-16.281-6.4688-5.6562-18.531-5.6562-12.047 0-18.531 5.6562-6.4688 5.6719-6.4688 16.281 0 6.9688 4 11.797 4.0156 4.8438 11.141 6.5zm-3.6094 15.578q0-5.6562 3.5312-8.8281 3.5469-3.1719 9.9375-3.1719 6.3594 0 9.9375 3.1719 3.5938 3.1719 3.5938 8.8281 0 5.6719-3.5938 8.8438-3.5781 3.1719-9.9375 3.1719-6.3906 0-9.9375-3.1719-3.5312-3.1719-3.5312-8.8438z"/>
</defs>
<use xlink:href="#d"/>
<use x="63.623047" xlink:href="#g"/>
<use x="127.246094" xlink:href="#g"/>
<use x="190.869141" xlink:href="#l"/>
</g>
<use x="242.609577" y="609.12" stroke="#000000" stroke-width=".8" xlink:href="#e"/>
<g transform="translate(229.88 623.72) scale(.1 -.1)">
<use xlink:href="#d"/>
<use x="63.623047" xlink:href="#g"/>
<use x="127.246094" xlink:href="#g"/>
<use x="190.869141" xlink:href="#g"/>
</g>
<use x="279.522254" y="609.12" stroke="#000000" stroke-width=".8" xlink:href="#e"/>
<g transform="translate(266.8 623.72) scale(.1 -.1)">
<defs>
<path id="c" d="m19.188 8.2969h34.422v-8.2969h-46.281v8.2969q5.6094 5.8125 15.297 15.594 9.7031 9.7969 12.188 12.641 4.7344 5.3125 6.6094 9 1.8906 3.6875 1.8906 7.25 0 5.8125-4.0781 9.4688-4.0781 3.6719-10.625 3.6719-4.6406 0-9.7969-1.6094-5.1406-1.6094-11-4.8906v9.9688q5.9531 2.3906 11.125 3.6094 5.1875 1.2188 9.4844 1.2188 11.328 0 18.062-5.6719 6.7344-5.6562 6.7344-15.125 0-4.5-1.6875-8.5312-1.6719-4.0156-6.125-9.4844-1.2188-1.4219-7.7656-8.1875-6.5312-6.7656-18.453-18.922z"/>
<path id="a" d="m31.781 66.406q-7.6094 0-11.453-7.5-3.8281-7.4844-3.8281-22.531 0-14.984 3.8281-22.484 3.8438-7.5 11.453-7.5 7.6719 0 11.5 7.5 3.8438 7.5 3.8438 22.484 0 15.047-3.8438 22.531-3.8281 7.5-11.5 7.5zm0 7.8125q12.266 0 18.734-9.7031 6.4688-9.6875 6.4688-28.141 0-18.406-6.4688-28.109-6.4688-9.6875-18.734-9.6875-12.25 0-18.719 9.6875-6.4688 9.7031-6.4688 28.109 0 18.453 6.4688 28.141 6.4688 9.7031 18.719 9.7031z"/>
</defs>
<use xlink:href="#c"/>
<use x="63.623047" xlink:href="#a"/>
<use x="127.246094" xlink:href="#a"/>
<use x="190.869141" xlink:href="#a"/>
</g>
<use x="316.43493" y="609.12" stroke="#000000" stroke-width=".8" xlink:href="#e"/>
<g transform="translate(303.71 623.72) scale(.1 -.1)">
<use xlink:href="#c"/>
<use x="63.623047" xlink:href="#a"/>
<use x="127.246094" xlink:href="#a"/>
<use x="190.869141" xlink:href="#d"/>
</g>
<use x="353.347606" y="609.12" stroke="#000000" stroke-width=".8" xlink:href="#e"/>
<g transform="translate(340.62 623.72) scale(.1 -.1)">
<use xlink:href="#c"/>
<use x="63.623047" xlink:href="#a"/>
<use x="127.246094" xlink:href="#a"/>
<use x="190.869141" xlink:href="#c"/>
</g>
<use x="390.260282" y="609.12" stroke="#000000" stroke-width=".8" xlink:href="#e"/>
<g transform="translate(377.54 623.72) scale(.1 -.1)">
<defs>
<path id="h" d="m40.578 39.312q7.0781-1.5156 11.047-6.3125 3.9844-4.7812 3.9844-11.812 0-10.781-7.4219-16.703-7.4219-5.9062-21.094-5.9062-4.5781 0-9.4375 0.90625t-10.031 2.7188v9.5156q4.0938-2.3906 8.9688-3.6094 4.8906-1.2188 10.219-1.2188 9.2656 0 14.125 3.6562t4.8594 10.641q0 6.4531-4.5156 10.078-4.5156 3.6406-12.562 3.6406h-8.5v8.1094h8.8906q7.2656 0 11.125 2.9062t3.8594 8.375q0 5.6094-3.9844 8.6094-3.9688 3.0156-11.391 3.0156-4.0625 0-8.7031-0.89062-4.6406-0.875-10.203-2.7188v8.7812q5.625 1.5625 10.531 2.3438t9.25 0.78125q11.234 0 17.766-5.1094 6.5469-5.0938 6.5469-13.781 0-6.0625-3.4688-10.234t-9.8594-5.7812z"/>
</defs>
<use xlink:href="#c"/>
<use x="63.623047" xlink:href="#a"/>
<use x="127.246094" xlink:href="#a"/>
<use x="190.869141" xlink:href="#h"/>
</g>
<use x="427.172958" y="609.12" stroke="#000000" stroke-width=".8" xlink:href="#e"/>
<g transform="translate(414.45 623.72) scale(.1 -.1)">
<defs>
<path id="o" d="m37.797 64.312-24.906-38.922h24.906zm-2.5938 8.5938h12.406v-47.516h10.406v-8.2031h-10.406v-17.188h-9.8125v17.188h-32.906v9.5156z"/>
</defs>
<use xlink:href="#c"/>
<use x="63.623047" xlink:href="#a"/>
<use x="127.246094" xlink:href="#a"/>
<use x="190.869141" xlink:href="#o"/>
</g>
<use x="464.085634" y="609.12" stroke="#000000" stroke-width=".8" xlink:href="#e"/>
<g transform="translate(451.36 623.72) scale(.1 -.1)">
<defs>
<path id="f" d="m10.797 72.906h38.719v-8.3125h-29.688v-17.859q2.1406 0.73438 4.2812 1.0938 2.1562 0.35938 4.3125 0.35938 12.203 0 19.328-6.6875 7.1406-6.6875 7.1406-18.109 0-11.766-7.3281-18.297-7.3281-6.5156-20.656-6.5156-4.5938 0-9.3594 0.78125-4.75 0.78125-9.8281 2.3438v9.9219q4.3906-2.3906 9.0781-3.5625t9.9062-1.1719q8.4531 0 13.375 4.4375 4.9375 4.4375 4.9375 12.062 0 7.6094-4.9375 12.047-4.9219 4.4531-13.375 4.4531-3.9531 0-7.8906-0.875-3.9219-0.875-8.0156-2.7344z"/>
</defs>
<use xlink:href="#c"/>
<use x="63.623047" xlink:href="#a"/>
<use x="127.246094" xlink:href="#a"/>
<use x="190.869141" xlink:href="#f"/>
</g>
<use x="500.99831" y="609.12" stroke="#000000" stroke-width=".8" xlink:href="#e"/>
<g transform="translate(488.27 623.72) scale(.1 -.1)">
<use xlink:href="#c"/>
<use x="63.623047" xlink:href="#a"/>
<use x="127.246094" xlink:href="#a"/>
<use x="190.869141" xlink:href="#j"/>
</g>
<use x="537.910986" y="609.12" stroke="#000000" stroke-width=".8" xlink:href="#e"/>
<g transform="translate(525.19 623.72) scale(.1 -.1)">
<use xlink:href="#c"/>
<use x="63.623047" xlink:href="#a"/>
<use x="127.246094" xlink:href="#a"/>
<use x="190.869141" xlink:href="#i"/>
</g>
<use x="574.823662" y="609.12" stroke="#000000" stroke-width=".8" xlink:href="#e"/>
<g transform="translate(562.1 623.72) scale(.1 -.1)">
<use xlink:href="#c"/>
<use x="63.623047" xlink:href="#a"/>
<use x="127.246094" xlink:href="#a"/>
<use x="190.869141" xlink:href="#l"/>
</g>
<use x="611.736338" y="609.12" stroke="#000000" stroke-width=".8" xlink:href="#e"/>
<g transform="translate(599.01 623.72) scale(.1 -.1)">
<use xlink:href="#c"/>
<use x="63.623047" xlink:href="#a"/>
<use x="127.246094" xlink:href="#a"/>
<use x="190.869141" xlink:href="#g"/>
</g>
<use x="648.649014" y="609.12" stroke="#000000" stroke-width=".8" xlink:href="#e"/>
<g transform="translate(635.92 623.72) scale(.1 -.1)">
<use xlink:href="#c"/>
<use x="63.623047" xlink:href="#a"/>
<use x="127.246094" xlink:href="#d"/>
<use x="190.869141" xlink:href="#a"/>
</g>
<use x="685.56169" y="609.12" stroke="#000000" stroke-width=".8" xlink:href="#e"/>
<g transform="translate(672.84 623.72) scale(.1 -.1)">
<use xlink:href="#c"/>
<use x="63.623047" xlink:href="#a"/>
<use x="127.246094" xlink:href="#d"/>
<use x="190.869141" xlink:href="#d"/>
</g>
<use x="722.474366" y="609.12" stroke="#000000" stroke-width=".8" xlink:href="#e"/>
<g transform="translate(709.75 623.72) scale(.1 -.1)">
<use xlink:href="#c"/>
<use x="63.623047" xlink:href="#a"/>
<use x="127.246094" xlink:href="#d"/>
<use x="190.869141" xlink:href="#c"/>
</g>
<use x="759.387042" y="609.12" stroke="#000000" stroke-width=".8" xlink:href="#e"/>
<g transform="translate(746.66 623.72) scale(.1 -.1)">
<use xlink:href="#c"/>
<use x="63.623047" xlink:href="#a"/>
<use x="127.246094" xlink:href="#d"/>
<use x="190.869141" xlink:href="#h"/>
</g>
<use x="796.299718" y="609.12" stroke="#000000" stroke-width=".8" xlink:href="#e"/>
<g transform="translate(783.57 623.72) scale(.1 -.1)">
<use xlink:href="#c"/>
<use x="63.623047" xlink:href="#a"/>
<use x="127.246094" xlink:href="#d"/>
<use x="190.869141" xlink:href="#o"/>
</g>
<use x="833.212394" y="609.12" stroke="#000000" stroke-width=".8" xlink:href="#e"/>
<g transform="translate(820.49 623.72) scale(.1 -.1)">
<use xlink:href="#c"/>
<use x="63.623047" xlink:href="#a"/>
<use x="127.246094" xlink:href="#d"/>
<use x="190.869141" xlink:href="#f"/>
</g>
<use x="870.12507" y="609.12" stroke="#000000" stroke-width=".8" xlink:href="#e"/>
<g transform="translate(857.4 623.72) scale(.1 -.1)">
<use xlink:href="#c"/>
<use x="63.623047" xlink:href="#a"/>
<use x="127.246094" xlink:href="#d"/>
<use x="190.869141" xlink:href="#j"/>
</g>
<use x="907.037746" y="609.12" stroke="#000000" stroke-width=".8" xlink:href="#e"/>
<g transform="translate(894.31 623.72) scale(.1 -.1)">
<use xlink:href="#c"/>
<use x="63.623047" xlink:href="#a"/>
<use x="127.246094" xlink:href="#d"/>
<use x="190.869141" xlink:href="#i"/>
</g>
<use x="943.950423" y="609.12" stroke="#000000" stroke-width=".8" xlink:href="#e"/>
<g transform="translate(931.23 623.72) scale(.1 -.1)">
<use xlink:href="#c"/>
<use x="63.623047" xlink:href="#a"/>
<use x="127.246094" xlink:href="#d"/>
<use x="190.869141" xlink:href="#l"/>
</g>
<use x="980.863099" y="609.12" stroke="#000000" stroke-width=".8" xlink:href="#e"/>
<g transform="translate(968.14 623.72) scale(.1 -.1)">
<use xlink:href="#c"/>
<use x="63.623047" xlink:href="#a"/>
<use x="127.246094" xlink:href="#d"/>
<use x="190.869141" xlink:href="#g"/>
</g>
<use x="1017.775775" y="609.12" stroke="#000000" stroke-width=".8" xlink:href="#e"/>
<g transform="translate(1005.1 623.72) scale(.1 -.1)">
<use xlink:href="#c"/>
<use x="63.623047" xlink:href="#a"/>
<use x="127.246094" xlink:href="#c"/>
<use x="190.869141" xlink:href="#a"/>
</g>
<use x="1054.688451" y="609.12" stroke="#000000" stroke-width=".8" xlink:href="#e"/>
<g transform="translate(1042 623.72) scale(.1 -.1)">
<use xlink:href="#c"/>
<use x="63.623047" xlink:href="#a"/>
<use x="127.246094" xlink:href="#c"/>
<use x="190.869141" xlink:href="#d"/>
</g>
<use x="1091.601127" y="609.12" stroke="#000000" stroke-width=".8" xlink:href="#e"/>
<g transform="translate(1078.9 623.72) scale(.1 -.1)">
<use xlink:href="#c"/>
<use x="63.623047" xlink:href="#a"/>
<use x="127.246094" xlink:href="#c"/>
<use x="190.869141" xlink:href="#c"/>
</g>
<g transform="translate(579.89 640.44) scale(.14 -.14)">
<defs>
<path id="ah" d="m9.8125 0v72.906h45.359v-8.3125h-35.5v-64.594z"/>
</defs>
<use xlink:href="#ah"/>
<use x="60.986328" xlink:href="#m"/>
<use x="122.167969" xlink:href="#t"/>
</g>
<defs>
<path id="k" d="m0 0h-3.5" stroke="#000" stroke-width=".8"/>
</defs>
<use x="69.12" y="609.12" stroke="#000000" stroke-width=".8" xlink:href="#k"/>
<g transform="translate(55.758 612.92) scale(.1 -.1)">
<use xlink:href="#a"/>
</g>
<use x="69.12" y="543.676534" stroke="#000000" stroke-width=".8" xlink:href="#k"/>
<g transform="translate(36.67 547.48) scale(.1 -.1)">
<use xlink:href="#c"/>
<use x="63.623047" xlink:href="#f"/>
<use x="127.246094" xlink:href="#a"/>
<use x="190.869141" xlink:href="#a"/>
</g>
<use x="69.12" y="478.233067" stroke="#000000" stroke-width=".8" xlink:href="#k"/>
<g transform="translate(36.67 482.03) scale(.1 -.1)">
<use xlink:href="#f"/>
<use x="63.623047" xlink:href="#a"/>
<use x="127.246094" xlink:href="#a"/>
<use x="190.869141" xlink:href="#a"/>
</g>
<use x="69.12" y="412.789601" stroke="#000000" stroke-width=".8" xlink:href="#k"/>
<g transform="translate(36.67 416.59) scale(.1 -.1)">
<use xlink:href="#i"/>
<use x="63.623047" xlink:href="#f"/>
<use x="127.246094" xlink:href="#a"/>
<use x="190.869141" xlink:href="#a"/>
</g>
<use x="69.12" y="347.346134" stroke="#000000" stroke-width=".8" xlink:href="#k"/>
<g transform="translate(30.308 351.15) scale(.1 -.1)">
<use xlink:href="#d"/>
<use x="63.623047" xlink:href="#a"/>
<use x="127.246094" xlink:href="#a"/>
<use x="190.869141" xlink:href="#a"/>
<use x="254.492188" xlink:href="#a"/>
</g>
<use x="69.12" y="281.902668" stroke="#000000" stroke-width=".8" xlink:href="#k"/>
<g transform="translate(30.308 285.7) scale(.1 -.1)">
<use xlink:href="#d"/>
<use x="63.623047" xlink:href="#c"/>
<use x="127.246094" xlink:href="#f"/>
<use x="190.869141" xlink:href="#a"/>
<use x="254.492188" xlink:href="#a"/>
</g>
<use x="69.12" y="216.459201" stroke="#000000" stroke-width=".8" xlink:href="#k"/>
<g transform="translate(30.308 220.26) scale(.1 -.1)">
<use xlink:href="#d"/>
<use x="63.623047" xlink:href="#f"/>
<use x="127.246094" xlink:href="#a"/>
<use x="190.869141" xlink:href="#a"/>
<use x="254.492188" xlink:href="#a"/>
</g>
<use x="69.12" y="151.015735" stroke="#000000" stroke-width=".8" xlink:href="#k"/>
<g transform="translate(30.308 154.81) scale(.1 -.1)">
<use xlink:href="#d"/>
<use x="63.623047" xlink:href="#i"/>
<use x="127.246094" xlink:href="#f"/>
<use x="190.869141" xlink:href="#a"/>
<use x="254.492188" xlink:href="#a"/>
</g>
<use x="69.12" y="85.572268" stroke="#000000" stroke-width=".8" xlink:href="#k"/>
<g transform="translate(30.308 89.371) scale(.1 -.1)">
<use xlink:href="#c"/>
<use x="63.623047" xlink:href="#a"/>
<use x="127.246094" xlink:href="#a"/>
<use x="190.869141" xlink:href="#a"/>
<use x="254.492188" xlink:href="#a"/>
</g>
<g transform="translate(23.396 427.11) rotate(-90) scale(.14 -.14)">
<defs>
<path id="ag" d="m39.406 66.219q-10.75 0-17.078-8.0156-6.3125-8-6.3125-21.828 0-13.766 6.3125-21.781 6.3281-8 17.078-8 10.734 0 17.016 8 6.2812 8.0156 6.2812 21.781 0 13.828-6.2812 21.828-6.2812 8.0156-17.016 8.0156zm0 8q15.328 0 24.5-10.281 9.1875-10.281 9.1875-27.562 0-17.234-9.1875-27.516-9.1719-10.281-24.5-10.281-15.375 0-24.594 10.25-9.2031 10.266-9.2031 27.547t9.2031 27.562q9.2188 10.281 24.594 10.281z"/>
<path id="n" d="m2.9375 54.688h52.391v-7.1719h-21.781v-47.516h-8.8438v47.516h-21.766z"/>
<path id="x" d="m9.0781 54.688h8.9375v-25.688l25.344 25.688h11.031l-20.891-21.141 23.578-33.547h-10.062l-19.375 27.594-9.625-9.7656v-17.828h-8.9375z"/>
<path id="r" d="m18.109 8.2031v-29h-9.0312v75.484h9.0312v-8.2969q2.8438 4.875 7.1562 7.2344 4.3281 2.375 10.328 2.375 9.9688 0 16.188-7.9062 6.2344-7.9062 6.2344-20.797t-6.2344-20.812q-6.2188-7.9062-16.188-7.9062-6 0-10.328 2.375-4.3125 2.375-7.1562 7.25zm30.578 19.094q0 9.9062-4.0781 15.547t-11.203 5.6406q-7.1406 0-11.219-5.6406t-4.0781-15.547 4.0781-15.547 11.219-5.6406q7.125 0 11.203 5.6406t4.0781 15.547z"/>
<path id="p" d="m61.047 54.688h8.9844v-54.688h-8.9844zm4.5 1.3125m-22.094-39.781q0 4.3906-3.2031 6.6875-3.1875 2.2969-9.3438 2.2969h-12.797v-18.031h12.797q6.1562 0 9.3438 2.3125 3.2031 2.3281 3.2031 6.7344zm-34.375 38.469h9.0312v-22.312h13.188q10.453 0 16.094-3.9844 5.6406-3.9688 5.6406-12.172t-5.6406-12.219q-5.6406-4-16.094-4h-22.219z"/>
<path id="s" d="m55.906 54.688v-54.688h-8.9375v43.891l-26.359-43.891h-11.531v54.688h8.9375v-43.797l26.328 43.797z"/>
<path id="z" d="m55.906 54.688v-54.688h-8.9375v43.891l-26.359-43.891h-11.531v54.688h8.9375v-43.797l26.328 43.797zm-38.688 20.828h5.7656q0.53125-3.6562 2.8906-5.5 2.375-1.8281 6.625-1.8281 4.2031 0 6.5469 1.8125t2.9688 5.5156h5.7656q-0.48438-6.9844-4.3438-10.5t-10.938-3.5156-10.938 3.5156-4.3438 10.5z"/>
<path id="w" d="m48.781 52.594v-8.4062q-3.8125 2.1094-7.6406 3.1562t-7.7344 1.0469q-8.75 0-13.594-5.5469-4.8281-5.5312-4.8281-15.547t4.8281-15.562q4.8438-5.5312 13.594-5.5312 3.9062 0 7.7344 1.0469t7.6406 3.1562v-8.3125q-3.7656-1.75-7.7969-2.625-4.0156-0.89062-8.5625-0.89062-12.359 0-19.641 7.7656-7.2656 7.7656-7.2656 20.953 0 13.375 7.3438 21.031 7.3594 7.6719 20.156 7.6719 4.1406 0 8.0938-0.85938 3.9531-0.84375 7.6719-2.5469z"/>
<path id="u" d="m18.062 25.203v-18.031h12.797q6.1562 0 9.375 2.3125 3.2188 2.3281 3.2188 6.7344 0 4.3906-3.2188 6.6875t-9.375 2.2969zm0 22.312v-15.141h11.828q5.0781 0 8.2969 2.0156 3.2188 2.0312 3.2188 5.6562 0 3.6094-3.2188 5.5312-3.2188 1.9375-8.2969 1.9375zm-8.9844 7.1719h21.391q9.625 0 14.797-3.5156t5.1719-10.016q0-5.0156-2.6406-7.9844-2.625-2.9531-7.8125-3.6719 6.2031-1.1719 9.625-4.8906 3.4219-3.7031 3.4219-9.2812 0-7.3125-5.6406-11.328-5.6406-4-16.094-4h-22.219z"/>
<path id="aa" d="m56.203 29.594v-4.3906h-41.312q0.59375-9.2812 5.5938-14.141t13.938-4.8594q5.1719 0 10.031 1.2656t9.6562 3.8125v-8.5q-4.8438-2.0469-9.9219-3.125t-10.297-1.0781q-13.094 0-20.734 7.6094-7.6406 7.625-7.6406 20.625 0 13.422 7.25 21.297 7.25 7.8906 19.562 7.8906 11.031 0 17.453-7.1094 6.4219-7.0938 6.4219-19.297zm-8.9844 2.6406q-0.09375 7.3594-4.125 11.75-4.0312 4.4062-10.672 4.4062-7.5156 0-12.031-4.25t-5.2031-11.969z"/>
<path id="q" d="m54.891 54.688-19.781-26.609 20.797-28.078h-10.594l-15.922 21.484-15.906-21.484h-10.609l21.25 28.609-19.438 26.078h10.594l14.5-19.484 14.5 19.484z"/>
<path id="y" d="m9.0781 54.688h9.0312v-22.312h29.156v22.312h9.0312v-54.688h-9.0312v25.203h-29.156v-25.203h-9.0312z"/>
<path id="ae" d="m34.469 29.5q6.0625-1.1719 9.4219-4.75 3.375-3.5625 3.375-8.8281 0-8.4531-6.2969-12.906-6.2969-4.4375-17.922-4.4375-3.9062 0-8.0312 0.6875t-8.5156 2.0469v8.3594q3.4688-1.8125 7.6094-2.7188 4.1562-0.89062 8.6875-0.89062 7.375 0 11.5 2.7344t4.125 7.125q0 4.2969-3.6562 6.9062t-10.344 2.6094h-7.2344v7.4219h7.5625q5.6719 0 8.9688 2.1719t3.2969 5.5938q0 3.125-3.4062 5.375-3.3906 2.25-9.1875 2.25-3.4688 0-7.4062-0.64062-3.9219-0.64062-8.6719-2.0469v8.1562q4.7969 1.1719 8.9375 1.75 4.1562 0.59375 7.8594 0.59375 9.5781 0 15.109-3.8438 5.5469-3.8281 5.5469-10.719 0-4.5312-2.9375-7.6875-2.9219-3.1406-8.3906-4.3125z"/>
<path id="v" d="m34.281 27.484q-10.891 0-15.094-2.4844t-4.2031-8.5q0-4.7812 3.1562-7.5938 3.1562-2.7969 8.5625-2.7969 7.4844 0 12 5.2969t4.5156 14.078v2zm17.922 3.7188v-31.203h-8.9844v8.2969q-3.0781-4.9688-7.6719-7.3438t-11.234-2.375q-8.3906 0-13.359 4.7188-4.9531 4.7188-4.9531 12.625 0 9.2188 6.1719 13.906 6.1875 4.6875 18.438 4.6875h12.609v0.89062q0 6.2031-4.0781 9.5938t-11.453 3.3906q-4.6875 0-9.1406-1.125-4.4375-1.125-8.5312-3.375v8.3125q4.9219 1.9062 9.5625 2.8438 4.6406 0.95312 9.0312 0.95312 11.875 0 17.734-6.1562 5.8594-6.1406 5.8594-18.641z"/>
<path id="ab" d="m9.0781 0v54.688h38.578v-7.1719h-29.547v-47.516z"/>
</defs>
<use xlink:href="#ag"/>
<use x="78.710938" xlink:href="#n"/>
<use x="136.962891" xlink:href="#x"/>
<use x="197.363281" xlink:href="#r"/>
<use x="260.839844" xlink:href="#p"/>
<use x="339.794922" xlink:href="#n"/>
<use x="398.046875" xlink:href="#s"/>
<use x="463.037109" xlink:href="#z"/>
<use x="528.027344" xlink:href="#DejaVuSans-32"/>
<use x="559.814453" xlink:href="#w"/>
<use x="614.794922" xlink:href="#u"/>
<use x="673.730469" xlink:href="#aa"/>
<use x="735.253906" xlink:href="#r"/>
<use x="798.730469" xlink:href="#q"/>
<use x="857.910156" xlink:href="#y"/>
<use x="923.291016" xlink:href="#m"/>
<use x="984.472656" xlink:href="#u"/>
<use x="1043.408203" xlink:href="#p"/>
<use x="1122.363281" xlink:href="#q"/>
<use x="1181.542969" xlink:href="#DejaVuSans-32"/>
<use x="1213.330078" xlink:href="#ae"/>
<use x="1266.503906" xlink:href="#v"/>
<use x="1327.783203" xlink:href="#DejaVuSans-32"/>
<use x="1359.570312" xlink:href="#ab"/>
<use x="1412.109375" xlink:href="#m"/>
<use x="1473.291016" xlink:href="#t"/>
</g>
<path d="m69.12 609.12v-579.96" fill="none" stroke="#000" stroke-linecap="square" stroke-width=".8"/>
<path d="m1117.4 609.12v-579.96" fill="none" stroke="#000" stroke-linecap="square" stroke-width=".8"/>
<path d="m69.12 609.12h1048.3" fill="none" stroke="#000" stroke-linecap="square" stroke-width=".8"/>
<path d="m69.12 29.16h1048.3" fill="none" stroke="#000" stroke-linecap="square" stroke-width=".8"/>
<g transform="translate(82.234 575.3) scale(.1 -.1)">
<use xlink:href="#d"/>
<use x="63.623047" xlink:href="#d"/>
<use x="127.246094" xlink:href="#a"/>
<use x="190.869141" xlink:href="#d"/>
</g>
<g transform="translate(122.33 601.48) scale(.1 -.1)">
<use xlink:href="#d"/>
<use x="63.623047" xlink:href="#a"/>
<use x="127.246094" xlink:href="#d"/>
</g>
<g transform="translate(159.24 599.85) scale(.1 -.1)">
<use xlink:href="#d"/>
<use x="63.623047" xlink:href="#j"/>
<use x="127.246094" xlink:href="#h"/>
</g>
<g transform="translate(196.15 599.88) scale(.1 -.1)">
<use xlink:href="#d"/>
<use x="63.623047" xlink:href="#j"/>
<use x="127.246094" xlink:href="#c"/>
</g>
<g transform="translate(233.07 598.83) scale(.1 -.1)">
<use xlink:href="#c"/>
<use x="63.623047" xlink:href="#a"/>
<use x="127.246094" xlink:href="#c"/>
</g>
<g transform="translate(269.98 598.99) scale(.1 -.1)">
<use xlink:href="#d"/>
<use x="63.623047" xlink:href="#g"/>
<use x="127.246094" xlink:href="#j"/>
</g>
<g transform="translate(306.89 596.06) scale(.1 -.1)">
<use xlink:href="#h"/>
<use x="63.623047" xlink:href="#a"/>
<use x="127.246094" xlink:href="#l"/>
</g>
<g transform="translate(343.8 594.91) scale(.1 -.1)">
<use xlink:href="#h"/>
<use x="63.623047" xlink:href="#f"/>
<use x="127.246094" xlink:href="#c"/>
</g>
<g transform="translate(380.72 594.3) scale(.1 -.1)">
<use xlink:href="#h"/>
<use x="63.623047" xlink:href="#i"/>
<use x="127.246094" xlink:href="#f"/>
</g>
<g transform="translate(417.63 595.14) scale(.1 -.1)">
<use xlink:href="#h"/>
<use x="63.623047" xlink:href="#o"/>
<use x="127.246094" xlink:href="#h"/>
</g>
<g transform="translate(454.54 594.07) scale(.1 -.1)">
<use xlink:href="#h"/>
<use x="63.623047" xlink:href="#l"/>
<use x="127.246094" xlink:href="#o"/>
</g>
<g transform="translate(491.45 589.54) scale(.1 -.1)">
<use xlink:href="#f"/>
<use x="63.623047" xlink:href="#f"/>
<use x="127.246094" xlink:href="#i"/>
</g>
<g transform="translate(528.37 588.28) scale(.1 -.1)">
<use xlink:href="#j"/>
<use x="63.623047" xlink:href="#a"/>
<use x="127.246094" xlink:href="#f"/>
</g>
<g transform="translate(565.28 590.85) scale(.1 -.1)">
<use xlink:href="#f"/>
<use x="63.623047" xlink:href="#a"/>
<use x="127.246094" xlink:href="#i"/>
</g>
<g transform="translate(602.19 589.49) scale(.1 -.1)">
<use xlink:href="#f"/>
<use x="63.623047" xlink:href="#f"/>
<use x="127.246094" xlink:href="#g"/>
</g>
<g transform="translate(639.11 588.7) scale(.1 -.1)">
<use xlink:href="#f"/>
<use x="63.623047" xlink:href="#l"/>
<use x="127.246094" xlink:href="#g"/>
</g>
<g transform="translate(676.02 580.4) scale(.1 -.1)">
<use xlink:href="#g"/>
<use x="63.623047" xlink:href="#a"/>
<use x="127.246094" xlink:href="#j"/>
</g>
<g transform="translate(709.75 576.42) scale(.1 -.1)">
<use xlink:href="#d"/>
<use x="63.623047" xlink:href="#a"/>
<use x="127.246094" xlink:href="#f"/>
<use x="190.869141" xlink:href="#l"/>
</g>
<g transform="translate(746.66 563.49) scale(.1 -.1)">
<use xlink:href="#d"/>
<use x="63.623047" xlink:href="#f"/>
<use x="127.246094" xlink:href="#f"/>
<use x="190.869141" xlink:href="#c"/>
</g>
<g transform="translate(783.57 551.29) scale(.1 -.1)">
<use xlink:href="#c"/>
<use x="63.623047" xlink:href="#a"/>
<use x="127.246094" xlink:href="#d"/>
<use x="190.869141" xlink:href="#l"/>
</g>
<g transform="translate(820.49 511.98) scale(.1 -.1)">
<use xlink:href="#h"/>
<use x="63.623047" xlink:href="#f"/>
<use x="127.246094" xlink:href="#c"/>
<use x="190.869141" xlink:href="#a"/>
</g>
<g transform="translate(857.4 412.89) scale(.1 -.1)">
<use xlink:href="#i"/>
<use x="63.623047" xlink:href="#h"/>
<use x="127.246094" xlink:href="#a"/>
<use x="190.869141" xlink:href="#f"/>
</g>
<g transform="translate(894.31 399.83) scale(.1 -.1)">
<use xlink:href="#i"/>
<use x="63.623047" xlink:href="#l"/>
<use x="127.246094" xlink:href="#a"/>
<use x="190.869141" xlink:href="#o"/>
</g>
<g transform="translate(931.23 396.04) scale(.1 -.1)">
<use xlink:href="#i"/>
<use x="63.623047" xlink:href="#g"/>
<use x="127.246094" xlink:href="#o"/>
<use x="190.869141" xlink:href="#g"/>
</g>
<g transform="translate(964.96 181.64) scale(.1 -.1)">
<use xlink:href="#d"/>
<use x="63.623047" xlink:href="#j"/>
<use x="127.246094" xlink:href="#d"/>
<use x="190.869141" xlink:href="#h"/>
<use x="254.492188" xlink:href="#g"/>
</g>
<g transform="translate(1001.9 97.326) scale(.1 -.1)">
<use xlink:href="#d"/>
<use x="63.623047" xlink:href="#g"/>
<use x="127.246094" xlink:href="#h"/>
<use x="190.869141" xlink:href="#j"/>
<use x="254.492188" xlink:href="#a"/>
</g>
<g transform="translate(1038.8 51.777) scale(.1 -.1)">
<use xlink:href="#c"/>
<use x="63.623047" xlink:href="#d"/>
<use x="127.246094" xlink:href="#d"/>
<use x="190.869141" xlink:href="#a"/>
<use x="254.492188" xlink:href="#a"/>
</g>
<g transform="translate(1075.7 185.99) scale(.1 -.1)">
<use xlink:href="#d"/>
<use x="63.623047" xlink:href="#f"/>
<use x="127.246094" xlink:href="#g"/>
<use x="190.869141" xlink:href="#i"/>
<use x="254.492188" xlink:href="#h"/>
</g>
<g transform="translate(407.84 23.16) scale(.16 -.16)">
<defs>
<path id="af" d="m64.406 67.281v-10.391q-4.9844 4.6406-10.625 6.9219-5.6406 2.2969-11.984 2.2969-12.5 0-19.141-7.6406t-6.6406-22.094q0-14.406 6.6406-22.047t19.141-7.6406q6.3438 0 11.984 2.2969t10.625 6.9375v-10.312q-5.1719-3.5156-10.969-5.2812-5.7812-1.75-12.219-1.75-16.562 0-26.094 10.125-9.5156 10.141-9.5156 27.672 0 17.578 9.5156 27.703 9.5312 10.141 26.094 10.141 6.5312 0 12.312-1.7344 5.7969-1.7344 10.875-5.2031z"/>
<path id="ac" d="m56.297 54.688v-54.688h-9.0312v47.516h-29.156v-47.516h-9.0312v54.688z"/>
<path id="ad" d="m9.0781 54.688h13.141l15.531-36.625 15.578 36.625h13.031v-54.688h-9.0312v46.094l-15.094-35.594h-8.9844l-15.141 35.594v-46.094h-9.0312z"/>
</defs>
<use xlink:href="#af"/>
<use x="69.824219" xlink:href="#n"/>
<use x="128.076172" xlink:href="#v"/>
<use x="189.355469" xlink:href="#n"/>
<use x="247.607422" xlink:href="#s"/>
<use x="312.597656" xlink:href="#w"/>
<use x="367.578125" xlink:href="#n"/>
<use x="425.830078" xlink:href="#s"/>
<use x="490.820312" xlink:href="#x"/>
<use x="551.220703" xlink:href="#v"/>
<use x="612.5" xlink:href="#DejaVuSans-32"/>
<use x="644.287109" xlink:href="#m"/>
<use x="705.46875" xlink:href="#n"/>
<use x="763.720703" xlink:href="#x"/>
<use x="824.121094" xlink:href="#r"/>
<use x="887.597656" xlink:href="#p"/>
<use x="966.552734" xlink:href="#n"/>
<use x="1024.804688" xlink:href="#s"/>
<use x="1089.794922" xlink:href="#z"/>
<use x="1154.785156" xlink:href="#DejaVuSans-32"/>
<use x="1186.572266" xlink:href="#w"/>
<use x="1241.552734" xlink:href="#u"/>
<use x="1300.488281" xlink:href="#aa"/>
<use x="1362.011719" xlink:href="#r"/>
<use x="1425.488281" xlink:href="#q"/>
<use x="1484.667969" xlink:href="#y"/>
<use x="1550.048828" xlink:href="#m"/>
<use x="1611.230469" xlink:href="#u"/>
<use x="1670.166016" xlink:href="#p"/>
<use x="1749.121094" xlink:href="#q"/>
<use x="1808.300781" xlink:href="#DejaVuSans-32"/>
<use x="1840.087891" xlink:href="#ac"/>
<use x="1905.46875" xlink:href="#m"/>
<use x="1966.650391" xlink:href="#DejaVuSans-32"/>
<use x="1998.4375" xlink:href="#ab"/>
<use x="2050.976562" xlink:href="#m"/>
<use x="2112.158203" xlink:href="#t"/>
<use x="2181.298828" xlink:href="#v"/>
<use x="2242.578125" xlink:href="#ad"/>
</g>
<defs>
<clipPath id="b">
<rect x="69.12" y="29.16" width="1048.3" height="579.96"/>
</clipPath>
</defs>
</svg>
