<?xml version="1.0" encoding="UTF-8"?>
<!DOCTYPE svg  PUBLIC '-//W3C//DTD SVG 1.1//EN'  'http://www.w3.org/Graphics/SVG/1.1/DTD/svg11.dtd'>
<svg width="936pt" height="684pt" version="1.1" viewBox="0 0 936 684" xmlns="http://www.w3.org/2000/svg" xmlns:xlink="http://www.w3.org/1999/xlink">
<defs>
<style type="text/css">*{stroke-linecap:butt;stroke-linejoin:round;}</style>
</defs>
<path d="m0 684h936v-684h-936z" fill="#fff"/>
<path d="m65.52 642.96h842.4v-615.6h-842.4z" fill="#fff"/>
<path d="m73.677 642.96h25.213v-20.549h-25.213z" clip-path="url(#a)" fill="#1f77b4"/>
<path d="m103.34 642.96h25.213v-1.9701h-25.213z" clip-path="url(#a)" fill="#1f77b4"/>
<path d="m133 642.96h25.213v-3.8307h-25.213z" clip-path="url(#a)" fill="#1f77b4"/>
<path d="m162.66 642.96h25.213v-3.8854h-25.213z" clip-path="url(#a)" fill="#1f77b4"/>
<path d="m192.32 642.96h25.213v-3.776h-25.213z" clip-path="url(#a)" fill="#1f77b4"/>
<path d="m221.99 642.96h25.213v-3.3655h-25.213z" clip-path="url(#a)" fill="#1f77b4"/>
<path d="m251.65 642.96h25.213v-5.8828h-25.213z" clip-path="url(#a)" fill="#1f77b4"/>
<path d="m281.31 642.96h25.213v-6.7584h-25.213z" clip-path="url(#a)" fill="#1f77b4"/>
<path d="m310.97 642.96h25.213v-6.7311h-25.213z" clip-path="url(#a)" fill="#1f77b4"/>
<path d="m340.63 642.96h25.213v-5.6092h-25.213z" clip-path="url(#a)" fill="#1f77b4"/>
<path d="m370.3 642.96h25.213v-6.8679h-25.213z" clip-path="url(#a)" fill="#1f77b4"/>
<path d="m399.96 642.96h25.213v-11.574h-25.213z" clip-path="url(#a)" fill="#1f77b4"/>
<path d="m429.62 642.96h25.213v-13.462h-25.213z" clip-path="url(#a)" fill="#1f77b4"/>
<path d="m459.28 642.96h25.213v-10.097h-25.213z" clip-path="url(#a)" fill="#1f77b4"/>
<path d="m488.94 642.96h25.213v-11.301h-25.213z" clip-path="url(#a)" fill="#1f77b4"/>
<path d="m518.61 642.96h25.213v-11.93h-25.213z" clip-path="url(#a)" fill="#1f77b4"/>
<path d="m548.27 642.96h25.213v-20.193h-25.213z" clip-path="url(#a)" fill="#1f77b4"/>
<path d="m577.93 642.96h25.213v-24.243h-25.213z" clip-path="url(#a)" fill="#1f77b4"/>
<path d="m607.59 642.96h25.213v-36.556h-25.213z" clip-path="url(#a)" fill="#1f77b4"/>
<path d="m637.25 642.96h25.213v-49.689h-25.213z" clip-path="url(#a)" fill="#1f77b4"/>
<path d="m666.92 642.96h25.213v-89.884h-25.213z" clip-path="url(#a)" fill="#1f77b4"/>
<path d="m696.58 642.96h25.213v-192.35h-25.213z" clip-path="url(#a)" fill="#1f77b4"/>
<path d="m726.24 642.96h25.213v-206.42h-25.213z" clip-path="url(#a)" fill="#1f77b4"/>
<path d="m755.9 642.96h25.213v-210.5h-25.213z" clip-path="url(#a)" fill="#1f77b4"/>
<path d="m785.56 642.96h25.213v-435.22h-25.213z" clip-path="url(#a)" fill="#1f77b4"/>
<path d="m815.23 642.96h25.213v-524.2h-25.213z" clip-path="url(#a)" fill="#1f77b4"/>
<path d="m844.89 642.96h25.213v-582.65h-25.213z" clip-path="url(#a)" fill="#1f77b4"/>
<path d="m874.55 642.96h25.213v-13.654h-25.213z" clip-path="url(#a)" fill="#1f77b4"/>
<path d="m73.677 622.41h25.213v-8.5917h-25.213z" clip-path="url(#a)" fill="#ff7f0e"/>
<path d="m103.34 640.99h25.213v-0.65669h-25.213z" clip-path="url(#a)" fill="#ff7f0e"/>
<path d="m133 639.13h25.213v-0.62933h-25.213z" clip-path="url(#a)" fill="#ff7f0e"/>
<path d="m162.66 639.07h25.213v-0.54724h-25.213z" clip-path="url(#a)" fill="#ff7f0e"/>
<path d="m192.32 639.18h25.213v-1.7512h-25.213z" clip-path="url(#a)" fill="#ff7f0e"/>
<path d="m221.99 639.59h25.213v-1.9974h-25.213z" clip-path="url(#a)" fill="#ff7f0e"/>
<path d="m251.65 637.08h25.213v-2.5447h-25.213z" clip-path="url(#a)" fill="#ff7f0e"/>
<path d="m281.31 636.2h25.213v-2.873h-25.213z" clip-path="url(#a)" fill="#ff7f0e"/>
<path d="m310.97 636.23h25.213v-3.5297h-25.213z" clip-path="url(#a)" fill="#ff7f0e"/>
<path d="m340.63 637.35h25.213v-3.776h-25.213z" clip-path="url(#a)" fill="#ff7f0e"/>
<path d="m370.3 636.09h25.213v-3.6391h-25.213z" clip-path="url(#a)" fill="#ff7f0e"/>
<path d="m399.96 631.39h25.213v-3.6665h-25.213z" clip-path="url(#a)" fill="#ff7f0e"/>
<path d="m429.62 629.5h25.213v-3.0919h-25.213z" clip-path="url(#a)" fill="#ff7f0e"/>
<path d="m459.28 632.86h25.213v-3.776h-25.213z" clip-path="url(#a)" fill="#ff7f0e"/>
<path d="m488.94 631.66h25.213v-3.9949h-25.213z" clip-path="url(#a)" fill="#ff7f0e"/>
<path d="m518.61 631.03h25.213v-4.1864h-25.213z" clip-path="url(#a)" fill="#ff7f0e"/>
<path d="m548.27 622.77h25.213v-4.5968h-25.213z" clip-path="url(#a)" fill="#ff7f0e"/>
<path d="m577.93 618.72h25.213v-4.7063h-25.213z" clip-path="url(#a)" fill="#ff7f0e"/>
<path d="m607.59 606.4h25.213v-5.746h-25.213z" clip-path="url(#a)" fill="#ff7f0e"/>
<path d="m637.25 593.27h25.213v-5.363h-25.213z" clip-path="url(#a)" fill="#ff7f0e"/>
<path d="m666.92 553.08h25.213v-6.2933h-25.213z" clip-path="url(#a)" fill="#ff7f0e"/>
<path d="m696.58 450.61h25.213v-7.1415h-25.213z" clip-path="url(#a)" fill="#ff7f0e"/>
<path d="m726.24 436.54h25.213v-6.5669h-25.213z" clip-path="url(#a)" fill="#ff7f0e"/>
<path d="m755.9 432.46h25.213v-4.1043h-25.213z" clip-path="url(#a)" fill="#ff7f0e"/>
<path d="m785.56 207.74h25.213v-3.7212h-25.213z" clip-path="url(#a)" fill="#ff7f0e"/>
<path d="m815.23 118.76h25.213v-3.5297h-25.213z" clip-path="url(#a)" fill="#ff7f0e"/>
<path d="m844.89 60.313h25.213v-3.6391h-25.213z" clip-path="url(#a)" fill="#ff7f0e"/>
<path d="m874.55 629.31h25.213v-0.24626h-25.213z" clip-path="url(#a)" fill="#ff7f0e"/>
<defs>
<path id="b" d="m0 0v3.5" stroke="#000" stroke-width=".8"/>
</defs>
<use x="86.28338" y="642.96" stroke="#000000" stroke-width=".8" xlink:href="#b"/>
<text transform="rotate(-0 86.283 657.56)" x="86.28338" y="657.558437" font-family="DejaVu Sans" font-size="10px" text-anchor="middle">до 1996</text>
<use x="115.945352" y="642.96" stroke="#000000" stroke-width=".8" xlink:href="#b"/>
<text transform="rotate(-0 115.95 657.56)" x="115.945352" y="657.558437" font-family="DejaVu Sans" font-size="10px" text-anchor="middle">1996</text>
<use x="145.607324" y="642.96" stroke="#000000" stroke-width=".8" xlink:href="#b"/>
<text transform="rotate(-0 145.61 657.56)" x="145.607324" y="657.558437" font-family="DejaVu Sans" font-size="10px" text-anchor="middle">1997</text>
<use x="175.269296" y="642.96" stroke="#000000" stroke-width=".8" xlink:href="#b"/>
<text transform="rotate(-0 175.27 657.56)" x="175.269296" y="657.558437" font-family="DejaVu Sans" font-size="10px" text-anchor="middle">1998</text>
<use x="204.931268" y="642.96" stroke="#000000" stroke-width=".8" xlink:href="#b"/>
<text transform="rotate(-0 204.93 657.56)" x="204.931268" y="657.558437" font-family="DejaVu Sans" font-size="10px" text-anchor="middle">1999</text>
<use x="234.593239" y="642.96" stroke="#000000" stroke-width=".8" xlink:href="#b"/>
<text transform="rotate(-0 234.59 657.56)" x="234.593239" y="657.558437" font-family="DejaVu Sans" font-size="10px" text-anchor="middle">2000</text>
<use x="264.255211" y="642.96" stroke="#000000" stroke-width=".8" xlink:href="#b"/>
<text transform="rotate(-0 264.26 657.56)" x="264.255211" y="657.558437" font-family="DejaVu Sans" font-size="10px" text-anchor="middle">2001</text>
<use x="293.917183" y="642.96" stroke="#000000" stroke-width=".8" xlink:href="#b"/>
<text transform="rotate(-0 293.92 657.56)" x="293.917183" y="657.558437" font-family="DejaVu Sans" font-size="10px" text-anchor="middle">2002</text>
<use x="323.579155" y="642.96" stroke="#000000" stroke-width=".8" xlink:href="#b"/>
<text transform="rotate(-0 323.58 657.56)" x="323.579155" y="657.558437" font-family="DejaVu Sans" font-size="10px" text-anchor="middle">2003</text>
<use x="353.241127" y="642.96" stroke="#000000" stroke-width=".8" xlink:href="#b"/>
<text transform="rotate(-0 353.24 657.56)" x="353.241127" y="657.558437" font-family="DejaVu Sans" font-size="10px" text-anchor="middle">2004</text>
<use x="382.903099" y="642.96" stroke="#000000" stroke-width=".8" xlink:href="#b"/>
<text transform="rotate(-0 382.9 657.56)" x="382.903099" y="657.558437" font-family="DejaVu Sans" font-size="10px" text-anchor="middle">2005</text>
<use x="412.56507" y="642.96" stroke="#000000" stroke-width=".8" xlink:href="#b"/>
<text transform="rotate(-0 412.57 657.56)" x="412.56507" y="657.558437" font-family="DejaVu Sans" font-size="10px" text-anchor="middle">2006</text>
<use x="442.227042" y="642.96" stroke="#000000" stroke-width=".8" xlink:href="#b"/>
<text transform="rotate(-0 442.23 657.56)" x="442.227042" y="657.558437" font-family="DejaVu Sans" font-size="10px" text-anchor="middle">2007</text>
<use x="471.889014" y="642.96" stroke="#000000" stroke-width=".8" xlink:href="#b"/>
<text transform="rotate(-0 471.89 657.56)" x="471.889014" y="657.558437" font-family="DejaVu Sans" font-size="10px" text-anchor="middle">2008</text>
<use x="501.550986" y="642.96" stroke="#000000" stroke-width=".8" xlink:href="#b"/>
<text transform="rotate(-0 501.55 657.56)" x="501.550986" y="657.558437" font-family="DejaVu Sans" font-size="10px" text-anchor="middle">2009</text>
<use x="531.212958" y="642.96" stroke="#000000" stroke-width=".8" xlink:href="#b"/>
<text transform="rotate(-0 531.21 657.56)" x="531.212958" y="657.558437" font-family="DejaVu Sans" font-size="10px" text-anchor="middle">2010</text>
<use x="560.87493" y="642.96" stroke="#000000" stroke-width=".8" xlink:href="#b"/>
<text transform="rotate(-0 560.87 657.56)" x="560.87493" y="657.558437" font-family="DejaVu Sans" font-size="10px" text-anchor="middle">2011</text>
<use x="590.536901" y="642.96" stroke="#000000" stroke-width=".8" xlink:href="#b"/>
<text transform="rotate(-0 590.54 657.56)" x="590.536901" y="657.558437" font-family="DejaVu Sans" font-size="10px" text-anchor="middle">2012</text>
<use x="620.198873" y="642.96" stroke="#000000" stroke-width=".8" xlink:href="#b"/>
<text transform="rotate(-0 620.2 657.56)" x="620.198873" y="657.558437" font-family="DejaVu Sans" font-size="10px" text-anchor="middle">2013</text>
<use x="649.860845" y="642.96" stroke="#000000" stroke-width=".8" xlink:href="#b"/>
<text transform="rotate(-0 649.86 657.56)" x="649.860845" y="657.558437" font-family="DejaVu Sans" font-size="10px" text-anchor="middle">2014</text>
<use x="679.522817" y="642.96" stroke="#000000" stroke-width=".8" xlink:href="#b"/>
<text transform="rotate(-0 679.52 657.56)" x="679.522817" y="657.558437" font-family="DejaVu Sans" font-size="10px" text-anchor="middle">2015</text>
<use x="709.184789" y="642.96" stroke="#000000" stroke-width=".8" xlink:href="#b"/>
<text transform="rotate(-0 709.18 657.56)" x="709.184789" y="657.558437" font-family="DejaVu Sans" font-size="10px" text-anchor="middle">2016</text>
<use x="738.846761" y="642.96" stroke="#000000" stroke-width=".8" xlink:href="#b"/>
<text transform="rotate(-0 738.85 657.56)" x="738.846761" y="657.558437" font-family="DejaVu Sans" font-size="10px" text-anchor="middle">2017</text>
<use x="768.508732" y="642.96" stroke="#000000" stroke-width=".8" xlink:href="#b"/>
<text transform="rotate(-0 768.51 657.56)" x="768.508732" y="657.558437" font-family="DejaVu Sans" font-size="10px" text-anchor="middle">2018</text>
<use x="798.170704" y="642.96" stroke="#000000" stroke-width=".8" xlink:href="#b"/>
<text transform="rotate(-0 798.17 657.56)" x="798.170704" y="657.558437" font-family="DejaVu Sans" font-size="10px" text-anchor="middle">2019</text>
<use x="827.832676" y="642.96" stroke="#000000" stroke-width=".8" xlink:href="#b"/>
<text transform="rotate(-0 827.83 657.56)" x="827.832676" y="657.558437" font-family="DejaVu Sans" font-size="10px" text-anchor="middle">2020</text>
<use x="857.494648" y="642.96" stroke="#000000" stroke-width=".8" xlink:href="#b"/>
<text transform="rotate(-0 857.49 657.56)" x="857.494648" y="657.558437" font-family="DejaVu Sans" font-size="10px" text-anchor="middle">2021</text>
<use x="887.15662" y="642.96" stroke="#000000" stroke-width=".8" xlink:href="#b"/>
<text transform="rotate(-0 887.16 657.56)" x="887.15662" y="657.558437" font-family="DejaVu Sans" font-size="10px" text-anchor="middle">2022</text>
<text transform="rotate(-0 486.72 674.28)" x="486.72" y="674.275937" font-family="DejaVu Sans" font-size="14px" text-anchor="middle">Год</text>
<defs>
<path id="c" d="m0 0h-3.5" stroke="#000" stroke-width=".8"/>
</defs>
<use x="65.52" y="642.96" stroke="#000000" stroke-width=".8" xlink:href="#c"/>
<text transform="rotate(-0 58.52 646.76)" x="58.52" y="646.759219" font-family="DejaVu Sans" font-size="10px" text-anchor="end">0</text>
<use x="65.52" y="574.554984" stroke="#000000" stroke-width=".8" xlink:href="#c"/>
<text transform="rotate(-0 58.52 578.35)" x="58.52" y="578.354202" font-family="DejaVu Sans" font-size="10px" text-anchor="end">2500</text>
<use x="65.52" y="506.149967" stroke="#000000" stroke-width=".8" xlink:href="#c"/>
<text transform="rotate(-0 58.52 509.95)" x="58.52" y="509.949186" font-family="DejaVu Sans" font-size="10px" text-anchor="end">5000</text>
<use x="65.52" y="437.744951" stroke="#000000" stroke-width=".8" xlink:href="#c"/>
<text transform="rotate(-0 58.52 441.54)" x="58.52" y="441.54417" font-family="DejaVu Sans" font-size="10px" text-anchor="end">7500</text>
<use x="65.52" y="369.339935" stroke="#000000" stroke-width=".8" xlink:href="#c"/>
<text transform="rotate(-0 58.52 373.14)" x="58.52" y="373.139153" font-family="DejaVu Sans" font-size="10px" text-anchor="end">10000</text>
<use x="65.52" y="300.934918" stroke="#000000" stroke-width=".8" xlink:href="#c"/>
<text transform="rotate(-0 58.52 304.73)" x="58.52" y="304.734137" font-family="DejaVu Sans" font-size="10px" text-anchor="end">12500</text>
<use x="65.52" y="232.529902" stroke="#000000" stroke-width=".8" xlink:href="#c"/>
<text transform="rotate(-0 58.52 236.33)" x="58.52" y="236.329121" font-family="DejaVu Sans" font-size="10px" text-anchor="end">15000</text>
<use x="65.52" y="164.124885" stroke="#000000" stroke-width=".8" xlink:href="#c"/>
<text transform="rotate(-0 58.52 167.92)" x="58.52" y="167.924104" font-family="DejaVu Sans" font-size="10px" text-anchor="end">17500</text>
<use x="65.52" y="95.719869" stroke="#000000" stroke-width=".8" xlink:href="#c"/>
<text transform="rotate(-0 58.52 99.519)" x="58.52" y="99.519088" font-family="DejaVu Sans" font-size="10px" text-anchor="end">20000</text>
<text transform="rotate(-90 19.796 335.16)" x="19.795938" y="335.16" font-family="DejaVu Sans" font-size="14px" text-anchor="middle">Открытий СН за год</text>
<path d="m65.52 642.96v-615.6" fill="none" stroke="#000" stroke-linecap="square" stroke-width=".8"/>
<path d="m907.92 642.96v-615.6" fill="none" stroke="#000" stroke-linecap="square" stroke-width=".8"/>
<path d="m65.52 642.96h842.4" fill="none" stroke="#000" stroke-linecap="square" stroke-width=".8"/>
<path d="m65.52 27.36h842.4" fill="none" stroke="#000" stroke-linecap="square" stroke-width=".8"/>
<text transform="rotate(-0 86.283 608.82)" x="86.28338" y="608.819463" font-family="DejaVu Sans" font-size="10px" text-anchor="middle">1065</text>
<text transform="rotate(-0 115.95 635.33)" x="115.945352" y="635.333247" font-family="DejaVu Sans" font-size="10px" text-anchor="middle">96</text>
<text transform="rotate(-0 145.61 633.5)" x="145.607324" y="633.499993" font-family="DejaVu Sans" font-size="10px" text-anchor="middle">163</text>
<text transform="rotate(-0 175.27 633.53)" x="175.269296" y="633.527355" font-family="DejaVu Sans" font-size="10px" text-anchor="middle">162</text>
<text transform="rotate(-0 204.93 632.43)" x="204.931268" y="632.432875" font-family="DejaVu Sans" font-size="10px" text-anchor="middle">202</text>
<text transform="rotate(-0 234.59 632.6)" x="234.593239" y="632.597047" font-family="DejaVu Sans" font-size="10px" text-anchor="middle">196</text>
<text transform="rotate(-0 264.26 629.53)" x="264.255211" y="629.532502" font-family="DejaVu Sans" font-size="10px" text-anchor="middle">308</text>
<text transform="rotate(-0 293.92 628.33)" x="293.917183" y="628.328574" font-family="DejaVu Sans" font-size="10px" text-anchor="middle">352</text>
<text transform="rotate(-0 323.58 627.7)" x="323.579155" y="627.699248" font-family="DejaVu Sans" font-size="10px" text-anchor="middle">375</text>
<text transform="rotate(-0 353.24 628.57)" x="353.241127" y="628.574832" font-family="DejaVu Sans" font-size="10px" text-anchor="middle">343</text>
<text transform="rotate(-0 382.9 627.45)" x="382.903099" y="627.452989" font-family="DejaVu Sans" font-size="10px" text-anchor="middle">384</text>
<text transform="rotate(-0 412.57 622.72)" x="412.56507" y="622.719362" font-family="DejaVu Sans" font-size="10px" text-anchor="middle">557</text>
<text transform="rotate(-0 442.23 621.41)" x="442.227042" y="621.405986" font-family="DejaVu Sans" font-size="10px" text-anchor="middle">605</text>
<text transform="rotate(-0 471.89 624.09)" x="471.889014" y="624.087463" font-family="DejaVu Sans" font-size="10px" text-anchor="middle">507</text>
<text transform="rotate(-0 501.55 622.66)" x="501.550986" y="622.664638" font-family="DejaVu Sans" font-size="10px" text-anchor="middle">559</text>
<text transform="rotate(-0 531.21 621.84)" x="531.212958" y="621.843778" font-family="DejaVu Sans" font-size="10px" text-anchor="middle">589</text>
<text transform="rotate(-0 560.87 613.17)" x="560.87493" y="613.170022" font-family="DejaVu Sans" font-size="10px" text-anchor="middle">906</text>
<text transform="rotate(-0 590.54 609.01)" x="590.536901" y="609.010997" font-family="DejaVu Sans" font-size="10px" text-anchor="middle">1058</text>
<text transform="rotate(-0 620.2 595.66)" x="620.198873" y="595.658338" font-family="DejaVu Sans" font-size="10px" text-anchor="middle">1546</text>
<text transform="rotate(-0 649.86 582.91)" x="649.860845" y="582.907643" font-family="DejaVu Sans" font-size="10px" text-anchor="middle">2012</text>
<text transform="rotate(-0 679.52 541.78)" x="679.522817" y="541.782547" font-family="DejaVu Sans" font-size="10px" text-anchor="middle">3515</text>
<text transform="rotate(-0 709.18 438.46)" x="709.184789" y="438.46361" font-family="DejaVu Sans" font-size="10px" text-anchor="middle">7291</text>
<text transform="rotate(-0 738.85 424.97)" x="738.846761" y="424.974141" font-family="DejaVu Sans" font-size="10px" text-anchor="middle">7784</text>
<text transform="rotate(-0 768.51 423.36)" x="768.508732" y="423.359783" font-family="DejaVu Sans" font-size="10px" text-anchor="middle">7843</text>
<text transform="rotate(-0 798.17 199.02)" x="798.170704" y="199.018691" font-family="DejaVu Sans" font-size="10px" text-anchor="middle">16042</text>
<text transform="rotate(-0 827.83 110.23)" x="827.832676" y="110.22898" font-family="DejaVu Sans" font-size="10px" text-anchor="middle">19287</text>
<text transform="rotate(-0 857.49 51.674)" x="857.494648" y="51.674286" font-family="DejaVu Sans" font-size="10px" text-anchor="middle">21427</text>
<text transform="rotate(-0 887.16 624.06)" x="887.15662" y="624.060101" font-family="DejaVu Sans" font-size="10px" text-anchor="middle">508</text>
<text transform="rotate(-0 486.72 21.36)" x="486.72" y="21.36" font-family="DejaVu Sans" font-size="22px" text-anchor="middle">Статистика открытий сверхновых по годам</text>
<defs>
<clipPath id="a">
<rect x="65.52" y="27.36" width="842.4" height="615.6"/>
</clipPath>
</defs>
</svg>
