<?xml version="1.0" encoding="UTF-8"?>
<!DOCTYPE svg  PUBLIC '-//W3C//DTD SVG 1.1//EN'  'http://www.w3.org/Graphics/SVG/1.1/DTD/svg11.dtd'>
<svg width="864pt" height="540pt" version="1.1" viewBox="0 0 864 540" xmlns="http://www.w3.org/2000/svg" xmlns:xlink="http://www.w3.org/1999/xlink">
<defs>
<style type="text/css">*{stroke-linecap:butt;stroke-linejoin:round;}</style>
</defs>
<path d="m0 540h864v-540h-864z" fill="#fff"/>
<path d="m60.48 507.6h777.6v-486h-777.6z" fill="#fff"/>
<path d="m63.471 507.6h23.926v-30.787h-23.926z" clip-path="url(#a)" fill="#1f77b4"/>
<path d="m93.378 507.6h23.926v-2.8068h-23.926z" clip-path="url(#a)" fill="#1f77b4"/>
<path d="m123.29 507.6h23.926v-4.7657h-23.926z" clip-path="url(#a)" fill="#1f77b4"/>
<path d="m153.19 507.6h23.926v-4.7365h-23.926z" clip-path="url(#a)" fill="#1f77b4"/>
<path d="m183.1 507.6h23.926v-5.906h-23.926z" clip-path="url(#a)" fill="#1f77b4"/>
<path d="m213.01 507.6h23.926v-5.7013h-23.926z" clip-path="url(#a)" fill="#1f77b4"/>
<path d="m242.92 507.6h23.926v-9.0051h-23.926z" clip-path="url(#a)" fill="#1f77b4"/>
<path d="m272.82 507.6h23.926v-10.262h-23.926z" clip-path="url(#a)" fill="#1f77b4"/>
<path d="m302.73 507.6h23.926v-10.964h-23.926z" clip-path="url(#a)" fill="#1f77b4"/>
<path d="m332.64 507.6h23.926v-10.028h-23.926z" clip-path="url(#a)" fill="#1f77b4"/>
<path d="m362.55 507.6h23.926v-11.227h-23.926z" clip-path="url(#a)" fill="#1f77b4"/>
<path d="m392.46 507.6h23.926v-16.285h-23.926z" clip-path="url(#a)" fill="#1f77b4"/>
<path d="m422.36 507.6h23.926v-17.689h-23.926z" clip-path="url(#a)" fill="#1f77b4"/>
<path d="m452.27 507.6h23.926v-14.823h-23.926z" clip-path="url(#a)" fill="#1f77b4"/>
<path d="m482.18 507.6h23.926v-16.344h-23.926z" clip-path="url(#a)" fill="#1f77b4"/>
<path d="m512.09 507.6h23.926v-17.162h-23.926z" clip-path="url(#a)" fill="#1f77b4"/>
<path d="m541.99 507.6h23.926v-26.46h-23.926z" clip-path="url(#a)" fill="#1f77b4"/>
<path d="m571.9 507.6h23.926v-30.875h-23.926z" clip-path="url(#a)" fill="#1f77b4"/>
<path d="m601.81 507.6h23.926v-44.587h-23.926z" clip-path="url(#a)" fill="#1f77b4"/>
<path d="m631.72 507.6h23.926v-58.153h-23.926z" clip-path="url(#a)" fill="#1f77b4"/>
<path d="m661.62 507.6h23.926v-101.42h-23.926z" clip-path="url(#a)" fill="#1f77b4"/>
<path d="m691.53 507.6h23.926v-212.64h-23.926z" clip-path="url(#a)" fill="#1f77b4"/>
<path d="m721.44 507.6h23.926v-226.24h-23.926z" clip-path="url(#a)" fill="#1f77b4"/>
<path d="m751.35 507.6h23.926v-224.81h-23.926z" clip-path="url(#a)" fill="#1f77b4"/>
<path d="m781.26 507.6h23.926v-462.86h-23.926z" clip-path="url(#a)" fill="#1f77b4"/>
<path d="m811.16 507.6h23.926v-259.72h-23.926z" clip-path="url(#a)" fill="#1f77b4"/>
<defs>
<path id="b" d="m0 0v3.5" stroke="#000" stroke-width=".8"/>
</defs>
<use x="75.433846" y="507.6" stroke="#000000" stroke-width=".8" xlink:href="#b"/>
<text transform="rotate(-0 75.434 522.2)" x="75.433846" y="522.198437" font-family="DejaVu Sans" font-size="10px" text-anchor="middle">1995</text>
<use x="105.341538" y="507.6" stroke="#000000" stroke-width=".8" xlink:href="#b"/>
<text transform="rotate(-0 105.34 522.2)" x="105.341538" y="522.198437" font-family="DejaVu Sans" font-size="10px" text-anchor="middle">1996</text>
<use x="135.249231" y="507.6" stroke="#000000" stroke-width=".8" xlink:href="#b"/>
<text transform="rotate(-0 135.25 522.2)" x="135.249231" y="522.198437" font-family="DejaVu Sans" font-size="10px" text-anchor="middle">1997</text>
<use x="165.156923" y="507.6" stroke="#000000" stroke-width=".8" xlink:href="#b"/>
<text transform="rotate(-0 165.16 522.2)" x="165.156923" y="522.198437" font-family="DejaVu Sans" font-size="10px" text-anchor="middle">1998</text>
<use x="195.064615" y="507.6" stroke="#000000" stroke-width=".8" xlink:href="#b"/>
<text transform="rotate(-0 195.06 522.2)" x="195.064615" y="522.198437" font-family="DejaVu Sans" font-size="10px" text-anchor="middle">1999</text>
<use x="224.972308" y="507.6" stroke="#000000" stroke-width=".8" xlink:href="#b"/>
<text transform="rotate(-0 224.97 522.2)" x="224.972308" y="522.198437" font-family="DejaVu Sans" font-size="10px" text-anchor="middle">2000</text>
<use x="254.88" y="507.6" stroke="#000000" stroke-width=".8" xlink:href="#b"/>
<text transform="rotate(-0 254.88 522.2)" x="254.88" y="522.198437" font-family="DejaVu Sans" font-size="10px" text-anchor="middle">2001</text>
<use x="284.787692" y="507.6" stroke="#000000" stroke-width=".8" xlink:href="#b"/>
<text transform="rotate(-0 284.79 522.2)" x="284.787692" y="522.198437" font-family="DejaVu Sans" font-size="10px" text-anchor="middle">2002</text>
<use x="314.695385" y="507.6" stroke="#000000" stroke-width=".8" xlink:href="#b"/>
<text transform="rotate(-0 314.7 522.2)" x="314.695385" y="522.198437" font-family="DejaVu Sans" font-size="10px" text-anchor="middle">2003</text>
<use x="344.603077" y="507.6" stroke="#000000" stroke-width=".8" xlink:href="#b"/>
<text transform="rotate(-0 344.6 522.2)" x="344.603077" y="522.198437" font-family="DejaVu Sans" font-size="10px" text-anchor="middle">2004</text>
<use x="374.510769" y="507.6" stroke="#000000" stroke-width=".8" xlink:href="#b"/>
<text transform="rotate(-0 374.51 522.2)" x="374.510769" y="522.198437" font-family="DejaVu Sans" font-size="10px" text-anchor="middle">2005</text>
<use x="404.418462" y="507.6" stroke="#000000" stroke-width=".8" xlink:href="#b"/>
<text transform="rotate(-0 404.42 522.2)" x="404.418462" y="522.198437" font-family="DejaVu Sans" font-size="10px" text-anchor="middle">2006</text>
<use x="434.326154" y="507.6" stroke="#000000" stroke-width=".8" xlink:href="#b"/>
<text transform="rotate(-0 434.33 522.2)" x="434.326154" y="522.198437" font-family="DejaVu Sans" font-size="10px" text-anchor="middle">2007</text>
<use x="464.233846" y="507.6" stroke="#000000" stroke-width=".8" xlink:href="#b"/>
<text transform="rotate(-0 464.23 522.2)" x="464.233846" y="522.198437" font-family="DejaVu Sans" font-size="10px" text-anchor="middle">2008</text>
<use x="494.141538" y="507.6" stroke="#000000" stroke-width=".8" xlink:href="#b"/>
<text transform="rotate(-0 494.14 522.2)" x="494.141538" y="522.198437" font-family="DejaVu Sans" font-size="10px" text-anchor="middle">2009</text>
<use x="524.049231" y="507.6" stroke="#000000" stroke-width=".8" xlink:href="#b"/>
<text transform="rotate(-0 524.05 522.2)" x="524.049231" y="522.198437" font-family="DejaVu Sans" font-size="10px" text-anchor="middle">2010</text>
<use x="553.956923" y="507.6" stroke="#000000" stroke-width=".8" xlink:href="#b"/>
<text transform="rotate(-0 553.96 522.2)" x="553.956923" y="522.198437" font-family="DejaVu Sans" font-size="10px" text-anchor="middle">2011</text>
<use x="583.864615" y="507.6" stroke="#000000" stroke-width=".8" xlink:href="#b"/>
<text transform="rotate(-0 583.86 522.2)" x="583.864615" y="522.198437" font-family="DejaVu Sans" font-size="10px" text-anchor="middle">2012</text>
<use x="613.772308" y="507.6" stroke="#000000" stroke-width=".8" xlink:href="#b"/>
<text transform="rotate(-0 613.77 522.2)" x="613.772308" y="522.198437" font-family="DejaVu Sans" font-size="10px" text-anchor="middle">2013</text>
<use x="643.68" y="507.6" stroke="#000000" stroke-width=".8" xlink:href="#b"/>
<text transform="rotate(-0 643.68 522.2)" x="643.68" y="522.198437" font-family="DejaVu Sans" font-size="10px" text-anchor="middle">2014</text>
<use x="673.587692" y="507.6" stroke="#000000" stroke-width=".8" xlink:href="#b"/>
<text transform="rotate(-0 673.59 522.2)" x="673.587692" y="522.198437" font-family="DejaVu Sans" font-size="10px" text-anchor="middle">2015</text>
<use x="703.495385" y="507.6" stroke="#000000" stroke-width=".8" xlink:href="#b"/>
<text transform="rotate(-0 703.5 522.2)" x="703.495385" y="522.198437" font-family="DejaVu Sans" font-size="10px" text-anchor="middle">2016</text>
<use x="733.403077" y="507.6" stroke="#000000" stroke-width=".8" xlink:href="#b"/>
<text transform="rotate(-0 733.4 522.2)" x="733.403077" y="522.198437" font-family="DejaVu Sans" font-size="10px" text-anchor="middle">2017</text>
<use x="763.310769" y="507.6" stroke="#000000" stroke-width=".8" xlink:href="#b"/>
<text transform="rotate(-0 763.31 522.2)" x="763.310769" y="522.198437" font-family="DejaVu Sans" font-size="10px" text-anchor="middle">2018</text>
<use x="793.218462" y="507.6" stroke="#000000" stroke-width=".8" xlink:href="#b"/>
<text transform="rotate(-0 793.22 522.2)" x="793.218462" y="522.198437" font-family="DejaVu Sans" font-size="10px" text-anchor="middle">2019</text>
<use x="823.126154" y="507.6" stroke="#000000" stroke-width=".8" xlink:href="#b"/>
<text transform="rotate(-0 823.13 522.2)" x="823.126154" y="522.198437" font-family="DejaVu Sans" font-size="10px" text-anchor="middle">2020</text>
<text transform="rotate(-0 449.28 538.92)" x="449.28" y="538.915937" font-family="DejaVu Sans" font-size="14px" text-anchor="middle">Год</text>
<defs>
<path id="c" d="m0 0h-3.5" stroke="#000" stroke-width=".8"/>
</defs>
<use x="60.48" y="507.6" stroke="#000000" stroke-width=".8" xlink:href="#c"/>
<text transform="rotate(-0 53.48 511.4)" x="53.48" y="511.399219" font-family="DejaVu Sans" font-size="10px" text-anchor="end">0</text>
<use x="60.48" y="449.125217" stroke="#000000" stroke-width=".8" xlink:href="#c"/>
<text transform="rotate(-0 53.48 452.92)" x="53.48" y="452.924436" font-family="DejaVu Sans" font-size="10px" text-anchor="end">2000</text>
<use x="60.48" y="390.650435" stroke="#000000" stroke-width=".8" xlink:href="#c"/>
<text transform="rotate(-0 53.48 394.45)" x="53.48" y="394.449653" font-family="DejaVu Sans" font-size="10px" text-anchor="end">4000</text>
<use x="60.48" y="332.175652" stroke="#000000" stroke-width=".8" xlink:href="#c"/>
<text transform="rotate(-0 53.48 335.97)" x="53.48" y="335.974871" font-family="DejaVu Sans" font-size="10px" text-anchor="end">6000</text>
<use x="60.48" y="273.700869" stroke="#000000" stroke-width=".8" xlink:href="#c"/>
<text transform="rotate(-0 53.48 277.5)" x="53.48" y="277.500088" font-family="DejaVu Sans" font-size="10px" text-anchor="end">8000</text>
<use x="60.48" y="215.226086" stroke="#000000" stroke-width=".8" xlink:href="#c"/>
<text transform="rotate(-0 53.48 219.03)" x="53.48" y="219.025305" font-family="DejaVu Sans" font-size="10px" text-anchor="end">10000</text>
<use x="60.48" y="156.751304" stroke="#000000" stroke-width=".8" xlink:href="#c"/>
<text transform="rotate(-0 53.48 160.55)" x="53.48" y="160.550522" font-family="DejaVu Sans" font-size="10px" text-anchor="end">12000</text>
<use x="60.48" y="98.276521" stroke="#000000" stroke-width=".8" xlink:href="#c"/>
<text transform="rotate(-0 53.48 102.08)" x="53.48" y="102.07574" font-family="DejaVu Sans" font-size="10px" text-anchor="end">14000</text>
<use x="60.48" y="39.801738" stroke="#000000" stroke-width=".8" xlink:href="#c"/>
<text transform="rotate(-0 53.48 43.601)" x="53.48" y="43.600957" font-family="DejaVu Sans" font-size="10px" text-anchor="end">16000</text>
<text transform="rotate(-90 14.756 264.6)" x="14.755938" y="264.6" font-family="DejaVu Sans" font-size="14px" text-anchor="middle">Открытий СН за год</text>
<path d="m60.48 507.6v-486" fill="none" stroke="#000" stroke-linecap="square" stroke-width=".8"/>
<path d="m838.08 507.6v-486" fill="none" stroke="#000" stroke-linecap="square" stroke-width=".8"/>
<path d="m60.48 507.6h777.6" fill="none" stroke="#000" stroke-linecap="square" stroke-width=".8"/>
<path d="m60.48 21.6h777.6" fill="none" stroke="#000" stroke-linecap="square" stroke-width=".8"/>
<text transform="rotate(-0 75.434 471.73)" x="75.433846" y="471.733339" font-family="DejaVu Sans" font-size="10px" text-anchor="middle">1053</text>
<text transform="rotate(-0 105.34 499.71)" x="105.341538" y="499.713523" font-family="DejaVu Sans" font-size="10px" text-anchor="middle">96</text>
<text transform="rotate(-0 135.25 497.75)" x="135.249231" y="497.754618" font-family="DejaVu Sans" font-size="10px" text-anchor="middle">163</text>
<text transform="rotate(-0 165.16 497.78)" x="165.156923" y="497.783855" font-family="DejaVu Sans" font-size="10px" text-anchor="middle">162</text>
<text transform="rotate(-0 195.06 496.61)" x="195.064615" y="496.614359" font-family="DejaVu Sans" font-size="10px" text-anchor="middle">202</text>
<text transform="rotate(-0 224.97 496.82)" x="224.972308" y="496.819021" font-family="DejaVu Sans" font-size="10px" text-anchor="middle">195</text>
<text transform="rotate(-0 254.88 493.52)" x="254.88" y="493.515196" font-family="DejaVu Sans" font-size="10px" text-anchor="middle">308</text>
<text transform="rotate(-0 284.79 492.26)" x="284.787692" y="492.257988" font-family="DejaVu Sans" font-size="10px" text-anchor="middle">351</text>
<text transform="rotate(-0 314.7 491.56)" x="314.695385" y="491.556291" font-family="DejaVu Sans" font-size="10px" text-anchor="middle">375</text>
<text transform="rotate(-0 344.6 492.49)" x="344.603077" y="492.491887" font-family="DejaVu Sans" font-size="10px" text-anchor="middle">343</text>
<text transform="rotate(-0 374.51 491.29)" x="374.510769" y="491.293154" font-family="DejaVu Sans" font-size="10px" text-anchor="middle">384</text>
<text transform="rotate(-0 404.42 486.24)" x="404.418462" y="486.235086" font-family="DejaVu Sans" font-size="10px" text-anchor="middle">557</text>
<text transform="rotate(-0 434.33 484.83)" x="434.326154" y="484.831691" font-family="DejaVu Sans" font-size="10px" text-anchor="middle">605</text>
<text transform="rotate(-0 464.23 487.7)" x="464.233846" y="487.696955" font-family="DejaVu Sans" font-size="10px" text-anchor="middle">507</text>
<text transform="rotate(-0 494.14 486.18)" x="494.141538" y="486.176611" font-family="DejaVu Sans" font-size="10px" text-anchor="middle">559</text>
<text transform="rotate(-0 524.05 485.36)" x="524.049231" y="485.357964" font-family="DejaVu Sans" font-size="10px" text-anchor="middle">587</text>
<text transform="rotate(-0 553.96 476.06)" x="553.956923" y="476.060473" font-family="DejaVu Sans" font-size="10px" text-anchor="middle">905</text>
<text transform="rotate(-0 583.86 471.65)" x="583.864615" y="471.645627" font-family="DejaVu Sans" font-size="10px" text-anchor="middle">1056</text>
<text transform="rotate(-0 613.77 457.93)" x="613.772308" y="457.933291" font-family="DejaVu Sans" font-size="10px" text-anchor="middle">1525</text>
<text transform="rotate(-0 643.68 444.37)" x="643.68" y="444.367141" font-family="DejaVu Sans" font-size="10px" text-anchor="middle">1989</text>
<text transform="rotate(-0 673.59 401.1)" x="673.587692" y="401.095802" font-family="DejaVu Sans" font-size="10px" text-anchor="middle">3469</text>
<text transform="rotate(-0 703.5 289.88)" x="703.495385" y="289.876765" font-family="DejaVu Sans" font-size="10px" text-anchor="middle">7273</text>
<text transform="rotate(-0 733.4 276.28)" x="733.403077" y="276.281378" font-family="DejaVu Sans" font-size="10px" text-anchor="middle">7738</text>
<text transform="rotate(-0 763.31 277.71)" x="763.310769" y="277.71401" font-family="DejaVu Sans" font-size="10px" text-anchor="middle">7689</text>
<text transform="rotate(-0 793.22 39.663)" x="793.218462" y="39.66317" font-family="DejaVu Sans" font-size="10px" text-anchor="middle">15831</text>
<text transform="rotate(-0 823.13 242.8)" x="823.126154" y="242.804565" font-family="DejaVu Sans" font-size="10px" text-anchor="middle">8883</text>
<text transform="rotate(-0 449.28 15.6)" x="449.28" y="15.6" font-family="DejaVu Sans" font-size="22px" text-anchor="middle">Статистика открытий сверхновых по годам</text>
<defs>
<clipPath id="a">
<rect x="60.48" y="21.6" width="777.6" height="486"/>
</clipPath>
</defs>
</svg>
