<?xml version="1.0" encoding="UTF-8"?>
<!DOCTYPE svg  PUBLIC '-//W3C//DTD SVG 1.1//EN'  'http://www.w3.org/Graphics/SVG/1.1/DTD/svg11.dtd'>
<svg width="936pt" height="684pt" version="1.1" viewBox="0 0 936 684" xmlns="http://www.w3.org/2000/svg" xmlns:xlink="http://www.w3.org/1999/xlink">
<defs>
<style type="text/css">*{stroke-linecap:butt;stroke-linejoin:round;}</style>
</defs>
<path d="m0 684h936v-684h-936z" fill="#fff"/>
<path d="m65.52 642.96h842.4v-615.6h-842.4z" fill="#fff"/>
<path d="m74.295 642.96h27.123v-26.815h-27.123z" clip-path="url(#a)" fill="#1f77b4"/>
<path d="m106.2 642.96h27.123v-2.5708h-27.123z" clip-path="url(#a)" fill="#1f77b4"/>
<path d="m138.11 642.96h27.123v-4.9988h-27.123z" clip-path="url(#a)" fill="#1f77b4"/>
<path d="m170.02 642.96h27.123v-5.0702h-27.123z" clip-path="url(#a)" fill="#1f77b4"/>
<path d="m201.93 642.96h27.123v-4.9274h-27.123z" clip-path="url(#a)" fill="#1f77b4"/>
<path d="m233.84 642.96h27.123v-4.3918h-27.123z" clip-path="url(#a)" fill="#1f77b4"/>
<path d="m265.75 642.96h27.123v-7.6767h-27.123z" clip-path="url(#a)" fill="#1f77b4"/>
<path d="m297.66 642.96h27.123v-8.8193h-27.123z" clip-path="url(#a)" fill="#1f77b4"/>
<path d="m329.57 642.96h27.123v-8.7836h-27.123z" clip-path="url(#a)" fill="#1f77b4"/>
<path d="m361.48 642.96h27.123v-7.3196h-27.123z" clip-path="url(#a)" fill="#1f77b4"/>
<path d="m393.39 642.96h27.123v-8.9621h-27.123z" clip-path="url(#a)" fill="#1f77b4"/>
<path d="m425.3 642.96h27.123v-15.103h-27.123z" clip-path="url(#a)" fill="#1f77b4"/>
<path d="m457.2 642.96h27.123v-17.567h-27.123z" clip-path="url(#a)" fill="#1f77b4"/>
<path d="m489.11 642.96h27.123v-13.175h-27.123z" clip-path="url(#a)" fill="#1f77b4"/>
<path d="m521.02 642.96h27.123v-14.746h-27.123z" clip-path="url(#a)" fill="#1f77b4"/>
<path d="m552.93 642.96h27.123v-15.532h-27.123z" clip-path="url(#a)" fill="#1f77b4"/>
<path d="m584.84 642.96h27.123v-26.315h-27.123z" clip-path="url(#a)" fill="#1f77b4"/>
<path d="m616.75 642.96h27.123v-31.635h-27.123z" clip-path="url(#a)" fill="#1f77b4"/>
<path d="m648.66 642.96h27.123v-47.381h-27.123z" clip-path="url(#a)" fill="#1f77b4"/>
<path d="m680.57 642.96h27.123v-64.734h-27.123z" clip-path="url(#a)" fill="#1f77b4"/>
<path d="m712.48 642.96h27.123v-116.9h-27.123z" clip-path="url(#a)" fill="#1f77b4"/>
<path d="m744.39 642.96h27.123v-250.8h-27.123z" clip-path="url(#a)" fill="#1f77b4"/>
<path d="m776.3 642.96h27.123v-268.9h-27.123z" clip-path="url(#a)" fill="#1f77b4"/>
<path d="m808.2 642.96h27.123v-269.76h-27.123z" clip-path="url(#a)" fill="#1f77b4"/>
<path d="m840.11 642.96h27.123v-563.11h-27.123z" clip-path="url(#a)" fill="#1f77b4"/>
<path d="m872.02 642.96h27.123v-582.68h-27.123z" clip-path="url(#a)" fill="#1f77b4"/>
<path d="m74.295 616.15h27.123v-10.783h-27.123z" clip-path="url(#a)" fill="#ff7f0e"/>
<path d="m106.2 640.39h27.123v-0.85693h-27.123z" clip-path="url(#a)" fill="#ff7f0e"/>
<path d="m138.11 637.96h27.123v-0.82123h-27.123z" clip-path="url(#a)" fill="#ff7f0e"/>
<path d="m170.02 637.89h27.123v-0.71411h-27.123z" clip-path="url(#a)" fill="#ff7f0e"/>
<path d="m201.93 638.03h27.123v-2.2852h-27.123z" clip-path="url(#a)" fill="#ff7f0e"/>
<path d="m233.84 638.57h27.123v-2.5708h-27.123z" clip-path="url(#a)" fill="#ff7f0e"/>
<path d="m265.75 635.28h27.123v-3.3206h-27.123z" clip-path="url(#a)" fill="#ff7f0e"/>
<path d="m297.66 634.14h27.123v-3.7491h-27.123z" clip-path="url(#a)" fill="#ff7f0e"/>
<path d="m329.57 634.18h27.123v-4.606h-27.123z" clip-path="url(#a)" fill="#ff7f0e"/>
<path d="m361.48 635.64h27.123v-4.9274h-27.123z" clip-path="url(#a)" fill="#ff7f0e"/>
<path d="m393.39 634h27.123v-4.7488h-27.123z" clip-path="url(#a)" fill="#ff7f0e"/>
<path d="m425.3 627.86h27.123v-4.7845h-27.123z" clip-path="url(#a)" fill="#ff7f0e"/>
<path d="m457.2 625.39h27.123v-4.0347h-27.123z" clip-path="url(#a)" fill="#ff7f0e"/>
<path d="m489.11 629.78h27.123v-4.9274h-27.123z" clip-path="url(#a)" fill="#ff7f0e"/>
<path d="m521.02 628.21h27.123v-5.213h-27.123z" clip-path="url(#a)" fill="#ff7f0e"/>
<path d="m552.93 627.43h27.123v-5.463h-27.123z" clip-path="url(#a)" fill="#ff7f0e"/>
<path d="m584.84 616.64h27.123v-5.9985h-27.123z" clip-path="url(#a)" fill="#ff7f0e"/>
<path d="m616.75 611.32h27.123v-6.0699h-27.123z" clip-path="url(#a)" fill="#ff7f0e"/>
<path d="m648.66 595.58h27.123v-7.3911h-27.123z" clip-path="url(#a)" fill="#ff7f0e"/>
<path d="m680.57 578.23h27.123v-6.4984h-27.123z" clip-path="url(#a)" fill="#ff7f0e"/>
<path d="m712.48 526.06h27.123v-6.9626h-27.123z" clip-path="url(#a)" fill="#ff7f0e"/>
<path d="m744.39 392.16h27.123v-8.7836h-27.123z" clip-path="url(#a)" fill="#ff7f0e"/>
<path d="m776.3 374.06h27.123v-7.9981h-27.123z" clip-path="url(#a)" fill="#ff7f0e"/>
<path d="m808.2 373.2h27.123v-5.2844h-27.123z" clip-path="url(#a)" fill="#ff7f0e"/>
<path d="m840.11 79.847h27.123v-4.3204h-27.123z" clip-path="url(#a)" fill="#ff7f0e"/>
<path d="m872.02 60.281h27.123v-3.6063h-27.123z" clip-path="url(#a)" fill="#ff7f0e"/>
<defs>
<path id="b" d="m0 0v3.5" stroke="#000" stroke-width=".8"/>
</defs>
<use x="87.856364" y="642.96" stroke="#000000" stroke-width=".8" xlink:href="#b"/>
<text transform="rotate(-0 87.856 657.56)" x="87.856364" y="657.558437" font-family="DejaVu Sans" font-size="10px" text-anchor="middle">до 1996</text>
<use x="119.765455" y="642.96" stroke="#000000" stroke-width=".8" xlink:href="#b"/>
<text transform="rotate(-0 119.77 657.56)" x="119.765455" y="657.558437" font-family="DejaVu Sans" font-size="10px" text-anchor="middle">1996</text>
<use x="151.674545" y="642.96" stroke="#000000" stroke-width=".8" xlink:href="#b"/>
<text transform="rotate(-0 151.67 657.56)" x="151.674545" y="657.558437" font-family="DejaVu Sans" font-size="10px" text-anchor="middle">1997</text>
<use x="183.583636" y="642.96" stroke="#000000" stroke-width=".8" xlink:href="#b"/>
<text transform="rotate(-0 183.58 657.56)" x="183.583636" y="657.558437" font-family="DejaVu Sans" font-size="10px" text-anchor="middle">1998</text>
<use x="215.492727" y="642.96" stroke="#000000" stroke-width=".8" xlink:href="#b"/>
<text transform="rotate(-0 215.49 657.56)" x="215.492727" y="657.558437" font-family="DejaVu Sans" font-size="10px" text-anchor="middle">1999</text>
<use x="247.401818" y="642.96" stroke="#000000" stroke-width=".8" xlink:href="#b"/>
<text transform="rotate(-0 247.4 657.56)" x="247.401818" y="657.558437" font-family="DejaVu Sans" font-size="10px" text-anchor="middle">2000</text>
<use x="279.310909" y="642.96" stroke="#000000" stroke-width=".8" xlink:href="#b"/>
<text transform="rotate(-0 279.31 657.56)" x="279.310909" y="657.558437" font-family="DejaVu Sans" font-size="10px" text-anchor="middle">2001</text>
<use x="311.22" y="642.96" stroke="#000000" stroke-width=".8" xlink:href="#b"/>
<text transform="rotate(-0 311.22 657.56)" x="311.22" y="657.558437" font-family="DejaVu Sans" font-size="10px" text-anchor="middle">2002</text>
<use x="343.129091" y="642.96" stroke="#000000" stroke-width=".8" xlink:href="#b"/>
<text transform="rotate(-0 343.13 657.56)" x="343.129091" y="657.558437" font-family="DejaVu Sans" font-size="10px" text-anchor="middle">2003</text>
<use x="375.038182" y="642.96" stroke="#000000" stroke-width=".8" xlink:href="#b"/>
<text transform="rotate(-0 375.04 657.56)" x="375.038182" y="657.558437" font-family="DejaVu Sans" font-size="10px" text-anchor="middle">2004</text>
<use x="406.947273" y="642.96" stroke="#000000" stroke-width=".8" xlink:href="#b"/>
<text transform="rotate(-0 406.95 657.56)" x="406.947273" y="657.558437" font-family="DejaVu Sans" font-size="10px" text-anchor="middle">2005</text>
<use x="438.856364" y="642.96" stroke="#000000" stroke-width=".8" xlink:href="#b"/>
<text transform="rotate(-0 438.86 657.56)" x="438.856364" y="657.558437" font-family="DejaVu Sans" font-size="10px" text-anchor="middle">2006</text>
<use x="470.765455" y="642.96" stroke="#000000" stroke-width=".8" xlink:href="#b"/>
<text transform="rotate(-0 470.77 657.56)" x="470.765455" y="657.558437" font-family="DejaVu Sans" font-size="10px" text-anchor="middle">2007</text>
<use x="502.674545" y="642.96" stroke="#000000" stroke-width=".8" xlink:href="#b"/>
<text transform="rotate(-0 502.67 657.56)" x="502.674545" y="657.558437" font-family="DejaVu Sans" font-size="10px" text-anchor="middle">2008</text>
<use x="534.583636" y="642.96" stroke="#000000" stroke-width=".8" xlink:href="#b"/>
<text transform="rotate(-0 534.58 657.56)" x="534.583636" y="657.558437" font-family="DejaVu Sans" font-size="10px" text-anchor="middle">2009</text>
<use x="566.492727" y="642.96" stroke="#000000" stroke-width=".8" xlink:href="#b"/>
<text transform="rotate(-0 566.49 657.56)" x="566.492727" y="657.558437" font-family="DejaVu Sans" font-size="10px" text-anchor="middle">2010</text>
<use x="598.401818" y="642.96" stroke="#000000" stroke-width=".8" xlink:href="#b"/>
<text transform="rotate(-0 598.4 657.56)" x="598.401818" y="657.558437" font-family="DejaVu Sans" font-size="10px" text-anchor="middle">2011</text>
<use x="630.310909" y="642.96" stroke="#000000" stroke-width=".8" xlink:href="#b"/>
<text transform="rotate(-0 630.31 657.56)" x="630.310909" y="657.558437" font-family="DejaVu Sans" font-size="10px" text-anchor="middle">2012</text>
<use x="662.22" y="642.96" stroke="#000000" stroke-width=".8" xlink:href="#b"/>
<text transform="rotate(-0 662.22 657.56)" x="662.22" y="657.558437" font-family="DejaVu Sans" font-size="10px" text-anchor="middle">2013</text>
<use x="694.129091" y="642.96" stroke="#000000" stroke-width=".8" xlink:href="#b"/>
<text transform="rotate(-0 694.13 657.56)" x="694.129091" y="657.558437" font-family="DejaVu Sans" font-size="10px" text-anchor="middle">2014</text>
<use x="726.038182" y="642.96" stroke="#000000" stroke-width=".8" xlink:href="#b"/>
<text transform="rotate(-0 726.04 657.56)" x="726.038182" y="657.558437" font-family="DejaVu Sans" font-size="10px" text-anchor="middle">2015</text>
<use x="757.947273" y="642.96" stroke="#000000" stroke-width=".8" xlink:href="#b"/>
<text transform="rotate(-0 757.95 657.56)" x="757.947273" y="657.558437" font-family="DejaVu Sans" font-size="10px" text-anchor="middle">2016</text>
<use x="789.856364" y="642.96" stroke="#000000" stroke-width=".8" xlink:href="#b"/>
<text transform="rotate(-0 789.86 657.56)" x="789.856364" y="657.558437" font-family="DejaVu Sans" font-size="10px" text-anchor="middle">2017</text>
<use x="821.765455" y="642.96" stroke="#000000" stroke-width=".8" xlink:href="#b"/>
<text transform="rotate(-0 821.77 657.56)" x="821.765455" y="657.558437" font-family="DejaVu Sans" font-size="10px" text-anchor="middle">2018</text>
<use x="853.674545" y="642.96" stroke="#000000" stroke-width=".8" xlink:href="#b"/>
<text transform="rotate(-0 853.67 657.56)" x="853.674545" y="657.558437" font-family="DejaVu Sans" font-size="10px" text-anchor="middle">2019</text>
<use x="885.583636" y="642.96" stroke="#000000" stroke-width=".8" xlink:href="#b"/>
<text transform="rotate(-0 885.58 657.56)" x="885.583636" y="657.558437" font-family="DejaVu Sans" font-size="10px" text-anchor="middle">2020</text>
<text transform="rotate(-0 486.72 674.28)" x="486.72" y="674.275937" font-family="DejaVu Sans" font-size="14px" text-anchor="middle">Год</text>
<defs>
<path id="c" d="m0 0h-3.5" stroke="#000" stroke-width=".8"/>
</defs>
<use x="65.52" y="642.96" stroke="#000000" stroke-width=".8" xlink:href="#c"/>
<text transform="rotate(-0 58.52 646.76)" x="58.52" y="646.759219" font-family="DejaVu Sans" font-size="10px" text-anchor="end">0</text>
<use x="65.52" y="571.548829" stroke="#000000" stroke-width=".8" xlink:href="#c"/>
<text transform="rotate(-0 58.52 575.35)" x="58.52" y="575.348048" font-family="DejaVu Sans" font-size="10px" text-anchor="end">2000</text>
<use x="65.52" y="500.137658" stroke="#000000" stroke-width=".8" xlink:href="#c"/>
<text transform="rotate(-0 58.52 503.94)" x="58.52" y="503.936877" font-family="DejaVu Sans" font-size="10px" text-anchor="end">4000</text>
<use x="65.52" y="428.726487" stroke="#000000" stroke-width=".8" xlink:href="#c"/>
<text transform="rotate(-0 58.52 432.53)" x="58.52" y="432.525706" font-family="DejaVu Sans" font-size="10px" text-anchor="end">6000</text>
<use x="65.52" y="357.315316" stroke="#000000" stroke-width=".8" xlink:href="#c"/>
<text transform="rotate(-0 58.52 361.11)" x="58.52" y="361.114535" font-family="DejaVu Sans" font-size="10px" text-anchor="end">8000</text>
<use x="65.52" y="285.904145" stroke="#000000" stroke-width=".8" xlink:href="#c"/>
<text transform="rotate(-0 58.52 289.7)" x="58.52" y="289.703364" font-family="DejaVu Sans" font-size="10px" text-anchor="end">10000</text>
<use x="65.52" y="214.492974" stroke="#000000" stroke-width=".8" xlink:href="#c"/>
<text transform="rotate(-0 58.52 218.29)" x="58.52" y="218.292192" font-family="DejaVu Sans" font-size="10px" text-anchor="end">12000</text>
<use x="65.52" y="143.081803" stroke="#000000" stroke-width=".8" xlink:href="#c"/>
<text transform="rotate(-0 58.52 146.88)" x="58.52" y="146.881021" font-family="DejaVu Sans" font-size="10px" text-anchor="end">14000</text>
<use x="65.52" y="71.670632" stroke="#000000" stroke-width=".8" xlink:href="#c"/>
<text transform="rotate(-0 58.52 75.47)" x="58.52" y="75.46985" font-family="DejaVu Sans" font-size="10px" text-anchor="end">16000</text>
<text transform="rotate(-90 19.796 335.16)" x="19.795938" y="335.16" font-family="DejaVu Sans" font-size="14px" text-anchor="middle">Открытий СН за год</text>
<path d="m65.52 642.96v-615.6" fill="none" stroke="#000" stroke-linecap="square" stroke-width=".8"/>
<path d="m907.92 642.96v-615.6" fill="none" stroke="#000" stroke-linecap="square" stroke-width=".8"/>
<path d="m65.52 642.96h842.4" fill="none" stroke="#000" stroke-linecap="square" stroke-width=".8"/>
<path d="m65.52 27.36h842.4" fill="none" stroke="#000" stroke-linecap="square" stroke-width=".8"/>
<text transform="rotate(-0 87.856 600.36)" x="87.856364" y="600.362018" font-family="DejaVu Sans" font-size="10px" text-anchor="middle">1053</text>
<text transform="rotate(-0 119.77 634.53)" x="119.765455" y="634.532264" font-family="DejaVu Sans" font-size="10px" text-anchor="middle">96</text>
<text transform="rotate(-0 151.67 632.14)" x="151.674545" y="632.13999" font-family="DejaVu Sans" font-size="10px" text-anchor="middle">163</text>
<text transform="rotate(-0 183.58 632.18)" x="183.583636" y="632.175695" font-family="DejaVu Sans" font-size="10px" text-anchor="middle">162</text>
<text transform="rotate(-0 215.49 630.75)" x="215.492727" y="630.747472" font-family="DejaVu Sans" font-size="10px" text-anchor="middle">202</text>
<text transform="rotate(-0 247.4 631)" x="247.401818" y="630.997411" font-family="DejaVu Sans" font-size="10px" text-anchor="middle">195</text>
<text transform="rotate(-0 279.31 626.96)" x="279.310909" y="626.96268" font-family="DejaVu Sans" font-size="10px" text-anchor="middle">308</text>
<text transform="rotate(-0 311.22 625.39)" x="311.22" y="625.391634" font-family="DejaVu Sans" font-size="10px" text-anchor="middle">352</text>
<text transform="rotate(-0 343.13 624.57)" x="343.129091" y="624.570405" font-family="DejaVu Sans" font-size="10px" text-anchor="middle">375</text>
<text transform="rotate(-0 375.04 625.71)" x="375.038182" y="625.712984" font-family="DejaVu Sans" font-size="10px" text-anchor="middle">343</text>
<text transform="rotate(-0 406.95 624.25)" x="406.947273" y="624.249055" font-family="DejaVu Sans" font-size="10px" text-anchor="middle">384</text>
<text transform="rotate(-0 438.86 618.07)" x="438.856364" y="618.071989" font-family="DejaVu Sans" font-size="10px" text-anchor="middle">557</text>
<text transform="rotate(-0 470.77 616.36)" x="470.765455" y="616.358121" font-family="DejaVu Sans" font-size="10px" text-anchor="middle">605</text>
<text transform="rotate(-0 502.67 619.86)" x="502.674545" y="619.857268" font-family="DejaVu Sans" font-size="10px" text-anchor="middle">507</text>
<text transform="rotate(-0 534.58 618)" x="534.583636" y="618.000578" font-family="DejaVu Sans" font-size="10px" text-anchor="middle">559</text>
<text transform="rotate(-0 566.49 616.97)" x="566.492727" y="616.965116" font-family="DejaVu Sans" font-size="10px" text-anchor="middle">588</text>
<text transform="rotate(-0 598.4 605.65)" x="598.401818" y="605.646445" font-family="DejaVu Sans" font-size="10px" text-anchor="middle">905</text>
<text transform="rotate(-0 630.31 600.25)" x="630.310909" y="600.254902" font-family="DejaVu Sans" font-size="10px" text-anchor="middle">1056</text>
<text transform="rotate(-0 662.22 583.19)" x="662.22" y="583.187632" font-family="DejaVu Sans" font-size="10px" text-anchor="middle">1534</text>
<text transform="rotate(-0 694.13 566.73)" x="694.129091" y="566.727357" font-family="DejaVu Sans" font-size="10px" text-anchor="middle">1995</text>
<text transform="rotate(-0 726.04 514.1)" x="726.038182" y="514.097324" font-family="DejaVu Sans" font-size="10px" text-anchor="middle">3469</text>
<text transform="rotate(-0 757.95 378.38)" x="757.947273" y="378.380393" font-family="DejaVu Sans" font-size="10px" text-anchor="middle">7270</text>
<text transform="rotate(-0 789.86 361.06)" x="789.856364" y="361.063184" font-family="DejaVu Sans" font-size="10px" text-anchor="middle">7755</text>
<text transform="rotate(-0 821.77 362.92)" x="821.765455" y="362.919875" font-family="DejaVu Sans" font-size="10px" text-anchor="middle">7703</text>
<text transform="rotate(-0 853.67 70.527)" x="853.674545" y="70.526835" font-family="DejaVu Sans" font-size="10px" text-anchor="middle">15892</text>
<text transform="rotate(-0 885.58 51.674)" x="885.583636" y="51.674286" font-family="DejaVu Sans" font-size="10px" text-anchor="middle">16420</text>
<text transform="rotate(-0 486.72 21.36)" x="486.72" y="21.36" font-family="DejaVu Sans" font-size="22px" text-anchor="middle">Статистика открытий сверхновых по годам</text>
<defs>
<clipPath id="a">
<rect x="65.52" y="27.36" width="842.4" height="615.6"/>
</clipPath>
</defs>
</svg>
