<?xml version="1.0" encoding="UTF-8"?>
<!DOCTYPE svg  PUBLIC '-//W3C//DTD SVG 1.1//EN'  'http://www.w3.org/Graphics/SVG/1.1/DTD/svg11.dtd'>
<svg width="864pt" height="540pt" version="1.1" viewBox="0 0 864 540" xmlns="http://www.w3.org/2000/svg" xmlns:xlink="http://www.w3.org/1999/xlink">
<defs>
<style type="text/css">*{stroke-linecap:butt;stroke-linejoin:round;}</style>
</defs>
<path d="m0 540h864v-540h-864z" fill="#fff"/>
<path d="m60.48 507.6h777.6v-486h-777.6z" fill="#fff"/>
<path d="m63.471 507.6h23.926v-30.715h-23.926z" clip-path="url(#a)" fill="#1f77b4"/>
<path d="m93.378 507.6h23.926v-2.8002h-23.926z" clip-path="url(#a)" fill="#1f77b4"/>
<path d="m123.29 507.6h23.926v-4.7546h-23.926z" clip-path="url(#a)" fill="#1f77b4"/>
<path d="m153.19 507.6h23.926v-4.7254h-23.926z" clip-path="url(#a)" fill="#1f77b4"/>
<path d="m183.1 507.6h23.926v-5.8922h-23.926z" clip-path="url(#a)" fill="#1f77b4"/>
<path d="m213.01 507.6h23.926v-5.688h-23.926z" clip-path="url(#a)" fill="#1f77b4"/>
<path d="m242.92 507.6h23.926v-8.9841h-23.926z" clip-path="url(#a)" fill="#1f77b4"/>
<path d="m272.82 507.6h23.926v-10.238h-23.926z" clip-path="url(#a)" fill="#1f77b4"/>
<path d="m302.73 507.6h23.926v-10.938h-23.926z" clip-path="url(#a)" fill="#1f77b4"/>
<path d="m332.64 507.6h23.926v-10.005h-23.926z" clip-path="url(#a)" fill="#1f77b4"/>
<path d="m362.55 507.6h23.926v-11.201h-23.926z" clip-path="url(#a)" fill="#1f77b4"/>
<path d="m392.46 507.6h23.926v-16.247h-23.926z" clip-path="url(#a)" fill="#1f77b4"/>
<path d="m422.36 507.6h23.926v-17.647h-23.926z" clip-path="url(#a)" fill="#1f77b4"/>
<path d="m452.27 507.6h23.926v-14.789h-23.926z" clip-path="url(#a)" fill="#1f77b4"/>
<path d="m482.18 507.6h23.926v-16.306h-23.926z" clip-path="url(#a)" fill="#1f77b4"/>
<path d="m512.09 507.6h23.926v-17.122h-23.926z" clip-path="url(#a)" fill="#1f77b4"/>
<path d="m541.99 507.6h23.926v-26.398h-23.926z" clip-path="url(#a)" fill="#1f77b4"/>
<path d="m571.9 507.6h23.926v-30.803h-23.926z" clip-path="url(#a)" fill="#1f77b4"/>
<path d="m601.81 507.6h23.926v-44.483h-23.926z" clip-path="url(#a)" fill="#1f77b4"/>
<path d="m631.72 507.6h23.926v-58.018h-23.926z" clip-path="url(#a)" fill="#1f77b4"/>
<path d="m661.62 507.6h23.926v-101.19h-23.926z" clip-path="url(#a)" fill="#1f77b4"/>
<path d="m691.53 507.6h23.926v-212.15h-23.926z" clip-path="url(#a)" fill="#1f77b4"/>
<path d="m721.44 507.6h23.926v-225.77h-23.926z" clip-path="url(#a)" fill="#1f77b4"/>
<path d="m751.35 507.6h23.926v-224.37h-23.926z" clip-path="url(#a)" fill="#1f77b4"/>
<path d="m781.26 507.6h23.926v-462.86h-23.926z" clip-path="url(#a)" fill="#1f77b4"/>
<path d="m811.16 507.6h23.926v-292.77h-23.926z" clip-path="url(#a)" fill="#1f77b4"/>
<defs>
<path id="b" d="m0 0v3.5" stroke="#000" stroke-width=".8"/>
</defs>
<use x="75.433846" y="507.6" stroke="#000000" stroke-width=".8" xlink:href="#b"/>
<text transform="rotate(-0 75.434 522.2)" x="75.433846" y="522.198437" font-family="DejaVu Sans" font-size="10px" text-anchor="middle">1995</text>
<use x="105.341538" y="507.6" stroke="#000000" stroke-width=".8" xlink:href="#b"/>
<text transform="rotate(-0 105.34 522.2)" x="105.341538" y="522.198437" font-family="DejaVu Sans" font-size="10px" text-anchor="middle">1996</text>
<use x="135.249231" y="507.6" stroke="#000000" stroke-width=".8" xlink:href="#b"/>
<text transform="rotate(-0 135.25 522.2)" x="135.249231" y="522.198437" font-family="DejaVu Sans" font-size="10px" text-anchor="middle">1997</text>
<use x="165.156923" y="507.6" stroke="#000000" stroke-width=".8" xlink:href="#b"/>
<text transform="rotate(-0 165.16 522.2)" x="165.156923" y="522.198437" font-family="DejaVu Sans" font-size="10px" text-anchor="middle">1998</text>
<use x="195.064615" y="507.6" stroke="#000000" stroke-width=".8" xlink:href="#b"/>
<text transform="rotate(-0 195.06 522.2)" x="195.064615" y="522.198437" font-family="DejaVu Sans" font-size="10px" text-anchor="middle">1999</text>
<use x="224.972308" y="507.6" stroke="#000000" stroke-width=".8" xlink:href="#b"/>
<text transform="rotate(-0 224.97 522.2)" x="224.972308" y="522.198437" font-family="DejaVu Sans" font-size="10px" text-anchor="middle">2000</text>
<use x="254.88" y="507.6" stroke="#000000" stroke-width=".8" xlink:href="#b"/>
<text transform="rotate(-0 254.88 522.2)" x="254.88" y="522.198437" font-family="DejaVu Sans" font-size="10px" text-anchor="middle">2001</text>
<use x="284.787692" y="507.6" stroke="#000000" stroke-width=".8" xlink:href="#b"/>
<text transform="rotate(-0 284.79 522.2)" x="284.787692" y="522.198437" font-family="DejaVu Sans" font-size="10px" text-anchor="middle">2002</text>
<use x="314.695385" y="507.6" stroke="#000000" stroke-width=".8" xlink:href="#b"/>
<text transform="rotate(-0 314.7 522.2)" x="314.695385" y="522.198437" font-family="DejaVu Sans" font-size="10px" text-anchor="middle">2003</text>
<use x="344.603077" y="507.6" stroke="#000000" stroke-width=".8" xlink:href="#b"/>
<text transform="rotate(-0 344.6 522.2)" x="344.603077" y="522.198437" font-family="DejaVu Sans" font-size="10px" text-anchor="middle">2004</text>
<use x="374.510769" y="507.6" stroke="#000000" stroke-width=".8" xlink:href="#b"/>
<text transform="rotate(-0 374.51 522.2)" x="374.510769" y="522.198437" font-family="DejaVu Sans" font-size="10px" text-anchor="middle">2005</text>
<use x="404.418462" y="507.6" stroke="#000000" stroke-width=".8" xlink:href="#b"/>
<text transform="rotate(-0 404.42 522.2)" x="404.418462" y="522.198437" font-family="DejaVu Sans" font-size="10px" text-anchor="middle">2006</text>
<use x="434.326154" y="507.6" stroke="#000000" stroke-width=".8" xlink:href="#b"/>
<text transform="rotate(-0 434.33 522.2)" x="434.326154" y="522.198437" font-family="DejaVu Sans" font-size="10px" text-anchor="middle">2007</text>
<use x="464.233846" y="507.6" stroke="#000000" stroke-width=".8" xlink:href="#b"/>
<text transform="rotate(-0 464.23 522.2)" x="464.233846" y="522.198437" font-family="DejaVu Sans" font-size="10px" text-anchor="middle">2008</text>
<use x="494.141538" y="507.6" stroke="#000000" stroke-width=".8" xlink:href="#b"/>
<text transform="rotate(-0 494.14 522.2)" x="494.141538" y="522.198437" font-family="DejaVu Sans" font-size="10px" text-anchor="middle">2009</text>
<use x="524.049231" y="507.6" stroke="#000000" stroke-width=".8" xlink:href="#b"/>
<text transform="rotate(-0 524.05 522.2)" x="524.049231" y="522.198437" font-family="DejaVu Sans" font-size="10px" text-anchor="middle">2010</text>
<use x="553.956923" y="507.6" stroke="#000000" stroke-width=".8" xlink:href="#b"/>
<text transform="rotate(-0 553.96 522.2)" x="553.956923" y="522.198437" font-family="DejaVu Sans" font-size="10px" text-anchor="middle">2011</text>
<use x="583.864615" y="507.6" stroke="#000000" stroke-width=".8" xlink:href="#b"/>
<text transform="rotate(-0 583.86 522.2)" x="583.864615" y="522.198437" font-family="DejaVu Sans" font-size="10px" text-anchor="middle">2012</text>
<use x="613.772308" y="507.6" stroke="#000000" stroke-width=".8" xlink:href="#b"/>
<text transform="rotate(-0 613.77 522.2)" x="613.772308" y="522.198437" font-family="DejaVu Sans" font-size="10px" text-anchor="middle">2013</text>
<use x="643.68" y="507.6" stroke="#000000" stroke-width=".8" xlink:href="#b"/>
<text transform="rotate(-0 643.68 522.2)" x="643.68" y="522.198437" font-family="DejaVu Sans" font-size="10px" text-anchor="middle">2014</text>
<use x="673.587692" y="507.6" stroke="#000000" stroke-width=".8" xlink:href="#b"/>
<text transform="rotate(-0 673.59 522.2)" x="673.587692" y="522.198437" font-family="DejaVu Sans" font-size="10px" text-anchor="middle">2015</text>
<use x="703.495385" y="507.6" stroke="#000000" stroke-width=".8" xlink:href="#b"/>
<text transform="rotate(-0 703.5 522.2)" x="703.495385" y="522.198437" font-family="DejaVu Sans" font-size="10px" text-anchor="middle">2016</text>
<use x="733.403077" y="507.6" stroke="#000000" stroke-width=".8" xlink:href="#b"/>
<text transform="rotate(-0 733.4 522.2)" x="733.403077" y="522.198437" font-family="DejaVu Sans" font-size="10px" text-anchor="middle">2017</text>
<use x="763.310769" y="507.6" stroke="#000000" stroke-width=".8" xlink:href="#b"/>
<text transform="rotate(-0 763.31 522.2)" x="763.310769" y="522.198437" font-family="DejaVu Sans" font-size="10px" text-anchor="middle">2018</text>
<use x="793.218462" y="507.6" stroke="#000000" stroke-width=".8" xlink:href="#b"/>
<text transform="rotate(-0 793.22 522.2)" x="793.218462" y="522.198437" font-family="DejaVu Sans" font-size="10px" text-anchor="middle">2019</text>
<use x="823.126154" y="507.6" stroke="#000000" stroke-width=".8" xlink:href="#b"/>
<text transform="rotate(-0 823.13 522.2)" x="823.126154" y="522.198437" font-family="DejaVu Sans" font-size="10px" text-anchor="middle">2020</text>
<text transform="rotate(-0 449.28 538.92)" x="449.28" y="538.915937" font-family="DejaVu Sans" font-size="14px" text-anchor="middle">Год</text>
<defs>
<path id="c" d="m0 0h-3.5" stroke="#000" stroke-width=".8"/>
</defs>
<use x="60.48" y="507.6" stroke="#000000" stroke-width=".8" xlink:href="#c"/>
<text transform="rotate(-0 53.48 511.4)" x="53.48" y="511.399219" font-family="DejaVu Sans" font-size="10px" text-anchor="end">0</text>
<use x="60.48" y="449.261565" stroke="#000000" stroke-width=".8" xlink:href="#c"/>
<text transform="rotate(-0 53.48 453.06)" x="53.48" y="453.060784" font-family="DejaVu Sans" font-size="10px" text-anchor="end">2000</text>
<use x="60.48" y="390.92313" stroke="#000000" stroke-width=".8" xlink:href="#c"/>
<text transform="rotate(-0 53.48 394.72)" x="53.48" y="394.722349" font-family="DejaVu Sans" font-size="10px" text-anchor="end">4000</text>
<use x="60.48" y="332.584695" stroke="#000000" stroke-width=".8" xlink:href="#c"/>
<text transform="rotate(-0 53.48 336.38)" x="53.48" y="336.383914" font-family="DejaVu Sans" font-size="10px" text-anchor="end">6000</text>
<use x="60.48" y="274.24626" stroke="#000000" stroke-width=".8" xlink:href="#c"/>
<text transform="rotate(-0 53.48 278.05)" x="53.48" y="278.045479" font-family="DejaVu Sans" font-size="10px" text-anchor="end">8000</text>
<use x="60.48" y="215.907825" stroke="#000000" stroke-width=".8" xlink:href="#c"/>
<text transform="rotate(-0 53.48 219.71)" x="53.48" y="219.707044" font-family="DejaVu Sans" font-size="10px" text-anchor="end">10000</text>
<use x="60.48" y="157.56939" stroke="#000000" stroke-width=".8" xlink:href="#c"/>
<text transform="rotate(-0 53.48 161.37)" x="53.48" y="161.368609" font-family="DejaVu Sans" font-size="10px" text-anchor="end">12000</text>
<use x="60.48" y="99.230955" stroke="#000000" stroke-width=".8" xlink:href="#c"/>
<text transform="rotate(-0 53.48 103.03)" x="53.48" y="103.030174" font-family="DejaVu Sans" font-size="10px" text-anchor="end">14000</text>
<use x="60.48" y="40.89252" stroke="#000000" stroke-width=".8" xlink:href="#c"/>
<text transform="rotate(-0 53.48 44.692)" x="53.48" y="44.691739" font-family="DejaVu Sans" font-size="10px" text-anchor="end">16000</text>
<text transform="rotate(-90 14.756 264.6)" x="14.755938" y="264.6" font-family="DejaVu Sans" font-size="14px" text-anchor="middle">Открытий СН за год</text>
<path d="m60.48 507.6v-486" fill="none" stroke="#000" stroke-linecap="square" stroke-width=".8"/>
<path d="m838.08 507.6v-486" fill="none" stroke="#000" stroke-linecap="square" stroke-width=".8"/>
<path d="m60.48 507.6h777.6" fill="none" stroke="#000" stroke-linecap="square" stroke-width=".8"/>
<path d="m60.48 21.6h777.6" fill="none" stroke="#000" stroke-linecap="square" stroke-width=".8"/>
<text transform="rotate(-0 75.434 471.81)" x="75.433846" y="471.805127" font-family="DejaVu Sans" font-size="10px" text-anchor="middle">1053</text>
<text transform="rotate(-0 105.34 499.72)" x="105.341538" y="499.720068" font-family="DejaVu Sans" font-size="10px" text-anchor="middle">96</text>
<text transform="rotate(-0 135.25 497.77)" x="135.249231" y="497.76573" font-family="DejaVu Sans" font-size="10px" text-anchor="middle">163</text>
<text transform="rotate(-0 165.16 497.79)" x="165.156923" y="497.794899" font-family="DejaVu Sans" font-size="10px" text-anchor="middle">162</text>
<text transform="rotate(-0 195.06 496.63)" x="195.064615" y="496.628131" font-family="DejaVu Sans" font-size="10px" text-anchor="middle">202</text>
<text transform="rotate(-0 224.97 496.83)" x="224.972308" y="496.832315" font-family="DejaVu Sans" font-size="10px" text-anchor="middle">195</text>
<text transform="rotate(-0 254.88 493.54)" x="254.88" y="493.536194" font-family="DejaVu Sans" font-size="10px" text-anchor="middle">308</text>
<text transform="rotate(-0 284.79 492.28)" x="284.787692" y="492.281917" font-family="DejaVu Sans" font-size="10px" text-anchor="middle">351</text>
<text transform="rotate(-0 314.7 491.58)" x="314.695385" y="491.581856" font-family="DejaVu Sans" font-size="10px" text-anchor="middle">375</text>
<text transform="rotate(-0 344.6 492.52)" x="344.603077" y="492.515271" font-family="DejaVu Sans" font-size="10px" text-anchor="middle">343</text>
<text transform="rotate(-0 374.51 491.32)" x="374.510769" y="491.319333" font-family="DejaVu Sans" font-size="10px" text-anchor="middle">384</text>
<text transform="rotate(-0 404.42 486.27)" x="404.418462" y="486.273058" font-family="DejaVu Sans" font-size="10px" text-anchor="middle">557</text>
<text transform="rotate(-0 434.33 484.87)" x="434.326154" y="484.872936" font-family="DejaVu Sans" font-size="10px" text-anchor="middle">605</text>
<text transform="rotate(-0 464.23 487.73)" x="464.233846" y="487.731519" font-family="DejaVu Sans" font-size="10px" text-anchor="middle">507</text>
<text transform="rotate(-0 494.14 486.21)" x="494.141538" y="486.21472" font-family="DejaVu Sans" font-size="10px" text-anchor="middle">559</text>
<text transform="rotate(-0 524.05 485.4)" x="524.049231" y="485.397982" font-family="DejaVu Sans" font-size="10px" text-anchor="middle">587</text>
<text transform="rotate(-0 553.96 476.12)" x="553.956923" y="476.122171" font-family="DejaVu Sans" font-size="10px" text-anchor="middle">905</text>
<text transform="rotate(-0 583.86 471.72)" x="583.864615" y="471.717619" font-family="DejaVu Sans" font-size="10px" text-anchor="middle">1056</text>
<text transform="rotate(-0 613.77 458.04)" x="613.772308" y="458.037256" font-family="DejaVu Sans" font-size="10px" text-anchor="middle">1525</text>
<text transform="rotate(-0 643.68 444.5)" x="643.68" y="444.502739" font-family="DejaVu Sans" font-size="10px" text-anchor="middle">1989</text>
<text transform="rotate(-0 673.59 401.33)" x="673.587692" y="401.332297" font-family="DejaVu Sans" font-size="10px" text-anchor="middle">3469</text>
<text transform="rotate(-0 703.5 290.37)" x="703.495385" y="290.372594" font-family="DejaVu Sans" font-size="10px" text-anchor="middle">7273</text>
<text transform="rotate(-0 733.4 276.75)" x="733.403077" y="276.750569" font-family="DejaVu Sans" font-size="10px" text-anchor="middle">7740</text>
<text transform="rotate(-0 763.31 278.15)" x="763.310769" y="278.150692" font-family="DejaVu Sans" font-size="10px" text-anchor="middle">7692</text>
<text transform="rotate(-0 793.22 39.663)" x="793.218462" y="39.66317" font-family="DejaVu Sans" font-size="10px" text-anchor="middle">15868</text>
<text transform="rotate(-0 823.13 209.75)" x="823.126154" y="209.748877" font-family="DejaVu Sans" font-size="10px" text-anchor="middle">10037</text>
<text transform="rotate(-0 449.28 15.6)" x="449.28" y="15.6" font-family="DejaVu Sans" font-size="22px" text-anchor="middle">Статистика открытий сверхновых по годам</text>
<defs>
<clipPath id="a">
<rect x="60.48" y="21.6" width="777.6" height="486"/>
</clipPath>
</defs>
</svg>
