<?xml version="1.0" encoding="UTF-8"?>
<!DOCTYPE svg  PUBLIC '-//W3C//DTD SVG 1.1//EN'  'http://www.w3.org/Graphics/SVG/1.1/DTD/svg11.dtd'>
<svg width="936pt" height="684pt" version="1.1" viewBox="0 0 936 684" xmlns="http://www.w3.org/2000/svg" xmlns:xlink="http://www.w3.org/1999/xlink">
<defs>
<style type="text/css">*{stroke-linecap:butt;stroke-linejoin:round;}</style>
</defs>
<path d="m0 684h936v-684h-936z" fill="#fff"/>
<path d="m65.52 642.96h842.4v-615.6h-842.4z" fill="#fff"/>
<path d="m74.295 642.96h27.123v-27.723h-27.123z" clip-path="url(#a)" fill="#1f77b4"/>
<path d="m106.2 642.96h27.123v-2.6579h-27.123z" clip-path="url(#a)" fill="#1f77b4"/>
<path d="m138.11 642.96h27.123v-5.1681h-27.123z" clip-path="url(#a)" fill="#1f77b4"/>
<path d="m170.02 642.96h27.123v-5.2419h-27.123z" clip-path="url(#a)" fill="#1f77b4"/>
<path d="m201.93 642.96h27.123v-5.0943h-27.123z" clip-path="url(#a)" fill="#1f77b4"/>
<path d="m233.84 642.96h27.123v-4.5406h-27.123z" clip-path="url(#a)" fill="#1f77b4"/>
<path d="m265.75 642.96h27.123v-7.9367h-27.123z" clip-path="url(#a)" fill="#1f77b4"/>
<path d="m297.66 642.96h27.123v-9.118h-27.123z" clip-path="url(#a)" fill="#1f77b4"/>
<path d="m329.57 642.96h27.123v-9.0811h-27.123z" clip-path="url(#a)" fill="#1f77b4"/>
<path d="m361.48 642.96h27.123v-7.5676h-27.123z" clip-path="url(#a)" fill="#1f77b4"/>
<path d="m393.39 642.96h27.123v-9.2657h-27.123z" clip-path="url(#a)" fill="#1f77b4"/>
<path d="m425.3 642.96h27.123v-15.615h-27.123z" clip-path="url(#a)" fill="#1f77b4"/>
<path d="m457.2 642.96h27.123v-18.162h-27.123z" clip-path="url(#a)" fill="#1f77b4"/>
<path d="m489.11 642.96h27.123v-13.622h-27.123z" clip-path="url(#a)" fill="#1f77b4"/>
<path d="m521.02 642.96h27.123v-15.246h-27.123z" clip-path="url(#a)" fill="#1f77b4"/>
<path d="m552.93 642.96h27.123v-16.058h-27.123z" clip-path="url(#a)" fill="#1f77b4"/>
<path d="m584.84 642.96h27.123v-27.206h-27.123z" clip-path="url(#a)" fill="#1f77b4"/>
<path d="m616.75 642.96h27.123v-32.707h-27.123z" clip-path="url(#a)" fill="#1f77b4"/>
<path d="m648.66 642.96h27.123v-48.876h-27.123z" clip-path="url(#a)" fill="#1f77b4"/>
<path d="m680.57 642.96h27.123v-66.927h-27.123z" clip-path="url(#a)" fill="#1f77b4"/>
<path d="m712.48 642.96h27.123v-120.86h-27.123z" clip-path="url(#a)" fill="#1f77b4"/>
<path d="m744.39 642.96h27.123v-259.29h-27.123z" clip-path="url(#a)" fill="#1f77b4"/>
<path d="m776.3 642.96h27.123v-277.64h-27.123z" clip-path="url(#a)" fill="#1f77b4"/>
<path d="m808.2 642.96h27.123v-278.82h-27.123z" clip-path="url(#a)" fill="#1f77b4"/>
<path d="m840.11 642.96h27.123v-581.75h-27.123z" clip-path="url(#a)" fill="#1f77b4"/>
<path d="m872.02 642.96h27.123v-442.69h-27.123z" clip-path="url(#a)" fill="#1f77b4"/>
<path d="m74.295 615.24h27.123v-11.148h-27.123z" clip-path="url(#a)" fill="#ff7f0e"/>
<path d="m106.2 640.3h27.123v-0.88596h-27.123z" clip-path="url(#a)" fill="#ff7f0e"/>
<path d="m138.11 637.79h27.123v-0.84905h-27.123z" clip-path="url(#a)" fill="#ff7f0e"/>
<path d="m170.02 637.72h27.123v-0.7383h-27.123z" clip-path="url(#a)" fill="#ff7f0e"/>
<path d="m201.93 637.87h27.123v-2.3626h-27.123z" clip-path="url(#a)" fill="#ff7f0e"/>
<path d="m233.84 638.42h27.123v-2.6579h-27.123z" clip-path="url(#a)" fill="#ff7f0e"/>
<path d="m265.75 635.02h27.123v-3.4331h-27.123z" clip-path="url(#a)" fill="#ff7f0e"/>
<path d="m297.66 633.84h27.123v-3.8392h-27.123z" clip-path="url(#a)" fill="#ff7f0e"/>
<path d="m329.57 633.88h27.123v-4.762h-27.123z" clip-path="url(#a)" fill="#ff7f0e"/>
<path d="m361.48 635.39h27.123v-5.0943h-27.123z" clip-path="url(#a)" fill="#ff7f0e"/>
<path d="m393.39 633.69h27.123v-4.9097h-27.123z" clip-path="url(#a)" fill="#ff7f0e"/>
<path d="m425.3 627.34h27.123v-4.9466h-27.123z" clip-path="url(#a)" fill="#ff7f0e"/>
<path d="m457.2 624.8h27.123v-4.1714h-27.123z" clip-path="url(#a)" fill="#ff7f0e"/>
<path d="m489.11 629.34h27.123v-5.0943h-27.123z" clip-path="url(#a)" fill="#ff7f0e"/>
<path d="m521.02 627.71h27.123v-5.3896h-27.123z" clip-path="url(#a)" fill="#ff7f0e"/>
<path d="m552.93 626.9h27.123v-5.6111h-27.123z" clip-path="url(#a)" fill="#ff7f0e"/>
<path d="m584.84 615.75h27.123v-6.2017h-27.123z" clip-path="url(#a)" fill="#ff7f0e"/>
<path d="m616.75 610.25h27.123v-6.2756h-27.123z" clip-path="url(#a)" fill="#ff7f0e"/>
<path d="m648.66 594.08h27.123v-7.5676h-27.123z" clip-path="url(#a)" fill="#ff7f0e"/>
<path d="m680.57 576.03h27.123v-6.534h-27.123z" clip-path="url(#a)" fill="#ff7f0e"/>
<path d="m712.48 522.1h27.123v-7.1984h-27.123z" clip-path="url(#a)" fill="#ff7f0e"/>
<path d="m744.39 383.67h27.123v-9.0073h-27.123z" clip-path="url(#a)" fill="#ff7f0e"/>
<path d="m776.3 365.32h27.123v-8.1582h-27.123z" clip-path="url(#a)" fill="#ff7f0e"/>
<path d="m808.2 364.14h27.123v-5.4265h-27.123z" clip-path="url(#a)" fill="#ff7f0e"/>
<path d="m840.11 61.215h27.123v-4.5406h-27.123z" clip-path="url(#a)" fill="#ff7f0e"/>
<path d="m872.02 200.27h27.123v-2.7686h-27.123z" clip-path="url(#a)" fill="#ff7f0e"/>
<defs>
<path id="b" d="m0 0v3.5" stroke="#000" stroke-width=".8"/>
</defs>
<use x="87.856364" y="642.96" stroke="#000000" stroke-width=".8" xlink:href="#b"/>
<text transform="rotate(-0 87.856 657.56)" x="87.856364" y="657.558437" font-family="DejaVu Sans" font-size="10px" text-anchor="middle">до 1996</text>
<use x="119.765455" y="642.96" stroke="#000000" stroke-width=".8" xlink:href="#b"/>
<text transform="rotate(-0 119.77 657.56)" x="119.765455" y="657.558437" font-family="DejaVu Sans" font-size="10px" text-anchor="middle">1996</text>
<use x="151.674545" y="642.96" stroke="#000000" stroke-width=".8" xlink:href="#b"/>
<text transform="rotate(-0 151.67 657.56)" x="151.674545" y="657.558437" font-family="DejaVu Sans" font-size="10px" text-anchor="middle">1997</text>
<use x="183.583636" y="642.96" stroke="#000000" stroke-width=".8" xlink:href="#b"/>
<text transform="rotate(-0 183.58 657.56)" x="183.583636" y="657.558437" font-family="DejaVu Sans" font-size="10px" text-anchor="middle">1998</text>
<use x="215.492727" y="642.96" stroke="#000000" stroke-width=".8" xlink:href="#b"/>
<text transform="rotate(-0 215.49 657.56)" x="215.492727" y="657.558437" font-family="DejaVu Sans" font-size="10px" text-anchor="middle">1999</text>
<use x="247.401818" y="642.96" stroke="#000000" stroke-width=".8" xlink:href="#b"/>
<text transform="rotate(-0 247.4 657.56)" x="247.401818" y="657.558437" font-family="DejaVu Sans" font-size="10px" text-anchor="middle">2000</text>
<use x="279.310909" y="642.96" stroke="#000000" stroke-width=".8" xlink:href="#b"/>
<text transform="rotate(-0 279.31 657.56)" x="279.310909" y="657.558437" font-family="DejaVu Sans" font-size="10px" text-anchor="middle">2001</text>
<use x="311.22" y="642.96" stroke="#000000" stroke-width=".8" xlink:href="#b"/>
<text transform="rotate(-0 311.22 657.56)" x="311.22" y="657.558437" font-family="DejaVu Sans" font-size="10px" text-anchor="middle">2002</text>
<use x="343.129091" y="642.96" stroke="#000000" stroke-width=".8" xlink:href="#b"/>
<text transform="rotate(-0 343.13 657.56)" x="343.129091" y="657.558437" font-family="DejaVu Sans" font-size="10px" text-anchor="middle">2003</text>
<use x="375.038182" y="642.96" stroke="#000000" stroke-width=".8" xlink:href="#b"/>
<text transform="rotate(-0 375.04 657.56)" x="375.038182" y="657.558437" font-family="DejaVu Sans" font-size="10px" text-anchor="middle">2004</text>
<use x="406.947273" y="642.96" stroke="#000000" stroke-width=".8" xlink:href="#b"/>
<text transform="rotate(-0 406.95 657.56)" x="406.947273" y="657.558437" font-family="DejaVu Sans" font-size="10px" text-anchor="middle">2005</text>
<use x="438.856364" y="642.96" stroke="#000000" stroke-width=".8" xlink:href="#b"/>
<text transform="rotate(-0 438.86 657.56)" x="438.856364" y="657.558437" font-family="DejaVu Sans" font-size="10px" text-anchor="middle">2006</text>
<use x="470.765455" y="642.96" stroke="#000000" stroke-width=".8" xlink:href="#b"/>
<text transform="rotate(-0 470.77 657.56)" x="470.765455" y="657.558437" font-family="DejaVu Sans" font-size="10px" text-anchor="middle">2007</text>
<use x="502.674545" y="642.96" stroke="#000000" stroke-width=".8" xlink:href="#b"/>
<text transform="rotate(-0 502.67 657.56)" x="502.674545" y="657.558437" font-family="DejaVu Sans" font-size="10px" text-anchor="middle">2008</text>
<use x="534.583636" y="642.96" stroke="#000000" stroke-width=".8" xlink:href="#b"/>
<text transform="rotate(-0 534.58 657.56)" x="534.583636" y="657.558437" font-family="DejaVu Sans" font-size="10px" text-anchor="middle">2009</text>
<use x="566.492727" y="642.96" stroke="#000000" stroke-width=".8" xlink:href="#b"/>
<text transform="rotate(-0 566.49 657.56)" x="566.492727" y="657.558437" font-family="DejaVu Sans" font-size="10px" text-anchor="middle">2010</text>
<use x="598.401818" y="642.96" stroke="#000000" stroke-width=".8" xlink:href="#b"/>
<text transform="rotate(-0 598.4 657.56)" x="598.401818" y="657.558437" font-family="DejaVu Sans" font-size="10px" text-anchor="middle">2011</text>
<use x="630.310909" y="642.96" stroke="#000000" stroke-width=".8" xlink:href="#b"/>
<text transform="rotate(-0 630.31 657.56)" x="630.310909" y="657.558437" font-family="DejaVu Sans" font-size="10px" text-anchor="middle">2012</text>
<use x="662.22" y="642.96" stroke="#000000" stroke-width=".8" xlink:href="#b"/>
<text transform="rotate(-0 662.22 657.56)" x="662.22" y="657.558437" font-family="DejaVu Sans" font-size="10px" text-anchor="middle">2013</text>
<use x="694.129091" y="642.96" stroke="#000000" stroke-width=".8" xlink:href="#b"/>
<text transform="rotate(-0 694.13 657.56)" x="694.129091" y="657.558437" font-family="DejaVu Sans" font-size="10px" text-anchor="middle">2014</text>
<use x="726.038182" y="642.96" stroke="#000000" stroke-width=".8" xlink:href="#b"/>
<text transform="rotate(-0 726.04 657.56)" x="726.038182" y="657.558437" font-family="DejaVu Sans" font-size="10px" text-anchor="middle">2015</text>
<use x="757.947273" y="642.96" stroke="#000000" stroke-width=".8" xlink:href="#b"/>
<text transform="rotate(-0 757.95 657.56)" x="757.947273" y="657.558437" font-family="DejaVu Sans" font-size="10px" text-anchor="middle">2016</text>
<use x="789.856364" y="642.96" stroke="#000000" stroke-width=".8" xlink:href="#b"/>
<text transform="rotate(-0 789.86 657.56)" x="789.856364" y="657.558437" font-family="DejaVu Sans" font-size="10px" text-anchor="middle">2017</text>
<use x="821.765455" y="642.96" stroke="#000000" stroke-width=".8" xlink:href="#b"/>
<text transform="rotate(-0 821.77 657.56)" x="821.765455" y="657.558437" font-family="DejaVu Sans" font-size="10px" text-anchor="middle">2018</text>
<use x="853.674545" y="642.96" stroke="#000000" stroke-width=".8" xlink:href="#b"/>
<text transform="rotate(-0 853.67 657.56)" x="853.674545" y="657.558437" font-family="DejaVu Sans" font-size="10px" text-anchor="middle">2019</text>
<use x="885.583636" y="642.96" stroke="#000000" stroke-width=".8" xlink:href="#b"/>
<text transform="rotate(-0 885.58 657.56)" x="885.583636" y="657.558437" font-family="DejaVu Sans" font-size="10px" text-anchor="middle">2020</text>
<text transform="rotate(-0 486.72 674.28)" x="486.72" y="674.275937" font-family="DejaVu Sans" font-size="14px" text-anchor="middle">Год</text>
<defs>
<path id="c" d="m0 0h-3.5" stroke="#000" stroke-width=".8"/>
</defs>
<use x="65.52" y="642.96" stroke="#000000" stroke-width=".8" xlink:href="#c"/>
<text transform="rotate(-0 58.52 646.76)" x="58.52" y="646.759219" font-family="DejaVu Sans" font-size="10px" text-anchor="end">0</text>
<use x="65.52" y="569.129788" stroke="#000000" stroke-width=".8" xlink:href="#c"/>
<text transform="rotate(-0 58.52 572.93)" x="58.52" y="572.929007" font-family="DejaVu Sans" font-size="10px" text-anchor="end">2000</text>
<use x="65.52" y="495.299576" stroke="#000000" stroke-width=".8" xlink:href="#c"/>
<text transform="rotate(-0 58.52 499.1)" x="58.52" y="499.098795" font-family="DejaVu Sans" font-size="10px" text-anchor="end">4000</text>
<use x="65.52" y="421.469364" stroke="#000000" stroke-width=".8" xlink:href="#c"/>
<text transform="rotate(-0 58.52 425.27)" x="58.52" y="425.268582" font-family="DejaVu Sans" font-size="10px" text-anchor="end">6000</text>
<use x="65.52" y="347.639152" stroke="#000000" stroke-width=".8" xlink:href="#c"/>
<text transform="rotate(-0 58.52 351.44)" x="58.52" y="351.43837" font-family="DejaVu Sans" font-size="10px" text-anchor="end">8000</text>
<use x="65.52" y="273.80894" stroke="#000000" stroke-width=".8" xlink:href="#c"/>
<text transform="rotate(-0 58.52 277.61)" x="58.52" y="277.608158" font-family="DejaVu Sans" font-size="10px" text-anchor="end">10000</text>
<use x="65.52" y="199.978727" stroke="#000000" stroke-width=".8" xlink:href="#c"/>
<text transform="rotate(-0 58.52 203.78)" x="58.52" y="203.777946" font-family="DejaVu Sans" font-size="10px" text-anchor="end">12000</text>
<use x="65.52" y="126.148515" stroke="#000000" stroke-width=".8" xlink:href="#c"/>
<text transform="rotate(-0 58.52 129.95)" x="58.52" y="129.947734" font-family="DejaVu Sans" font-size="10px" text-anchor="end">14000</text>
<use x="65.52" y="52.318303" stroke="#000000" stroke-width=".8" xlink:href="#c"/>
<text transform="rotate(-0 58.52 56.118)" x="58.52" y="56.117522" font-family="DejaVu Sans" font-size="10px" text-anchor="end">16000</text>
<text transform="rotate(-90 19.796 335.16)" x="19.795938" y="335.16" font-family="DejaVu Sans" font-size="14px" text-anchor="middle">Открытий СН за год</text>
<path d="m65.52 642.96v-615.6" fill="none" stroke="#000" stroke-linecap="square" stroke-width=".8"/>
<path d="m907.92 642.96v-615.6" fill="none" stroke="#000" stroke-linecap="square" stroke-width=".8"/>
<path d="m65.52 642.96h842.4" fill="none" stroke="#000" stroke-linecap="square" stroke-width=".8"/>
<path d="m65.52 27.36h842.4" fill="none" stroke="#000" stroke-linecap="square" stroke-width=".8"/>
<text transform="rotate(-0 87.856 599.09)" x="87.856364" y="599.088393" font-family="DejaVu Sans" font-size="10px" text-anchor="middle">1053</text>
<text transform="rotate(-0 119.77 634.42)" x="119.765455" y="634.41615" font-family="DejaVu Sans" font-size="10px" text-anchor="middle">96</text>
<text transform="rotate(-0 151.67 631.94)" x="151.674545" y="631.942838" font-family="DejaVu Sans" font-size="10px" text-anchor="middle">163</text>
<text transform="rotate(-0 183.58 631.98)" x="183.583636" y="631.979753" font-family="DejaVu Sans" font-size="10px" text-anchor="middle">162</text>
<text transform="rotate(-0 215.49 630.5)" x="215.492727" y="630.503149" font-family="DejaVu Sans" font-size="10px" text-anchor="middle">202</text>
<text transform="rotate(-0 247.4 630.76)" x="247.401818" y="630.761554" font-family="DejaVu Sans" font-size="10px" text-anchor="middle">195</text>
<text transform="rotate(-0 279.31 626.59)" x="279.310909" y="626.590147" font-family="DejaVu Sans" font-size="10px" text-anchor="middle">308</text>
<text transform="rotate(-0 311.22 625)" x="311.22" y="625.002798" font-family="DejaVu Sans" font-size="10px" text-anchor="middle">351</text>
<text transform="rotate(-0 343.13 624.12)" x="343.129091" y="624.116835" font-family="DejaVu Sans" font-size="10px" text-anchor="middle">375</text>
<text transform="rotate(-0 375.04 625.3)" x="375.038182" y="625.298119" font-family="DejaVu Sans" font-size="10px" text-anchor="middle">343</text>
<text transform="rotate(-0 406.95 623.78)" x="406.947273" y="623.784599" font-family="DejaVu Sans" font-size="10px" text-anchor="middle">384</text>
<text transform="rotate(-0 438.86 617.4)" x="438.856364" y="617.398286" font-family="DejaVu Sans" font-size="10px" text-anchor="middle">557</text>
<text transform="rotate(-0 470.77 615.63)" x="470.765455" y="615.626361" font-family="DejaVu Sans" font-size="10px" text-anchor="middle">605</text>
<text transform="rotate(-0 502.67 619.24)" x="502.674545" y="619.244041" font-family="DejaVu Sans" font-size="10px" text-anchor="middle">507</text>
<text transform="rotate(-0 534.58 617.32)" x="534.583636" y="617.324456" font-family="DejaVu Sans" font-size="10px" text-anchor="middle">559</text>
<text transform="rotate(-0 566.49 616.29)" x="566.492727" y="616.290833" font-family="DejaVu Sans" font-size="10px" text-anchor="middle">587</text>
<text transform="rotate(-0 598.4 604.55)" x="598.401818" y="604.551829" font-family="DejaVu Sans" font-size="10px" text-anchor="middle">905</text>
<text transform="rotate(-0 630.31 598.98)" x="630.310909" y="598.977648" font-family="DejaVu Sans" font-size="10px" text-anchor="middle">1056</text>
<text transform="rotate(-0 662.22 581.52)" x="662.22" y="581.516803" font-family="DejaVu Sans" font-size="10px" text-anchor="middle">1529</text>
<text transform="rotate(-0 694.13 564.5)" x="694.129091" y="564.498939" font-family="DejaVu Sans" font-size="10px" text-anchor="middle">1990</text>
<text transform="rotate(-0 726.04 509.9)" x="726.038182" y="509.901497" font-family="DejaVu Sans" font-size="10px" text-anchor="middle">3469</text>
<text transform="rotate(-0 757.95 369.66)" x="757.947273" y="369.661009" font-family="DejaVu Sans" font-size="10px" text-anchor="middle">7268</text>
<text transform="rotate(-0 789.86 352.16)" x="789.856364" y="352.163249" font-family="DejaVu Sans" font-size="10px" text-anchor="middle">7742</text>
<text transform="rotate(-0 821.77 353.71)" x="821.765455" y="353.713683" font-family="DejaVu Sans" font-size="10px" text-anchor="middle">7700</text>
<text transform="rotate(-0 853.67 51.674)" x="853.674545" y="51.674286" font-family="DejaVu Sans" font-size="10px" text-anchor="middle">15882</text>
<text transform="rotate(-0 885.58 192.51)" x="885.583636" y="192.505415" font-family="DejaVu Sans" font-size="10px" text-anchor="middle">12067</text>
<text transform="rotate(-0 486.72 21.36)" x="486.72" y="21.36" font-family="DejaVu Sans" font-size="22px" text-anchor="middle">Статистика открытий сверхновых по годам</text>
<defs>
<clipPath id="a">
<rect x="65.52" y="27.36" width="842.4" height="615.6"/>
</clipPath>
</defs>
</svg>
