<?xml version="1.0" encoding="UTF-8"?>
<!DOCTYPE svg  PUBLIC '-//W3C//DTD SVG 1.1//EN'  'http://www.w3.org/Graphics/SVG/1.1/DTD/svg11.dtd'>
<svg width="936pt" height="684pt" version="1.1" viewBox="0 0 936 684" xmlns="http://www.w3.org/2000/svg" xmlns:xlink="http://www.w3.org/1999/xlink">
<defs>
<style type="text/css">*{stroke-linecap:butt;stroke-linejoin:round;}</style>
</defs>
<path d="m0 684h936v-684h-936z" fill="#fff"/>
<path d="m65.52 642.96h842.4v-615.6h-842.4z" fill="#fff"/>
<path d="m73.975 642.96h26.133v-21.537h-26.133z" clip-path="url(#a)" fill="#1f77b4"/>
<path d="m104.72 642.96h26.133v-2.0648h-26.133z" clip-path="url(#a)" fill="#1f77b4"/>
<path d="m135.46 642.96h26.133v-4.0149h-26.133z" clip-path="url(#a)" fill="#1f77b4"/>
<path d="m166.21 642.96h26.133v-4.0722h-26.133z" clip-path="url(#a)" fill="#1f77b4"/>
<path d="m196.95 642.96h26.133v-3.9575h-26.133z" clip-path="url(#a)" fill="#1f77b4"/>
<path d="m227.7 642.96h26.133v-3.5274h-26.133z" clip-path="url(#a)" fill="#1f77b4"/>
<path d="m258.44 642.96h26.133v-6.1657h-26.133z" clip-path="url(#a)" fill="#1f77b4"/>
<path d="m289.19 642.96h26.133v-7.0834h-26.133z" clip-path="url(#a)" fill="#1f77b4"/>
<path d="m319.93 642.96h26.133v-7.0547h-26.133z" clip-path="url(#a)" fill="#1f77b4"/>
<path d="m350.68 642.96h26.133v-5.8789h-26.133z" clip-path="url(#a)" fill="#1f77b4"/>
<path d="m381.42 642.96h26.133v-7.1981h-26.133z" clip-path="url(#a)" fill="#1f77b4"/>
<path d="m412.16 642.96h26.133v-12.131h-26.133z" clip-path="url(#a)" fill="#1f77b4"/>
<path d="m442.91 642.96h26.133v-14.109h-26.133z" clip-path="url(#a)" fill="#1f77b4"/>
<path d="m473.65 642.96h26.133v-10.582h-26.133z" clip-path="url(#a)" fill="#1f77b4"/>
<path d="m504.4 642.96h26.133v-11.844h-26.133z" clip-path="url(#a)" fill="#1f77b4"/>
<path d="m535.14 642.96h26.133v-12.503h-26.133z" clip-path="url(#a)" fill="#1f77b4"/>
<path d="m565.89 642.96h26.133v-21.164h-26.133z" clip-path="url(#a)" fill="#1f77b4"/>
<path d="m596.63 642.96h26.133v-25.408h-26.133z" clip-path="url(#a)" fill="#1f77b4"/>
<path d="m627.38 642.96h26.133v-38.313h-26.133z" clip-path="url(#a)" fill="#1f77b4"/>
<path d="m658.12 642.96h26.133v-52.079h-26.133z" clip-path="url(#a)" fill="#1f77b4"/>
<path d="m688.87 642.96h26.133v-94.206h-26.133z" clip-path="url(#a)" fill="#1f77b4"/>
<path d="m719.61 642.96h26.133v-201.6h-26.133z" clip-path="url(#a)" fill="#1f77b4"/>
<path d="m750.35 642.96h26.133v-216.34h-26.133z" clip-path="url(#a)" fill="#1f77b4"/>
<path d="m781.1 642.96h26.133v-220.62h-26.133z" clip-path="url(#a)" fill="#1f77b4"/>
<path d="m811.84 642.96h26.133v-455.72h-26.133z" clip-path="url(#a)" fill="#1f77b4"/>
<path d="m842.59 642.96h26.133v-549.32h-26.133z" clip-path="url(#a)" fill="#1f77b4"/>
<path d="m873.33 642.96h26.133v-572.46h-26.133z" clip-path="url(#a)" fill="#1f77b4"/>
<path d="m73.975 621.42h26.133v-9.0048h-26.133z" clip-path="url(#a)" fill="#ff7f0e"/>
<path d="m104.72 640.9h26.133v-0.68826h-26.133z" clip-path="url(#a)" fill="#ff7f0e"/>
<path d="m135.46 638.95h26.133v-0.65959h-26.133z" clip-path="url(#a)" fill="#ff7f0e"/>
<path d="m166.21 638.89h26.133v-0.57355h-26.133z" clip-path="url(#a)" fill="#ff7f0e"/>
<path d="m196.95 639h26.133v-1.8354h-26.133z" clip-path="url(#a)" fill="#ff7f0e"/>
<path d="m227.7 639.43h26.133v-2.0935h-26.133z" clip-path="url(#a)" fill="#ff7f0e"/>
<path d="m258.44 636.79h26.133v-2.667h-26.133z" clip-path="url(#a)" fill="#ff7f0e"/>
<path d="m289.19 635.88h26.133v-3.0112h-26.133z" clip-path="url(#a)" fill="#ff7f0e"/>
<path d="m319.93 635.91h26.133v-3.6994h-26.133z" clip-path="url(#a)" fill="#ff7f0e"/>
<path d="m350.68 637.08h26.133v-3.9575h-26.133z" clip-path="url(#a)" fill="#ff7f0e"/>
<path d="m381.42 635.76h26.133v-3.8141h-26.133z" clip-path="url(#a)" fill="#ff7f0e"/>
<path d="m412.16 630.83h26.133v-3.8428h-26.133z" clip-path="url(#a)" fill="#ff7f0e"/>
<path d="m442.91 628.85h26.133v-3.2406h-26.133z" clip-path="url(#a)" fill="#ff7f0e"/>
<path d="m473.65 632.38h26.133v-3.9575h-26.133z" clip-path="url(#a)" fill="#ff7f0e"/>
<path d="m504.4 631.12h26.133v-4.1869h-26.133z" clip-path="url(#a)" fill="#ff7f0e"/>
<path d="m535.14 630.46h26.133v-4.3877h-26.133z" clip-path="url(#a)" fill="#ff7f0e"/>
<path d="m565.89 621.8h26.133v-4.8178h-26.133z" clip-path="url(#a)" fill="#ff7f0e"/>
<path d="m596.63 617.55h26.133v-4.9326h-26.133z" clip-path="url(#a)" fill="#ff7f0e"/>
<path d="m627.38 604.65h26.133v-6.0223h-26.133z" clip-path="url(#a)" fill="#ff7f0e"/>
<path d="m658.12 590.88h26.133v-5.6208h-26.133z" clip-path="url(#a)" fill="#ff7f0e"/>
<path d="m688.87 548.75h26.133v-6.5959h-26.133z" clip-path="url(#a)" fill="#ff7f0e"/>
<path d="m719.61 441.36h26.133v-7.4849h-26.133z" clip-path="url(#a)" fill="#ff7f0e"/>
<path d="m750.35 426.62h26.133v-6.8826h-26.133z" clip-path="url(#a)" fill="#ff7f0e"/>
<path d="m781.1 422.34h26.133v-4.3016h-26.133z" clip-path="url(#a)" fill="#ff7f0e"/>
<path d="m811.84 187.24h26.133v-3.9002h-26.133z" clip-path="url(#a)" fill="#ff7f0e"/>
<path d="m842.59 93.64h26.133v-3.6707h-26.133z" clip-path="url(#a)" fill="#ff7f0e"/>
<path d="m873.33 70.497h26.133v-13.823h-26.133z" clip-path="url(#a)" fill="#ff7f0e"/>
<defs>
<path id="b" d="m0 0v3.5" stroke="#000" stroke-width=".8"/>
</defs>
<use x="87.041168" y="642.96" stroke="#000000" stroke-width=".8" xlink:href="#b"/>
<text transform="rotate(-0 87.041 657.56)" x="87.041168" y="657.558437" font-family="DejaVu Sans" font-size="10px" text-anchor="middle">до 1996</text>
<use x="117.785693" y="642.96" stroke="#000000" stroke-width=".8" xlink:href="#b"/>
<text transform="rotate(-0 117.79 657.56)" x="117.785693" y="657.558437" font-family="DejaVu Sans" font-size="10px" text-anchor="middle">1996</text>
<use x="148.530219" y="642.96" stroke="#000000" stroke-width=".8" xlink:href="#b"/>
<text transform="rotate(-0 148.53 657.56)" x="148.530219" y="657.558437" font-family="DejaVu Sans" font-size="10px" text-anchor="middle">1997</text>
<use x="179.274745" y="642.96" stroke="#000000" stroke-width=".8" xlink:href="#b"/>
<text transform="rotate(-0 179.27 657.56)" x="179.274745" y="657.558437" font-family="DejaVu Sans" font-size="10px" text-anchor="middle">1998</text>
<use x="210.01927" y="642.96" stroke="#000000" stroke-width=".8" xlink:href="#b"/>
<text transform="rotate(-0 210.02 657.56)" x="210.01927" y="657.558437" font-family="DejaVu Sans" font-size="10px" text-anchor="middle">1999</text>
<use x="240.763796" y="642.96" stroke="#000000" stroke-width=".8" xlink:href="#b"/>
<text transform="rotate(-0 240.76 657.56)" x="240.763796" y="657.558437" font-family="DejaVu Sans" font-size="10px" text-anchor="middle">2000</text>
<use x="271.508321" y="642.96" stroke="#000000" stroke-width=".8" xlink:href="#b"/>
<text transform="rotate(-0 271.51 657.56)" x="271.508321" y="657.558437" font-family="DejaVu Sans" font-size="10px" text-anchor="middle">2001</text>
<use x="302.252847" y="642.96" stroke="#000000" stroke-width=".8" xlink:href="#b"/>
<text transform="rotate(-0 302.25 657.56)" x="302.252847" y="657.558437" font-family="DejaVu Sans" font-size="10px" text-anchor="middle">2002</text>
<use x="332.997372" y="642.96" stroke="#000000" stroke-width=".8" xlink:href="#b"/>
<text transform="rotate(-0 333 657.56)" x="332.997372" y="657.558437" font-family="DejaVu Sans" font-size="10px" text-anchor="middle">2003</text>
<use x="363.741898" y="642.96" stroke="#000000" stroke-width=".8" xlink:href="#b"/>
<text transform="rotate(-0 363.74 657.56)" x="363.741898" y="657.558437" font-family="DejaVu Sans" font-size="10px" text-anchor="middle">2004</text>
<use x="394.486423" y="642.96" stroke="#000000" stroke-width=".8" xlink:href="#b"/>
<text transform="rotate(-0 394.49 657.56)" x="394.486423" y="657.558437" font-family="DejaVu Sans" font-size="10px" text-anchor="middle">2005</text>
<use x="425.230949" y="642.96" stroke="#000000" stroke-width=".8" xlink:href="#b"/>
<text transform="rotate(-0 425.23 657.56)" x="425.230949" y="657.558437" font-family="DejaVu Sans" font-size="10px" text-anchor="middle">2006</text>
<use x="455.975474" y="642.96" stroke="#000000" stroke-width=".8" xlink:href="#b"/>
<text transform="rotate(-0 455.98 657.56)" x="455.975474" y="657.558437" font-family="DejaVu Sans" font-size="10px" text-anchor="middle">2007</text>
<use x="486.72" y="642.96" stroke="#000000" stroke-width=".8" xlink:href="#b"/>
<text transform="rotate(-0 486.72 657.56)" x="486.72" y="657.558437" font-family="DejaVu Sans" font-size="10px" text-anchor="middle">2008</text>
<use x="517.464526" y="642.96" stroke="#000000" stroke-width=".8" xlink:href="#b"/>
<text transform="rotate(-0 517.46 657.56)" x="517.464526" y="657.558437" font-family="DejaVu Sans" font-size="10px" text-anchor="middle">2009</text>
<use x="548.209051" y="642.96" stroke="#000000" stroke-width=".8" xlink:href="#b"/>
<text transform="rotate(-0 548.21 657.56)" x="548.209051" y="657.558437" font-family="DejaVu Sans" font-size="10px" text-anchor="middle">2010</text>
<use x="578.953577" y="642.96" stroke="#000000" stroke-width=".8" xlink:href="#b"/>
<text transform="rotate(-0 578.95 657.56)" x="578.953577" y="657.558437" font-family="DejaVu Sans" font-size="10px" text-anchor="middle">2011</text>
<use x="609.698102" y="642.96" stroke="#000000" stroke-width=".8" xlink:href="#b"/>
<text transform="rotate(-0 609.7 657.56)" x="609.698102" y="657.558437" font-family="DejaVu Sans" font-size="10px" text-anchor="middle">2012</text>
<use x="640.442628" y="642.96" stroke="#000000" stroke-width=".8" xlink:href="#b"/>
<text transform="rotate(-0 640.44 657.56)" x="640.442628" y="657.558437" font-family="DejaVu Sans" font-size="10px" text-anchor="middle">2013</text>
<use x="671.187153" y="642.96" stroke="#000000" stroke-width=".8" xlink:href="#b"/>
<text transform="rotate(-0 671.19 657.56)" x="671.187153" y="657.558437" font-family="DejaVu Sans" font-size="10px" text-anchor="middle">2014</text>
<use x="701.931679" y="642.96" stroke="#000000" stroke-width=".8" xlink:href="#b"/>
<text transform="rotate(-0 701.93 657.56)" x="701.931679" y="657.558437" font-family="DejaVu Sans" font-size="10px" text-anchor="middle">2015</text>
<use x="732.676204" y="642.96" stroke="#000000" stroke-width=".8" xlink:href="#b"/>
<text transform="rotate(-0 732.68 657.56)" x="732.676204" y="657.558437" font-family="DejaVu Sans" font-size="10px" text-anchor="middle">2016</text>
<use x="763.42073" y="642.96" stroke="#000000" stroke-width=".8" xlink:href="#b"/>
<text transform="rotate(-0 763.42 657.56)" x="763.42073" y="657.558437" font-family="DejaVu Sans" font-size="10px" text-anchor="middle">2017</text>
<use x="794.165255" y="642.96" stroke="#000000" stroke-width=".8" xlink:href="#b"/>
<text transform="rotate(-0 794.17 657.56)" x="794.165255" y="657.558437" font-family="DejaVu Sans" font-size="10px" text-anchor="middle">2018</text>
<use x="824.909781" y="642.96" stroke="#000000" stroke-width=".8" xlink:href="#b"/>
<text transform="rotate(-0 824.91 657.56)" x="824.909781" y="657.558437" font-family="DejaVu Sans" font-size="10px" text-anchor="middle">2019</text>
<use x="855.654307" y="642.96" stroke="#000000" stroke-width=".8" xlink:href="#b"/>
<text transform="rotate(-0 855.65 657.56)" x="855.654307" y="657.558437" font-family="DejaVu Sans" font-size="10px" text-anchor="middle">2020</text>
<use x="886.398832" y="642.96" stroke="#000000" stroke-width=".8" xlink:href="#b"/>
<text transform="rotate(-0 886.4 657.56)" x="886.398832" y="657.558437" font-family="DejaVu Sans" font-size="10px" text-anchor="middle">2021</text>
<text transform="rotate(-0 486.72 674.28)" x="486.72" y="674.275937" font-family="DejaVu Sans" font-size="14px" text-anchor="middle">Год</text>
<defs>
<path id="c" d="m0 0h-3.5" stroke="#000" stroke-width=".8"/>
</defs>
<use x="65.52" y="642.96" stroke="#000000" stroke-width=".8" xlink:href="#c"/>
<text transform="rotate(-0 58.52 646.76)" x="58.52" y="646.759219" font-family="DejaVu Sans" font-size="10px" text-anchor="end">0</text>
<use x="65.52" y="571.265895" stroke="#000000" stroke-width=".8" xlink:href="#c"/>
<text transform="rotate(-0 58.52 575.07)" x="58.52" y="575.065114" font-family="DejaVu Sans" font-size="10px" text-anchor="end">2500</text>
<use x="65.52" y="499.57179" stroke="#000000" stroke-width=".8" xlink:href="#c"/>
<text transform="rotate(-0 58.52 503.37)" x="58.52" y="503.371008" font-family="DejaVu Sans" font-size="10px" text-anchor="end">5000</text>
<use x="65.52" y="427.877685" stroke="#000000" stroke-width=".8" xlink:href="#c"/>
<text transform="rotate(-0 58.52 431.68)" x="58.52" y="431.676903" font-family="DejaVu Sans" font-size="10px" text-anchor="end">7500</text>
<use x="65.52" y="356.183579" stroke="#000000" stroke-width=".8" xlink:href="#c"/>
<text transform="rotate(-0 58.52 359.98)" x="58.52" y="359.982798" font-family="DejaVu Sans" font-size="10px" text-anchor="end">10000</text>
<use x="65.52" y="284.489474" stroke="#000000" stroke-width=".8" xlink:href="#c"/>
<text transform="rotate(-0 58.52 288.29)" x="58.52" y="288.288693" font-family="DejaVu Sans" font-size="10px" text-anchor="end">12500</text>
<use x="65.52" y="212.795369" stroke="#000000" stroke-width=".8" xlink:href="#c"/>
<text transform="rotate(-0 58.52 216.59)" x="58.52" y="216.594588" font-family="DejaVu Sans" font-size="10px" text-anchor="end">15000</text>
<use x="65.52" y="141.101264" stroke="#000000" stroke-width=".8" xlink:href="#c"/>
<text transform="rotate(-0 58.52 144.9)" x="58.52" y="144.900483" font-family="DejaVu Sans" font-size="10px" text-anchor="end">17500</text>
<use x="65.52" y="69.407159" stroke="#000000" stroke-width=".8" xlink:href="#c"/>
<text transform="rotate(-0 58.52 73.206)" x="58.52" y="73.206378" font-family="DejaVu Sans" font-size="10px" text-anchor="end">20000</text>
<text transform="rotate(-90 19.796 335.16)" x="19.795938" y="335.16" font-family="DejaVu Sans" font-size="14px" text-anchor="middle">Открытий СН за год</text>
<path d="m65.52 642.96v-615.6" fill="none" stroke="#000" stroke-linecap="square" stroke-width=".8"/>
<path d="m907.92 642.96v-615.6" fill="none" stroke="#000" stroke-linecap="square" stroke-width=".8"/>
<path d="m65.52 642.96h842.4" fill="none" stroke="#000" stroke-linecap="square" stroke-width=".8"/>
<path d="m65.52 27.36h842.4" fill="none" stroke="#000" stroke-linecap="square" stroke-width=".8"/>
<text transform="rotate(-0 87.041 607.42)" x="87.041168" y="607.418311" font-family="DejaVu Sans" font-size="10px" text-anchor="middle">1065</text>
<text transform="rotate(-0 117.79 635.21)" x="117.785693" y="635.206946" font-family="DejaVu Sans" font-size="10px" text-anchor="middle">96</text>
<text transform="rotate(-0 148.53 633.29)" x="148.530219" y="633.285544" font-family="DejaVu Sans" font-size="10px" text-anchor="middle">163</text>
<text transform="rotate(-0 179.27 633.31)" x="179.274745" y="633.314222" font-family="DejaVu Sans" font-size="10px" text-anchor="middle">162</text>
<text transform="rotate(-0 210.02 632.17)" x="210.01927" y="632.167116" font-family="DejaVu Sans" font-size="10px" text-anchor="middle">202</text>
<text transform="rotate(-0 240.76 632.34)" x="240.763796" y="632.339182" font-family="DejaVu Sans" font-size="10px" text-anchor="middle">196</text>
<text transform="rotate(-0 271.51 629.13)" x="271.508321" y="629.127286" font-family="DejaVu Sans" font-size="10px" text-anchor="middle">308</text>
<text transform="rotate(-0 302.25 627.87)" x="302.252847" y="627.86547" font-family="DejaVu Sans" font-size="10px" text-anchor="middle">352</text>
<text transform="rotate(-0 333 627.21)" x="332.997372" y="627.205884" font-family="DejaVu Sans" font-size="10px" text-anchor="middle">375</text>
<text transform="rotate(-0 363.74 628.12)" x="363.741898" y="628.123569" font-family="DejaVu Sans" font-size="10px" text-anchor="middle">343</text>
<text transform="rotate(-0 394.49 626.95)" x="394.486423" y="626.947785" font-family="DejaVu Sans" font-size="10px" text-anchor="middle">384</text>
<text transform="rotate(-0 425.23 621.99)" x="425.230949" y="621.986553" font-family="DejaVu Sans" font-size="10px" text-anchor="middle">557</text>
<text transform="rotate(-0 455.98 620.61)" x="455.975474" y="620.610027" font-family="DejaVu Sans" font-size="10px" text-anchor="middle">605</text>
<text transform="rotate(-0 486.72 623.42)" x="486.72" y="623.420435" font-family="DejaVu Sans" font-size="10px" text-anchor="middle">507</text>
<text transform="rotate(-0 517.46 621.93)" x="517.464526" y="621.929198" font-family="DejaVu Sans" font-size="10px" text-anchor="middle">559</text>
<text transform="rotate(-0 548.21 621.07)" x="548.209051" y="621.068869" font-family="DejaVu Sans" font-size="10px" text-anchor="middle">589</text>
<text transform="rotate(-0 578.95 611.98)" x="578.953577" y="611.978056" font-family="DejaVu Sans" font-size="10px" text-anchor="middle">906</text>
<text transform="rotate(-0 609.7 607.62)" x="609.698102" y="607.619055" font-family="DejaVu Sans" font-size="10px" text-anchor="middle">1058</text>
<text transform="rotate(-0 640.44 593.62)" x="640.442628" y="593.624365" font-family="DejaVu Sans" font-size="10px" text-anchor="middle">1546</text>
<text transform="rotate(-0 671.19 580.26)" x="671.187153" y="580.260584" font-family="DejaVu Sans" font-size="10px" text-anchor="middle">2012</text>
<text transform="rotate(-0 701.93 537.16)" x="701.931679" y="537.158088" font-family="DejaVu Sans" font-size="10px" text-anchor="middle">3515</text>
<text transform="rotate(-0 732.68 428.87)" x="732.676204" y="428.871312" font-family="DejaVu Sans" font-size="10px" text-anchor="middle">7291</text>
<text transform="rotate(-0 763.42 414.73)" x="763.42073" y="414.733234" font-family="DejaVu Sans" font-size="10px" text-anchor="middle">7784</text>
<text transform="rotate(-0 794.17 413.04)" x="794.165255" y="413.041253" font-family="DejaVu Sans" font-size="10px" text-anchor="middle">7843</text>
<text transform="rotate(-0 824.91 178.34)" x="824.909781" y="178.343431" font-family="DejaVu Sans" font-size="10px" text-anchor="middle">16027</text>
<text transform="rotate(-0 855.65 84.969)" x="855.654307" y="84.969028" font-family="DejaVu Sans" font-size="10px" text-anchor="middle">19283</text>
<text transform="rotate(-0 886.4 51.674)" x="886.398832" y="51.674286" font-family="DejaVu Sans" font-size="10px" text-anchor="middle">20444</text>
<text transform="rotate(-0 486.72 21.36)" x="486.72" y="21.36" font-family="DejaVu Sans" font-size="22px" text-anchor="middle">Статистика открытий сверхновых по годам</text>
<defs>
<clipPath id="a">
<rect x="65.52" y="27.36" width="842.4" height="615.6"/>
</clipPath>
</defs>
</svg>
