<svg xmlns="http://www.w3.org/2000/svg" viewBox="0 0 774.7 307.1"><defs/><g opacity=".7"><path fill="#628cbe" d="M89.1 199.5l-.9-45.2 44.6 7.8.9 45.3z"/><path fill="#7a88cc" d="M88.2 199.8v.5l-22.5 17.5v-.5z"/><path fill="#7684ca" d="M88.2 200.3l.5.1-22.6 17.4h-.4z"/><path fill="#6272c3" d="M133.2 161.3h.5v.5l1 46.2v.5l-.5-.1-45.5-8-.5-.1v-.5l-1-46.2v-.4h.5zm.5 46l-.9-45.2-44.6-7.8.9 45.2 44.6 7.9"/><path fill="#7a88cc" d="M87.3 153.6l.9 46.2-22.5 17.5-1-46.2zM87.3 153.2v.4l-22.6 17.5v-.4z"/><path fill="#7a88cc" d="M89.1 199.5L66.6 217l-1-45.3 22.6-17.4z"/><path fill="#7a9ec8" d="M88.2 154.3l.9 45.2L66.6 217l-1-45.3z"/><path fill="#7684ca" d="M87.7 153.3l-22.5 17.4h-.5l22.6-17.5zM88.7 200.4l45.5 8-22.6 17.5-45.5-8.1z"/><path fill="#769ac7" d="M89.1 199.5l44.6 7.9-22.5 17.5-44.6-7.9z"/><path fill="#7684ca" d="M133.7 207.4l-22.5 17.5-44.6-7.9 22.5-17.5zM134.2 208.4l.4.1-22.5 17.4h-.5z"/><path fill="#7a88cc" d="M134.6 208.5l-22.5 17.4v-.4l22.5-17.5z"/><path fill="#628cbe" d="M66.6 217l-1-45.3 44.7 7.9.9 45.3z"/><path fill="#769ac7" d="M132.8 162.1l-22.5 17.5-44.7-7.9 22.6-17.4z"/><path fill="#7684ca" d="M88.2 154.3l44.6 7.8-22.5 17.5-44.7-7.9z"/><path fill="#7a88cc" d="M132.8 162.1l.9 45.3-22.5 17.5-.9-45.3z"/><path fill="#7a9ec8" d="M133.7 207.4l-22.5 17.5-.9-45.3 22.5-17.5z"/><path fill="#7684ca" d="M133.2 161.3l-22.5 17.5-45.5-8.1 22.5-17.4z"/><path fill="#7a88cc" d="M134.6 208l-22.5 17.5-.9-46.2 22.5-17.5z"/><path fill="#7684ca" d="M133.7 161.4l-22.5 17.4h-.5l22.5-17.5z"/><path fill="#7a88cc" d="M133.7 161.8l-22.5 17.5v-.5l22.5-17.4z"/><path fill="#6272c3" d="M110.7 178.8h.5v.5l.9 46.2v.4h-.5l-45.5-8-.4-.1v-.5l-1-46.2v-.4h.5zm.5 46l-1-45.2-44.6-7.9 1 45.3 44.6 7.9"/></g><g opacity=".7"><path fill="#6272c3" d="M286.1 189l.5.1v.5l.9 46.2v.5l-.4-.1-45.6-8-.4-.1v-.5l-1-46.2v-.4h.5zm.5 46.2l-1-45.3-44.5-7.8.9 45.2 44.6 7.9"/><path fill="#628cbe" d="M242 227.3l-.9-45.2 44.6 7.8.9 45.3z"/><path fill="#7a88cc" d="M241.1 227.6v.5l-22.5 17.5v-.5z"/><path fill="#7684ca" d="M241.1 228.1h.4L219 245.6h-.4z"/><path fill="#7a88cc" d="M240.2 181.4l.9 46.2-22.5 17.5-1-46.2zM240.2 181v.4l-22.6 17.5v-.5z"/><path fill="#7a88cc" d="M242 227.3l-22.6 17.5-.9-45.3 22.6-17.4z"/><path fill="#7a9ec8" d="M241.1 182.1l.9 45.2-22.6 17.5-.9-45.3z"/><path fill="#7684ca" d="M240.6 181l-22.5 17.5-.5-.1 22.6-17.4zM241.5 228.1l45.6 8.1-22.6 17.5-45.5-8.1z"/><path fill="#769ac7" d="M242 227.3l44.6 7.9-22.5 17.5-44.7-7.9z"/><path fill="#7684ca" d="M286.6 235.2l-22.5 17.5-44.7-7.9 22.6-17.5zM287.1 236.2l.4.1-22.5 17.4h-.5z"/><path fill="#7a88cc" d="M287.5 236.3L265 253.7v-.4l22.5-17.5z"/><path fill="#628cbe" d="M219.4 244.8l-.9-45.3 44.7 7.9.9 45.3z"/><path fill="#7684ca" d="M241.1 182.1l44.6 7.8-22.5 17.5-44.7-7.9z"/><path fill="#769ac7" d="M285.7 189.9l-22.5 17.5-44.7-7.9 22.6-17.4z"/><path fill="#7a88cc" d="M285.7 189.9l.9 45.3-22.5 17.5-.9-45.3z"/><path fill="#7a9ec8" d="M286.6 235.2l-22.5 17.5-.9-45.3 22.5-17.5z"/><path fill="#7684ca" d="M286.1 189.1l-22.5 17.5-45.5-8.1 22.5-17.5z"/><path fill="#7a88cc" d="M287.5 235.8L265 253.3l-1-46.2 22.6-17.5z"/><path fill="#7684ca" d="M286.6 189.1L264 206.6h-.4l22.5-17.5z"/><path fill="#7a88cc" d="M286.6 189.6L264 207.1v-.5l22.6-17.5z"/><path fill="#6272c3" d="M263.6 206.6h.4v.5l1 46.2v.4h-.5l-45.5-8-.4-.1v-.5l-1-46.2v-.5l.5.1zm.5 46l-1-45.2-44.6-7.9 1 45.3 44.6 7.9"/></g><g opacity=".7"><path fill="#628cbe" d="M190.9 218.2l-1-45.2 44.7 7.8.9 45.3z"/><path fill="#7a88cc" d="M190 218.5v.5l-22.6 17.5v-.5z"/><path fill="#7684ca" d="M190 219l.4.1-22.5 17.4h-.5z"/><path fill="#6272c3" d="M235 180h.4v.5l1 46.2v.5l-.5-.1-45.5-8-.4-.1v-.5l-1-46.2v-.4h.5zm.5 46l-1-45.2L190 173l1 45.2 44.6 7.9"/><path fill="#7a88cc" d="M189 172.3l1 46.2-22.6 17.5-.9-46.2z"/><path fill="#7a88cc" d="M189 171.9v.4l-22.5 17.5v-.4zM190.9 218.2l-22.6 17.5-.9-45.3 22.5-17.4z"/><path fill="#7a9ec8" d="M189.9 173l1 45.2-22.6 17.5-.9-45.3z"/><path fill="#7684ca" d="M189.5 172l-22.6 17.4h-.4l22.5-17.5zM190.4 219.1l45.5 8-22.5 17.5-45.5-8.1z"/><path fill="#769ac7" d="M190.9 218.2l44.6 7.9-22.6 17.5-44.6-7.9z"/><path fill="#7684ca" d="M235.5 226.1l-22.6 17.5-44.6-7.9 22.6-17.5zM235.9 227.1l.5.1-22.5 17.4h-.5z"/><path fill="#7a88cc" d="M236.4 227.2l-22.5 17.4-.1-.4 22.6-17.5z"/><path fill="#769ac7" d="M234.6 180.8L212 198.3l-44.6-7.9 22.5-17.4z"/><path fill="#7684ca" d="M189.9 173l44.7 7.8-22.6 17.5-44.6-7.9z"/><path fill="#7a88cc" d="M234.6 180.8l.9 45.3-22.6 17.5-.9-45.3z"/><path fill="#7a9ec8" d="M235.5 226.1l-22.6 17.5-.9-45.3 22.6-17.5z"/><path fill="#6272c3" d="M212.5 197.5h.4v.5l1 46.2v.4h-.5l-45.5-8-.5-.1v-.5l-.9-46.2v-.4h.5zm.4 46l-.9-45.2-44.6-7.9 1 45.3 44.5 7.9"/><path fill="#628cbe" d="M212.9 243.6l-.9-45.3-44.6-7.9.9 45.3z"/><path fill="#7684ca" d="M235 180l-22.5 17.5-45.6-8.1 22.6-17.4z"/><path fill="#7a88cc" d="M236.4 226.7l-22.6 17.5-.9-46.2 22.6-17.5z"/><path fill="#7684ca" d="M235.4 180.1l-22.5 17.5-.4-.1L235 180z"/><path fill="#7a88cc" d="M235.5 180.5L212.9 198v-.4l22.5-17.5z"/></g><g opacity=".7"><path fill="#628cbe" d="M139.5 208.9l-.9-45.3 44.6 7.9.9 45.2z"/><path fill="#7a88cc" d="M138.6 209.2v.4l-22.5 17.5v-.4z"/><path fill="#7684ca" d="M138.6 209.6l.4.1-22.5 17.5-.4-.1z"/><path fill="#6272c3" d="M183.6 170.6l.5.1v.5l.9 46.2v.4h-.4l-45.6-8-.4-.2v-.4l-1-46.2v-.5l.5.1zm.5 46.1l-1-45.2-44.5-7.9.9 45.3 44.6 7.8"/><path fill="#7a88cc" d="M137.7 163l.9 46.2-22.5 17.5-1-46.2z"/><path fill="#7a88cc" d="M137.6 162.5l.1.5-22.6 17.5v-.5zM139.5 208.9l-22.6 17.4-.9-45.2 22.6-17.5z"/><path fill="#7a9ec8" d="M138.6 163.6l.9 45.3-22.6 17.4-.9-45.2z"/><path fill="#7684ca" d="M138.1 162.6l-22.5 17.5-.5-.1 22.5-17.5zM139 209.7l45.6 8-22.6 17.5-45.5-8z"/><path fill="#7684ca" d="M184.1 216.7l-22.5 17.5-44.7-7.9 22.6-17.4z"/><path fill="#769ac7" d="M139.5 208.9l44.6 7.8-22.5 17.5-44.7-7.9z"/><path fill="#7684ca" d="M184.6 217.7l.4.1-22.5 17.5-.5-.1z"/><path fill="#7a88cc" d="M185 217.8l-22.5 17.5v-.5l22.5-17.4z"/><path fill="#628cbe" d="M116.9 226.3l-.9-45.2 44.7 7.9.9 45.2z"/><path fill="#7684ca" d="M138.6 163.6l44.6 7.9-22.5 17.5-44.7-7.9z"/><path fill="#769ac7" d="M183.2 171.5L160.7 189l-44.7-7.9 22.6-17.5z"/><path fill="#7a88cc" d="M183.2 171.5l.9 45.2-22.5 17.5-.9-45.2z"/><path fill="#7a9ec8" d="M184.1 216.7l-22.5 17.5-.9-45.2 22.5-17.5z"/><path fill="#7684ca" d="M183.6 170.6l-22.5 17.5-45.5-8 22.5-17.5z"/><path fill="#7a88cc" d="M185 217.4l-22.5 17.4-1-46.1 22.6-17.5z"/><path fill="#7684ca" d="M184.1 170.7l-22.6 17.5-.4-.1 22.5-17.5z"/><path fill="#7a88cc" d="M184.1 171.2l-22.6 17.5v-.5l22.6-17.5z"/><path fill="#6272c3" d="M161 188.1h.5v.6l1 46.1v.5h-.5l-45.5-8.1h-.4v-.5l-1-46.2v-.5h.5zm.6 46.1l-1-45.2-44.6-8 1 45.3 44.6 8"/></g><g opacity=".7"><path fill="#628cbe" d="M88.1 148.5l-.9-45.2 44.6 7.8.9 45.3z"/><path fill="#7a88cc" d="M87.2 148.8v.5l-22.5 17.5v-.5z"/><path fill="#7684ca" d="M87.2 149.3l.5.1-22.6 17.4h-.4z"/><path fill="#6272c3" d="M132.2 110.3h.5v.5l1 46.2v.5l-.5-.1-45.5-8-.5-.1v-.5l-1-46.2v-.4h.5zm.5 46l-.9-45.2-44.6-7.8.9 45.2 44.6 7.9"/><path fill="#7a88cc" d="M86.3 102.6l.9 46.2-22.5 17.5-1-46.2z"/><path fill="#7a88cc" d="M86.3 102.2v.4l-22.6 17.5v-.4zM88.1 148.5L65.6 166l-1-45.3 22.6-17.4z"/><path fill="#7a9ec8" d="M87.2 103.3l.9 45.2L65.6 166l-1-45.3z"/><path fill="#7684ca" d="M86.7 102.3l-22.5 17.4h-.5l22.6-17.5zM87.7 149.4l45.5 8-22.6 17.5-45.5-8.1z"/><path fill="#769ac7" d="M88.1 148.5l44.6 7.9-22.5 17.5-44.6-7.9z"/><path fill="#7684ca" d="M132.7 156.4l-22.5 17.5-44.6-7.9 22.5-17.5zM133.2 157.4l.4.1-22.5 17.4h-.5z"/><path fill="#7a88cc" d="M133.6 157.5l-22.5 17.4v-.4l22.5-17.5z"/><path fill="#628cbe" d="M65.6 166l-1-45.3 44.7 7.9.9 45.3z"/><path fill="#7684ca" d="M87.2 103.3l44.6 7.8-22.5 17.5-44.7-7.9z"/><path fill="#769ac7" d="M131.8 111.1l-22.5 17.5-44.7-7.9 22.6-17.4z"/><path fill="#7a88cc" d="M131.8 111.1l.9 45.3-22.5 17.5-.9-45.3z"/><path fill="#7a9ec8" d="M132.7 156.4l-22.5 17.5-.9-45.3 22.5-17.5z"/><path fill="#7684ca" d="M132.2 110.3l-22.5 17.5-45.5-8.1 22.5-17.4z"/><path fill="#7a88cc" d="M133.6 157l-22.5 17.5-.9-46.2 22.5-17.5z"/><path fill="#7684ca" d="M132.7 110.4l-22.5 17.4h-.5l22.5-17.5z"/><path fill="#7a88cc" d="M132.7 110.8l-22.5 17.5v-.5l22.5-17.4z"/><path fill="#6272c3" d="M109.7 127.8h.5v.5l.9 46.2v.4h-.5l-45.5-8-.4-.1v-.5l-1-46.2v-.4h.5zm.5 46l-1-45.2-44.6-7.9 1 45.3 44.6 7.9"/></g><g opacity=".7"><path fill="#6272c3" d="M285.1 138l.5.2v.4l.9 46.2v.5l-.4-.1-45.6-8-.4-.1v-.5l-1-46.2v-.4h.5zm.5 46.2l-1-45.3-44.5-7.9.9 45.3 44.6 7.9"/><path fill="#628cbe" d="M241 176.3l-.9-45.3 44.6 7.9.9 45.3z"/><path fill="#7a88cc" d="M240.1 176.6v.5l-22.5 17.5v-.5z"/><path fill="#7684ca" d="M240.1 177.1l.4.1-22.5 17.4h-.4z"/><path fill="#7a88cc" d="M239.2 130.4l.9 46.2-22.5 17.5-1-46.2zM239.2 130v.4l-22.6 17.5v-.4z"/><path fill="#7a88cc" d="M241 176.3l-22.6 17.5-.9-45.3 22.6-17.5z"/><path fill="#7a9ec8" d="M240.1 131l.9 45.3-22.6 17.5-.9-45.3z"/><path fill="#7684ca" d="M239.6 130l-22.5 17.5h-.5l22.6-17.5zM240.5 177.2l45.6 8-22.6 17.5-45.5-8.1z"/><path fill="#769ac7" d="M241 176.3l44.6 7.9-22.5 17.5-44.7-7.9z"/><path fill="#7684ca" d="M285.6 184.2l-22.5 17.5-44.7-7.9 22.6-17.5zM286.1 185.2l.4.1-22.5 17.4h-.5z"/><path fill="#7a88cc" d="M286.5 185.3L264 202.7v-.4l22.5-17.5z"/><path fill="#769ac7" d="M284.7 138.9l-22.5 17.5-44.7-7.9 22.6-17.5z"/><path fill="#7684ca" d="M240.1 131l44.6 7.9-22.5 17.5-44.7-7.9z"/><path fill="#7a88cc" d="M284.7 138.9l.9 45.3-22.5 17.5-.9-45.3z"/><path fill="#7a9ec8" d="M285.6 184.2l-22.5 17.5-.9-45.3 22.5-17.5z"/><path fill="#6272c3" d="M262.6 155.6h.4v.5l1 46.2v.4h-.5l-45.5-8-.4-.1v-.5l-1-46.2v-.4h.5zm.5 46l-1-45.2-44.6-7.9 1 45.3 44.6 7.9"/><path fill="#628cbe" d="M217.5 148.5l1 45.3 44.6 7.9-1-45.3zm0 0z"/><path fill="#7684ca" d="M285.1 138.1l-22.5 17.5-45.5-8.1 22.5-17.5z"/><path fill="#7a88cc" d="M286.5 184.8L264 202.3l-1-46.2 22.6-17.5z"/><path fill="#7684ca" d="M285.6 138.2L263 155.6h-.4l22.5-17.5z"/><path fill="#7a88cc" d="M285.6 138.6L263 156.1v-.5l22.6-17.4z"/></g><g opacity=".7"><path fill="#6272c3" d="M234 129h.4v.5l1 46.2v.5l-.5-.1-45.5-8-.4-.1v-.5l-1-46.2v-.4h.5zm.5 46l-1-45.2L189 122l1 45.2 44.6 7.9"/><path fill="#7a88cc" d="M189 167.5v.5l-22.6 17.5v-.5z"/><path fill="#7684ca" d="M189 168l.4.1-22.5 17.4h-.5z"/><path fill="#7684ca" d="M189.4 168.1l45.5 8-22.5 17.5-45.5-8.1z"/><path fill="#769ac7" d="M189.8 167.2l44.7 7.9-22.6 17.5-44.6-7.9z"/><path fill="#7684ca" d="M234.5 175.1l-22.6 17.5-44.6-7.9 22.5-17.5z"/><path fill="#628cbe" d="M189.8 167.2l-.9-45.2 44.7 7.8.9 45.3z"/><path fill="#7a88cc" d="M188 121.3l1 46.2-22.6 17.5-.9-46.2z"/><path fill="#7a88cc" d="M188 120.9v.4l-22.5 17.5v-.4zM189.8 167.2l-22.5 17.5-.9-45.3 22.5-17.4z"/><path fill="#7a9ec8" d="M188.9 122l.9 45.2-22.5 17.5-.9-45.3z"/><path fill="#7684ca" d="M188.5 121L166 138.4h-.5l22.5-17.5zM234.9 176.1l.5.1-22.5 17.5-.5-.1z"/><path fill="#7a88cc" d="M235.4 176.2l-22.5 17.5-.1-.5 22.6-17.5z"/><path fill="#7684ca" d="M188.9 122l44.7 7.8-22.6 17.5-44.6-7.9z"/><path fill="#769ac7" d="M233.6 129.8L211 147.3l-44.6-7.9 22.5-17.4z"/><path fill="#7a88cc" d="M233.6 129.8l.9 45.3-22.6 17.5-.9-45.3z"/><path fill="#7a9ec8" d="M234.5 175.1l-22.6 17.5-.9-45.3 22.6-17.5z"/><path fill="#6272c3" d="M211.5 146.5h.4v.5l1 46.2v.5l-.5-.1-45.5-8-.5-.1v-.5l-.9-46.2v-.4h.5zm.4 46l-.9-45.2-44.6-7.9 1 45.3 44.5 7.9"/><path fill="#628cbe" d="M211 147.3l-44.6-7.9 1 45.3 44.5 7.9zm-44.6-7.9z"/><path fill="#7684ca" d="M234 129l-22.5 17.5-45.5-8.1 22.5-17.4z"/><path fill="#7a88cc" d="M235.4 175.7l-22.6 17.5-.9-46.2 22.6-17.5z"/><path fill="#7684ca" d="M234.4 129.1l-22.5 17.4h-.4L234 129z"/><path fill="#7a88cc" d="M234.5 129.5L211.9 147v-.5l22.5-17.4z"/></g><g opacity=".7"><path fill="#6272c3" d="M182.6 119.6l.5.1v.5l.9 46.1v.5h-.4l-45.6-8.1h-.4v-.5l-1-46.2v-.5l.5.1zm.5 46.1l-1-45.2-44.5-7.9.9 45.3 44.6 7.8"/><path fill="#628cbe" d="M138.5 157.9l-.9-45.3 44.6 7.9.9 45.2z"/><path fill="#7a88cc" d="M137.6 158.2v.4l-22.5 17.5v-.4z"/><path fill="#7684ca" d="M137.6 158.6l.4.1-22.5 17.5-.4-.1z"/><path fill="#7a88cc" d="M136.7 112l.9 46.2-22.5 17.5-1-46.2z"/><path fill="#7a88cc" d="M136.7 111.5v.5l-22.6 17.5v-.5zM138.5 157.9l-22.6 17.4-.9-45.2 22.6-17.5z"/><path fill="#7a9ec8" d="M137.6 112.6l.9 45.3-22.6 17.4-.9-45.2z"/><path fill="#7684ca" d="M137.1 111.6l-22.5 17.5-.5-.1 22.6-17.5zM138 158.7l45.6 8-22.6 17.5-45.5-8z"/><path fill="#7684ca" d="M183.1 165.7l-22.5 17.5-44.7-7.9 22.6-17.4z"/><path fill="#769ac7" d="M138.5 157.9l44.6 7.8-22.5 17.5-44.7-7.9z"/><path fill="#7684ca" d="M183.6 166.7l.4.1-22.5 17.5-.5-.1z"/><path fill="#7a88cc" d="M184 166.8l-22.5 17.5v-.5l22.5-17.5z"/><path fill="#628cbe" d="M115.9 175.3l-.9-45.2 44.7 7.9.9 45.2z"/><path fill="#7684ca" d="M137.6 112.6l44.6 7.9-22.5 17.5-44.7-7.9z"/><path fill="#769ac7" d="M182.2 120.5L159.7 138l-44.7-7.9 22.6-17.5z"/><path fill="#7a9ec8" d="M183.1 165.7l-22.5 17.5-.9-45.2 22.5-17.5z"/><path fill="#7a88cc" d="M182.2 120.5l.9 45.2-22.5 17.5-.9-45.2z"/><path fill="#7684ca" d="M182.6 119.6l-22.5 17.5-45.5-8 22.5-17.5z"/><path fill="#7a88cc" d="M184 166.3l-22.5 17.5-1-46.1 22.6-17.5z"/><path fill="#7684ca" d="M183.1 119.7l-22.6 17.5-.4-.1 22.5-17.5z"/><path fill="#7a88cc" d="M183.1 120.2l-22.6 17.5v-.5l22.6-17.5z"/><path fill="#6272c3" d="M160 137.1l.5.1v.5l1 46.1v.5h-.5l-45.5-8.1h-.4v-.6l-1-46.1v-.5h.5zm.6 46.1l-1-45.2-44.6-8 1 45.3 44.6 8"/></g><g opacity=".7"><path fill="#6272c3" d="M131.8 59.1h.5v.5l.9 46.2v.5l-.4-.1-45.6-8-.4-.1v-.5l-1-46.1V51h.5zm.5 46.1l-.9-45.3-44.6-7.8.9 45.2 44.6 7.9"/><path fill="#628cbe" d="M87.7 97.3l-.9-45.2 44.6 7.8.9 45.3z"/><path fill="#7a88cc" d="M86.8 97.6v.5l-22.5 17.5v-.5z"/><path fill="#7684ca" d="M86.8 98.1l.4.1-22.5 17.5-.4-.1z"/><path fill="#7a88cc" d="M85.9 51.5l.9 46.1-22.5 17.5-1-46.2z"/><path fill="#7a88cc" d="M85.9 51v.5L63.3 68.9v-.4zM87.7 97.3l-22.6 17.5-.9-45.2 22.6-17.5z"/><path fill="#7a9ec8" d="M86.8 52.1l.9 45.2-22.6 17.5-.9-45.2z"/><path fill="#7684ca" d="M86.3 51.1L63.8 68.6l-.5-.1L85.9 51zM87.2 98.2l45.6 8-22.6 17.5-45.5-8z"/><path fill="#7684ca" d="M132.3 105.2l-22.5 17.5-44.7-7.9 22.6-17.5z"/><path fill="#769ac7" d="M87.7 97.3l44.6 7.9-22.5 17.5-44.7-7.9z"/><path fill="#7684ca" d="M132.8 106.2l.4.1-22.5 17.5-.5-.1z"/><path fill="#7a88cc" d="M133.2 106.3l-22.5 17.5v-.5l22.5-17.5z"/><path fill="#7684ca" d="M86.8 52.1l44.6 7.8-22.5 17.5-44.7-7.8z"/><path fill="#769ac7" d="M131.4 59.9l-22.5 17.5-44.7-7.8 22.6-17.5z"/><path fill="#7a88cc" d="M131.4 59.9l.9 45.3-22.5 17.5-.9-45.3z"/><path fill="#7a9ec8" d="M132.3 105.2l-22.5 17.5-.9-45.3 22.5-17.5z"/><path fill="#6272c3" d="M109.3 76.6h.4v.5l1 46.2v.5l-.5-.1-45.5-8-.4-.1v-.5l-1-46.2v-.4h.5zm.5 46l-1-45.2-44.6-7.8 1 45.2 44.6 7.9"/><path fill="#628cbe" d="M64.2 69.6l1 45.2 44.6 7.9-1-45.3zm0 0z"/><path fill="#7684ca" d="M131.8 59.1l-22.5 17.5-45.5-8 22.5-17.5z"/><path fill="#7a88cc" d="M133.2 105.8l-22.5 17.5-1-46.2 22.6-17.5z"/><path fill="#7684ca" d="M132.3 59.2l-22.6 17.5-.4-.1 22.5-17.5z"/><path fill="#7a88cc" d="M132.3 59.6l-22.6 17.5v-.4l22.6-17.5z"/></g><g opacity=".7"><path fill="#6272c3" d="M284.7 86.9h.5v.5l.9 46.2v.5l-.5-.1-45.5-8-.4-.1v-.5l-1-46.1v-.5h.5zm.5 46l-1-45.2-44.6-7.8 1 45.2 44.6 7.9"/><path fill="#628cbe" d="M240.6 125.1l-1-45.2 44.7 7.8.9 45.3z"/><path fill="#7a88cc" d="M239.7 125.4v.5l-22.5 17.5-.1-.5z"/><path fill="#7684ca" d="M239.7 125.9l.4.1-22.5 17.5-.4-.1z"/><path fill="#7a88cc" d="M238.7 79.3l1 46.1-22.6 17.5-.9-46.2zM238.7 78.8v.5l-22.5 17.4v-.4z"/><path fill="#7a88cc" d="M240.6 125.1L218 142.6l-.9-45.2 22.5-17.5z"/><path fill="#7a9ec8" d="M239.6 79.9l1 45.2-22.6 17.5-.9-45.2z"/><path fill="#7684ca" d="M239.2 78.9l-22.5 17.5-.5-.1 22.5-17.5zM240.1 126l45.5 8-22.5 17.5-45.5-8z"/><path fill="#7684ca" d="M285.2 133l-22.5 17.5-44.7-7.9 22.6-17.5z"/><path fill="#769ac7" d="M240.6 125.1l44.6 7.9-22.5 17.5-44.7-7.9z"/><path fill="#7684ca" d="M285.6 134l.5.1-22.5 17.5-.5-.1z"/><path fill="#7a88cc" d="M286.1 134.1l-22.5 17.5v-.5l22.5-17.5z"/><path fill="#7684ca" d="M239.6 79.9l44.7 7.8-22.6 17.5-44.6-7.8z"/><path fill="#628cbe" d="M218 142.6l-.9-45.2 44.6 7.8 1 45.3z"/><path fill="#769ac7" d="M284.3 87.7l-22.6 17.5-44.6-7.8 22.5-17.5z"/><path fill="#7a88cc" d="M284.3 87.7l.9 45.3-22.5 17.5-1-45.3z"/><path fill="#7a9ec8" d="M285.2 133l-22.5 17.5-1-45.3 22.6-17.5z"/><path fill="#7684ca" d="M284.7 86.9l-22.5 17.5-45.5-8 22.5-17.5z"/><path fill="#7a88cc" d="M286.1 133.6l-22.5 17.5-1-46.2 22.6-17.5z"/><path fill="#7684ca" d="M285.1 87l-22.5 17.5-.4-.1 22.5-17.5z"/><path fill="#7a88cc" d="M285.2 87.4l-22.6 17.5v-.4L285.1 87z"/><path fill="#6272c3" d="M262.2 104.4h.4v.5l1 46.2v.5l-.5-.1-45.5-8-.4-.1v-.5l-1-46.2v-.4h.5zm.5 46l-1-45.2-44.6-7.8 1 45.2 44.6 7.9"/></g><g opacity=".7"><path fill="#628cbe" d="M189.4 116l-.9-45.2 44.7 7.9.9 45.2z"/><path fill="#7a88cc" d="M188.6 116.3v.5L166 134.3v-.5z"/><path fill="#7684ca" d="M188.6 116.8l.4.1-22.5 17.5-.5-.1z"/><path fill="#6272c3" d="M233.6 77.8h.4v.5l1 46.2v.5h-.5l-45.5-8.1-.4-.1v-.5l-1-46.1v-.5h.5zm.5 46.1l-1-45.2-44.6-8 1 45.3L234 124"/><path fill="#7a88cc" d="M187.6 70.2l1 46.1-22.6 17.5-.9-46.2zM187.6 69.7v.5l-22.5 17.4v-.4z"/><path fill="#7a88cc" d="M189.4 116l-22.5 17.5-.9-45.2 22.5-17.5z"/><path fill="#7a9ec8" d="M188.5 70.8l.9 45.2-22.5 17.5-.9-45.2z"/><path fill="#7684ca" d="M188.1 69.8l-22.6 17.5-.4-.1 22.5-17.5zM189 116.9l45.5 8-22.5 17.5-45.5-8z"/><path fill="#769ac7" d="M189.4 116l44.7 7.9-22.6 17.5-44.6-7.9z"/><path fill="#7684ca" d="M234.1 123.9l-22.6 17.5-44.6-7.9 22.5-17.5zM234.5 124.9l.5.1-22.6 17.5-.4-.1z"/><path fill="#7a88cc" d="M235 125l-22.6 17.5v-.5l22.6-17.5z"/><path fill="#628cbe" d="M166.9 133.5l-.9-45.2 44.6 7.8.9 45.3z"/><path fill="#7684ca" d="M188.5 70.8l44.7 7.9-22.6 17.4-44.6-7.8z"/><path fill="#769ac7" d="M233.2 78.7l-22.6 17.4-44.6-7.8 22.5-17.5z"/><path fill="#7a88cc" d="M233.2 78.7l.9 45.2-22.6 17.5-.9-45.3z"/><path fill="#7a9ec8" d="M234.1 123.9l-22.6 17.5-.9-45.3 22.6-17.4z"/><path fill="#7684ca" d="M233.6 77.8l-22.5 17.5-45.6-8 22.6-17.5z"/><path fill="#7a88cc" d="M235 124.5L212.4 142l-.9-46.2L234 78.3z"/><path fill="#7684ca" d="M234 77.9l-22.5 17.5-.4-.1 22.5-17.5z"/><path fill="#7a88cc" d="M234 78.3l-22.5 17.5v-.4L234 77.9z"/><path fill="#6272c3" d="M211 95.3h.5v.5l1 46.2v.5l-.5-.1-45.5-8-.5-.1v-.5l-.9-46.2v-.4h.4zm.5 46l-.9-45.2-44.6-7.8 1 45.2 44.5 7.9"/></g><g opacity=".7"><path fill="#6272c3" d="M182.2 68.5h.5v.5l.9 46.2v.4h-.5l-45.5-8-.4-.2v-.4l-1-46.2v-.4h.5zm.5 46l-1-45.2-44.6-7.9 1 45.3 44.6 7.9"/><path fill="#628cbe" d="M138.1 106.7l-1-45.3 44.7 7.9.9 45.3z"/><path fill="#7a88cc" d="M137.2 107v.5l-22.5 17.4-.1-.4z"/><path fill="#7684ca" d="M137.2 107.5h.4L115.1 125l-.4-.1z"/><path fill="#7a88cc" d="M136.2 60.8l1 46.2-22.6 17.5-.9-46.2z"/><path fill="#7a88cc" d="M136.2 60.4v.4l-22.5 17.5v-.5zM138.1 106.7l-22.6 17.5-.9-45.3 22.5-17.5z"/><path fill="#7a9ec8" d="M137.1 61.4l1 45.3-22.6 17.5-.9-45.3z"/><path fill="#7684ca" d="M136.7 60.4l-22.5 17.5-.5-.1 22.5-17.4zM137.6 107.5l45.5 8.1-22.5 17.4-45.5-8z"/><path fill="#7684ca" d="M182.7 114.6L160.2 132l-44.7-7.8 22.6-17.5z"/><path fill="#769ac7" d="M138.1 106.7l44.6 7.9-22.5 17.4-44.7-7.8z"/><path fill="#7684ca" d="M183.1 115.6h.5l-22.5 17.5-.5-.1z"/><path fill="#7a88cc" d="M183.6 115.6l-22.5 17.5v-.4l22.5-17.5z"/><path fill="#628cbe" d="M115.5 124.2l-.9-45.3 44.6 7.9 1 45.2z"/><path fill="#7684ca" d="M137.1 61.4l44.7 7.9-22.6 17.5-44.6-7.9z"/><path fill="#7a88cc" d="M181.8 69.3l.9 45.3-22.5 17.4-1-45.2z"/><path fill="#769ac7" d="M181.8 69.3l-22.6 17.5-44.6-7.9 22.5-17.5z"/><path fill="#7a9ec8" d="M182.7 114.6L160.2 132l-1-45.2 22.6-17.5z"/><path fill="#7684ca" d="M182.2 68.5l-22.5 17.4-45.5-8 22.5-17.5z"/><path fill="#7a88cc" d="M183.6 115.2l-22.5 17.5-1-46.2L182.7 69z"/><path fill="#7684ca" d="M182.6 68.5L160.1 86l-.4-.1 22.5-17.4z"/><path fill="#7a88cc" d="M182.7 69l-22.6 17.5V86l22.5-17.5z"/><path fill="#6272c3" d="M159.7 86h.4v.5l1 46.2v.4h-.5l-45.5-8-.5-.2v-.4l-.9-46.2v-.5l.5.1zm.5 46l-1-45.2-44.6-7.9 1 45.3 44.6 7.8"/></g><g opacity=".7"><path fill="#6272c3" d="M130.8 8.1h.5v.5l.9 46.2v.5l-.4-.1-45.6-8-.4-.1v-.5L84.8.5V0h.5zm.5 46.1l-.9-45.3-44.6-7.8.9 45.2 44.6 7.9"/><path fill="#628cbe" d="M86.7 46.3l-.9-45.2 44.6 7.8.9 45.3z"/><path fill="#7a88cc" d="M85.8 46.6v.5L63.3 64.6v-.5z"/><path fill="#7684ca" d="M85.8 47.1l.4.1-22.5 17.5-.4-.1z"/><path fill="#7a88cc" d="M84.9.5l.9 46.1-22.5 17.5-1-46.2z"/><path fill="#7a88cc" d="M84.9 0v.5L62.3 17.9v-.4z"/><path fill="#7a9ec8" d="M85.8 1.1l.9 45.2-22.6 17.5-.9-45.2z"/><path fill="#7a88cc" d="M86.7 46.3L64.1 63.8l-.9-45.2L85.8 1.1z"/><path fill="#7684ca" d="M85.3.1L62.8 17.6l-.5-.1L84.9 0zM86.2 47.2l45.6 8-22.6 17.5-45.5-8z"/><path fill="#769ac7" d="M86.7 46.3l44.6 7.9-22.5 17.5-44.7-7.9z"/><path fill="#7684ca" d="M131.3 54.2l-22.5 17.5-44.7-7.9 22.6-17.5zM131.8 55.2l.4.1-22.5 17.5-.5-.1z"/><path fill="#7a88cc" d="M132.2 55.3l-22.5 17.5v-.5l22.5-17.5z"/><path fill="#628cbe" d="M64.1 63.8l-.9-45.2 44.7 7.8.9 45.3z"/><path fill="#7684ca" d="M85.8 1.1l44.6 7.8-22.5 17.5-44.7-7.8z"/><path fill="#769ac7" d="M130.4 8.9l-22.5 17.5-44.7-7.8L85.8 1.1z"/><path fill="#7a88cc" d="M130.4 8.9l.9 45.3-22.5 17.5-.9-45.3z"/><path fill="#7a9ec8" d="M131.3 54.2l-22.5 17.5-.9-45.3 22.5-17.5z"/><path fill="#7684ca" d="M130.8 8.1l-22.5 17.5-45.5-8L85.3.1z"/><path fill="#7a88cc" d="M132.2 54.8l-22.5 17.5-1-46.2 22.6-17.5z"/><path fill="#7684ca" d="M131.3 8.2l-22.6 17.5-.4-.1 22.5-17.5z"/><path fill="#7a88cc" d="M131.3 8.6l-22.6 17.5v-.4l22.6-17.5z"/><path fill="#6272c3" d="M108.3 25.6h.4v.5l1 46.2v.5l-.5-.1-45.5-8-.4-.1V64l-1-46.2v-.4h.5zm.5 46l-1-45.2-44.6-7.8 1 45.2 44.6 7.9"/></g><g opacity=".7"><path fill="#628cbe" d="M239.6 74.1l-1-45.2 44.7 7.8.9 45.3z"/><path fill="#7a88cc" d="M238.7 74.4v.5l-22.5 17.5-.1-.5z"/><path fill="#7684ca" d="M238.7 74.9l.4.1-22.5 17.5-.4-.1z"/><path fill="#6272c3" d="M283.7 35.9h.5v.5l.9 46.2v.5l-.5-.1-45.5-8-.4-.1v-.5l-1-46.2v-.4h.5zm.5 46l-1-45.2-44.6-7.8 1 45.2 44.6 7.9"/><path fill="#7a88cc" d="M237.7 28.3l1 46.1-22.6 17.5-.9-46.2z"/><path fill="#7a88cc" d="M237.7 27.8v.5l-22.5 17.4v-.4zM239.6 74.1L217 91.6l-.9-45.2 22.5-17.5z"/><path fill="#7a9ec8" d="M238.6 28.9l1 45.2L217 91.6l-.9-45.2z"/><path fill="#7684ca" d="M238.2 27.9l-22.5 17.5-.5-.1 22.5-17.5zM239.1 75l45.5 8-22.5 17.5-45.5-8z"/><path fill="#769ac7" d="M239.6 74.1l44.6 7.9-22.5 17.5-44.7-7.9z"/><path fill="#7684ca" d="M284.2 82l-22.5 17.5-44.7-7.9 22.6-17.5zM284.6 83l.5.1-22.5 17.5-.5-.1z"/><path fill="#7a88cc" d="M285.1 83.1l-22.5 17.5v-.5l22.5-17.5z"/><path fill="#628cbe" d="M217 91.6l-.9-45.2 44.6 7.8 1 45.3z"/><path fill="#7684ca" d="M238.6 28.9l44.7 7.8-22.6 17.5-44.6-7.8z"/><path fill="#769ac7" d="M283.3 36.7l-22.6 17.5-44.6-7.8 22.5-17.5z"/><path fill="#7a9ec8" d="M284.2 82l-22.5 17.5-1-45.3 22.6-17.5z"/><path fill="#7a88cc" d="M283.3 36.7l.9 45.3-22.5 17.5-1-45.3z"/><path fill="#7684ca" d="M283.7 35.9l-22.5 17.5-45.5-8 22.5-17.5z"/><path fill="#7a88cc" d="M285.1 82.6l-22.5 17.5-1-46.2 22.6-17.5z"/><path fill="#7684ca" d="M284.2 36l-22.6 17.5-.4-.1 22.5-17.5z"/><path fill="#7a88cc" d="M284.2 36.4l-22.6 17.5v-.4L284.2 36z"/><path fill="#6272c3" d="M261.2 53.4h.4v.5l1 46.2v.5l-.5-.1-45.5-8-.4-.1v-.5l-1-46.2v-.4h.5zm.5 46l-1-45.2-44.6-7.8 1 45.2 44.6 7.9"/></g><g opacity=".7"><path fill="#628cbe" d="M188.4 65l-.9-45.2 44.7 7.9.9 45.2z"/><path fill="#7a88cc" d="M187.6 65.3v.5L165 83.3v-.5z"/><path fill="#7684ca" d="M187.6 65.8l.4.1-22.5 17.5-.5-.1z"/><path fill="#6272c3" d="M232.6 26.8h.4v.6l1 46.1v.5h-.5L188 65.8l-.4-.1v-.5l-1-46.1v-.5h.5zM233 73l-1-45.2-44.6-8 1 45.3 44.6 8"/><path fill="#7a88cc" d="M186.6 19.2l1 46.1L165 82.8l-.9-46.1z"/><path fill="#7a88cc" d="M186.6 18.7v.5l-22.5 17.5v-.5zM188.4 65l-22.5 17.5-.9-45.2 22.5-17.5z"/><path fill="#7a9ec8" d="M187.5 19.8l.9 45.2-22.5 17.5-.9-45.2z"/><path fill="#7684ca" d="M187.1 18.8l-22.6 17.5-.4-.1 22.5-17.5zM188 65.9l45.5 8L211 91.4l-45.5-8z"/><path fill="#7684ca" d="M233.1 72.9l-22.6 17.5-44.6-7.9L188.4 65z"/><path fill="#769ac7" d="M188.4 65l44.7 7.9-22.6 17.5-44.6-7.9z"/><path fill="#7684ca" d="M233.5 73.9l.5.1-22.6 17.5-.4-.1z"/><path fill="#7a88cc" d="M234 74l-22.6 17.5V91L234 73.5z"/><path fill="#7684ca" d="M187.5 19.8l44.7 7.9-22.6 17.4-44.6-7.8z"/><path fill="#769ac7" d="M232.2 27.7l-22.6 17.4-44.6-7.8 22.5-17.5z"/><path fill="#7a88cc" d="M232.2 27.7l.9 45.2-22.6 17.5-.9-45.3z"/><path fill="#7a9ec8" d="M233.1 72.9l-22.6 17.5-.9-45.3 22.6-17.4z"/><path fill="#6272c3" d="M210 44.3h.5v.5l1 46.2v.5l-.5-.1-45.5-8-.5-.1v-.5l-.9-46.1v-.5h.4zm.5 46l-.9-45.2-44.6-7.8 1 45.2 44.5 7.9"/><path fill="#628cbe" d="M165.9 82.5l-.9-45.2 44.6 7.8.9 45.3z"/><path fill="#7684ca" d="M232.6 26.8l-22.5 17.5-45.6-8 22.6-17.5z"/><path fill="#7a88cc" d="M234 73.5L211.4 91l-.9-46.2L233 27.4z"/><path fill="#7684ca" d="M233 26.9l-22.5 17.5-.4-.1 22.5-17.5z"/><path fill="#7a88cc" d="M233 27.4l-22.5 17.4v-.4L233 26.9z"/></g><g opacity=".7"><path fill="#628cbe" d="M137.1 55.7l-1-45.3 44.7 7.9.9 45.3z"/><path fill="#7a88cc" d="M136.2 56v.5l-22.5 17.4-.1-.4z"/><path fill="#7684ca" d="M136.2 56.5h.4L114.1 74l-.4-.1z"/><path fill="#6272c3" d="M181.2 17.5h.5v.5l.9 46.2v.4h-.5l-45.5-8-.4-.1V56l-1-46.2v-.4h.5zm.5 46l-1-45.2-44.6-7.9 1 45.3 44.6 7.9"/><path fill="#7a88cc" d="M135.2 9.8l1 46.2-22.6 17.5-.9-46.2z"/><path fill="#7a88cc" d="M135.2 9.4v.4l-22.5 17.5v-.5zM137.1 55.7l-22.6 17.5-.9-45.3 22.5-17.5z"/><path fill="#7a9ec8" d="M136.1 10.4l1 45.3-22.6 17.5-.9-45.3z"/><path fill="#7684ca" d="M135.7 9.4l-22.5 17.5-.5-.1 22.5-17.4zM136.6 56.5l45.5 8.1L159.6 82l-45.5-8z"/><path fill="#7684ca" d="M181.7 63.6L159.2 81l-44.7-7.8 22.6-17.5z"/><path fill="#769ac7" d="M137.1 55.7l44.6 7.9L159.2 81l-44.7-7.8z"/><path fill="#7684ca" d="M182.1 64.6h.5l-22.5 17.5-.5-.1z"/><path fill="#7a88cc" d="M182.6 64.6l-22.5 17.5v-.4l22.5-17.5z"/><path fill="#628cbe" d="M114.5 73.2l-.9-45.3 44.6 7.9 1 45.2z"/><path fill="#7684ca" d="M136.1 10.4l44.7 7.9-22.6 17.5-44.6-7.9z"/><path fill="#769ac7" d="M180.8 18.3l-22.6 17.5-44.6-7.9 22.5-17.5z"/><path fill="#7a88cc" d="M180.8 18.3l.9 45.3L159.2 81l-1-45.2z"/><path fill="#7a9ec8" d="M181.7 63.6L159.2 81l-1-45.2 22.6-17.5z"/><path fill="#7684ca" d="M181.2 17.5l-22.5 17.4-45.5-8 22.5-17.5z"/><path fill="#7a88cc" d="M182.6 64.2l-22.5 17.5-1-46.2L181.7 18z"/><path fill="#7684ca" d="M181.7 17.5L159.1 35l-.4-.1 22.5-17.4z"/><path fill="#7a88cc" d="M181.7 18l-22.6 17.5V35l22.6-17.5z"/><path fill="#6272c3" d="M158.7 35h.4v.5l1 46.2v.4h-.5l-45.5-8-.4-.2v-.4l-1-46.2v-.5l.5.1zm.5 46l-1-45.2-44.6-7.9 1 45.3 44.6 7.8"/></g><g opacity=".7"><path fill="#6272c3" d="M101.9 188.3h.4v.5l1 46.2v.5h-.5l-45.5-8.1-.4-.1v-.5l-1-46.1v-.5h.5zm.5 46.1l-1-45.2-44.6-8 1 45.3 44.6 8"/><path fill="#628cbe" d="M57.7 226.5l-.9-45.2 44.7 7.9.9 45.2z"/><path fill="#7a88cc" d="M56.9 226.8v.5l-22.6 17.5v-.5z"/><path fill="#7684ca" d="M56.9 227.3l.4.1-22.5 17.5-.5-.1z"/><path fill="#7a88cc" d="M55.9 180.7l1 46.1-22.6 17.5-.9-46.2z"/><path fill="#7a88cc" d="M55.9 180.2v.5l-22.5 17.4v-.4zM57.7 226.5L35.2 244l-.9-45.2 22.5-17.5z"/><path fill="#7a9ec8" d="M56.8 181.3l.9 45.2L35.2 244l-.9-45.2z"/><path fill="#7684ca" d="M56.4 180.3l-22.6 17.5-.4-.1 22.5-17.5zM57.3 227.4l45.5 8-22.5 17.5-45.5-8z"/><path fill="#769ac7" d="M57.7 226.5l44.7 7.9-22.6 17.5-44.6-7.9z"/><path fill="#7684ca" d="M102.4 234.4l-22.6 17.5-44.6-7.9 22.5-17.5zM102.8 235.4l.5.1L80.7 253l-.4-.1z"/><path fill="#7a88cc" d="M103.3 235.5L80.7 253v-.5l22.6-17.5z"/><path fill="#628cbe" d="M35.2 244l-.9-45.2 44.6 7.8.9 45.3z"/><path fill="#7684ca" d="M56.8 181.3l44.7 7.9-22.6 17.4-44.6-7.8z"/><path fill="#769ac7" d="M101.5 189.2l-22.6 17.4-44.6-7.8 22.5-17.5z"/><path fill="#7a88cc" d="M101.5 189.2l.9 45.2-22.6 17.5-.9-45.3z"/><path fill="#7a9ec8" d="M102.4 234.4l-22.6 17.5-.9-45.3 22.6-17.4z"/><path fill="#7684ca" d="M101.9 188.3l-22.5 17.5-45.6-8 22.6-17.5z"/><path fill="#7a88cc" d="M103.3 235l-22.6 17.5-.9-46.2 22.5-17.5z"/><path fill="#7684ca" d="M102.3 188.4l-22.5 17.5-.4-.1 22.5-17.5z"/><path fill="#7a88cc" d="M102.3 188.8l-22.5 17.5v-.4l22.5-17.5z"/><path fill="#6272c3" d="M79.4 205.8h.4v.5l1 46.2v.5l-.5-.1-45.5-8-.5-.1v-.5l-.9-46.1v-.5h.4zm.4 46l-.9-45.2-44.6-7.8 1 45.2 44.5 7.9"/></g><g opacity=".7"><path fill="#6272c3" d="M254.8 216.1h.4v.5l1 46.2v.5h-.5l-45.5-8.1-.5-.1v-.5l-.9-46.1v-.5h.4zm.4 46.1l-.9-45.3-44.6-7.8 1 45.2 44.5 7.9"/><path fill="#628cbe" d="M210.6 254.3l-.9-45.2 44.6 7.8.9 45.3z"/><path fill="#7a88cc" d="M209.7 254.6v.5l-22.5 17.5v-.5z"/><path fill="#7684ca" d="M209.7 255.1l.5.1-22.5 17.5-.5-.1z"/><path fill="#7a88cc" d="M208.8 208.5l.9 46.1-22.5 17.5-.9-46.2zM208.8 208v.5l-22.5 17.4v-.4z"/><path fill="#7a9ec8" d="M209.7 209.1l.9 45.2-22.5 17.5-.9-45.2z"/><path fill="#7a88cc" d="M210.6 254.3l-22.5 17.5-.9-45.2 22.5-17.5z"/><path fill="#7684ca" d="M209.2 208.1l-22.5 17.5-.4-.1 22.5-17.5zM210.2 255.2l45.5 8-22.5 17.5-45.5-8z"/><path fill="#769ac7" d="M210.6 254.3l44.6 7.9-22.5 17.5-44.6-7.9z"/><path fill="#7684ca" d="M255.2 262.2l-22.5 17.5-44.6-7.9 22.5-17.5zM255.7 263.2l.5.1-22.6 17.5-.4-.1z"/><path fill="#7a88cc" d="M256.2 263.3l-22.6 17.5v-.5l22.5-17.5z"/><path fill="#628cbe" d="M188.1 271.8l-.9-45.2 44.6 7.8.9 45.3z"/><path fill="#7684ca" d="M209.7 209.1l44.6 7.8-22.5 17.5-44.6-7.8z"/><path fill="#769ac7" d="M254.3 216.9l-22.5 17.5-44.6-7.8 22.5-17.5z"/><path fill="#7a88cc" d="M254.3 216.9l.9 45.3-22.5 17.5-.9-45.3z"/><path fill="#7a9ec8" d="M255.2 262.2l-22.5 17.5-.9-45.3 22.5-17.5z"/><path fill="#7684ca" d="M254.8 216.1l-22.6 17.5-45.5-8 22.5-17.5z"/><path fill="#7a88cc" d="M256.1 262.8l-22.5 17.5-.9-46.2 22.5-17.5z"/><path fill="#7684ca" d="M255.2 216.2l-22.5 17.5-.5-.1 22.6-17.5z"/><path fill="#7a88cc" d="M255.2 216.6l-22.5 17.5v-.4l22.5-17.5z"/><path fill="#6272c3" d="M232.2 233.6h.5v.5l1 46.2v.5l-.5-.1-45.5-8-.5-.1v-.5l-1-46.2v-.4h.5zm.5 46l-.9-45.2-44.6-7.8.9 45.2 44.6 7.9"/></g><g opacity=".7"><path fill="#628cbe" d="M159.5 245.2l-.9-45.2 44.6 7.9.9 45.2z"/><path fill="#7a88cc" d="M158.6 245.5v.5l-22.5 17.5v-.5z"/><path fill="#7684ca" d="M158.6 246l.5.1-22.6 17.5-.4-.1z"/><path fill="#6272c3" d="M203.6 207h.5v.6l1 46.1v.5h-.5L159 246h-.5v-.6l-1-46.1v-.5h.5zm.5 46.1l-.9-45.2-44.6-8 .9 45.3 44.6 8"/><path fill="#7a88cc" d="M157.7 199.4l.9 46.1-22.5 17.5-.9-46.1z"/><path fill="#7a88cc" d="M157.7 198.9v.5l-22.5 17.5v-.5zM159.5 245.2L137 262.7l-.9-45.2 22.5-17.5z"/><path fill="#7a9ec8" d="M158.6 200l.9 45.2-22.5 17.5-.9-45.2z"/><path fill="#7684ca" d="M158.1 199l-22.5 17.5-.4-.1 22.5-17.5zM159.1 246.1l45.5 8-22.5 17.5-45.6-8z"/><path fill="#769ac7" d="M159.5 245.2l44.6 7.9-22.5 17.5-44.6-7.9z"/><path fill="#7684ca" d="M204.1 253.1l-22.5 17.5-44.6-7.9 22.5-17.5zM204.6 254.1l.4.1-22.5 17.5-.4-.1z"/><path fill="#7a88cc" d="M205 254.2l-22.5 17.5v-.5l22.5-17.5z"/><path fill="#7684ca" d="M158.6 200l44.6 7.9-22.5 17.4-44.6-7.8z"/><path fill="#769ac7" d="M203.2 207.9l-22.5 17.4-44.6-7.8 22.5-17.5z"/><path fill="#7a88cc" d="M203.2 207.9l.9 45.2-22.5 17.5-.9-45.3z"/><path fill="#7a9ec8" d="M204.1 253.1l-22.5 17.5-.9-45.3 22.5-17.4z"/><path fill="#6272c3" d="M181.1 224.5h.5v.5l.9 46.2v.5l-.4-.1-45.6-8-.4-.1v-.5l-1-46.1v-.5h.5zm.5 46.1l-1-45.3-44.5-7.8.9 45.2 44.6 7.9"/><path fill="#628cbe" d="M137 262.7l-.9-45.2 44.6 7.8.9 45.3z"/><path fill="#7684ca" d="M203.6 207l-22.5 17.5-45.5-8 22.5-17.5z"/><path fill="#7a88cc" d="M205 253.7l-22.5 17.5-.9-46.2 22.5-17.4z"/><path fill="#7684ca" d="M204.1 207.1l-22.5 17.5-.5-.1 22.5-17.5z"/><path fill="#7a88cc" d="M204.1 207.6L181.6 225v-.4l22.5-17.5z"/></g><g opacity=".7"><path fill="#628cbe" d="M108.1 235.9l-.9-45.3 44.6 7.9.9 45.3z"/><path fill="#7a88cc" d="M107.2 236.2v.5l-22.5 17.4v-.4z"/><path fill="#7684ca" d="M107.2 236.7h.5l-22.5 17.5-.5-.1z"/><path fill="#6272c3" d="M152.3 197.7h.4v.5l1 46.2v.4h-.5l-45.5-8-.5-.1v-.5l-.9-46.2v-.4h.4zm.4 46l-.9-45.2-44.6-7.9 1 45.3 44.5 7.9"/><path fill="#7a88cc" d="M106.3 190l.9 46.2-22.5 17.5-.9-46.2z"/><path fill="#7a88cc" d="M106.3 189.6v.4l-22.5 17.5v-.5zM108.1 235.9l-22.5 17.5-.9-45.3 22.5-17.5z"/><path fill="#7a9ec8" d="M107.2 190.6l.9 45.3-22.5 17.5-.9-45.3z"/><path fill="#7684ca" d="M106.7 189.6l-22.5 17.5-.4-.1 22.5-17.4zM107.7 236.7l45.5 8.1-22.5 17.5-45.5-8.1z"/><path fill="#769ac7" d="M108.1 235.9l44.6 7.9-22.5 17.4-44.6-7.8z"/><path fill="#7684ca" d="M152.7 243.8l-22.5 17.4-44.6-7.8 22.5-17.5zM153.2 244.8h.5l-22.6 17.5h-.4z"/><path fill="#7a88cc" d="M153.7 244.8l-22.6 17.5v-.4l22.5-17.5z"/><path fill="#628cbe" d="M85.6 253.4l-.9-45.3 44.6 7.9.9 45.2z"/><path fill="#7684ca" d="M107.2 190.6l44.6 7.9-22.5 17.5-44.6-7.9z"/><path fill="#769ac7" d="M151.8 198.5L129.3 216l-44.6-7.9 22.5-17.5z"/><path fill="#7a88cc" d="M151.8 198.5l.9 45.3-22.5 17.4-.9-45.2z"/><path fill="#7a9ec8" d="M152.7 243.8l-22.5 17.4-.9-45.2 22.5-17.5z"/><path fill="#7684ca" d="M152.3 197.7l-22.6 17.4-45.5-8 22.5-17.5z"/><path fill="#7a88cc" d="M153.6 244.4l-22.5 17.5-.9-46.2 22.5-17.5z"/><path fill="#7684ca" d="M152.7 197.7l-22.5 17.5-.5-.1 22.6-17.4z"/><path fill="#7a88cc" d="M152.7 198.2l-22.5 17.5v-.5l22.5-17.5z"/><path fill="#6272c3" d="M129.7 215.1l.5.1v.5l1 46.2v.4h-.5l-45.5-8-.5-.2v-.4l-1-46.2v-.5l.5.1zm.5 46.1l-.9-45.2-44.6-7.9.9 45.3 44.6 7.8"/></g><g opacity=".7"><path fill="#628cbe" d="M56.7 175.5l-.9-45.2 44.7 7.9.9 45.2z"/><path fill="#7a88cc" d="M55.9 175.8v.5l-22.6 17.5v-.5z"/><path fill="#7684ca" d="M55.9 176.3l.4.1-22.5 17.5-.5-.1z"/><path fill="#6272c3" d="M100.9 137.3h.4v.5l1 46.2v.5h-.5l-45.5-8.1H56v-.6l-1-46.1v-.5h.5zm.5 46.1l-1-45.2-44.6-8 1 45.3 44.6 7.9"/><path fill="#7a88cc" d="M54.9 129.7l1 46.1-22.6 17.5-.9-46.2z"/><path fill="#7a88cc" d="M54.9 129.2v.5l-22.5 17.4v-.4zM56.7 175.5L34.2 193l-.9-45.2 22.5-17.5z"/><path fill="#7a9ec8" d="M55.8 130.3l.9 45.2L34.2 193l-.9-45.2z"/><path fill="#7684ca" d="M55.4 129.3l-22.6 17.5-.4-.1 22.5-17.5zM56.3 176.4l45.5 8-22.5 17.5-45.5-8z"/><path fill="#769ac7" d="M56.7 175.5l44.7 7.9-22.6 17.5-44.6-7.9z"/><path fill="#7684ca" d="M101.4 183.4l-22.6 17.5-44.6-7.9 22.5-17.5zM101.8 184.4l.5.1L79.7 202l-.4-.1z"/><path fill="#7a88cc" d="M102.3 184.5L79.7 202v-.5l22.6-17.5z"/><path fill="#628cbe" d="M34.2 193l-.9-45.2 44.6 7.8.9 45.3z"/><path fill="#7684ca" d="M55.8 130.3l44.7 7.9-22.6 17.4-44.6-7.8z"/><path fill="#769ac7" d="M100.5 138.2l-22.6 17.4-44.6-7.8 22.5-17.5z"/><path fill="#7a88cc" d="M100.5 138.2l.9 45.2-22.6 17.5-.9-45.3z"/><path fill="#7a9ec8" d="M101.4 183.4l-22.6 17.5-.9-45.3 22.6-17.4z"/><path fill="#7684ca" d="M100.9 137.3l-22.5 17.5-45.6-8 22.6-17.5z"/><path fill="#7a88cc" d="M102.3 184l-22.6 17.5-.9-46.2 22.5-17.5z"/><path fill="#7684ca" d="M101.3 137.4l-22.5 17.5-.4-.1 22.5-17.5z"/><path fill="#7a88cc" d="M101.3 137.8l-22.5 17.5v-.4l22.5-17.5z"/><path fill="#6272c3" d="M78.4 154.8h.4v.5l1 46.2v.5l-.5-.1-45.5-8-.5-.1v-.5l-.9-46.2v-.4h.4zm.4 46l-.9-45.2-44.6-7.8 1 45.2 44.5 7.9"/></g><g opacity=".7"><path fill="#628cbe" d="M209.6 203.3l-.9-45.2 44.6 7.8.9 45.3z"/><path fill="#7a88cc" d="M208.7 203.6v.5l-22.5 17.5v-.5z"/><path fill="#7684ca" d="M208.7 204.1l.5.1-22.5 17.5-.5-.1z"/><path fill="#6272c3" d="M253.8 165.1h.4v.5l1 46.2v.5h-.5l-45.5-8.1-.5-.1v-.5l-.9-46.1v-.5h.4zm.4 46.1l-.9-45.3-44.6-7.8 1 45.2 44.5 7.9"/><path fill="#7a88cc" d="M207.8 157.5l.9 46.1-22.5 17.5-.9-46.2z"/><path fill="#7a88cc" d="M207.8 157v.5l-22.5 17.4v-.4zM209.6 203.3l-22.5 17.5-.9-45.2 22.5-17.5z"/><path fill="#7a9ec8" d="M208.7 158.1l.9 45.2-22.5 17.5-.9-45.2z"/><path fill="#7684ca" d="M208.2 157.1l-22.5 17.5-.4-.1 22.5-17.5zM209.2 204.2l45.5 8-22.5 17.5-45.5-8z"/><path fill="#7684ca" d="M254.2 211.2l-22.5 17.5-44.6-7.9 22.5-17.5z"/><path fill="#769ac7" d="M209.6 203.3l44.6 7.9-22.5 17.5-44.6-7.9z"/><path fill="#7684ca" d="M254.7 212.2l.5.1-22.6 17.5-.4-.1z"/><path fill="#7a88cc" d="M255.2 212.3l-22.6 17.5v-.5l22.5-17.5z"/><path fill="#7684ca" d="M208.7 158.1l44.6 7.8-22.5 17.5-44.6-7.8z"/><path fill="#7a88cc" d="M253.3 165.9l.9 45.3-22.5 17.5-.9-45.3z"/><path fill="#769ac7" d="M253.3 165.9l-22.5 17.5-44.6-7.8 22.5-17.5z"/><path fill="#7a9ec8" d="M254.2 211.2l-22.5 17.5-.9-45.3 22.5-17.5z"/><path fill="#6272c3" d="M231.2 182.6h.5v.5l1 46.2v.5l-.5-.1-45.5-8-.5-.1v-.5l-1-46.2v-.4h.5zm.5 46l-.9-45.2-44.6-7.8.9 45.2 44.6 7.9"/><path fill="#628cbe" d="M187.1 220.8l-.9-45.2 44.6 7.8.9 45.3z"/><path fill="#7684ca" d="M253.8 165.1l-22.6 17.5-45.5-8 22.5-17.5z"/><path fill="#7a88cc" d="M255.1 211.8l-22.5 17.5-.9-46.2 22.5-17.5z"/><path fill="#7684ca" d="M254.2 165.2l-22.5 17.5-.5-.1 22.6-17.5z"/><path fill="#7a88cc" d="M254.2 165.6l-22.5 17.5v-.4l22.5-17.5z"/></g><g opacity=".7"><path fill="#628cbe" d="M158.5 194.2l-.9-45.2 44.6 7.9.9 45.2z"/><path fill="#7a88cc" d="M157.6 194.6v.4l-22.5 17.5v-.5z"/><path fill="#7684ca" d="M157.6 195l.5.1-22.6 17.5-.4-.1z"/><path fill="#6272c3" d="M202.6 156h.5v.6l1 46.1v.5h-.5L158 195h-.5v-.5l-1-46.2v-.5h.5zm.5 46.1l-.9-45.2-44.6-8 .9 45.3 44.6 8"/><path fill="#7a88cc" d="M156.7 148.4l.9 46.2-22.5 17.4-.9-46.1zM156.7 147.9v.5l-22.5 17.5v-.5z"/><path fill="#7a88cc" d="M158.5 194.2L136 211.7l-.9-45.2 22.5-17.5z"/><path fill="#7a9ec8" d="M157.6 149l.9 45.2-22.5 17.5-.9-45.2z"/><path fill="#7684ca" d="M157.1 148l-22.5 17.5-.4-.1 22.5-17.5zM158.1 195.1l45.5 8-22.5 17.5-45.6-8z"/><path fill="#769ac7" d="M158.5 194.2l44.6 7.9-22.5 17.5-44.6-7.9z"/><path fill="#7684ca" d="M203.1 202.1l-22.5 17.5-44.6-7.9 22.5-17.5zM203.6 203.1l.4.1-22.5 17.5-.4-.1z"/><path fill="#7a88cc" d="M204 203.2l-22.5 17.5v-.5l22.5-17.5z"/><path fill="#7684ca" d="M157.6 149l44.6 7.9-22.5 17.4-44.6-7.8z"/><path fill="#769ac7" d="M202.2 156.9l-22.5 17.4-44.6-7.8 22.5-17.5z"/><path fill="#7a9ec8" d="M203.1 202.1l-22.5 17.5-.9-45.3 22.5-17.4z"/><path fill="#7a88cc" d="M202.2 156.9l.9 45.2-22.5 17.5-.9-45.3z"/><path fill="#6272c3" d="M180.1 173.5h.5v.5l.9 46.2v.5l-.4-.1-45.6-8-.4-.1v-.5l-1-46.1v-.5h.5zm.5 46.1l-1-45.3-44.5-7.8.9 45.2 44.6 7.9"/><path fill="#628cbe" d="M180.6 219.6l-.9-45.3-44.6-7.8.9 45.2z"/><path fill="#7684ca" d="M202.6 156l-22.5 17.5-45.5-8 22.5-17.5z"/><path fill="#7a88cc" d="M204 202.7l-22.5 17.5-.9-46.2 22.5-17.4z"/><path fill="#7684ca" d="M203.1 156.1l-22.5 17.5-.5-.1 22.5-17.5z"/><path fill="#7a88cc" d="M203.1 156.6L180.6 174v-.4l22.5-17.5z"/></g><g opacity=".7"><path fill="#628cbe" d="M107.1 184.9l-.9-45.3 44.6 7.9.9 45.3z"/><path fill="#7a88cc" d="M106.2 185.2v.5l-22.5 17.4v-.4z"/><path fill="#7684ca" d="M106.2 185.7h.5l-22.5 17.5-.5-.1z"/><path fill="#6272c3" d="M151.3 146.7h.4v.5l1 46.2v.4h-.5l-45.5-8-.5-.1v-.5l-.9-46.2v-.4h.4zm.4 46l-.9-45.2-44.6-7.9 1 45.3 44.5 7.9"/><path fill="#7a88cc" d="M105.3 139l.9 46.2-22.5 17.5-.9-46.2z"/><path fill="#7a88cc" d="M105.3 138.6v.4l-22.5 17.5v-.5zM107.1 184.9l-22.5 17.5-.9-45.3 22.5-17.5z"/><path fill="#7a9ec8" d="M106.2 139.6l.9 45.3-22.5 17.5-.9-45.3z"/><path fill="#7684ca" d="M105.7 138.6l-22.5 17.5-.4-.1 22.5-17.4zM106.7 185.7l45.5 8.1-22.5 17.4-45.5-8z"/><path fill="#7684ca" d="M151.7 192.8l-22.5 17.4-44.6-7.8 22.5-17.5z"/><path fill="#769ac7" d="M107.1 184.9l44.6 7.9-22.5 17.4-44.6-7.8z"/><path fill="#7684ca" d="M152.2 193.8h.5l-22.6 17.5-.4-.1z"/><path fill="#7a88cc" d="M152.7 193.8l-22.6 17.5v-.4l22.5-17.5z"/><path fill="#7684ca" d="M106.2 139.6l44.6 7.9-22.5 17.5-44.6-7.9z"/><path fill="#7a9ec8" d="M151.7 192.8l-22.5 17.4-.9-45.2 22.5-17.5z"/><path fill="#7a88cc" d="M150.8 147.5l.9 45.3-22.5 17.4-.9-45.2z"/><path fill="#769ac7" d="M150.8 147.5L128.3 165l-44.6-7.9 22.5-17.5z"/><path fill="#6272c3" d="M128.7 164.1l.5.1v.5l1 46.2v.4h-.5l-45.5-8-.5-.2v-.4l-1-46.2v-.5l.5.1zm.5 46.1l-.9-45.2-44.6-7.9.9 45.3 44.6 7.8"/><path fill="#628cbe" d="M84.6 202.4l-.9-45.3 44.6 7.9.9 45.2z"/><path fill="#7684ca" d="M151.3 146.7l-22.6 17.4-45.5-8 22.5-17.5z"/><path fill="#7a88cc" d="M152.6 193.4l-22.5 17.5-.9-46.2 22.5-17.5z"/><path fill="#7684ca" d="M151.7 146.7l-22.5 17.5-.5-.1 22.6-17.4z"/><path fill="#7a88cc" d="M151.7 147.2l-22.5 17.5v-.5l22.5-17.5z"/></g><g opacity=".7"><path fill="#628cbe" d="M56.3 124.4l-.9-45.3L100 87l.9 45.2z"/><path fill="#7a88cc" d="M55.4 124.7l.1.4-22.6 17.5v-.4z"/><path fill="#7684ca" d="M55.5 125.1l.4.1-22.5 17.5-.5-.1z"/><path fill="#6272c3" d="M100.5 86.1l.4.1v.5l1 46.2v.4h-.5L56 125.1h-.4v-.5l-1-46.2V78l.4.1zm.4 46.1L100 87 55.4 79l1 45.3 44.5 7.8"/><path fill="#7a88cc" d="M54.5 78.5l.9 46.2-22.5 17.5L32 96z"/><path fill="#7a88cc" d="M54.5 78v.5L32 96v-.5zM56.3 124.4l-22.5 17.4-.9-45.2 22.5-17.5z"/><path fill="#7a9ec8" d="M55.4 79.1l.9 45.3-22.5 17.4-.9-45.2z"/><path fill="#7684ca" d="M54.9 78.1L32.4 95.6l-.4-.1L54.5 78zM55.9 125.2l45.5 8-22.5 17.5-45.5-8z"/><path fill="#769ac7" d="M56.3 124.4l44.6 7.8-22.5 17.5-44.6-7.9z"/><path fill="#7684ca" d="M100.9 132.2l-22.5 17.5-44.6-7.9 22.5-17.4zM101.4 133.2l.5.1-22.6 17.5-.4-.1z"/><path fill="#7a88cc" d="M101.9 133.3l-22.6 17.5v-.5l22.5-17.4z"/><path fill="#628cbe" d="M33.8 141.8l-.9-45.2 44.6 7.9.9 45.2z"/><path fill="#7684ca" d="M55.4 79.1L100 87l-22.5 17.5-44.6-7.9z"/><path fill="#769ac7" d="M100 87l-22.5 17.5-44.6-7.9 22.5-17.5z"/><path fill="#7a88cc" d="M100 87l.9 45.2-22.5 17.5-.9-45.2z"/><path fill="#7a9ec8" d="M100.9 132.2l-22.5 17.5-.9-45.2L100 87z"/><path fill="#7684ca" d="M100.5 86.1l-22.6 17.5-45.5-8 22.5-17.5z"/><path fill="#7a88cc" d="M101.8 132.9l-22.5 17.4-.9-46.1 22.5-17.5z"/><path fill="#7684ca" d="M100.9 86.2l-22.5 17.5-.5-.1 22.6-17.5z"/><path fill="#7a88cc" d="M100.9 86.7l-22.5 17.5v-.5l22.5-17.5z"/><path fill="#6272c3" d="M78 103.6l.4.1v.5l1 46.1v.5h-.5l-45.5-8.1h-.5v-.5L32 96v-.5h.5zm.4 46.1l-.9-45.2L33 96.6l.9 45.2 44.6 8"/></g><g opacity=".7"><path fill="#6272c3" d="M253.4 114h.4v.5l1 46.1v.5h-.5l-45.5-8.1h-.5v-.5l-.9-46.2v-.5l.4.1zm.4 46l-.9-45.2-44.6-7.9 1 45.3 44.5 7.8"/><path fill="#628cbe" d="M209.2 152.2l-.9-45.3 44.6 7.9.9 45.2z"/><path fill="#7a88cc" d="M208.3 152.5v.4l-22.5 17.5v-.5z"/><path fill="#7684ca" d="M208.3 152.9l.5.1-22.6 17.5-.4-.1z"/><path fill="#7a88cc" d="M207.4 106.3l.9 46.2-22.5 17.4-.9-46.1zM207.4 105.8v.5l-22.5 17.5v-.5z"/><path fill="#7a88cc" d="M209.2 152.2l-22.5 17.4-.9-45.2 22.5-17.5z"/><path fill="#7a9ec8" d="M208.3 106.9l.9 45.3-22.5 17.4-.9-45.2z"/><path fill="#7684ca" d="M207.8 105.9l-22.5 17.5-.4-.1 22.5-17.5zM208.8 153l45.5 8-22.5 17.5-45.6-8z"/><path fill="#7684ca" d="M253.8 160l-22.5 17.5-44.6-7.9 22.5-17.4z"/><path fill="#769ac7" d="M209.2 152.2l44.6 7.8-22.5 17.5-44.6-7.9z"/><path fill="#7684ca" d="M254.3 161l.4.1-22.5 17.5-.4-.1z"/><path fill="#7a88cc" d="M254.7 161.1l-22.5 17.5v-.5l22.5-17.5z"/><path fill="#628cbe" d="M186.7 169.6l-.9-45.2 44.6 7.9.9 45.2z"/><path fill="#7684ca" d="M208.3 106.9l44.6 7.9-22.5 17.5-44.6-7.9z"/><path fill="#769ac7" d="M252.9 114.8l-22.5 17.5-44.6-7.9 22.5-17.5z"/><path fill="#7a88cc" d="M252.9 114.8l.9 45.2-22.5 17.5-.9-45.2z"/><path fill="#7a9ec8" d="M253.8 160l-22.5 17.5-.9-45.2 22.5-17.5z"/><path fill="#7684ca" d="M253.4 113.9l-22.6 17.5-45.5-8 22.5-17.5z"/><path fill="#7a88cc" d="M254.7 160.6l-22.5 17.5-.9-46.2 22.5-17.4z"/><path fill="#7684ca" d="M253.8 114l-22.5 17.5-.5-.1 22.6-17.5z"/><path fill="#7a88cc" d="M253.8 114.5l-22.5 17.4v-.4l22.5-17.5z"/><path fill="#6272c3" d="M230.8 131.4h.5v.5l.9 46.2v.5h-.4l-45.6-8.1h-.4v-.6l-1-46.1v-.5h.5zm.5 46.1l-1-45.2-44.5-8 .9 45.3 44.6 8"/></g><g opacity=".7"><path fill="#628cbe" d="M158.1 143.1l-.9-45.3 44.6 7.9.9 45.2z"/><path fill="#7a88cc" d="M157.2 143.4v.4l-22.5 17.5v-.4z"/><path fill="#7684ca" d="M157.2 143.8l.5.1-22.6 17.5-.4-.1z"/><path fill="#7a88cc" d="M156.3 97.2l.9 46.2-22.5 17.5-1-46.2z"/><path fill="#7a88cc" d="M158.1 143.1l-22.5 17.5-1-45.3 22.6-17.5z"/><path fill="#7684ca" d="M157.7 143.9l45.5 8-22.6 17.5-45.5-8z"/><path fill="#7a9ec8" d="M157.2 97.8l.9 45.3-22.5 17.5-1-45.3z"/><path fill="#7684ca" d="M202.7 150.9l-22.5 17.5-44.6-7.8 22.5-17.5z"/><path fill="#769ac7" d="M158.1 143.1l44.6 7.8-22.5 17.5-44.6-7.8z"/><path fill="#6272c3" d="M156.3 97.2v1.3l.9-.7 44.6 7.9.9 45.2-1 .8 1.5.2.4.1v-.4l-.9-46.2v-.5l-.5-.1-45.5-8-.4-.1z"/><path fill="#7a88cc" d="M156.3 96.7v.5l-22.6 17.5v-.5z"/><path fill="#7684ca" d="M156.7 96.8l-22.5 17.5-.5-.1 22.6-17.5zM203.2 151.9l.4.1-22.5 17.5-.5-.1z"/><path fill="#7a88cc" d="M203.6 152l-22.5 17.5v-.5l22.5-17.4z"/><path fill="#628cbe" d="M135.6 160.6l-1-45.3 44.7 7.9.9 45.2z"/><path fill="#7684ca" d="M157.2 97.8l44.6 7.9-22.5 17.5-44.7-7.9z"/><path fill="#769ac7" d="M201.8 105.7l-22.5 17.5-44.7-7.9 22.6-17.5z"/><path fill="#7a88cc" d="M201.8 105.7l.9 45.2-22.5 17.5-.9-45.2z"/><path fill="#7a9ec8" d="M202.7 150.9l-22.5 17.5-.9-45.2 22.5-17.5z"/><path fill="#7684ca" d="M202.2 104.8l-22.5 17.5-45.5-8 22.5-17.5z"/><path fill="#7a88cc" d="M203.6 151.6L181.1 169l-.9-46.1 22.5-17.5z"/><path fill="#7684ca" d="M202.7 104.9l-22.6 17.5-.4-.1 22.5-17.5z"/><path fill="#7a88cc" d="M202.7 105.4l-22.5 17.5-.1-.5 22.6-17.5z"/><path fill="#6272c3" d="M179.7 122.3l.4.1v.5l1 46.1v.5h-.5l-45.5-8.1h-.4v-.5l-1-46.2v-.5l.5.1zm.5 46.1l-1-45.2-44.6-7.9 1 45.3 44.6 7.8"/></g><g opacity=".7"><path fill="#628cbe" d="M106.7 133.7l-.9-45.2 44.6 7.8.9 45.3z"/><path fill="#7a88cc" d="M105.8 134v.5L83.3 152v-.5z"/><path fill="#7684ca" d="M105.8 134.5l.5.1L83.7 152h-.4z"/><path fill="#6272c3" d="M150.9 95.5h.4v.5l1 46.2v.5l-.5-.1-45.5-8-.5-.1v-.5l-.9-46.2v-.4h.4zm.4 46l-.9-45.2-44.6-7.8 1 45.2 44.5 7.9"/><path fill="#7a88cc" d="M104.9 87.8l.9 46.2-22.5 17.5-.9-46.2z"/><path fill="#7a88cc" d="M104.9 87.4v.4l-22.5 17.5v-.4zM106.7 133.7l-22.5 17.5-.9-45.3 22.5-17.4z"/><path fill="#7a9ec8" d="M105.8 88.5l.9 45.2-22.5 17.5-.9-45.3z"/><path fill="#7684ca" d="M105.3 87.5l-22.5 17.4h-.4l22.5-17.5zM106.3 134.6l45.5 8-22.5 17.5-45.6-8.1z"/><path fill="#7684ca" d="M151.3 141.6l-22.5 17.5-44.6-7.9 22.5-17.5z"/><path fill="#769ac7" d="M106.7 133.7l44.6 7.9-22.5 17.5-44.6-7.9z"/><path fill="#7684ca" d="M151.8 142.6l.4.1-22.5 17.4h-.4z"/><path fill="#7a88cc" d="M152.2 142.7l-22.5 17.4v-.4l22.5-17.5z"/><path fill="#628cbe" d="M84.2 151.2l-.9-45.3 44.6 7.9.9 45.3z"/><path fill="#7684ca" d="M105.8 88.5l44.6 7.8-22.5 17.5-44.6-7.9z"/><path fill="#769ac7" d="M150.4 96.3l-22.5 17.5-44.6-7.9 22.5-17.4z"/><path fill="#7a88cc" d="M150.4 96.3l.9 45.3-22.5 17.5-.9-45.3z"/><path fill="#7a9ec8" d="M151.3 141.6l-22.5 17.5-.9-45.3 22.5-17.5z"/><path fill="#7684ca" d="M150.9 95.5L128.3 113l-45.5-8.1 22.5-17.4z"/><path fill="#7a88cc" d="M152.2 142.2l-22.5 17.5-.9-46.2L151.3 96z"/><path fill="#7684ca" d="M151.3 95.6L128.8 113h-.5l22.6-17.5z"/><path fill="#7a88cc" d="M151.3 96l-22.5 17.5v-.5l22.5-17.4z"/><path fill="#6272c3" d="M128.3 113h.5v.5l.9 46.2v.4h-.4l-45.6-8-.4-.1v-.5l-1-46.2v-.4h.5zm.5 46l-1-45.2-44.5-7.9.9 45.3 44.6 7.9"/></g><g opacity=".7"><path fill="#628cbe" d="M55.3 73.4l-.9-45.3L99 36l.9 45.2z"/><path fill="#7a88cc" d="M54.4 73.7l.1.4-22.6 17.5v-.4z"/><path fill="#7684ca" d="M54.5 74.1l.4.1-22.5 17.5-.5-.1z"/><path fill="#6272c3" d="M99.5 35.1l.4.1v.5l1 46.1v.5h-.5l-45.5-8-.4-.2v-.4l-1-46.2V27l.5.1zm.4 46.1L99 36 54.4 28l1 45.3 44.5 7.8"/><path fill="#7a88cc" d="M53.5 27.5l.9 46.2-22.5 17.5L31 45z"/><path fill="#7a88cc" d="M53.5 27v.5L31 45v-.5zM55.3 73.4L32.8 90.9l-.9-45.3 22.5-17.5z"/><path fill="#7a9ec8" d="M54.4 28.1l.9 45.3-22.5 17.5-.9-45.3z"/><path fill="#7684ca" d="M53.9 27.1L31.4 44.6l-.4-.1L53.5 27zM54.9 74.2l45.5 8-22.5 17.5-45.5-8z"/><path fill="#769ac7" d="M55.3 73.4l44.6 7.8-22.5 17.5-44.6-7.8z"/><path fill="#7684ca" d="M99.9 81.2L77.4 98.7l-44.6-7.8 22.5-17.5zM100.4 82.2l.5.1-22.6 17.5-.4-.1z"/><path fill="#7a88cc" d="M100.9 82.3L78.3 99.8v-.5l22.5-17.5z"/><path fill="#628cbe" d="M32.8 90.9l-.9-45.3 44.6 7.9.9 45.2z"/><path fill="#7684ca" d="M54.4 28.1L99 36 76.5 53.5l-44.6-7.9z"/><path fill="#769ac7" d="M99 36L76.5 53.5l-44.6-7.9 22.5-17.5z"/><path fill="#7a88cc" d="M99 36l.9 45.2-22.5 17.5-.9-45.2z"/><path fill="#7a9ec8" d="M99.9 81.2L77.4 98.7l-.9-45.2L99 36z"/><path fill="#7684ca" d="M99.5 35.1L76.9 52.6l-45.5-8 22.5-17.5z"/><path fill="#7a88cc" d="M100.8 81.8L78.3 99.3l-.9-46.1 22.5-17.5z"/><path fill="#7684ca" d="M99.9 35.2L77.4 52.7l-.5-.1 22.6-17.5z"/><path fill="#7a88cc" d="M99.9 35.7L77.4 53.2v-.5l22.5-17.5z"/><path fill="#6272c3" d="M77 52.6h.4v.6l1 46.1v.5h-.5l-45.5-8.1h-.5v-.5L31 45v-.5h.5zm.4 46.1l-.9-45.2-44.6-8 .9 45.4 44.6 7.8"/></g><g opacity=".7"><path fill="#628cbe" d="M208.2 101.2l-.9-45.3 44.6 7.9.9 45.2z"/><path fill="#7a88cc" d="M207.3 101.5v.4l-22.5 17.5v-.5z"/><path fill="#7684ca" d="M207.3 101.9l.5.1-22.6 17.5-.4-.1z"/><path fill="#6272c3" d="M252.4 63h.4v.5l1 46.1v.5h-.5l-45.5-8.1h-.5v-.5l-1-46.2v-.5l.5.1zm.4 46l-.9-45.2-44.6-7.9 1 45.3 44.5 7.8"/><path fill="#7a88cc" d="M206.4 55.3l.9 46.2-22.5 17.4-.9-46.1zM206.4 54.8v.5l-22.5 17.5v-.5z"/><path fill="#7a88cc" d="M208.2 101.2l-22.5 17.4-.9-45.2 22.5-17.5z"/><path fill="#7a9ec8" d="M207.3 55.9l.9 45.3-22.5 17.4-.9-45.2z"/><path fill="#7684ca" d="M206.8 54.9l-22.5 17.5-.4-.1 22.5-17.5zM207.8 102l45.5 8-22.5 17.5-45.6-8z"/><path fill="#7684ca" d="M252.8 109l-22.5 17.5-44.6-7.9 22.5-17.4z"/><path fill="#769ac7" d="M208.2 101.2l44.6 7.8-22.5 17.5-44.6-7.9z"/><path fill="#7684ca" d="M253.3 110l.4.1-22.5 17.5-.4-.1z"/><path fill="#7a88cc" d="M253.7 110.1l-22.5 17.5v-.5l22.5-17.5z"/><path fill="#628cbe" d="M185.7 118.6l-.9-45.2 44.6 7.9.9 45.2z"/><path fill="#769ac7" d="M251.9 63.8l-22.5 17.5-44.6-7.9 22.5-17.5z"/><path fill="#7684ca" d="M207.3 55.9l44.6 7.9-22.5 17.5-44.6-7.9z"/><path fill="#7a88cc" d="M251.9 63.8l.9 45.2-22.5 17.5-.9-45.2z"/><path fill="#7a9ec8" d="M252.8 109l-22.5 17.5-.9-45.2 22.5-17.5z"/><path fill="#7684ca" d="M252.4 62.9l-22.6 17.5-45.5-8 22.5-17.5z"/><path fill="#7a88cc" d="M253.7 109.6l-22.5 17.5-.9-46.1 22.5-17.5z"/><path fill="#7684ca" d="M252.8 63l-22.5 17.5-.5-.1 22.6-17.5z"/><path fill="#7a88cc" d="M252.8 63.5L230.3 81v-.5L252.8 63z"/><path fill="#6272c3" d="M229.8 80.4h.5v.6l.9 46.1v.5h-.4l-45.6-8.1h-.4v-.6l-1-46.1v-.5h.5zm.5 46.1l-1-45.2-44.5-8 .9 45.3 44.6 8"/></g><g opacity=".7"><path fill="#6272c3" d="M201.2 53.8l.5.1v.5l1 46.2v.4h-.5l-45.5-8-.5-.2v-.4l-1-46.2v-.5l.5.1zm.5 46.1l-.9-45.2-44.6-7.9.9 45.3 44.6 7.8"/><path fill="#628cbe" d="M157.1 92.1l-.9-45.3 44.6 7.9.9 45.2z"/><path fill="#7a88cc" d="M156.2 92.4v.4l-22.5 17.5v-.4z"/><path fill="#7684ca" d="M156.2 92.8l.5.1-22.6 17.5-.4-.1z"/><path fill="#7a88cc" d="M155.3 46.2l.9 46.2-22.5 17.5-.9-46.2z"/><path fill="#7a88cc" d="M155.3 45.7v.5l-22.5 17.5-.1-.5zM157.1 92.1l-22.5 17.5-.9-45.3 22.5-17.5z"/><path fill="#7a9ec8" d="M156.2 46.8l.9 45.3-22.5 17.5-.9-45.3z"/><path fill="#7684ca" d="M155.7 45.8l-22.5 17.5-.5-.1 22.6-17.5zM156.7 92.9l45.5 8-22.6 17.5-45.5-8z"/><path fill="#769ac7" d="M157.1 92.1l44.6 7.8-22.5 17.5-44.6-7.8z"/><path fill="#7684ca" d="M201.7 99.9l-22.5 17.5-44.6-7.8 22.5-17.5zM202.2 100.9l.4.1-22.5 17.5-.5-.1z"/><path fill="#7a88cc" d="M202.6 101l-22.5 17.5v-.5l22.5-17.4z"/><path fill="#628cbe" d="M134.6 109.6l-.9-45.3 44.6 7.9.9 45.2z"/><path fill="#769ac7" d="M200.8 54.7l-22.5 17.5-44.6-7.9 22.5-17.5z"/><path fill="#7684ca" d="M156.2 46.8l44.6 7.9-22.5 17.5-44.6-7.9z"/><path fill="#7a88cc" d="M200.8 54.7l.9 45.2-22.5 17.5-.9-45.2z"/><path fill="#7a9ec8" d="M201.7 99.9l-22.5 17.5-.9-45.2 22.5-17.5z"/><path fill="#7684ca" d="M201.2 53.8l-22.5 17.5-45.5-8 22.5-17.5z"/><path fill="#7a88cc" d="M202.6 100.6L180.1 118l-.9-46.1 22.5-17.5z"/><path fill="#7684ca" d="M201.7 53.9l-22.6 17.5-.4-.1 22.5-17.5z"/><path fill="#7a88cc" d="M201.7 54.4l-22.5 17.5-.1-.5 22.6-17.5z"/><path fill="#6272c3" d="M178.7 71.3l.4.1v.5l1 46.1v.5h-.5l-45.5-8.1h-.4v-.5l-1-46.2v-.5h.5zm.5 46.1l-1-45.2-44.5-8 .9 45.4 44.6 7.8"/></g><g opacity=".7"><path fill="#6272c3" d="M149.9 44.5h.4v.5l1 46.2v.5l-.5-.1-45.5-8-.5-.1V83l-.9-46.2v-.4h.4zm.4 46l-.9-45.2-44.6-7.8 1 45.2 44.5 7.9"/><path fill="#628cbe" d="M105.7 82.7l-.9-45.2 44.6 7.8.9 45.3z"/><path fill="#7a88cc" d="M104.8 83v.5L82.3 101v-.5z"/><path fill="#7684ca" d="M104.8 83.5l.5.1L82.7 101h-.4z"/><path fill="#7a88cc" d="M103.9 36.8l.9 46.2-22.5 17.5-.9-46.2z"/><path fill="#7a88cc" d="M103.9 36.4v.4L81.4 54.3v-.4zM105.7 82.7l-22.5 17.5-.9-45.3 22.5-17.4z"/><path fill="#7a9ec8" d="M104.8 37.5l.9 45.2-22.5 17.5-.9-45.3z"/><path fill="#7684ca" d="M104.3 36.5L81.8 53.9h-.4l22.5-17.5zM105.3 83.6l45.5 8-22.5 17.5-45.6-8.1z"/><path fill="#769ac7" d="M105.7 82.7l44.6 7.9-22.5 17.5-44.6-7.9z"/><path fill="#7684ca" d="M150.3 90.6l-22.5 17.5-44.6-7.9 22.5-17.5zM150.8 91.6l.4.1-22.5 17.4h-.4z"/><path fill="#7a88cc" d="M151.2 91.7l-22.5 17.4v-.4l22.5-17.5z"/><path fill="#628cbe" d="M83.2 100.2l-.9-45.3 44.6 7.9.9 45.3z"/><path fill="#7684ca" d="M104.8 37.5l44.6 7.8-22.5 17.5-44.6-7.9z"/><path fill="#769ac7" d="M149.4 45.3l-22.5 17.5-44.6-7.9 22.5-17.4z"/><path fill="#7a88cc" d="M149.4 45.3l.9 45.3-22.5 17.5-.9-45.3z"/><path fill="#7a9ec8" d="M150.3 90.6l-22.5 17.5-.9-45.3 22.5-17.5z"/><path fill="#7684ca" d="M149.9 44.5L127.3 62l-45.5-8.1 22.5-17.4z"/><path fill="#7a88cc" d="M151.2 91.2l-22.5 17.5-.9-46.2L150.3 45z"/><path fill="#7684ca" d="M150.3 44.6L127.8 62h-.5l22.6-17.5z"/><path fill="#7a88cc" d="M150.3 45l-22.5 17.5V62l22.5-17.4z"/><path fill="#6272c3" d="M127.3 62h.5v.5l.9 46.2v.4h-.4l-45.6-8-.4-.1v-.5l-1-46.2V54h.5zm.5 46l-1-45.2L82.4 55l.9 45.3 44.6 7.9"/></g><g opacity=".7"><path fill="#ffd65d" d="M26.8 252.9l-.9-45.2 44.6 7.8.9 45.3z"/><path fill="#7a88cc" d="M25.9 253.2v.5L3.4 271.2l-.1-.5z"/><path fill="#7684ca" d="M25.9 253.7l.4.1-22.5 17.5-.4-.1z"/><path fill="#6272c3" d="M71 214.7h.4v.5l.9 46.2v.5l-.4-.1-45.6-8-.4-.1v-.5l-1-46.2v-.4h.5zm.4 46l-1-45.2-44.5-7.8.9 45.2 44.6 7.9"/><path fill="#7a88cc" d="M25 207l.9 46.2-22.6 17.5-.9-46.2z"/><path fill="#7a88cc" d="M24.9 206.6l.1.4-22.6 17.5v-.4zM26.8 252.9L4.2 270.4l-.9-45.2 22.6-17.5z"/><path fill="#fd7" d="M25.9 207.7l.9 45.2-22.6 17.5-.9-45.2z"/><path fill="#7684ca" d="M25.4 206.7L2.9 224.1h-.5l22.5-17.5zM26.3 253.8l45.6 8-22.6 17.5-45.5-8z"/><path fill="#ffdc72" d="M26.8 252.9l44.6 7.9-22.5 17.5-44.7-7.9z"/><path fill="#7684ca" d="M71.4 260.8l-22.5 17.5-44.7-7.9 22.6-17.5zM71.9 261.8l.4.1-22.5 17.5-.5-.1z"/><path fill="#7a88cc" d="M72.3 261.9l-22.5 17.5v-.5l22.5-17.5z"/><path fill="#7684ca" d="M25.9 207.7l44.6 7.8L48 233l-44.7-7.8z"/><path fill="#ffdc72" d="M70.5 215.5L48 233l-44.7-7.8 22.6-17.5z"/><path fill="#7a88cc" d="M70.5 215.5l.9 45.3-22.5 17.5L48 233z"/><path fill="#fd7" d="M71.4 260.8l-22.5 17.5L48 233l22.5-17.5z"/><path fill="#6272c3" d="M48.4 232.2h.4v.5l1 46.2v.5l-.5-.1-45.5-8-.4-.1v-.5l-1-46.2v-.4H3zm.5 46l-1-45.2-44.6-7.8 1 45.2 44.6 7.9"/><path fill="#ffd65d" d="M4.2 270.4l-.9-45.2L48 233l.9 45.3z"/><path fill="#7684ca" d="M70.9 214.7l-22.5 17.5-45.5-8.1 22.5-17.4z"/><path fill="#7a88cc" d="M72.3 261.4l-22.5 17.5-1-46.2 22.6-17.5z"/><path fill="#7684ca" d="M71.4 214.8l-22.6 17.5-.4-.1 22.5-17.5z"/><path fill="#7a88cc" d="M71.4 215.2l-22.6 17.5v-.4l22.6-17.5z"/></g><g opacity=".7"><path fill="#ffd65d" d="M179.6 280.7l-.9-45.2 44.7 7.8.9 45.3z"/><path fill="#7a88cc" d="M178.8 281v.5L156.2 299v-.5z"/><path fill="#7684ca" d="M178.8 281.5l.4.1-22.5 17.4h-.5z"/><path fill="#7a88cc" d="M177.8 234.8l1 46.2-22.6 17.5-.9-46.2z"/><path fill="#7a88cc" d="M179.6 280.7l-22.5 17.5-.9-45.3 22.5-17.4z"/><path fill="#fd7" d="M178.7 235.5l.9 45.2-22.5 17.5-.9-45.3z"/><path fill="#6272c3" d="M177.8 234.8l.1 1.3.8-.6 44.7 7.8.9 45.3-44.7-7.9-.8.7v.1l.4.1 45.5 8 .5.1v-.5l-1-46.2v-.4l-.4-.1-45.5-8-.5-.1z"/><path fill="#7a88cc" d="M177.8 234.4v.4l-22.5 17.5v-.4z"/><path fill="#7684ca" d="M178.3 234.5l-22.6 17.4h-.4l22.5-17.5zM179.2 281.6l45.5 8-22.5 17.5-45.5-8.1z"/><path fill="#ffdc72" d="M179.6 280.7l44.7 7.9-22.6 17.5-44.6-7.9z"/><path fill="#7684ca" d="M224.3 288.6l-22.6 17.5-44.6-7.9 22.5-17.5zM224.7 289.6l.5.1-22.5 17.4h-.5z"/><path fill="#7a88cc" d="M225.2 289.7l-22.5 17.4-.1-.4 22.6-17.5z"/><path fill="#ffd65d" d="M157.1 298.2l-.9-45.3 44.6 7.9.9 45.3z"/><path fill="#7684ca" d="M178.7 235.5l44.7 7.8-22.6 17.5-44.6-7.9z"/><path fill="#ffdc72" d="M223.4 243.3l-22.6 17.5-44.6-7.9 22.5-17.4z"/><path fill="#7a88cc" d="M223.4 243.3l.9 45.3-22.6 17.5-.9-45.3z"/><path fill="#fd7" d="M224.3 288.6l-22.6 17.5-.9-45.3 22.6-17.5z"/><path fill="#7684ca" d="M223.8 242.5L201.3 260l-45.6-8.1 22.6-17.4z"/><path fill="#7a88cc" d="M225.2 289.2l-22.6 17.5-.9-46.2 22.5-17.5z"/><path fill="#7684ca" d="M224.2 242.6L201.7 260h-.4l22.5-17.5z"/><path fill="#7a88cc" d="M224.2 243l-22.5 17.5v-.5l22.5-17.4z"/><path fill="#6272c3" d="M201.3 260h.4v.5l1 46.2v.5l-.5-.1-45.5-8-.5-.1v-.5l-.9-46.2v-.4h.4zm.4 46l-.9-45.2-44.6-7.9 1 45.3 44.5 7.9"/></g><g opacity=".7"><path fill="#628cbe" d="M128.5 271.6l-.9-45.2 44.6 7.8 1 45.3z"/><path fill="#7a88cc" d="M127.6 271.9l.1.5-22.6 17.5v-.5z"/><path fill="#7684ca" d="M127.7 272.4l.4.1-22.5 17.5-.5-.1z"/><path fill="#6272c3" d="M172.7 233.4h.4v.5l1 46.2v.5l-.5-.1-45.5-8-.4-.1v-.5l-1-46.1v-.5h.5zm.5 46l-1-45.2-44.6-7.8 1 45.2 44.6 7.9"/><path fill="#7a88cc" d="M126.7 225.8l.9 46.1-22.5 17.5-.9-46.2zM126.7 225.3v.5l-22.5 17.4v-.4z"/><path fill="#7a88cc" d="M128.5 271.6L106 289.1l-.9-45.2 22.5-17.5z"/><path fill="#7a9ec8" d="M127.6 226.4l.9 45.2-22.5 17.5-.9-45.2z"/><path fill="#7684ca" d="M127.2 225.4l-22.6 17.5-.4-.1 22.5-17.5zM128.1 272.5l45.5 8-22.5 17.5-45.5-8z"/><path fill="#7684ca" d="M173.2 279.5L150.6 297l-44.6-7.9 22.5-17.5z"/><path fill="#769ac7" d="M128.5 271.6l44.7 7.9-22.6 17.5-44.6-7.9z"/><path fill="#7684ca" d="M173.6 280.5l.5.1-22.6 17.5-.4-.1z"/><path fill="#7a88cc" d="M174.1 280.6l-22.6 17.5v-.5l22.6-17.5z"/><path fill="#628cbe" d="M106 289.1l-.9-45.2 44.6 7.8.9 45.3z"/><path fill="#7684ca" d="M127.6 226.4l44.6 7.8-22.5 17.5-44.6-7.8z"/><path fill="#769ac7" d="M172.2 234.2l-22.5 17.5-44.6-7.8 22.5-17.5z"/><path fill="#7a9ec8" d="M173.2 279.5L150.6 297l-.9-45.3 22.5-17.5z"/><path fill="#7a88cc" d="M172.2 234.2l1 45.3-22.6 17.5-.9-45.3z"/><path fill="#7684ca" d="M172.7 233.4l-22.6 17.5-45.5-8 22.6-17.5z"/><path fill="#7a88cc" d="M174.1 280.1l-22.6 17.5-.9-46.2 22.5-17.5z"/><path fill="#7684ca" d="M173.1 233.5L150.6 251l-.5-.1 22.6-17.5z"/><path fill="#7a88cc" d="M173.1 233.9l-22.5 17.5v-.4l22.5-17.5z"/><path fill="#6272c3" d="M150.1 250.9h.5v.5l1 46.2v.5l-.5-.1-45.5-8-.5-.1v-.5l-1-46.2v-.4h.5zm.5 46l-.9-45.2-44.6-7.8.9 45.2 44.6 7.9"/></g><g opacity=".7"><path fill="#628cbe" d="M77.1 262.3l-.9-45.3 44.7 7.9.9 45.2z"/><path fill="#7a88cc" d="M76.3 262.6v.4l-22.6 17.5v-.4z"/><path fill="#7684ca" d="M76.3 263l.4.1-22.5 17.5-.5-.1z"/><path fill="#6272c3" d="M121.3 224l.4.1v.5l1 46.2v.4h-.5l-45.5-8-.4-.2v-.4l-1-46.2v-.5l.5.1zm.5 46.1l-1-45.2-44.6-7.9 1 45.3 44.6 7.8"/><path fill="#7a88cc" d="M75.3 216.4l1 46.2-22.6 17.5-.9-46.2zM75.3 215.9v.5l-22.5 17.5v-.5z"/><path fill="#7a88cc" d="M77.1 262.3l-22.5 17.5-.9-45.3L76.2 217z"/><path fill="#7a9ec8" d="M76.2 217l.9 45.3-22.5 17.5-.9-45.3z"/><path fill="#7684ca" d="M75.8 216l-22.6 17.5-.4-.1 22.5-17.5zM76.7 263.1l45.5 8-22.5 17.5-45.5-8z"/><path fill="#769ac7" d="M77.1 262.3l44.7 7.8-22.6 17.5-44.6-7.8z"/><path fill="#7684ca" d="M121.8 270.1l-22.6 17.5-44.6-7.8 22.5-17.5zM122.2 271.1l.5.1-22.5 17.5-.5-.1z"/><path fill="#7a88cc" d="M122.7 271.2l-22.5 17.5-.1-.5 22.6-17.4z"/><path fill="#7684ca" d="M76.2 217l44.7 7.9-22.6 17.5-44.6-7.9z"/><path fill="#769ac7" d="M120.9 224.9l-22.6 17.5-44.6-7.9L76.2 217z"/><path fill="#7a88cc" d="M120.9 224.9l.9 45.2-22.6 17.5-.9-45.2z"/><path fill="#7a9ec8" d="M121.8 270.1l-22.6 17.5-.9-45.2 22.6-17.5z"/><path fill="#6272c3" d="M98.8 241.5l.4.1v.5l1 46.1v.5h-.5l-45.5-8-.5-.2v-.4l-.9-46.2v-.5l.4.1zm.4 46.1l-.9-45.2-44.6-7.9 1 45.3 44.5 7.8"/><path fill="#628cbe" d="M54.6 279.8l-.9-45.3 44.6 7.9.9 45.2z"/><path fill="#7684ca" d="M121.3 224l-22.5 17.5-45.6-8L75.8 216z"/><path fill="#7a88cc" d="M122.7 270.8l-22.6 17.4-.9-46.1 22.5-17.5z"/><path fill="#7684ca" d="M121.7 224.1l-22.5 17.5-.4-.1 22.5-17.5z"/><path fill="#7a88cc" d="M121.7 224.6l-22.5 17.5v-.5l22.5-17.5z"/></g><g opacity=".7"><path fill="#ffd65d" d="M25.8 201.9l-.9-45.2 44.6 7.8.9 45.3z"/><path fill="#7a88cc" d="M24.9 202.2v.5L2.4 220.2l-.1-.5z"/><path fill="#7684ca" d="M24.9 202.7l.4.1-22.5 17.5-.4-.1z"/><path fill="#6272c3" d="M70 163.7h.4v.5l.9 46.2v.5l-.4-.1-45.6-8-.4-.1v-.5l-1-46.2v-.4h.5zm.4 46l-1-45.2-44.5-7.8.9 45.2 44.6 7.9"/><path fill="#7a88cc" d="M24 156l.9 46.2-22.6 17.5-.9-46.2z"/><path fill="#7a88cc" d="M23.9 155.6l.1.4-22.6 17.5v-.4zM25.8 201.9L3.2 219.4l-.9-45.3 22.6-17.4z"/><path fill="#fd7" d="M24.9 156.7l.9 45.2-22.6 17.5-.9-45.3z"/><path fill="#7684ca" d="M24.4 155.7L1.9 173.1h-.5l22.5-17.5zM25.3 202.8l45.6 8-22.6 17.5-45.5-8z"/><path fill="#ffdc72" d="M25.8 201.9l44.6 7.9-22.5 17.5-44.7-7.9z"/><path fill="#7684ca" d="M70.4 209.8l-22.5 17.5-44.7-7.9 22.6-17.5zM70.9 210.8l.4.1-22.5 17.5-.5-.1z"/><path fill="#7a88cc" d="M71.3 210.9l-22.5 17.5v-.5l22.5-17.5z"/><path fill="#ffd65d" d="M3.2 219.4l-.9-45.3L47 182l.9 45.3z"/><path fill="#ffdc72" d="M69.5 164.5L47 182l-44.7-7.9 22.6-17.4z"/><path fill="#7684ca" d="M24.9 156.7l44.6 7.8L47 182l-44.7-7.9z"/><path fill="#7a88cc" d="M69.5 164.5l.9 45.3-22.5 17.5L47 182z"/><path fill="#fd7" d="M70.4 209.8l-22.5 17.5L47 182l22.5-17.5z"/><path fill="#7684ca" d="M69.9 163.7l-22.5 17.5-45.5-8.1 22.5-17.4z"/><path fill="#7a88cc" d="M71.3 210.4l-22.5 17.5-1-46.2 22.6-17.5z"/><path fill="#7684ca" d="M70.4 163.8l-22.6 17.5-.4-.1 22.5-17.5z"/><path fill="#7a88cc" d="M70.4 164.2l-22.6 17.5v-.4l22.6-17.5z"/><path fill="#6272c3" d="M47.4 181.2h.4v.5l1 46.2v.5l-.5-.1-45.5-8-.4-.1v-.5l-1-46.2v-.4H2zm.5 46l-1-45.2-44.6-7.9 1 45.3 44.6 7.9"/></g><g opacity=".7"><path fill="#ffd65d" d="M178.6 229.7l-.9-45.2 44.7 7.8.9 45.3z"/><path fill="#7a88cc" d="M177.8 230v.5L155.2 248v-.5z"/><path fill="#7684ca" d="M177.8 230.5l.4.1-22.5 17.4h-.5z"/><path fill="#6272c3" d="M222.8 191.5h.4v.5l1 46.2v.5l-.5-.1-45.5-8-.4-.1v-.5l-1-46.2v-.4h.5zm.5 46l-1-45.2-44.6-7.8 1 45.2 44.6 7.9"/><path fill="#7a88cc" d="M176.8 183.8l1 46.2-22.6 17.5-.9-46.2z"/><path fill="#7a88cc" d="M176.8 183.4v.4l-22.5 17.5v-.4zM178.6 229.7l-22.5 17.5-.9-45.3 22.5-17.4z"/><path fill="#fd7" d="M177.7 184.5l.9 45.2-22.5 17.5-.9-45.3z"/><path fill="#7684ca" d="M177.3 183.5l-22.6 17.4h-.4l22.5-17.5zM178.2 230.6l45.5 8-22.5 17.5-45.5-8.1z"/><path fill="#7684ca" d="M223.3 237.6l-22.6 17.5-44.6-7.9 22.5-17.5z"/><path fill="#ffdc72" d="M178.6 229.7l44.7 7.9-22.6 17.5-44.6-7.9z"/><path fill="#7684ca" d="M223.7 238.6l.5.1-22.5 17.4h-.5z"/><path fill="#7a88cc" d="M224.2 238.7l-22.5 17.4-.1-.4 22.6-17.5z"/><path fill="#7684ca" d="M177.7 184.5l44.7 7.8-22.6 17.5-44.6-7.9z"/><path fill="#ffd65d" d="M156.1 247.2l-.9-45.3 44.6 7.9.9 45.3z"/><path fill="#ffdc72" d="M222.4 192.3l-22.6 17.5-44.6-7.9 22.5-17.4z"/><path fill="#7a88cc" d="M222.4 192.3l.9 45.3-22.6 17.5-.9-45.3z"/><path fill="#fd7" d="M223.3 237.6l-22.6 17.5-.9-45.3 22.6-17.5z"/><path fill="#7684ca" d="M222.8 191.5L200.3 209l-45.6-8.1 22.6-17.4z"/><path fill="#7a88cc" d="M224.2 238.2l-22.6 17.5-.9-46.2 22.5-17.5z"/><path fill="#7684ca" d="M223.2 191.6L200.7 209h-.4l22.5-17.5z"/><path fill="#7a88cc" d="M223.2 192l-22.5 17.5v-.5l22.5-17.4z"/><path fill="#6272c3" d="M200.3 209h.4v.5l1 46.2v.4h-.5l-45.5-8-.5-.1v-.5l-.9-46.2v-.4h.4zm.4 46l-.9-45.2-44.6-7.9 1 45.3 44.5 7.9"/></g><g opacity=".7"><path fill="#6272c3" d="M171.7 182.4h.4v.5l1 46.2v.5l-.5-.1-45.5-8-.4-.1v-.5l-1-46.1v-.5h.5zm.5 46l-1-45.2-44.6-7.8 1 45.2 44.6 7.9"/><path fill="#ffd65d" d="M127.5 220.6l-.9-45.2 44.6 7.8 1 45.3z"/><path fill="#7a88cc" d="M126.6 220.9l.1.5-22.6 17.5v-.5z"/><path fill="#7684ca" d="M126.7 221.4l.4.1-22.5 17.5-.5-.1z"/><path fill="#7a88cc" d="M125.7 174.8l.9 46.1-22.5 17.5-.9-46.2z"/><path fill="#7a88cc" d="M125.7 174.3v.5l-22.5 17.4v-.4zM127.5 220.6L105 238.1l-.9-45.2 22.5-17.5z"/><path fill="#fd7" d="M126.6 175.4l.9 45.2-22.5 17.5-.9-45.2z"/><path fill="#7684ca" d="M126.2 174.4l-22.6 17.5-.4-.1 22.5-17.5zM127.1 221.5l45.5 8-22.5 17.5-45.5-8z"/><path fill="#ffdc72" d="M127.5 220.6l44.7 7.9-22.6 17.5-44.6-7.9z"/><path fill="#7684ca" d="M172.2 228.5L149.6 246l-44.6-7.9 22.5-17.5zM172.6 229.5l.5.1-22.6 17.5-.4-.1z"/><path fill="#7a88cc" d="M173.1 229.6l-22.6 17.5v-.5l22.6-17.5z"/><path fill="#ffdc72" d="M171.2 183.2l-22.5 17.5-44.6-7.8 22.5-17.5z"/><path fill="#7684ca" d="M126.6 175.4l44.6 7.8-22.5 17.5-44.6-7.8z"/><path fill="#7a88cc" d="M171.2 183.2l1 45.3-22.6 17.5-.9-45.3z"/><path fill="#fd7" d="M172.2 228.5L149.6 246l-.9-45.3 22.5-17.5z"/><path fill="#6272c3" d="M149.1 199.9h.5v.5l1 46.2v.5l-.5-.1-45.5-8-.5-.1v-.5l-1-46.2v-.4h.5zm.5 46l-.9-45.2-44.6-7.8.9 45.2 44.6 7.9"/><path fill="#ffd65d" d="M105 238.1l-.9-45.2 44.6 7.8.9 45.3z"/><path fill="#7684ca" d="M171.7 182.4l-22.6 17.5-45.5-8 22.6-17.5z"/><path fill="#7a88cc" d="M173.1 229.1l-22.6 17.5-.9-46.2 22.5-17.5z"/><path fill="#7684ca" d="M172.1 182.5L149.6 200l-.5-.1 22.6-17.5z"/><path fill="#7a88cc" d="M172.1 182.9l-22.5 17.5v-.4l22.5-17.5z"/></g><g opacity=".7"><path fill="#628cbe" d="M76.1 211.3l-.9-45.3 44.7 7.9.9 45.2z"/><path fill="#7a88cc" d="M75.3 211.6v.4l-22.6 17.5v-.4z"/><path fill="#7684ca" d="M75.3 212l.4.1-22.5 17.5-.5-.1z"/><path fill="#7a88cc" d="M74.3 165.4l1 46.2-22.6 17.5-.9-46.2z"/><path fill="#7a88cc" d="M76.1 211.3l-22.5 17.5-.9-45.3L75.2 166z"/><path fill="#7a9ec8" d="M75.2 166l.9 45.3-22.5 17.5-.9-45.3z"/><path fill="#6272c3" d="M74.3 165.4l.1 1.3.8-.7 44.7 7.9.9 45.2-44.7-7.8-.8.7.4.1 45.5 8 .5.1v-.4l-1-46.2v-.5l-.4-.1-45.5-8-.5-.1z"/><path fill="#7a88cc" d="M74.3 164.9v.5l-22.5 17.5v-.5z"/><path fill="#7684ca" d="M74.8 165l-22.6 17.5-.4-.1 22.5-17.5zM75.7 212.1l45.5 8-22.5 17.5-45.5-8z"/><path fill="#769ac7" d="M76.1 211.3l44.7 7.8-22.6 17.5-44.6-7.8z"/><path fill="#7684ca" d="M120.8 219.1l-22.6 17.5-44.6-7.8 22.5-17.5zM121.2 220.1l.5.1-22.5 17.5-.5-.1z"/><path fill="#7a88cc" d="M121.7 220.2l-22.5 17.5-.1-.5 22.6-17.4z"/><path fill="#7684ca" d="M75.2 166l44.7 7.9-22.6 17.5-44.6-7.9z"/><path fill="#769ac7" d="M119.9 173.9l-22.6 17.5-44.6-7.9L75.2 166z"/><path fill="#7a88cc" d="M119.9 173.9l.9 45.2-22.6 17.5-.9-45.2z"/><path fill="#7a9ec8" d="M120.8 219.1l-22.6 17.5-.9-45.2 22.6-17.5z"/><path fill="#6272c3" d="M97.8 190.5l.4.1v.5l1 46.1v.5h-.5l-45.5-8.1h-.5v-.5l-.9-46.2v-.5l.4.1zm.4 46.1l-.9-45.2-44.6-7.9 1 45.3 44.5 7.8"/><path fill="#628cbe" d="M53.6 228.8l-.9-45.3 44.6 7.9.9 45.2z"/><path fill="#7684ca" d="M120.3 173l-22.5 17.5-45.6-8L74.8 165z"/><path fill="#7a88cc" d="M121.7 219.8l-22.6 17.4-.9-46.1 22.5-17.5z"/><path fill="#7684ca" d="M120.7 173.1l-22.5 17.5-.4-.1 22.5-17.5z"/><path fill="#7a88cc" d="M120.7 173.6l-22.5 17.5v-.5l22.5-17.5z"/></g><g opacity=".7"><path fill="#ffd65d" d="M25.4 150.7l-1-45.2 44.7 7.9.9 45.2z"/><path fill="#7a88cc" d="M24.5 151v.5L1.9 169v-.5z"/><path fill="#7684ca" d="M24.5 151.5l.4.1-22.5 17.5-.5-.1z"/><path fill="#6272c3" d="M69.5 112.5h.4v.6l1 46.1v.5h-.5L25 151.5h-.4v-.6l-1-46.1v-.5h.5zm.5 46.1l-1-45.2-44.6-8 1 45.3 44.6 8"/><path fill="#7a88cc" d="M23.5 104.9l1 46.1-22.6 17.5-.9-46.1z"/><path fill="#7a88cc" d="M23.5 104.4v.5L1 122.4v-.5zM25.4 150.7L2.8 168.2 1.9 123l22.5-17.5z"/><path fill="#fd7" d="M24.4 105.5l1 45.2-22.6 17.5-.9-45.2z"/><path fill="#7684ca" d="M24 104.5L1.4 122l-.4-.1 22.5-17.5zM24.9 151.6l45.5 8-22.5 17.5-45.5-8z"/><path fill="#7684ca" d="M70 158.6l-22.6 17.5-44.6-7.9 22.6-17.5z"/><path fill="#ffdc72" d="M25.4 150.7l44.6 7.9-22.6 17.5-44.6-7.9z"/><path fill="#7684ca" d="M70.4 159.6l.5.1-22.5 17.5-.5-.1z"/><path fill="#7a88cc" d="M70.9 159.7l-22.5 17.5-.1-.5 22.6-17.5z"/><path fill="#ffdc72" d="M69.1 113.4l-22.6 17.4L1.9 123l22.5-17.5z"/><path fill="#7684ca" d="M24.4 105.5l44.7 7.9-22.6 17.4L1.9 123z"/><path fill="#7a88cc" d="M69.1 113.4l.9 45.2-22.6 17.5-.9-45.3z"/><path fill="#fd7" d="M70 158.6l-22.6 17.5-.9-45.3 22.6-17.4z"/><path fill="#6272c3" d="M47 130h.4v.5l1 46.2v.5l-.5-.1-45.5-8-.5-.1v-.5L1 122.4v-.5h.4zm.4 46l-.9-45.2L2 123l1 45.2 44.5 7.9"/><path fill="#ffd65d" d="M2.8 168.2L1.9 123l44.6 7.8.9 45.3z"/><path fill="#7684ca" d="M69.5 112.5L47 130l-45.6-8L24 104.5z"/><path fill="#7a88cc" d="M70.9 159.2l-22.6 17.5-.9-46.2L70 113.1z"/><path fill="#7684ca" d="M69.9 112.6l-22.5 17.5-.4-.1 22.5-17.5z"/><path fill="#7a88cc" d="M70 113.1l-22.6 17.4v-.4l22.5-17.5z"/></g><g opacity=".7"><path fill="#ffd65d" d="M178.2 178.5l-.9-45.2 44.7 7.9.9 45.2z"/><path fill="#7a88cc" d="M177.3 178.8l.1.5-22.6 17.5v-.5z"/><path fill="#7684ca" d="M177.4 179.3l.4.1-22.5 17.5-.5-.1z"/><path fill="#6272c3" d="M222.4 140.3h.4v.6l1 46.1v.5h-.5l-45.5-8.1-.4-.1v-.5l-1-46.1v-.5h.5zm.5 46.1l-1-45.2-44.6-8 1 45.3 44.6 8"/><path fill="#7a88cc" d="M176.4 132.7l.9 46.1-22.5 17.5-.9-46.1z"/><path fill="#7a88cc" d="M176.4 132.2v.5l-22.5 17.5v-.5zM178.2 178.5L155.7 196l-.9-45.2 22.5-17.5z"/><path fill="#fd7" d="M177.3 133.3l.9 45.2-22.5 17.5-.9-45.2z"/><path fill="#7684ca" d="M176.9 132.3l-22.6 17.5-.4-.1 22.5-17.5zM177.8 179.4l45.5 8-22.5 17.5-45.5-8z"/><path fill="#ffdc72" d="M178.2 178.5l44.7 7.9-22.6 17.5-44.6-7.9z"/><path fill="#7684ca" d="M222.9 186.4l-22.6 17.5-44.6-7.9 22.5-17.5zM223.3 187.4l.5.1-22.6 17.5-.4-.1z"/><path fill="#7a88cc" d="M223.8 187.5L201.2 205v-.5l22.6-17.5z"/><path fill="#ffd65d" d="M155.7 196l-.9-45.2 44.6 7.8.9 45.3z"/><path fill="#7684ca" d="M177.3 133.3l44.7 7.9-22.6 17.4-44.6-7.8z"/><path fill="#ffdc72" d="M222 141.2l-22.6 17.4-44.6-7.8 22.5-17.5z"/><path fill="#7a88cc" d="M222 141.2l.9 45.2-22.6 17.5-.9-45.3z"/><path fill="#fd7" d="M222.9 186.4l-22.6 17.5-.9-45.3 22.6-17.4z"/><path fill="#7684ca" d="M222.4 140.3l-22.5 17.5-45.6-8 22.6-17.5z"/><path fill="#7a88cc" d="M223.8 187l-22.6 17.5-.9-46.2 22.5-17.4z"/><path fill="#7684ca" d="M222.8 140.4l-22.5 17.5-.4-.1 22.5-17.5z"/><path fill="#7a88cc" d="M222.8 140.9l-22.5 17.4v-.4l22.5-17.5z"/><path fill="#6272c3" d="M199.9 157.8h.4v.5l1 46.2v.5l-.5-.1-45.5-8-.5-.1v-.5l-1-46.1v-.5h.5zm.4 46l-.9-45.2-44.6-7.8.9 45.2 44.6 7.9"/></g><g opacity=".7"><path fill="#6272c3" d="M171.3 131.2h.4v.6l1 46.1v.5h-.5l-45.5-8.1h-.5v-.5l-.9-46.2v-.5h.4zm.4 46.1l-.9-45.2-44.6-7.9 1 45.3 44.5 7.8"/><path fill="#628cbe" d="M127.1 169.5l-.9-45.3 44.6 7.9.9 45.2z"/><path fill="#7a88cc" d="M126.2 169.8v.4l-22.5 17.5v-.5z"/><path fill="#7684ca" d="M126.2 170.2l.5.1-22.5 17.5-.5-.1z"/><path fill="#7a88cc" d="M125.3 123.6l.9 46.2-22.5 17.4-.9-46.1zM125.3 123.1v.5l-22.5 17.5v-.5z"/><path fill="#7a9ec8" d="M126.2 124.2l.9 45.3-22.5 17.4-.9-45.2z"/><path fill="#7a88cc" d="M127.1 169.5l-22.5 17.4-.9-45.2 22.5-17.5z"/><path fill="#7684ca" d="M125.7 123.2l-22.5 17.5-.4-.1 22.5-17.5zM126.7 170.3l45.5 8-22.5 17.5-45.5-8z"/><path fill="#769ac7" d="M127.1 169.5l44.6 7.8-22.5 17.5-44.6-7.9z"/><path fill="#7684ca" d="M171.7 177.3l-22.5 17.5-44.6-7.9 22.5-17.4zM172.2 178.3l.5.1-22.6 17.5-.4-.1z"/><path fill="#7a88cc" d="M172.7 178.4l-22.6 17.5v-.5l22.5-17.5z"/><path fill="#628cbe" d="M104.6 186.9l-.9-45.2 44.6 7.9.9 45.2z"/><path fill="#7684ca" d="M126.2 124.2l44.6 7.9-22.5 17.5-44.6-7.9z"/><path fill="#769ac7" d="M170.8 132.1l-22.5 17.5-44.6-7.9 22.5-17.5z"/><path fill="#7a88cc" d="M170.8 132.1l.9 45.2-22.5 17.5-.9-45.2z"/><path fill="#7a9ec8" d="M171.7 177.3l-22.5 17.5-.9-45.2 22.5-17.5z"/><path fill="#7684ca" d="M171.3 131.2l-22.6 17.5-45.5-8 22.5-17.5z"/><path fill="#7a88cc" d="M172.6 177.9l-22.5 17.5-.9-46.2 22.5-17.4z"/><path fill="#7684ca" d="M171.7 131.3l-22.5 17.5-.5-.1 22.6-17.5z"/><path fill="#7a88cc" d="M171.7 131.8l-22.5 17.4v-.4l22.5-17.5z"/><path fill="#6272c3" d="M148.7 148.7h.5v.5l1 46.2v.5l-.5-.1-45.5-8-.5-.1v-.5l-1-46.1v-.5h.5zm.5 46.1l-.9-45.2-44.6-8 .9 45.3 44.6 7.9"/></g><g opacity=".7"><path fill="#6272c3" d="M119.9 121.9h.4v.5l1 46.2v.4h-.5l-45.5-8-.4-.1v-.5l-1-46.2v-.4h.5zm.5 46l-1-45.2-44.6-7.9 1 45.3 44.6 7.9"/><path fill="#ffd65d" d="M75.7 160.1l-.9-45.3 44.7 7.9.9 45.3z"/><path fill="#7a88cc" d="M74.9 160.4v.5l-22.6 17.4v-.4z"/><path fill="#7684ca" d="M74.9 160.9h.4l-22.5 17.5-.5-.1z"/><path fill="#7a88cc" d="M73.9 114.2l1 46.2-22.6 17.5-.9-46.2z"/><path fill="#7a88cc" d="M73.9 113.8v.4l-22.5 17.5v-.5zM75.7 160.1l-22.5 17.5-.9-45.3 22.5-17.5z"/><path fill="#fd7" d="M74.8 114.8l.9 45.3-22.5 17.5-.9-45.3z"/><path fill="#7684ca" d="M74.4 113.8l-22.6 17.5-.4-.1 22.5-17.4zM75.3 160.9l45.5 8.1-22.5 17.5-45.5-8.1z"/><path fill="#ffdc72" d="M75.7 160.1l44.7 7.9-22.6 17.5-44.6-7.9z"/><path fill="#7684ca" d="M120.4 168l-22.6 17.5-44.6-7.9 22.5-17.5zM120.8 169h.5l-22.6 17.5h-.4z"/><path fill="#7a88cc" d="M121.3 169l-22.6 17.5v-.4l22.6-17.5z"/><path fill="#ffd65d" d="M53.2 177.6l-.9-45.3 44.6 7.9.9 45.3z"/><path fill="#7684ca" d="M74.8 114.8l44.7 7.9-22.6 17.5-44.6-7.9z"/><path fill="#ffdc72" d="M119.5 122.7l-22.6 17.5-44.6-7.9 22.5-17.5z"/><path fill="#7a88cc" d="M119.5 122.7l.9 45.3-22.6 17.5-.9-45.3z"/><path fill="#fd7" d="M120.4 168l-22.6 17.5-.9-45.3 22.6-17.5z"/><path fill="#7684ca" d="M119.9 121.9l-22.5 17.4-45.6-8 22.6-17.5z"/><path fill="#7a88cc" d="M121.3 168.6l-22.6 17.5-.9-46.2 22.5-17.5z"/><path fill="#7684ca" d="M120.3 121.9l-22.5 17.5-.4-.1 22.5-17.4z"/><path fill="#7a88cc" d="M120.3 122.4l-22.5 17.5v-.5l22.5-17.5z"/><path fill="#6272c3" d="M97.4 139.3l.4.1v.5l1 46.2v.4h-.5l-45.5-8-.5-.2v-.4l-.9-46.2v-.5l.4.1zm.4 46.2l-.9-45.3-44.6-7.9 1 45.3 44.5 7.9"/></g><g opacity=".7"><path fill="#6272c3" d="M68.5 61.5h.4v.6l1 46.1v.5h-.5L24 100.5h-.4v-.6l-1-46.1v-.5h.5zm.5 46.1l-1-45.2-44.6-8 1 45.3 44.6 8"/><path fill="#ffd65d" d="M24.3 99.7l-.9-45.2 44.7 7.9.9 45.2z"/><path fill="#7a88cc" d="M23.5 100v.5L.9 118v-.5z"/><path fill="#7684ca" d="M23.5 100.5l.4.1-22.5 17.5-.5-.1z"/><path fill="#7a88cc" d="M22.5 53.9l1 46.1L.9 117.5 0 71.4z"/><path fill="#7a88cc" d="M22.5 53.4v.5L0 71.4v-.5z"/><path fill="#fd7" d="M23.4 54.5l.9 45.2-22.5 17.5L.9 72z"/><path fill="#7a88cc" d="M24.3 99.7L1.8 117.2.9 72l22.5-17.5z"/><path fill="#7684ca" d="M23 53.5L.5 71l-.5-.1 22.5-17.5zM23.9 100.6l45.5 8-22.5 17.5-45.5-8z"/><path fill="#ffdc72" d="M24.3 99.7l44.7 7.9-22.6 17.5-44.6-7.9z"/><path fill="#7684ca" d="M69 107.6l-22.6 17.5-44.6-7.9 22.5-17.5zM69.4 108.6l.5.1-22.5 17.5-.5-.1z"/><path fill="#7a88cc" d="M69.9 108.7l-22.5 17.5-.1-.5 22.6-17.5zM68.1 62.4l.9 45.2-22.6 17.5-.9-45.3z"/><path fill="#ffdc72" d="M68.1 62.4L45.5 79.8.9 72l22.5-17.5z"/><path fill="#7684ca" d="M23.4 54.5l44.7 7.9-22.6 17.4L.9 72z"/><path fill="#ffd65d" d="M1.8 117.2L.9 72l44.6 7.8.9 45.3z"/><path fill="#fd7" d="M69 107.6l-22.6 17.5-.9-45.3 22.6-17.4z"/><path fill="#7684ca" d="M68.5 61.5L46 79 .5 71 23 53.5z"/><path fill="#7a88cc" d="M69.9 108.2l-22.6 17.5-.9-46.2L69 62.1z"/><path fill="#7684ca" d="M68.9 61.6L46.4 79.1 46 79l22.5-17.5z"/><path fill="#7a88cc" d="M69 62.1L46.4 79.5v-.4l22.5-17.5z"/><path fill="#6272c3" d="M46 79h.4v.5l1 46.2v.5l-.5-.1-45.5-8-.5-.1v-.5L0 71.4v-.5h.5zm.4 46.1l-.9-45.3L1 72l1 45.2 44.5 7.9"/></g><g opacity=".7"><path fill="#ffd65d" d="M177.2 127.5l-.9-45.2 44.7 7.9.9 45.2z"/><path fill="#7a88cc" d="M176.3 127.8l.1.5-22.6 17.5v-.5z"/><path fill="#7684ca" d="M176.4 128.3l.4.1-22.5 17.5-.5-.1z"/><path fill="#6272c3" d="M221.4 89.3h.4v.5l1 46.2v.5h-.5l-45.5-8.1-.4-.1v-.5l-1-46.1v-.5h.5zm.5 46.1l-1-45.2-44.6-8 1 45.3 44.6 8"/><path fill="#7a88cc" d="M175.4 81.7l.9 46.1-22.5 17.5-.9-46.2zM175.4 81.2v.5l-22.5 17.4v-.4z"/><path fill="#7a88cc" d="M177.2 127.5L154.7 145l-.9-45.2 22.5-17.5z"/><path fill="#fd7" d="M176.3 82.3l.9 45.2-22.5 17.5-.9-45.2z"/><path fill="#7684ca" d="M175.9 81.3l-22.6 17.5-.4-.1 22.5-17.5zM176.8 128.4l45.5 8-22.5 17.5-45.5-8z"/><path fill="#ffdc72" d="M177.2 127.5l44.7 7.9-22.6 17.5-44.6-7.9z"/><path fill="#7684ca" d="M221.9 135.4l-22.6 17.5-44.6-7.9 22.5-17.5zM222.3 136.4l.5.1-22.6 17.5-.4-.1z"/><path fill="#7a88cc" d="M222.8 136.5L200.2 154v-.5l22.6-17.5z"/><path fill="#ffd65d" d="M154.7 145l-.9-45.2 44.6 7.8.9 45.3z"/><path fill="#7684ca" d="M176.3 82.3l44.7 7.9-22.6 17.4-44.6-7.8z"/><path fill="#ffdc72" d="M221 90.2l-22.6 17.4-44.6-7.8 22.5-17.5z"/><path fill="#7a88cc" d="M221 90.2l.9 45.2-22.6 17.5-.9-45.3z"/><path fill="#fd7" d="M221.9 135.4l-22.6 17.5-.9-45.3L221 90.2z"/><path fill="#7684ca" d="M221.4 89.3l-22.6 17.5-45.5-8 22.6-17.5z"/><path fill="#7a88cc" d="M222.8 136l-22.6 17.5-.9-46.2 22.5-17.5z"/><path fill="#7684ca" d="M221.8 89.4l-22.5 17.5-.5-.1 22.6-17.5z"/><path fill="#7a88cc" d="M221.8 89.8l-22.5 17.5v-.4l22.5-17.5z"/><path fill="#6272c3" d="M198.8 106.8h.5v.5l1 46.2v.5l-.5-.1-45.5-8-.5-.1v-.5l-1-46.2v-.4h.5zm.5 46l-.9-45.2-44.6-7.8.9 45.2 44.6 7.9"/></g><g opacity=".7"><path fill="#628cbe" d="M126.1 118.4l-.9-45.2 44.6 7.9.9 45.2z"/><path fill="#7a88cc" d="M125.2 118.8v.4l-22.5 17.5v-.5z"/><path fill="#7684ca" d="M125.2 119.2l.5.1-22.5 17.5-.5-.1z"/><path fill="#6272c3" d="M170.3 80.2l.4.1v.5l1 46.1v.5h-.5l-45.5-8.1h-.5v-.5l-.9-46.2V72h.4zm.4 46.1l-.9-45.2-44.6-7.9 1 45.2 44.5 8"/><path fill="#7a88cc" d="M124.3 72.6l.9 46.2-22.5 17.4-.9-46.1z"/><path fill="#7a88cc" d="M124.3 72.1v.5l-22.5 17.5v-.5zM126.1 118.4l-22.5 17.5-.9-45.2 22.5-17.5z"/><path fill="#7a9ec8" d="M125.2 73.2l.9 45.2-22.5 17.5-.9-45.2z"/><path fill="#7684ca" d="M124.7 72.2l-22.5 17.5-.4-.1 22.5-17.5zM125.7 119.3l45.5 8-22.5 17.5-45.5-8z"/><path fill="#7684ca" d="M170.7 126.3l-22.5 17.5-44.6-7.9 22.5-17.5z"/><path fill="#769ac7" d="M126.1 118.4l44.6 7.9-22.5 17.5-44.6-7.9z"/><path fill="#7684ca" d="M171.2 127.3l.5.1-22.6 17.5-.4-.1z"/><path fill="#7a88cc" d="M171.7 127.4l-22.6 17.5v-.5l22.5-17.5z"/><path fill="#7684ca" d="M125.2 73.2l44.6 7.9-22.5 17.4-44.6-7.8z"/><path fill="#7a88cc" d="M169.8 81.1l.9 45.2-22.5 17.5-.9-45.3z"/><path fill="#769ac7" d="M169.8 81.1l-22.5 17.4-44.6-7.8 22.5-17.5z"/><path fill="#7a9ec8" d="M170.7 126.3l-22.5 17.5-.9-45.3 22.5-17.4z"/><path fill="#6272c3" d="M147.7 97.7h.5v.5l1 46.2v.5l-.5-.1-45.5-8-.5-.1v-.5l-1-46.1v-.5h.5zm.5 46.1l-.9-45.3-44.6-7.8.9 45.2 44.6 7.9"/><path fill="#628cbe" d="M103.6 135.9l-.9-45.2 44.6 7.8.9 45.3z"/><path fill="#7684ca" d="M170.3 80.2l-22.6 17.5-45.5-8 22.5-17.5z"/><path fill="#7a88cc" d="M171.6 126.9l-22.5 17.5-.9-46.2 22.5-17.4z"/><path fill="#7684ca" d="M170.7 80.3l-22.5 17.5-.5-.1 22.6-17.5z"/><path fill="#7a88cc" d="M170.7 80.8l-22.5 17.4v-.4l22.5-17.5z"/></g><g opacity=".7"><path fill="#628cbe" d="M74.7 109.1l-.9-45.3 44.7 7.9.9 45.3z"/><path fill="#7a88cc" d="M73.8 109.4l.1.5-22.6 17.4v-.4z"/><path fill="#7684ca" d="M73.9 109.9h.4l-22.5 17.5-.5-.1z"/><path fill="#6272c3" d="M118.9 70.9h.4v.5l1 46.2v.4h-.5l-45.5-8-.4-.1v-.5l-1-46.2v-.4h.5zm.5 46l-1-45.2-44.6-7.9 1 45.3 44.6 7.9"/><path fill="#7a88cc" d="M72.9 63.2l.9 46.2-22.5 17.5-.9-46.2zM72.9 62.8v.4L50.4 80.7v-.4z"/><path fill="#7a88cc" d="M74.7 109.1l-22.5 17.5-.9-45.3 22.5-17.5z"/><path fill="#7a9ec8" d="M73.8 63.8l.9 45.3-22.5 17.5-.9-45.3z"/><path fill="#7684ca" d="M73.4 62.8L50.8 80.3h-.4l22.5-17.5zM74.3 109.9l45.5 8.1-22.5 17.5-45.5-8.1z"/><path fill="#7684ca" d="M119.4 117l-22.6 17.4-44.6-7.8 22.5-17.5z"/><path fill="#769ac7" d="M74.7 109.1l44.7 7.9-22.6 17.4-44.6-7.8z"/><path fill="#7684ca" d="M119.8 118h.5l-22.6 17.5h-.4z"/><path fill="#7a88cc" d="M120.3 118l-22.6 17.5v-.4l22.6-17.5z"/><path fill="#628cbe" d="M52.2 126.6l-.9-45.3 44.6 7.9.9 45.2z"/><path fill="#7684ca" d="M73.8 63.8l44.7 7.9-22.6 17.5-44.6-7.9z"/><path fill="#769ac7" d="M118.5 71.7L95.9 89.2l-44.6-7.9 22.5-17.5z"/><path fill="#7a88cc" d="M118.5 71.7l.9 45.3-22.6 17.4-.9-45.2z"/><path fill="#7a9ec8" d="M119.4 117l-22.6 17.4-.9-45.2 22.6-17.5z"/><path fill="#7684ca" d="M118.9 70.9L96.4 88.4l-45.6-8.1 22.6-17.5z"/><path fill="#7a88cc" d="M120.3 117.6l-22.6 17.5-.9-46.2 22.5-17.5z"/><path fill="#7684ca" d="M119.3 71L96.8 88.4h-.4l22.5-17.5z"/><path fill="#7a88cc" d="M119.3 71.4L96.8 88.9v-.5L119.3 71z"/><path fill="#6272c3" d="M96.4 88.4h.4v.5l1 46.2v.4h-.5l-45.5-8-.5-.2v-.4l-1-46.2v-.5l.5.1zm.4 46L96 89.2l-44.6-7.9 1 45.3 44.5 7.8"/></g><path fill="#0721a0" d="M669 136.8c-1.2 0-4.6 0-10.1.3a328.6 328.6 0 01-35.3-.2l-.6.4v3.3l.6.5c4.6.2 7.6.4 8.8.7 1.2.3 2 .7 2.4 1.2.4.5.7 1.5 1 3 .1 1.4.3 4.7.3 9.7l.1 13v44.7c0 4.8-.2 7.8-.5 9.2-.3 1.4-.7 2.3-1.2 2.7a6 6 0 01-2.7 1c-1.4.3-4.1.5-8.2.7l-.6.4v3.3l.6.5 19-.5 19 .5.5-.5v-3.3l-.5-.4c-4.7-.2-7.6-.5-8.8-.8-1.2-.3-2-.7-2.5-1.2-.4-.5-.7-1.5-1-3-.1-1.4-.3-4.6-.3-9.6v-43.7c0-13.1.1-21.3.5-24.7a45 45 0 0113.3-2.3c7.4 0 13 1.8 16.6 5.4 3.6 3.6 5.4 8.4 5.4 14.4s-1.7 10.9-5.2 14.7a18 18 0 01-14 5.7c-2 0-4.8-.3-8.1-1l-.6.6 1.1 4c3.4.7 6.4 1 9.2 1a33.4 33.4 0 0020.7-7.3 27.7 27.7 0 0010.6-21.1c0-4.8-1.4-9-4-12.3-2.7-3.5-6-5.8-10-7-4.1-1.4-9.3-2-15.5-2zM384 137l-.5.5v3.1l.5.5c2.6 0 4.7.2 6.2.5 1.5.2 2.6.6 3.1 1 .6.6 1 1.5 1.2 2.9a449.3 449.3 0 01.8 20v51.5c-4-4.3-7.7-8.8-11.5-13.5l-31.2-39-21.1-27.5a148 148 0 01-23 0l-.6.6v3l.5.6c3.4 0 5.8.2 7.3.5 1.4.3 2.5 1 3.3 2 .8 1.1 1.2 2.8 1.2 5v53.7a371.8 371.8 0 01-.7 19.7 6.3 6.3 0 01-.9 3c-.4.6-1.5 1-3.1 1.3-1.6.3-3.8.4-6.5.5l-.6.5v3l.6.7a282.6 282.6 0 0128.5 0l.5-.6v-3.1l-.5-.5c-3.7 0-6-.3-7.3-.6-1.1-.4-1.9-.8-2.3-1.2-.3-.4-.6-1.2-.8-2.3a427.9 427.9 0 01-.8-20.4v-50.9l45 56.2 14.2 17.3 4.7 5.6c5.4 1 9.2 2 11.5 2.8l-.3-18v-49.8a364.3 364.3 0 01.6-19.6c.2-1.3.5-2.3.9-3 .4-.6 1.3-1 3-1.4 1.5-.3 3.8-.4 6.7-.5l.5-.5v-3l-.6-.6a265.5 265.5 0 01-28.6 0zm161.4 30.2a23.9 23.9 0 00-10.7 2.5L531 173l-6.3 5.8c.1-4.1.3-7.6.6-10.5l-1.3-.9c-5.8 2.3-13 4-21.4 5l-.5.5v2.9l.6.5h5.6c1.7 0 2.9.2 3.4.6.6.3 1 .8 1 1.5.2.7.3 2.6.5 5.7l.3 7.2v13a291.6 291.6 0 01-.9 19.6c-.1 1-.4 1.5-.8 2a3 3 0 01-1.5.8l-7.3.6-.6.5v2.8l.6.6a249.3 249.3 0 0132 0l.5-.6v-2.8l-.6-.5-7.1-.6a3 3 0 01-1.5-.7c-.4-.4-.7-1-1-1.9l-.5-9.4-.3-11V194c0-4.5.2-7.3.5-8.7.4-1.3 1.2-2.7 2.6-4.3a17.1 17.1 0 0112.7-5.4 13 13 0 0112.9 9.7c.7 2.7 1 6.5 1 11.5v7.6a291.6 291.6 0 01-.8 19.5c-.2 1-.4 1.5-.9 2a3 3 0 01-1.4.8l-7.3.6-.6.5v2.8l.6.6a267 267 0 0132 0l.5-.6v-2.8l-.6-.5-7.2-.6a3 3 0 01-1.4-.7c-.4-.4-.8-1-1-1.9-.2-.9-.3-4-.5-9.4l-.3-11v-8.2c0-4.3.1-7.3.3-9a10 10 0 012.7-5.2 16 16 0 0121-3c2.5 1.8 4 4.1 4.7 7a74 74 0 011 14.7v8c0 9.2-.3 16.7-.9 22.5l.9.7 9.6-.5 11.5.5.5-.5v-2.9l-.5-.5c-4.7 0-7.4-.4-8.2-1.2-.9-.8-1.3-3.3-1.4-7.5l-.4-16.5v-7c0-5-.2-8.9-.4-11.7-.3-2.8-1.3-5.5-3-7.9a20.7 20.7 0 00-16.6-8.2c-2.2 0-4.4.4-6.6 1-2.1.6-3.7 1.3-4.7 1.9-1 .6-4.5 3.8-10.5 9.4a19.5 19.5 0 00-19-12.3zm-104.8.1c-5.8 2.3-12.9 4-21.3 5l-.6.5v2.9l.6.5h5.6c1.7 0 2.9.2 3.4.6.6.3 1 .8 1 1.5.2.7.3 2.6.5 5.7l.3 7.2v18.2c0 6.8.5 11.5 1.6 14.3 1.2 2.8 3.1 5 6 6.5 2.7 1.6 6.5 2.4 11.5 2.4 3.3 0 6.2-.5 8.8-1.4 2.5-1 4.5-2.1 5.9-3.5 3.6-3.6 6.8-6.5 9.5-8.7 0 3.2-.3 7-.6 11.5l.6.6a108.4 108.4 0 0122 0l.5-.6V228l-.6-.6h-1.9c-3.2 0-5.2-.1-5.9-.5-.6-.3-1.2-.9-1.5-1.7-.4-.8-.7-3.1-.7-6.9l-.4-16.2v-11.7c0-9 .3-16.3.8-22.1l-1.3-.9c-5.8 2.3-13 4-21.4 5l-.5.5v2.9l.6.5h5.6c1.7 0 2.8.2 3.4.6.6.3 1 .8 1 1.5.2.7.3 2.6.5 5.7l.2 7.2v7.2l-.2 7.4c0 3.7-.2 6-.5 6.7-.3.8-1.3 2.4-3 4.7-1.9 2.3-4.1 4-6.8 5.3a20.3 20.3 0 01-8.8 2c-3 0-5.4-.7-7.6-1.9a9.7 9.7 0 01-4.4-5c-.9-2.2-1.3-6.2-1.3-11.9v-15.4c0-9 .2-16.3.7-22.1l-1.3-.9zm263 1.4l-.7.5v2.7l.6.5c2.9.4 4.7.8 5.4 1.3.6.4 1.2.9 1.6 1.4a751 751 0 018.8 19.9l10.5 26.2c1.8 4.2 3.5 8.6 5.1 13.4a109 109 0 01-9.8 20.7c-2.3 3-5 4.6-8.2 4.6-2.5 0-4.9-1.1-7-3.5h-1.6c-.8 3.1-2 6.5-3.4 10.2 2.4 1.5 5 2.2 7.9 2.2 3.2 0 6.2-.8 9-2.3 2.9-1.6 5.3-4.2 7.3-7.7s3.6-6.9 5-10l15.3-35.8 6.5-14.3c2.3-5 4.6-10 6.9-14.6 2.3-4.7 3.9-7.6 4.8-8.6.8-1 1.8-1.8 2.7-2.2 1-.4 2.3-.6 4-.6l.5-.6v-2.9l-.5-.5a161.4 161.4 0 01-24.4 0l-.5.5v3l.4.5 2.8.4c2.4.2 4 .6 4.7 1 .7.3 1 1 1 1.9l-.2 2-2.4 6.7-5.5 14c-2.3 5.8-4.1 10.1-5.4 13l-3.5 7.7c-1.5-3.2-3.6-8.2-6.4-15l-4.1-10.4a186 186 0 01-6-18.3c0-.7.2-1.4.8-2 .5-.5 1.9-.8 4.1-1l4.1-.3.5-.5v-2.7l-.5-.5a257 257 0 01-30.2 0z"/></svg>