<?xml version="1.0" standalone="no"?><!DOCTYPE svg PUBLIC "-//W3C//DTD SVG 1.1//EN" "http://www.w3.org/Graphics/SVG/1.1/DTD/svg11.dtd"><svg xmlns:xlink="http://www.w3.org/1999/xlink" version="1.1" style="font-family:'lucida grande', 'lucida sans unicode', arial, helvetica, sans-serif;font-size:12px;" xmlns="http://www.w3.org/2000/svg" width="600" height="400"><desc>Created with Highcharts 4.1.9</desc><defs><clipPath id="highcharts-12"><rect x="0" y="0" width="505" height="269"></rect></clipPath></defs><rect x="1" y="1" width="598" height="398" strokeWidth="2" fill="rgb(247, 247, 255)" stroke="#4572A7" stroke-width="2" class=" highcharts-background"></rect><rect x="85" y="68" width="505" height="269" fill="none"  stroke="black" stroke-opacity="0.049999999999999996" stroke-width="5" transform="translate(1, 1)"></rect><rect x="85" y="68" width="505" height="269" fill="none"  stroke="black" stroke-opacity="0.09999999999999999" stroke-width="3" transform="translate(1, 1)"></rect><rect x="85" y="68" width="505" height="269" fill="none"  stroke="black" stroke-opacity="0.15" stroke-width="1" transform="translate(1, 1)"></rect><rect x="85" y="68" width="505" height="269" fill="rgb(255, 255, 255)" fill-opacity=" .9"></rect><g class="highcharts-grid" ></g><g class="highcharts-grid" ></g><rect x="84.5" y="67.5" width="506" height="270" strokeWidth="-1" stroke="#C0C0C0" stroke-width="1" fill="none" ></rect><g class="highcharts-axis" ><path fill="none" d="M 185.5 337 L 185.5 347" stroke="#000" stroke-width="1" opacity="1"></path><path fill="none" d="M 286.5 337 L 286.5 347" stroke="#000" stroke-width="1" opacity="1"></path><path fill="none" d="M 387.5 337 L 387.5 347" stroke="#000" stroke-width="1" opacity="1"></path><path fill="none" d="M 488.5 337 L 488.5 347" stroke="#000" stroke-width="1" opacity="1"></path><path fill="none" d="M 590.5 337 L 590.5 347" stroke="#000" stroke-width="1" opacity="1"></path><path fill="none" d="M 84.5 337 L 84.5 347" stroke="#000" stroke-width="1" opacity="1"></path><text x="337.5"  text-anchor="middle" transform="translate(0,0)" class=" highcharts-xaxis-title" style="color:#000;font:bold 12px lucida grande, lucida sans unicode, verdana, arial, helvetica, sans-serif;fill:#000;" visibility="visible" y="379.20000076293945"><tspan>Estimated Diameter (m)</tspan></text><path fill="none" d="M 85 337.5 L 590 337.5" stroke="#000" stroke-width="1"  visibility="visible"></path></g><g class="highcharts-axis" ><path fill="none" d="M 85 337.5 L 75 337.5" stroke="#000" stroke-width="1" opacity="1"></path><path fill="none" d="M 85 270.5 L 75 270.5" stroke="#000" stroke-width="1" opacity="1"></path><path fill="none" d="M 85 203.5 L 75 203.5" stroke="#000" stroke-width="1" opacity="1"></path><path fill="none" d="M 85 135.5 L 75 135.5" stroke="#000" stroke-width="1" opacity="1"></path><path fill="none" d="M 85 67.5 L 75 67.5" stroke="#000" stroke-width="1" opacity="1"></path><text x="27.78333282470703"  text-anchor="middle" transform="translate(0,0) rotate(270 27.78333282470703 202.5)" class=" highcharts-yaxis-title" style="color:#000;font:bold 12px lucida grande, lucida sans unicode, verdana, arial, helvetica, sans-serif;fill:#000;" visibility="visible" y="202.5"><tspan>Total Discovered</tspan></text><path fill="none" d="M 84.5 68 L 84.5 337" stroke="#000" stroke-width="1"  visibility="visible"></path></g><text x="25" y="395"  style="position:absolute;color:#666;font-size:10px;fill:#666;">https://cneos.jpl.nasa.gov/stats/</text><text x="435" y="395"  style="position:absolute;color:#666;font-size:10px;fill:#666;text-align:right;"><tspan>Alan Chamberlin (JPL/Caltech)</tspan></text><g class="highcharts-series-group" ><g class="highcharts-series highcharts-series-0" visibility="visible"  transform="translate(85,68) scale(1 1)" clip-path="url(#highcharts-12)"><rect x="9.5" y="109.5" width="81" height="160" stroke="#FFFFFF" stroke-width="1" fill="#00D" rx="0" ry="0"></rect><rect x="110.5" y="49.5" width="81" height="220" stroke="#FFFFFF" stroke-width="1" fill="#00D" rx="0" ry="0"></rect><rect x="211.5" y="90.5" width="81" height="179" stroke="#FFFFFF" stroke-width="1" fill="#00D" rx="0" ry="0"></rect><rect x="312.5" y="126.5" width="81" height="143" stroke="#FFFFFF" stroke-width="1" fill="#00D" rx="0" ry="0"></rect><rect x="413.5" y="239.5" width="81" height="30" stroke="#FFFFFF" stroke-width="1" fill="#00D" rx="0" ry="0"></rect></g><g class="highcharts-markers highcharts-series-0" visibility="visible"  transform="translate(85,68) scale(1 1)" clip-path="none"></g></g><text x="300" text-anchor="middle" class="highcharts-title"  style="color:#000;font-size:18px;font:bold 16px lucida grande, lucida sans unicode, verdana, arial, helvetica, sans-serif;fill:#000;width:536px;" y="24"><tspan>Near-Earth Asteroids Discovered</tspan></text><text x="300" text-anchor="middle" class="highcharts-subtitle"  style="color:#000;font:12px lucida grande, lucida sans unicode, verdana, arial, helvetica, sans-serif;fill:#000;width:536px;" y="48"><tspan>Total per Size Bin (as of </tspan><tspan style="font-weight:bold" dx="0">2020-Jan-14</tspan><tspan dx="0">)</tspan></text><g class="highcharts-data-labels highcharts-series-0" visibility="visible"  transform="translate(85,68) scale(1 1)" opacity="1"><g  style="text-style:bold;" transform="translate(29,82)"><text x="5"  style="font-size:11px;font-weight:bold;color:#000000;text-shadow:;fill:#000000;" y="16"><tspan>4 761</tspan></text></g><g  style="text-style:bold;" transform="translate(130,22)"><text x="5"  style="font-size:11px;font-weight:bold;color:#000000;text-shadow:;fill:#000000;" y="16"><tspan>6 542</tspan></text></g><g  style="text-style:bold;" transform="translate(231,63)"><text x="5"  style="font-size:11px;font-weight:bold;color:#000000;text-shadow:;fill:#000000;" y="16"><tspan>5 314</tspan></text></g><g  style="text-style:bold;" transform="translate(332,99)"><text x="5"  style="font-size:11px;font-weight:bold;color:#000000;text-shadow:;fill:#000000;" y="16"><tspan>4 254</tspan></text></g><g  style="text-style:bold;" transform="translate(438,212)"><text x="5"  style="font-size:11px;font-weight:bold;color:#000000;text-shadow:;fill:#000000;" y="16">905</text></g></g><g class="highcharts-legend" ><g ><g></g></g></g><g class="highcharts-axis-labels highcharts-xaxis-labels" ><text x="135.5" style="color:#000;cursor:default;font-size:11px;font-weight:bold;fill:#000;width:91px;text-overflow:clip;" text-anchor="middle" transform="translate(0,0)" y="356" opacity="1">0-30</text><text x="236.5" style="color:#000;cursor:default;font-size:11px;font-weight:bold;fill:#000;width:91px;text-overflow:clip;" text-anchor="middle" transform="translate(0,0)" y="356" opacity="1">30-100</text><text x="337.5" style="color:#000;cursor:default;font-size:11px;font-weight:bold;fill:#000;width:91px;text-overflow:clip;" text-anchor="middle" transform="translate(0,0)" y="356" opacity="1">100-300</text><text x="438.5" style="color:#000;cursor:default;font-size:11px;font-weight:bold;fill:#000;width:91px;text-overflow:clip;" text-anchor="middle" transform="translate(0,0)" y="356" opacity="1">300-1000</text><text x="539.5" style="color:#000;cursor:default;font-size:11px;font-weight:bold;fill:#000;width:91px;text-overflow:clip;" text-anchor="middle" transform="translate(0,0)" y="356" opacity="1">1000+</text></g><g class="highcharts-axis-labels highcharts-yaxis-labels" ><text x="70" style="color:#000;cursor:default;font-size:11px;font-weight:bold;fill:#000;width:188px;text-overflow:clip;" text-anchor="end" transform="translate(0,0)" y="339" opacity="1">0</text><text x="70" style="color:#000;cursor:default;font-size:11px;font-weight:bold;fill:#000;width:188px;text-overflow:clip;" text-anchor="end" transform="translate(0,0)" y="272" opacity="1"><tspan>2 000</tspan></text><text x="70" style="color:#000;cursor:default;font-size:11px;font-weight:bold;fill:#000;width:188px;text-overflow:clip;" text-anchor="end" transform="translate(0,0)" y="205" opacity="1"><tspan>4 000</tspan></text><text x="70" style="color:#000;cursor:default;font-size:11px;font-weight:bold;fill:#000;width:188px;text-overflow:clip;" text-anchor="end" transform="translate(0,0)" y="138" opacity="1"><tspan>6 000</tspan></text><text x="70" style="color:#000;cursor:default;font-size:11px;font-weight:bold;fill:#000;width:188px;text-overflow:clip;" text-anchor="end" transform="translate(0,0)" y="70" opacity="1"><tspan>8 000</tspan></text></g><g class="highcharts-tooltip"  style="cursor:default;padding:0;pointer-events:none;white-space:nowrap;" transform="translate(0,-9999)"><path fill="none" d="M 3.5 0.5 L 13.5 0.5 C 16.5 0.5 16.5 0.5 16.5 3.5 L 16.5 13.5 C 16.5 16.5 16.5 16.5 13.5 16.5 L 3.5 16.5 C 0.5 16.5 0.5 16.5 0.5 13.5 L 0.5 3.5 C 0.5 0.5 0.5 0.5 3.5 0.5"  stroke="black" stroke-opacity="0.049999999999999996" stroke-width="5" transform="translate(1, 1)"></path><path fill="none" d="M 3.5 0.5 L 13.5 0.5 C 16.5 0.5 16.5 0.5 16.5 3.5 L 16.5 13.5 C 16.5 16.5 16.5 16.5 13.5 16.5 L 3.5 16.5 C 0.5 16.5 0.5 16.5 0.5 13.5 L 0.5 3.5 C 0.5 0.5 0.5 0.5 3.5 0.5"  stroke="black" stroke-opacity="0.09999999999999999" stroke-width="3" transform="translate(1, 1)"></path><path fill="none" d="M 3.5 0.5 L 13.5 0.5 C 16.5 0.5 16.5 0.5 16.5 3.5 L 16.5 13.5 C 16.5 16.5 16.5 16.5 13.5 16.5 L 3.5 16.5 C 0.5 16.5 0.5 16.5 0.5 13.5 L 0.5 3.5 C 0.5 0.5 0.5 0.5 3.5 0.5"  stroke="black" stroke-opacity="0.15" stroke-width="1" transform="translate(1, 1)"></path><path fill="rgb(249, 249, 249)" fill-opacity=" .85" d="M 3.5 0.5 L 13.5 0.5 C 16.5 0.5 16.5 0.5 16.5 3.5 L 16.5 13.5 C 16.5 16.5 16.5 16.5 13.5 16.5 L 3.5 16.5 C 0.5 16.5 0.5 16.5 0.5 13.5 L 0.5 3.5 C 0.5 0.5 0.5 0.5 3.5 0.5"></path><text x="8"  style="font-size:12px;color:#333333;fill:#333333;" y="20"></text></g></svg>