<?xml version="1.0" encoding="UTF-8"?>
<!DOCTYPE svg  PUBLIC '-//W3C//DTD SVG 1.1//EN'  'http://www.w3.org/Graphics/SVG/1.1/DTD/svg11.dtd'>
<svg width="936pt" height="684pt" version="1.1" viewBox="0 0 936 684" xmlns="http://www.w3.org/2000/svg" xmlns:xlink="http://www.w3.org/1999/xlink">
<defs>
<style type="text/css">*{stroke-linecap:butt;stroke-linejoin:round;}</style>
</defs>
<path d="m0 684h936v-684h-936z" fill="#fff"/>
<path d="m65.52 642.96h842.4v-615.6h-842.4z" fill="#fff"/>
<path d="m73.677 642.96h25.213v-29.61h-25.213z" clip-path="url(#a)" fill="#1f77b4"/>
<path d="m103.34 642.96h25.213v-29.61h-25.213z" clip-path="url(#a)" fill="#1f77b4"/>
<path d="m133 642.96h25.213v-29.61h-25.213z" clip-path="url(#a)" fill="#1f77b4"/>
<path d="m162.66 642.96h25.213v-23.688h-25.213z" clip-path="url(#a)" fill="#1f77b4"/>
<path d="m192.32 642.96h25.213v-59.221h-25.213z" clip-path="url(#a)" fill="#1f77b4"/>
<path d="m221.99 642.96h25.213v-136.21h-25.213z" clip-path="url(#a)" fill="#1f77b4"/>
<path d="m251.65 642.96h25.213v-159.9h-25.213z" clip-path="url(#a)" fill="#1f77b4"/>
<path d="m281.31 642.96h25.213v-165.82h-25.213z" clip-path="url(#a)" fill="#1f77b4"/>
<path d="m310.97 642.96h25.213v-153.97h-25.213z" clip-path="url(#a)" fill="#1f77b4"/>
<path d="m340.63 642.96h25.213v-213.19h-25.213z" clip-path="url(#a)" fill="#1f77b4"/>
<path d="m370.3 642.96h25.213v-242.81h-25.213z" clip-path="url(#a)" fill="#1f77b4"/>
<path d="m399.96 642.96h25.213v-355.32h-25.213z" clip-path="url(#a)" fill="#1f77b4"/>
<path d="m429.62 642.96h25.213v-319.79h-25.213z" clip-path="url(#a)" fill="#1f77b4"/>
<path d="m459.28 642.96h25.213v-248.73h-25.213z" clip-path="url(#a)" fill="#1f77b4"/>
<path d="m488.94 642.96h25.213v-325.71h-25.213z" clip-path="url(#a)" fill="#1f77b4"/>
<path d="m518.61 642.96h25.213v-361.25h-25.213z" clip-path="url(#a)" fill="#1f77b4"/>
<path d="m548.27 642.96h25.213v-402.7h-25.213z" clip-path="url(#a)" fill="#1f77b4"/>
<path d="m577.93 642.96h25.213v-432.31h-25.213z" clip-path="url(#a)" fill="#1f77b4"/>
<path d="m607.59 642.96h25.213v-586.29h-25.213z" clip-path="url(#a)" fill="#1f77b4"/>
<path d="m637.25 642.96h25.213v-361.25h-25.213z" clip-path="url(#a)" fill="#1f77b4"/>
<path d="m666.92 642.96h25.213v-390.86h-25.213z" clip-path="url(#a)" fill="#1f77b4"/>
<path d="m696.58 642.96h25.213v-384.94h-25.213z" clip-path="url(#a)" fill="#1f77b4"/>
<path d="m726.24 642.96h25.213v-361.25h-25.213z" clip-path="url(#a)" fill="#1f77b4"/>
<path d="m755.9 642.96h25.213v-349.4h-25.213z" clip-path="url(#a)" fill="#1f77b4"/>
<path d="m785.56 642.96h25.213v-343.48h-25.213z" clip-path="url(#a)" fill="#1f77b4"/>
<path d="m815.23 642.96h25.213v-408.62h-25.213z" clip-path="url(#a)" fill="#1f77b4"/>
<path d="m844.89 642.96h25.213v-515.22h-25.213z" clip-path="url(#a)" fill="#1f77b4"/>
<path d="m874.55 642.96h25.213v-76.987h-25.213z" clip-path="url(#a)" fill="#1f77b4"/>
<defs>
<path id="b" d="m0 0v3.5" stroke="#000" stroke-width=".8"/>
</defs>
<use x="86.28338" y="642.96" stroke="#000000" stroke-width=".8" xlink:href="#b"/>
<text transform="rotate(-0 86.283 657.56)" x="86.28338" y="657.558437" font-family="DejaVu Sans" font-size="10px" text-anchor="middle">1750</text>
<use x="115.945352" y="642.96" stroke="#000000" stroke-width=".8" xlink:href="#b"/>
<text transform="rotate(-0 115.95 657.56)" x="115.945352" y="657.558437" font-family="DejaVu Sans" font-size="10px" text-anchor="middle">1760</text>
<use x="145.607324" y="642.96" stroke="#000000" stroke-width=".8" xlink:href="#b"/>
<text transform="rotate(-0 145.61 657.56)" x="145.607324" y="657.558437" font-family="DejaVu Sans" font-size="10px" text-anchor="middle">1770</text>
<use x="175.269296" y="642.96" stroke="#000000" stroke-width=".8" xlink:href="#b"/>
<text transform="rotate(-0 175.27 657.56)" x="175.269296" y="657.558437" font-family="DejaVu Sans" font-size="10px" text-anchor="middle">1780</text>
<use x="204.931268" y="642.96" stroke="#000000" stroke-width=".8" xlink:href="#b"/>
<text transform="rotate(-0 204.93 657.56)" x="204.931268" y="657.558437" font-family="DejaVu Sans" font-size="10px" text-anchor="middle">1790</text>
<use x="234.593239" y="642.96" stroke="#000000" stroke-width=".8" xlink:href="#b"/>
<text transform="rotate(-0 234.59 657.56)" x="234.593239" y="657.558437" font-family="DejaVu Sans" font-size="10px" text-anchor="middle">1800</text>
<use x="264.255211" y="642.96" stroke="#000000" stroke-width=".8" xlink:href="#b"/>
<text transform="rotate(-0 264.26 657.56)" x="264.255211" y="657.558437" font-family="DejaVu Sans" font-size="10px" text-anchor="middle">1810</text>
<use x="293.917183" y="642.96" stroke="#000000" stroke-width=".8" xlink:href="#b"/>
<text transform="rotate(-0 293.92 657.56)" x="293.917183" y="657.558437" font-family="DejaVu Sans" font-size="10px" text-anchor="middle">1820</text>
<use x="323.579155" y="642.96" stroke="#000000" stroke-width=".8" xlink:href="#b"/>
<text transform="rotate(-0 323.58 657.56)" x="323.579155" y="657.558437" font-family="DejaVu Sans" font-size="10px" text-anchor="middle">1830</text>
<use x="353.241127" y="642.96" stroke="#000000" stroke-width=".8" xlink:href="#b"/>
<text transform="rotate(-0 353.24 657.56)" x="353.241127" y="657.558437" font-family="DejaVu Sans" font-size="10px" text-anchor="middle">1840</text>
<use x="382.903099" y="642.96" stroke="#000000" stroke-width=".8" xlink:href="#b"/>
<text transform="rotate(-0 382.9 657.56)" x="382.903099" y="657.558437" font-family="DejaVu Sans" font-size="10px" text-anchor="middle">1850</text>
<use x="412.56507" y="642.96" stroke="#000000" stroke-width=".8" xlink:href="#b"/>
<text transform="rotate(-0 412.57 657.56)" x="412.56507" y="657.558437" font-family="DejaVu Sans" font-size="10px" text-anchor="middle">1860</text>
<use x="442.227042" y="642.96" stroke="#000000" stroke-width=".8" xlink:href="#b"/>
<text transform="rotate(-0 442.23 657.56)" x="442.227042" y="657.558437" font-family="DejaVu Sans" font-size="10px" text-anchor="middle">1870</text>
<use x="471.889014" y="642.96" stroke="#000000" stroke-width=".8" xlink:href="#b"/>
<text transform="rotate(-0 471.89 657.56)" x="471.889014" y="657.558437" font-family="DejaVu Sans" font-size="10px" text-anchor="middle">1880</text>
<use x="501.550986" y="642.96" stroke="#000000" stroke-width=".8" xlink:href="#b"/>
<text transform="rotate(-0 501.55 657.56)" x="501.550986" y="657.558437" font-family="DejaVu Sans" font-size="10px" text-anchor="middle">1890</text>
<use x="531.212958" y="642.96" stroke="#000000" stroke-width=".8" xlink:href="#b"/>
<text transform="rotate(-0 531.21 657.56)" x="531.212958" y="657.558437" font-family="DejaVu Sans" font-size="10px" text-anchor="middle">1900</text>
<use x="560.87493" y="642.96" stroke="#000000" stroke-width=".8" xlink:href="#b"/>
<text transform="rotate(-0 560.87 657.56)" x="560.87493" y="657.558437" font-family="DejaVu Sans" font-size="10px" text-anchor="middle">1910</text>
<use x="590.536901" y="642.96" stroke="#000000" stroke-width=".8" xlink:href="#b"/>
<text transform="rotate(-0 590.54 657.56)" x="590.536901" y="657.558437" font-family="DejaVu Sans" font-size="10px" text-anchor="middle">1920</text>
<use x="620.198873" y="642.96" stroke="#000000" stroke-width=".8" xlink:href="#b"/>
<text transform="rotate(-0 620.2 657.56)" x="620.198873" y="657.558437" font-family="DejaVu Sans" font-size="10px" text-anchor="middle">1930</text>
<use x="649.860845" y="642.96" stroke="#000000" stroke-width=".8" xlink:href="#b"/>
<text transform="rotate(-0 649.86 657.56)" x="649.860845" y="657.558437" font-family="DejaVu Sans" font-size="10px" text-anchor="middle">1940</text>
<use x="679.522817" y="642.96" stroke="#000000" stroke-width=".8" xlink:href="#b"/>
<text transform="rotate(-0 679.52 657.56)" x="679.522817" y="657.558437" font-family="DejaVu Sans" font-size="10px" text-anchor="middle">1950</text>
<use x="709.184789" y="642.96" stroke="#000000" stroke-width=".8" xlink:href="#b"/>
<text transform="rotate(-0 709.18 657.56)" x="709.184789" y="657.558437" font-family="DejaVu Sans" font-size="10px" text-anchor="middle">1960</text>
<use x="738.846761" y="642.96" stroke="#000000" stroke-width=".8" xlink:href="#b"/>
<text transform="rotate(-0 738.85 657.56)" x="738.846761" y="657.558437" font-family="DejaVu Sans" font-size="10px" text-anchor="middle">1970</text>
<use x="768.508732" y="642.96" stroke="#000000" stroke-width=".8" xlink:href="#b"/>
<text transform="rotate(-0 768.51 657.56)" x="768.508732" y="657.558437" font-family="DejaVu Sans" font-size="10px" text-anchor="middle">1980</text>
<use x="798.170704" y="642.96" stroke="#000000" stroke-width=".8" xlink:href="#b"/>
<text transform="rotate(-0 798.17 657.56)" x="798.170704" y="657.558437" font-family="DejaVu Sans" font-size="10px" text-anchor="middle">1990</text>
<use x="827.832676" y="642.96" stroke="#000000" stroke-width=".8" xlink:href="#b"/>
<text transform="rotate(-0 827.83 657.56)" x="827.832676" y="657.558437" font-family="DejaVu Sans" font-size="10px" text-anchor="middle">2000</text>
<use x="857.494648" y="642.96" stroke="#000000" stroke-width=".8" xlink:href="#b"/>
<text transform="rotate(-0 857.49 657.56)" x="857.494648" y="657.558437" font-family="DejaVu Sans" font-size="10px" text-anchor="middle">2010</text>
<use x="887.15662" y="642.96" stroke="#000000" stroke-width=".8" xlink:href="#b"/>
<text transform="rotate(-0 887.16 657.56)" x="887.15662" y="657.558437" font-family="DejaVu Sans" font-size="10px" text-anchor="middle">2020</text>
<text transform="rotate(-0 486.72 674.28)" x="486.72" y="674.275937" font-family="DejaVu Sans" font-size="14px" text-anchor="middle">Десятилетие</text>
<defs>
<path id="c" d="m0 0h-3.5" stroke="#000" stroke-width=".8"/>
</defs>
<use x="65.52" y="642.96" stroke="#000000" stroke-width=".8" xlink:href="#c"/>
<text transform="rotate(-0 58.52 646.76)" x="58.52" y="646.759219" font-family="DejaVu Sans" font-size="10px" text-anchor="end">0</text>
<use x="65.52" y="524.518442" stroke="#000000" stroke-width=".8" xlink:href="#c"/>
<text transform="rotate(-0 58.52 528.32)" x="58.52" y="528.31766" font-family="DejaVu Sans" font-size="10px" text-anchor="end">20</text>
<use x="65.52" y="406.076883" stroke="#000000" stroke-width=".8" xlink:href="#c"/>
<text transform="rotate(-0 58.52 409.88)" x="58.52" y="409.876102" font-family="DejaVu Sans" font-size="10px" text-anchor="end">40</text>
<use x="65.52" y="287.635325" stroke="#000000" stroke-width=".8" xlink:href="#c"/>
<text transform="rotate(-0 58.52 291.43)" x="58.52" y="291.434543" font-family="DejaVu Sans" font-size="10px" text-anchor="end">60</text>
<use x="65.52" y="169.193766" stroke="#000000" stroke-width=".8" xlink:href="#c"/>
<text transform="rotate(-0 58.52 172.99)" x="58.52" y="172.992985" font-family="DejaVu Sans" font-size="10px" text-anchor="end">80</text>
<use x="65.52" y="50.752208" stroke="#000000" stroke-width=".8" xlink:href="#c"/>
<text transform="rotate(-0 58.52 54.551)" x="58.52" y="54.551427" font-family="DejaVu Sans" font-size="10px" text-anchor="end">100</text>
<text transform="rotate(-90 32.521 335.16)" x="32.520938" y="335.16" font-family="DejaVu Sans" font-size="14px" text-anchor="middle">Падений за 10 лет</text>
<path d="m65.52 642.96v-615.6" fill="none" stroke="#000" stroke-linecap="square" stroke-width=".8"/>
<path d="m907.92 642.96v-615.6" fill="none" stroke="#000" stroke-linecap="square" stroke-width=".8"/>
<path d="m65.52 642.96h842.4" fill="none" stroke="#000" stroke-linecap="square" stroke-width=".8"/>
<path d="m65.52 27.36h842.4" fill="none" stroke="#000" stroke-linecap="square" stroke-width=".8"/>
<text transform="rotate(-0 86.283 608.35)" x="86.28338" y="608.34961" font-family="DejaVu Sans" font-size="10px" text-anchor="middle">5</text>
<text transform="rotate(-0 115.95 608.35)" x="115.945352" y="608.34961" font-family="DejaVu Sans" font-size="10px" text-anchor="middle">5</text>
<text transform="rotate(-0 145.61 608.35)" x="145.607324" y="608.34961" font-family="DejaVu Sans" font-size="10px" text-anchor="middle">5</text>
<text transform="rotate(-0 175.27 614.27)" x="175.269296" y="614.271688" font-family="DejaVu Sans" font-size="10px" text-anchor="middle">4</text>
<text transform="rotate(-0 204.93 578.74)" x="204.931268" y="578.739221" font-family="DejaVu Sans" font-size="10px" text-anchor="middle">10</text>
<text transform="rotate(-0 234.59 501.75)" x="234.593239" y="501.752208" font-family="DejaVu Sans" font-size="10px" text-anchor="middle">23</text>
<text transform="rotate(-0 264.26 478.06)" x="264.255211" y="478.063896" font-family="DejaVu Sans" font-size="10px" text-anchor="middle">27</text>
<text transform="rotate(-0 293.92 472.14)" x="293.917183" y="472.141818" font-family="DejaVu Sans" font-size="10px" text-anchor="middle">28</text>
<text transform="rotate(-0 323.58 483.99)" x="323.579155" y="483.985974" font-family="DejaVu Sans" font-size="10px" text-anchor="middle">26</text>
<text transform="rotate(-0 353.24 424.77)" x="353.241127" y="424.765195" font-family="DejaVu Sans" font-size="10px" text-anchor="middle">36</text>
<text transform="rotate(-0 382.9 395.15)" x="382.903099" y="395.154805" font-family="DejaVu Sans" font-size="10px" text-anchor="middle">41</text>
<text transform="rotate(-0 412.57 282.64)" x="412.56507" y="282.635325" font-family="DejaVu Sans" font-size="10px" text-anchor="middle">60</text>
<text transform="rotate(-0 442.23 318.17)" x="442.227042" y="318.167792" font-family="DejaVu Sans" font-size="10px" text-anchor="middle">54</text>
<text transform="rotate(-0 471.89 389.23)" x="471.889014" y="389.232727" font-family="DejaVu Sans" font-size="10px" text-anchor="middle">42</text>
<text transform="rotate(-0 501.55 312.25)" x="501.550986" y="312.245714" font-family="DejaVu Sans" font-size="10px" text-anchor="middle">55</text>
<text transform="rotate(-0 531.21 276.71)" x="531.212958" y="276.713247" font-family="DejaVu Sans" font-size="10px" text-anchor="middle">61</text>
<text transform="rotate(-0 560.87 235.26)" x="560.87493" y="235.258701" font-family="DejaVu Sans" font-size="10px" text-anchor="middle">68</text>
<text transform="rotate(-0 590.54 205.65)" x="590.536901" y="205.648312" font-family="DejaVu Sans" font-size="10px" text-anchor="middle">73</text>
<text transform="rotate(-0 620.2 51.674)" x="620.198873" y="51.674286" font-family="DejaVu Sans" font-size="10px" text-anchor="middle">99</text>
<text transform="rotate(-0 649.86 276.71)" x="649.860845" y="276.713247" font-family="DejaVu Sans" font-size="10px" text-anchor="middle">61</text>
<text transform="rotate(-0 679.52 247.1)" x="679.522817" y="247.102857" font-family="DejaVu Sans" font-size="10px" text-anchor="middle">66</text>
<text transform="rotate(-0 709.18 253.02)" x="709.184789" y="253.024935" font-family="DejaVu Sans" font-size="10px" text-anchor="middle">65</text>
<text transform="rotate(-0 738.85 276.71)" x="738.846761" y="276.713247" font-family="DejaVu Sans" font-size="10px" text-anchor="middle">61</text>
<text transform="rotate(-0 768.51 288.56)" x="768.508732" y="288.557403" font-family="DejaVu Sans" font-size="10px" text-anchor="middle">59</text>
<text transform="rotate(-0 798.17 294.48)" x="798.170704" y="294.479481" font-family="DejaVu Sans" font-size="10px" text-anchor="middle">58</text>
<text transform="rotate(-0 827.83 229.34)" x="827.832676" y="229.336623" font-family="DejaVu Sans" font-size="10px" text-anchor="middle">69</text>
<text transform="rotate(-0 857.49 122.74)" x="857.494648" y="122.739221" font-family="DejaVu Sans" font-size="10px" text-anchor="middle">87</text>
<text transform="rotate(-0 887.16 560.97)" x="887.15662" y="560.972987" font-family="DejaVu Sans" font-size="10px" text-anchor="middle">13</text>
<text transform="rotate(-0 486.72 21.36)" x="486.72" y="21.36" font-family="DejaVu Sans" font-size="22px" text-anchor="middle">Статистика падений метеоритов по годам</text>
<defs>
<clipPath id="a">
<rect x="65.52" y="27.36" width="842.4" height="615.6"/>
</clipPath>
</defs>
</svg>
